<svg width="23" height="14" viewBox="0 0 23 14" fill="none" xmlns="http://www.w3.org/2000/svg">
<path d="M3.82187 8.88351e-05H0C0.181401 8.70371 4.53326 13.9343 12.163 13.9343H12.5954V8.95485C13.9414 9.12373 15.2075 9.68641 16.2348 10.5724C17.2621 11.4582 18.0049 12.6278 18.3699 13.9343H22.3312C21.9245 12.4303 21.2032 11.0296 20.215 9.8249C19.2268 8.6203 17.9941 7.63911 16.5985 6.94629C17.8484 6.18746 18.9283 5.17891 19.7708 3.98363C20.6131 2.78845 21.2 1.43229 21.4944 0H17.8957C17.1146 2.7618 14.7992 5.27245 12.5954 5.50956V0H8.99669V9.65229C6.76497 9.09432 3.94748 6.3884 3.82187 8.88351e-05Z" fill="white"/>
</svg>
