<svg width="93" height="28" viewBox="0 0 93 28" fill="none" xmlns="http://www.w3.org/2000/svg">
<g clip-path="url(#clip0_808_2903)">
<path d="M0 18.5404V9.26855H10.7418V18.5404H8.3459V11.5213H2.39592V18.5404H0Z" fill="#363636"/>
<path d="M13.0264 18.5404V9.26855H22.5718V11.359H15.3555V12.7876H21.8241V14.859H15.3555V16.4499H22.6736V18.5308L13.0264 18.5404Z" fill="#363636"/>
<path d="M24.3916 18.5404V9.26853H31.1402C31.7673 9.25093 32.3885 9.39444 32.9443 9.68535C33.4434 9.96119 33.8497 10.3786 34.1121 10.8849C34.3982 11.4605 34.5391 12.0973 34.5225 12.7399C34.5399 13.3795 34.3989 14.0134 34.1121 14.5854C33.8457 15.0925 33.4334 15.5082 32.9284 15.7785C32.3654 16.0686 31.7383 16.212 31.1052 16.1954H26.7875V18.5404H24.3916ZM30.7202 11.4926H26.7875V13.9713H30.7202C31.6217 13.9713 32.0725 13.5651 32.0725 12.7526C32.0725 11.9402 31.6217 11.5202 30.7202 11.4926Z" fill="#363636"/>
<path d="M61.2912 18.4834H58.313L62.1598 13.9047L58.4053 9.4502H61.4693L63.7603 12.2661L65.9684 9.4502H68.8957L65.1507 13.9047L69.0103 18.5025H65.9557L63.5821 15.572L61.2912 18.4834Z" fill="#363636"/>
<path d="M74.41 18.5404C73.3805 18.5679 72.3563 18.3849 71.4 18.0027C70.6279 17.6887 69.9705 17.1457 69.5163 16.4468C69.0949 15.6967 68.8735 14.8508 68.8735 13.9904C68.8735 13.13 69.0949 12.2841 69.5163 11.534C69.9699 10.8354 70.6276 10.2932 71.4 9.98132C73.343 9.26013 75.4802 9.26013 77.4232 9.98132C78.1947 10.2932 78.8514 10.8354 79.3036 11.534C79.7272 12.2834 79.9497 13.1296 79.9497 13.9904C79.9497 14.8512 79.7272 15.6974 79.3036 16.4468C78.8506 17.1454 78.1943 17.6885 77.4232 18.0027C76.4658 18.3849 75.4405 18.5679 74.41 18.5404ZM74.41 16.4086C75.5427 16.4086 76.3732 16.2103 76.9014 15.8136C77.1706 15.5989 77.3834 15.3218 77.5215 15.0064C77.6595 14.6909 77.7186 14.3466 77.6936 14.0031C77.719 13.6569 77.6602 13.3096 77.5223 12.991C77.3843 12.6724 77.1713 12.392 76.9014 12.1736C76.3732 11.7727 75.5427 11.5722 74.41 11.5722C73.2773 11.5722 72.45 11.7727 71.9282 12.1736C71.6563 12.3906 71.4414 12.6706 71.3022 12.9894C71.1631 13.3083 71.1038 13.6562 71.1295 14.0031C71.1042 14.3472 71.1638 14.6923 71.303 15.008C71.4423 15.3237 71.657 15.6003 71.9282 15.8136C72.4606 16.2124 73.2879 16.4107 74.41 16.4086Z" fill="#363636"/>
<path d="M80.5034 20.5517V16.1322H81.318C81.5322 15.9549 81.7113 15.7391 81.8461 15.4958C82.0094 15.1835 82.1263 14.8491 82.193 14.5031C82.2924 13.988 82.3604 13.4673 82.3966 12.944C82.4433 12.3076 82.4783 11.5292 82.5016 10.6085L82.5302 9.28809H91.4616V16.1322H92.6771V20.5645H90.4689V18.3372H82.7084V20.5645L80.5034 20.5517ZM84.258 15.1426C84.1442 15.4964 83.978 15.831 83.7648 16.1354H89.1739V11.4708H84.7193C84.7002 12.3193 84.6567 13.0299 84.5889 13.6026C84.5289 14.1203 84.4181 14.6308 84.258 15.1267V15.1426Z" fill="#363636"/>
<path d="M39.7058 13.9045L25.8045 27.8091H38.9135L46.2604 20.4591L53.6103 27.8091H66.7194L52.8181 13.9045L66.7194 0H53.6103L46.2604 7.35001L38.9104 0H25.8013L39.7058 13.9045Z" fill="#363636"/>
<path d="M43.8838 11.0981H50.7979V9.26855H41.6533V11.0981H43.8838Z" fill="#FFCD05"/>
<path d="M43.8838 16.7109H41.6533V18.5405H50.871V16.7109H43.8838Z" fill="#FFCD05"/>
<path d="M41.6533 12.9692V14.8401H44.0747H50.7979V12.9692H44.0747H41.6533Z" fill="#FFCD05"/>
</g>
<defs>
<clipPath id="clip0_808_2903">
<rect width="93" height="28" fill="white"/>
</clipPath>
</defs>
</svg>
