<svg width="109" height="24" viewBox="0 0 109 24" fill="none" xmlns="http://www.w3.org/2000/svg">
<path d="M17.6699 12.3999C17.6699 18.7655 22.8383 23.9383 29.1995 23.9383C34.7345 23.9383 39.3728 20.0509 40.4595 14.8781H45.279L45.2348 18.4165C45.1906 21.3762 46.2066 23.9869 50.0498 23.9869L50.094 14.8825H51.7726C54.7323 14.8825 57.3386 13.999 57.3386 10.1514H50.094L50.1382 6.43635C50.1823 3.47666 49.1222 0.865951 45.279 0.865951V10.147H40.5125C39.5275 4.84166 34.8317 0.821777 29.1995 0.821777C22.8383 0.821777 17.6699 5.99461 17.6699 12.4043V12.3999ZM36.0907 12.3999C36.0907 16.1592 33.0868 19.2072 29.2878 19.2072C25.533 19.2072 22.4408 16.1592 22.4408 12.3999C22.4408 8.59649 25.533 5.54845 29.2878 5.54845C33.0426 5.54845 36.0907 8.59649 36.0907 12.3999Z" fill="#E80029"/>
<path d="M82.3986 0.887695C81.4268 0.887695 80.3666 1.02022 79.2622 1.32944C82.1335 1.68284 87.6509 9.50614 89.683 12.4217C87.6509 15.3372 82.1335 23.2046 79.2622 23.558C80.3666 23.8673 81.4268 23.9998 82.3986 23.9998C85.4908 23.9998 87.8762 22.5862 89.948 19.8032L92.466 16.3134L94.9839 19.8032C96.9718 22.542 99.3572 23.9998 102.533 23.9998C103.549 23.9998 104.61 23.8673 105.714 23.558C102.843 23.2046 97.281 15.3372 95.2048 12.4217C97.281 9.50614 102.843 1.68284 105.714 1.32944C104.61 1.02022 103.549 0.887695 102.533 0.887695C99.4411 0.887695 97.0115 2.2571 95.0281 5.0401L92.466 8.52988L89.948 5.0401C87.916 2.34545 85.5747 0.887695 82.3986 0.887695Z" fill="#1D1D1B"/>
<path d="M58.6861 12.4219C58.6861 18.7875 63.5894 23.9559 70.2554 23.9559C74.4519 23.9559 78.0257 21.8797 80.2785 17.2369H75.1543C74.3592 18.783 72.4597 19.4457 70.4276 19.4457C66.7258 19.4457 64.0268 17.5992 63.4746 13.8311H80.8042C80.8484 13.4335 80.8926 12.8151 80.8926 12.4175C80.8926 6.00777 76.1659 0.839355 70.2509 0.839355C63.585 0.839355 58.6816 6.01219 58.6816 12.4175L58.6861 12.4219ZM76.1659 9.72726H63.6999C64.5348 6.9266 66.8583 5.04477 69.9903 5.04477C73.3917 5.04477 75.3089 6.94869 76.1659 9.72726Z" fill="#1D1D1B"/>
<path d="M0 0.00441839V23.3374H4.77084V14.5378L8.74655 19.7151C10.7786 22.3214 13.4732 23.9558 16.7377 23.9558C17.7537 23.9558 18.7697 23.8233 19.8741 23.5141C17.8288 23.302 14.635 19.799 8.71121 12.3821C14.3037 5.33186 17.7891 1.49752 19.8741 1.2413C18.8139 0.976257 17.7537 0.799559 16.7819 0.799559C13.9989 0.799559 11.3484 1.9481 9.09994 4.77526L4.77084 10.2396V5.5704C4.77084 2.61071 3.84318 0 0 0V0.00441839Z" fill="#1D1D1B"/>
<path d="M106.434 1.80231C106.434 1.22804 106.876 0.755371 107.463 0.755371C108.051 0.755371 108.497 1.22804 108.497 1.80231C108.497 2.34124 108.046 2.84482 107.463 2.84482C106.88 2.84482 106.434 2.37216 106.434 1.80231ZM108.267 1.80231C108.267 1.32964 107.91 0.962992 107.463 0.962992C107.017 0.962992 106.659 1.32964 106.659 1.80231C106.659 2.27497 107.013 2.63721 107.463 2.63721C107.914 2.63721 108.267 2.25289 108.267 1.80231ZM107.565 2.20871L107.375 1.89949H107.313V2.37658H107.075V1.22362H107.525C107.777 1.22362 107.892 1.38265 107.892 1.55935C107.892 1.71396 107.803 1.85532 107.618 1.89066L107.795 2.1557C107.839 2.22638 107.905 2.32357 107.958 2.37216C107.918 2.38099 107.857 2.38541 107.79 2.38541C107.702 2.38541 107.636 2.33682 107.556 2.20871H107.565ZM107.499 1.72279C107.622 1.72279 107.671 1.65211 107.671 1.56377C107.671 1.47542 107.622 1.40474 107.499 1.40474H107.304V1.72279H107.499Z" fill="#1D1D1B"/>
</svg>
