<svg width="145" height="32" viewBox="0 0 145 32" fill="none" xmlns="http://www.w3.org/2000/svg">
<path d="M23.5596 16.533C23.5596 25.0204 30.4508 31.9175 38.9323 31.9175C46.3124 31.9175 52.4968 26.7343 53.9457 19.8372H60.3716L60.3127 24.5551C60.2538 28.5013 61.6085 31.9823 66.7328 31.9823L66.7917 19.8431H69.0298C72.9761 19.8431 76.4512 18.6651 76.4512 13.535H66.7917L66.8506 8.58156C66.9095 4.63531 65.4959 1.15436 60.3716 1.15436V13.5291H54.0164C52.703 6.4553 46.442 1.09546 38.9323 1.09546C30.4508 1.09546 23.5596 7.99257 23.5596 16.5389V16.533ZM48.1206 16.533C48.1206 21.5453 44.1154 25.6094 39.0501 25.6094C34.0436 25.6094 29.9207 21.5453 29.9207 16.533C29.9207 11.4617 34.0436 7.39769 39.0501 7.39769C44.0565 7.39769 48.1206 11.4617 48.1206 16.533Z" fill="white"/>
<path d="M109.865 1.18384C108.569 1.18384 107.156 1.36054 105.683 1.77283C109.512 2.24403 116.868 12.6751 119.577 16.5624C116.868 20.4498 109.512 30.9398 105.683 31.411C107.156 31.8233 108.569 32 109.865 32C113.988 32 117.168 30.1152 119.931 26.4045L123.288 21.7515L126.645 26.4045C129.296 30.0563 132.476 32 136.711 32C138.066 32 139.48 31.8233 140.952 31.411C137.124 30.9398 129.708 20.4498 126.94 16.5624C129.708 12.6751 137.124 2.24403 140.952 1.77283C139.48 1.36054 138.066 1.18384 136.711 1.18384C132.588 1.18384 129.349 3.00972 126.704 6.72037L123.288 11.3734L119.931 6.72037C117.221 3.12751 114.1 1.18384 109.865 1.18384Z" fill="#1D1D1B"/>
<path d="M78.2476 16.5625C78.2476 25.0499 84.7854 31.9412 93.6733 31.9412C99.2688 31.9412 104.034 29.1729 107.038 22.9826H100.205C99.1451 25.044 96.6124 25.9275 93.903 25.9275C88.9673 25.9275 85.3685 23.4655 84.6323 18.4414H107.738C107.797 17.9113 107.856 17.0867 107.856 16.5567C107.856 8.01036 101.554 1.11914 93.6674 1.11914C84.7795 1.11914 78.2417 8.01625 78.2417 16.5567L78.2476 16.5625ZM101.554 12.9697H84.9327C86.0459 9.23547 89.144 6.72636 93.3199 6.72636C97.8552 6.72636 100.411 9.26492 101.554 12.9697Z" fill="#1D1D1B"/>
<path d="M0 0.00589119V31.1165H6.36113V19.3838L11.6621 26.2868C14.3714 29.7618 17.9643 31.9411 22.317 31.9411C23.6716 31.9411 25.0263 31.7644 26.4988 31.3521C23.7718 31.0694 19.5133 26.3987 11.6149 16.5095C19.0716 7.10915 23.7188 1.99669 26.4988 1.65507C25.0852 1.30168 23.6716 1.06608 22.3759 1.06608C18.6652 1.06608 15.1312 2.59746 12.1333 6.36702L6.36113 13.6529V7.4272C6.36113 3.48095 5.12424 0 0 0V0.00589119Z" fill="#1D1D1B"/>
<path d="M141.912 2.403C141.912 1.6373 142.501 1.00708 143.284 1.00708C144.068 1.00708 144.663 1.6373 144.663 2.403C144.663 3.12157 144.062 3.79302 143.284 3.79302C142.507 3.79302 141.912 3.1628 141.912 2.403ZM144.356 2.403C144.356 1.77277 143.879 1.28391 143.284 1.28391C142.69 1.28391 142.213 1.77277 142.213 2.403C142.213 3.03322 142.684 3.51619 143.284 3.51619C143.885 3.51619 144.356 3.00377 144.356 2.403ZM143.42 2.94487L143.167 2.53257H143.084V3.16869H142.766V1.63141H143.367C143.703 1.63141 143.856 1.84345 143.856 2.07905C143.856 2.2852 143.738 2.47367 143.491 2.52079L143.726 2.87419C143.785 2.96843 143.873 3.09801 143.944 3.1628C143.891 3.17457 143.809 3.18047 143.72 3.18047C143.603 3.18047 143.514 3.11568 143.408 2.94487H143.42ZM143.332 2.29698C143.497 2.29698 143.561 2.20274 143.561 2.08494C143.561 1.96714 143.497 1.8729 143.332 1.8729H143.072V2.29698H143.332Z" fill="#1D1D1B"/>
</svg>
