<svg width="439" height="61" viewBox="0 0 439 61" fill="none" xmlns="http://www.w3.org/2000/svg">
<path d="M0.310059 1.46094H11.86V19.2009L23.91 1.46094H37.94L17.5601 22.2509L54.7701 1.46094V14.6609L21.36 27.2009L54.7701 24.0709V36.6109L21.36 33.4809L54.7701 46.0209V59.2209L17.5601 38.4309L37.94 59.2209H23.9001L11.8501 41.4809V59.2209H0.300049V1.46094H0.310059Z" fill="white"/>
<path d="M63.01 1.46094H76.62L74.56 38.8309L91.47 1.46094H102.61V59.2109H89L91.06 21.8409L74.15 59.2109H63.01V1.46094Z" fill="white"/>
<path d="M110.86 1.46094H124.47V23.7409H136.02V1.46094H149.63V59.2109H136.02V32.8109H124.47V59.2109H110.86V1.46094Z" fill="white"/>
<path d="M155.9 30.3308C155.9 13.8308 163.49 0.300781 178.75 0.300781C194.01 0.300781 201.6 13.8308 201.6 30.3308C201.6 46.8308 194.01 60.3608 178.75 60.3608C163.49 60.3708 155.9 46.8408 155.9 30.3308ZM178.75 51.7908C184.11 51.7908 187.25 42.3008 187.25 30.3408C187.25 18.3808 184.11 8.89079 178.75 8.89079C173.39 8.89079 170.25 18.3808 170.25 30.3408C170.26 42.3008 173.39 51.7908 178.75 51.7908Z" fill="white"/>
<path d="M207.87 1.46094H247.06V59.2109H233.45V10.5309H221.49V59.2109H207.88V1.46094H207.87Z" fill="white"/>
<path d="M253.33 30.3308C253.33 13.8308 260.92 0.300781 276.18 0.300781C291.44 0.300781 299.03 13.8308 299.03 30.3308C299.03 46.8308 291.44 60.3608 276.18 60.3608C260.92 60.3608 253.33 46.8408 253.33 30.3308ZM276.19 51.7908C281.55 51.7908 284.69 42.3008 284.69 30.3408C284.69 18.3808 281.55 8.89079 276.19 8.89079C270.83 8.89079 267.69 18.3808 267.69 30.3408C267.69 42.3008 270.82 51.7908 276.19 51.7908Z" fill="white"/>
<path d="M305.31 1.46094H318.92L316.86 38.8309L333.77 1.46094H344.91V59.2109H331.3L333.36 21.8409L316.45 59.2109H305.31V1.46094Z" fill="white"/>
<path d="M381.12 38.8308L394.07 40.8108L393.66 42.7908C391.43 53.5208 384.67 60.3608 373.53 60.3608C358.27 60.3608 351.17 46.8308 351.17 30.3308C351.17 13.8308 358.27 0.300781 373.53 0.300781C384.26 0.300781 391.1 7.15078 393.5 17.2108L393.91 18.9408L380.63 21.9108C379.64 13.9108 377.25 8.87079 373.53 8.87079C368.17 8.87079 365.53 18.3608 365.53 30.3208C365.53 42.2808 368.17 51.7708 373.53 51.7708C377.58 51.7908 380.13 46.4208 381.12 38.8308Z" fill="white"/>
<path d="M399.68 1.46094H413.29V27.4509L424.43 1.46094H438.46L422.37 29.4309L438.87 59.2109H423.61L413.3 33.2209V59.2109H399.69V1.46094H399.68Z" fill="white"/>
</svg>
