<svg xmlns="http://www.w3.org/2000/svg"><defs><font id="KotexCyrillic-Light" horiz-adv-x="589"><font-face font-family="Kotex Cyrillic" font-weight="400" ascent="800" descent="-200" x-height="500" cap-height="671" bbox="-430.071 -191 2454 898" underline-thickness="50" underline-position="-100" unicode-range="U+000D-FB04"/><glyph glyph-name="f_f" unicode="ff" horiz-adv-x="634" d="M112 444H16q0 29 14.5 40.5T70 496h41l1 66q1 64 39 94 36 28 97 28 37 0 54-7.5t17-25.5v-31q-17 7-33.5 9t-33.5 2q-19 0-34-3.5T193 614q-11-9-15.5-25t-4.5-48v-45h119q0-29-14.5-40.5T237 444h-64V0h-61v444zm297 0h-76q0 29 14.5 40.5T387 496h21l1 66q1 64 39 94 36 28 97 28 37 0 54-7.5t17-25.5v-31q-17 7-33.5 9t-33.5 2q-19 0-34-3.5T490 615q-11-10-15.5-26t-4.5-48v-45h147q0-29-14.5-40.5T562 444h-92V0h-61v444z"/><glyph glyph-name="fi" unicode="fi" horiz-adv-x="509" d="M112 444H16q0 29 14.5 40.5T70 496h41l1 69q1 32 10.5 54t28.5 37q36 28 92 28 32 0 45-7.5t13-25.5v-26q-13 3-26 4.5t-23 1.5q-19 0-34-2.5T193 617q-11-10-15.5-25.5T173 544v-48h129q0-29-14.5-40.5T247 444h-74V0h-61v444zm296 152q-17 0-28.5 12T368 637t11.5 29.5T408 679t29-12.5 12-29.5-12-29-29-12zm-27-96q19 1 32-6t21-18q6-9 7-18.5t1-22.5V0h-61v500z"/><glyph glyph-name="fl" unicode="fl" horiz-adv-x="513" d="M380 684q19 1 32-6t21-18q6-9 7-18.5t1-22.5V0h-61v684zM112 444H16q0 29 14.5 40.5T70 496h41l1 69q1 32 10.5 54t28.5 37q36 28 92 28 32 0 45-7.5t13-25.5v-26q-13 3-26 4.5t-23 1.5q-19 0-34-2.5T193 617q-11-10-15.5-25.5T173 544v-48h129q0-29-14.5-40.5T247 444h-74V0h-61v444z"/><glyph glyph-name="f_f_i" unicode="ffi" horiz-adv-x="786" d="M112 444H16q0 29 14.5 40.5T70 496h41l1 66q1 64 39 94 36 28 97 28 37 0 54-7.5t17-25.5v-31q-17 7-33.5 9t-33.5 2q-19 0-34-3.5T193 614q-11-9-15.5-25t-4.5-48v-45h109q0-29-14.5-40.5T227 444h-54V0h-61v444zm277 0h-76q0 29 14.5 40.5T367 496h21l1 69q1 32 10.5 54t28.5 37q36 28 92 28 32 0 45-7.5t13-25.5v-26q-13 3-26 4.5t-23 1.5q-19 0-34-2.5T470 617q-11-9-15.5-25t-4.5-48v-48h129q0-29-14.5-40.5T524 444h-74V0h-61v444zm296 152q-17 0-28.5 12T645 637t11.5 29.5T685 679t29-12.5 12-29.5-12-29-29-12zm-27-96q19 1 32-6t21-18q6-9 7-18.5t1-22.5V0h-61v500z"/><glyph glyph-name="f_f_l" unicode="ffl" horiz-adv-x="792" d="M659 684q19 1 32-6t21-18q6-9 7-18.5t1-22.5V0h-61v684zM112 444H16q0 29 14.5 40.5T70 496h41l1 66q1 64 39 94 36 28 97 28 37 0 54-7.5t17-25.5v-31q-17 7-33.5 9t-33.5 2q-19 0-34-3.5T193 614q-11-9-15.5-25t-4.5-48v-45h109q0-29-14.5-40.5T227 444h-54V0h-61v444zm277 0h-76q0 29 14.5 40.5T367 496h21l1 69q1 32 10.5 54t28.5 37q36 28 92 28 32 0 45-7.5t13-25.5v-26q-13 3-26 4.5t-23 1.5q-19 0-34-2.5T470 617q-11-9-15.5-25t-4.5-48v-48h129q0-29-14.5-40.5T524 444h-74V0h-61v444z"/><glyph glyph-name="t_t" unicode="tt" horiz-adv-x="617" d="M186-3q-19-1-32 6t-21 18q-6 9-7 18.5T125 62v382H16q0 29 15 40.5T75 496h50v133q19 1 32-6t21-18q6-9 7-18.5t1-22.5v-68h98q0-29-14.5-40.5T226 444h-40V-3zm285 0q-19-1-32 6t-21 18q-6 9-7 18.5T410 62v382h-85q0 29 15 40.5t44 11.5h26v133q19 1 32-6t21-18q6-9 7-18.5t1-22.5v-68h138q0-29-14.5-40.5T551 444h-80V-3z"/><glyph glyph-name="f_t" unicode="ft" horiz-adv-x="615" d="M112 444H16q0 29 14.5 40.5T70 496h41l1 66q1 64 39 94 36 28 97 28 37 0 54-7.5t17-25.5v-31q-17 7-33.5 9t-33.5 2q-19 0-34-3.5T193 614q-11-9-15.5-25t-4.5-48v-45h109q0-29-14.5-40.5T227 444h-54V0h-61v444zM469-3q-19-1-32 6t-21 18q-6 9-7 18.5T408 62v382h-85q0 29 15 40.5t44 11.5h26v133q19 1 32-6t21-18q6-9 7-18.5t1-22.5v-68h138q0-29-14.5-40.5T549 444h-80V-3z"/><glyph glyph-name=".notdef" horiz-adv-x="419" d="M344-168H78v838h266v-838zM141 614v-28h54v-31h-55v-27h139v27h-55v31h55v28H141zm-1-108v-87h139v28h-55v59h-84zm55-59h-27v30h27v-30zm-55-51v-28h55v-31h-55v-27h84v58h55v28H140zm111-50v-56H140v-28h139v84h-28zm-56-103v-46h29v19h27v-40h-83v67h-28v-94h139v94h-84zM140 98V4h139v94H140zm111-67h-83v40h83V31zM140-15v-28h59l-59-40v-27h139v27h-85l58 40h27v28H140z"/><glyph glyph-name="NULL" horiz-adv-x="0"/><glyph glyph-name="NULL" horiz-adv-x="0"/><glyph glyph-name="nonmarkingreturn" horiz-adv-x="217"/><glyph glyph-name="space" horiz-adv-x="217"/><glyph glyph-name="exclam" unicode="!" horiz-adv-x="259" d="M98 670h63l-5-476h-56zM129-5Q112-5 99.5 7.5T87 37t12.5 30.5T129 81q18 0 30.5-13.5T172 37 159.5 7.5 129-5z"/><glyph glyph-name="quotedbl" unicode="&quot;" horiz-adv-x="343" d="M78 670h66l-13-219H92zm121 0h66l-13-219h-39z"/><glyph glyph-name="numbersign" unicode="#" horiz-adv-x="637" d="M176 199H78q0 29 15 41t44 12h46l21 164H104q0 30 15 42t44 12h47l18 139q4 29 16 41t45 10l-24-190h139l18 139q4 29 15.5 41t45.5 10l-24-190h100q0-30-14.5-42T501 416h-49l-20-164h102q0-29-15-41t-44-12h-50L400 0h-55l25 199H231L206 0h-55zm201 53 21 164H258l-20-164h139z"/><glyph glyph-name="dollar" unicode="$" horiz-adv-x="559" d="M249 4q-85 11-131 64.5T64 215h66q0-27 8-52t23.5-45.5T199 82t50-21v265q-44 19-74.5 38T125 403.5t-27.5 44T89 501q0 33 12 61t33 49 50.5 34.5T249 663v52q0 26 11.5 42.5T307 778V662q73-9 114.5-56.5T470 472h-60q-4 57-30 92.5T307 608V368q40-18 74.5-35.5t60-39.5 39.5-50 14-65q0-38-14-69.5t-39-54-59.5-36T308 3v-57q0-26-12-43t-47-21V4zm0 604q-44-7-72-33.5T149 507q0-42 27.5-67.5T249 393v215zm59-552q59 1 91.5 32.5T432 165q0 47-28.5 77.5T308 302V56z"/><glyph glyph-name="percent" unicode="%" horiz-adv-x="690" d="M174 343q-32 0-60 12.5T65.5 390t-32 52T22 507t12 65 32.5 51.5 48 34T174 670t59.5-12.5 48-34 32-51.5 11.5-65-12-65-32-52-47.5-34.5T174 343zm360 293q6 8 13 14t17.5 10.5 27 7T633 670L148 35q-6-8-13-14.5t-17.5-11-26.5-7T50 0zM174 397q41 0 67 31t26 79-26 79-67 31-67.5-31T80 507t26.5-79 67.5-31zM517 0q-32 0-60 12.5T408.5 47t-32 52-11.5 65 12 65 32.5 51.5 48 34T517 327t59.5-12.5 48-34 32-51.5 11.5-65-12-65-32-52-47.5-34.5T517 0zm0 54q41 0 67 31t26 79-26 79-67 31-67.5-31-26.5-79 26.5-79T517 54z"/><glyph glyph-name="ampersand" unicode="&amp;" horiz-adv-x="609" d="M268-15q-49 0-89.5 12.5t-70 35.5T63 90t-16 76q0 33 10.5 59.5t29 50.5 44 46 54.5 45q-17 20-33 41t-29 43.5-21 46-8 48.5q0 31 10.5 58t30.5 47 49.5 32 67.5 12q63 0 105-36.5T399 554q0-30-11-56t-29.5-49.5-42-45T268 361q59-67 105-120t96-102q31 50 31 101 0 62-42 124h67q34-59 34-123 0-39-12.5-75T511 98q23-22 49.5-44T617 9q-10-4-17-6t-13-3-11.5-1H563q-44 0-95 54-38-32-90.5-50T268-15zm-36 422q23 18 42.5 34.5t33.5 34 21.5 37.5 7.5 46q0 35-20.5 61T251 646q-42 0-68.5-26T156 560q0-43 21.5-78.5T232 407zm40-366q39 0 82 12.5T428 92q-25 25-53.5 56T318 210.5t-53.5 61T221 324q-23-19-43-36.5T143.5 251t-23-40.5T112 163q0-31 13-54t35.5-38 51-22.5T272 41z"/><glyph glyph-name="quotesingle" unicode="'" horiz-adv-x="222" d="M78 670h66l-13-219H92z"/><glyph glyph-name="parenleft" unicode="(" horiz-adv-x="314" d="M218-94q-34 43-61 95t-46 107.5-29 112T72 330t10 109.5 29 112 46 107 61 95.5h57q-70-103-106.5-208T132 333q0-107 36.5-214T275-94h-57z"/><glyph glyph-name="parenright" unicode=")" horiz-adv-x="312" d="M37-94Q107 9 143.5 114T180 327q0 107-36.5 214T37 754h57q34-44 61-95.5t46-107 29-112T240 330t-10-109.5-29-112T155 1 94-94H37z"/><glyph glyph-name="asterisk" unicode="*" horiz-adv-x="417" d="m92 440 89 93-125 22 19 65 117-54-17 126h67l-17-126 117 54 19-65-125-22 89-93-56-39-60 113-61-113z"/><glyph glyph-name="plus" unicode="+" horiz-adv-x="649" d="M299 250H78q0 30 15.5 42t44.5 12h161v210q30 0 42-15t12-45V304h218q0-30-15-42t-45-12H353V45h-54v205z"/><glyph glyph-name="comma" unicode="," horiz-adv-x="177" d="M27-126q18 16 35.5 41.5T80-30q0 17-5 26.5t-11 16-11 13T48 43q0 17 12 29t29 12q20 0 33-14.5T135 26q0-30-8.5-57t-21-49.5-27-40.5T52-150z"/><glyph glyph-name="hyphen" unicode="-" horiz-adv-x="462" d="M78 300q0 30 15.5 42t44.5 12h246q0-30-15-42t-45-12H78z"/><glyph glyph-name="period" unicode="." horiz-adv-x="177" d="M88-5Q71-5 58.5 7.5T46 37t12.5 30.5T88 81q18 0 30.5-13.5T131 37 118.5 7.5 88-5z"/><glyph glyph-name="slash" unicode="/" horiz-adv-x="420" d="M348 747q9 23 23.5 33t43.5 2L78-97q-9-25-24-34t-47-1z"/><glyph glyph-name="zero" unicode="0" horiz-adv-x="603" d="M302-15q-60 0-107 27.5t-80 75-50.5 111T47 334t17.5 135.5T115 581t80 75.5T302 684q59 0 106-27.5t80-75.5 50.5-111.5T556 334t-17.5-135.5-50.5-111-80-75T302-15zm0 57q44 0 80 22t60.5 61 38 92.5T493 334q0 63-13.5 116.5t-38 93T382 605t-80 22-80-22-59.5-61.5-37.5-93T112 334q-1-63 12-116.5t38-92.5 60.5-61T302 42z"/><glyph glyph-name="one" unicode="1" horiz-adv-x="318" d="M154 600 24 557q-11 23-5.5 40.5T46 623l105 36q18 6 33 8.5t32-.5V0h-62v600z"/><glyph glyph-name="two" unicode="2" horiz-adv-x="523" d="M47 51q49 46 118 110.5T304 301q25 27 42.5 49.5t29 44 17 44T398 488q0 68-39 104.5T259 629q-37 0-66.5-13t-49-37-27.5-58.5-2-77.5H53q-7 54 5 98.5T97 618t68 49.5 92 17.5 89.5-16.5T411 625t39-62.5 13-72.5q0-39-9.5-70.5t-25-58-35.5-50-41-46.5q-17-18-36.5-38t-39-39.5l-38-38L205 117q-23-22-38-35.5T138 55v-1q24 1 52.5 1.5t62.5.5l207 1V1H47v50z"/><glyph glyph-name="three" unicode="3" horiz-adv-x="544" d="M259-16q-97 0-156 53T32 188h65q13-80 55-113t107-33q39 0 68.5 13t50 35 31 51 10.5 61q0 66-38 107.5T262 351q-23 0-47-3l-10 46 161 190q7 8 13 14.5t14 14.5v2q-17-1-30.5-1H69q0 30 14 43t43 13h355q0-11-2-25t-13-28L288 406q56-5 94-24.5t61-48 33-63 10-68.5q0-38-15-76.5t-43.5-70-71-51.5T259-16z"/><glyph glyph-name="four" unicode="4" horiz-adv-x="561" d="M374 175H29l1 46 344 459q19 0 34-6t22-20q7-15 7-41V230h109q0-30-15-42.5T487 175h-50V0h-63v175zm-274 52q11 1 22 1.5t22 .5l231 1v292q0 9 .5 20.5t1 24.5 1.5 24.5 2 20.5h-1q-7-17-15-29.5T342 550L139 274q-8-11-18-22.5T100 229v-2z"/><glyph glyph-name="five" unicode="5" horiz-adv-x="538" d="M266-16q-97 0-156 53.5T39 189h65q13-80 55-113t107-33q39 0 68.5 13t50 35 31 51 10.5 61q0 75-43 117.5T259 363q-44 0-79.5-12T107 319l-37 41 40 311h357q0-29-15-42t-44-13H161l-29-224q30 14 64.5 21t65.5 7q62 0 105.5-19.5t71.5-50 40.5-69T492 205q0-40-14.5-79.5t-43-71-71-51T266-16z"/><glyph glyph-name="six" unicode="6" horiz-adv-x="540" d="M277-15q-56 0-99.5 19.5t-73.5 52-45.5 75T43 221v15q0 59 22 123.5T121.5 483t77 106.5T283 661q18 11 33 14.5t32 2.5q12-1 27-3.5t26-6.5q-40-17-79-44.5T251 561q-42-46-73-95.5T136 379l-1-1q32 27 71.5 38.5T281 428q49 0 90.5-16.5T442 366t45.5-69.5T504 208q0-43-15.5-83T444 54 373 4t-96-19zm-2 57q37 0 67.5 12.5t52 34.5 33 52.5T439 207q0 33-10 62.5t-31 52-52 36-73 13.5q-41 0-72-12t-51.5-33.5-30.5-50-10-61.5q0-35 12-66.5t34-55 52.5-37T275 42z"/><glyph glyph-name="seven" unicode="7" horiz-adv-x="510" d="M358 544q10 20 20 37.5t23 36.5l-1 2q-24-2-42.5-2.5T315 617l-287-1q0 31 14.5 43T86 671h384q5-12 4.5-23T463 618L149 0H80z"/><glyph glyph-name="eight" unicode="8" horiz-adv-x="554" d="M277-17q-50 0-92.5 13.5t-73 38T64 94t-17 79q0 66 32 111.5t86 65.5v2q-40 18-67.5 56T70 504q0 40 15.5 73t43.5 57 65.5 37.5T277 685t83-13.5 65.5-37.5 43-57 15.5-73q0-58-27.5-96.5T387 351v-2q54-20 87-65t33-111q0-44-17-79t-47.5-59.5-73-38T277-17zm0 389q34 0 61 10.5t46 28 29 41 10 50.5q0 54-36 91.5T276 631q-74 0-109.5-37.5T131 502q0-26 10-49.5t29-41.5 46-28.5 61-10.5zm0-332q39 0 70.5 10.5t53 28.5 33.5 43 12 55q0 28-12 53.5T400.5 275t-53 30.5T277 317t-70.5-11-53-30.5-33.5-45-12-53.5q0-30 12-55t33.5-43 53-28.5T277 40z"/><glyph glyph-name="nine" unicode="9" horiz-adv-x="540" d="M263 684q56 0 99.5-19.5t73.5-52 45.5-75.5 15.5-89v-15q0-59-22-123.5T418.5 186t-77-106.5T257 8Q239-3 224-6.5T192-9q-12 1-27 3.5T139 1q40 17 79 44.5t71 62.5q42 46 73 95.5t42 86.5l1 1q-32-27-71.5-38.5T259 241q-50 0-91 16.5T98 303t-45.5 69.5T36 461q0 43 15.5 83T96 615t71 50 96 19zm2-57q-37 0-67.5-12.5t-52-34.5-33-52.5T101 462q0-33 10-63t31-52.5 52-35.5 73-13q41 0 72 12t51.5 33.5 30.5 50 10 61.5q0 35-12 66.5t-34 55-52.5 37T265 627z"/><glyph glyph-name="colon" unicode=":" horiz-adv-x="177" d="M88 371q-17 0-29.5 12.5T46 413t12.5 30.5T88 457q18 0 30.5-13.5T131 413t-12.5-29.5T88 371zM88-5Q71-5 58.5 7.5T46 37t12.5 30.5T88 81q18 0 30.5-13.5T131 37 118.5 7.5 88-5z"/><glyph glyph-name="semicolon" unicode=";" horiz-adv-x="177" d="M90 371q-18 0-30 12.5T48 413t12 30.5T90 457t30.5-13.5T133 413t-12.5-29.5T90 371zM27-91q18 16 33 36.5T75-21q0 9-4 16T61.5 9 52 24t-4 19q0 17 12 29t29 12q20 0 33-14t13-40q0-20-8.5-41t-21-40.5-27-36T52-115z"/><glyph glyph-name="less" unicode="&lt;" horiz-adv-x="668" d="M83 244q-9 25-2 40t36 29l433 214q7-31 1-44.5T519 456L153 273 525 86q25-13 31.5-28t-.5-46z"/><glyph glyph-name="equal" unicode="=" horiz-adv-x="680" d="M108 331q0 30 15.5 42t44.5 12h404q0-30-15-42t-45-12H108zm0-165q0 30 15.5 42t44.5 12h404q0-30-15-42t-45-12H108z"/><glyph glyph-name="greater" unicode="&gt;" horiz-adv-x="668" d="M585 299q9-25 2-40t-36-29L118 16q-7 31-1 44.5T149 87l366 183-372 187q-25 13-31.5 28t.5 46z"/><glyph glyph-name="question" unicode="?" horiz-adv-x="456" d="M140 335h14q99 0 151.5 37T357 489q-1 61-36.5 100T222 628q-56 0-95-33.5T86 491H24q1 45 15.5 80.5t41 61 62 39T221 685q47 0 84.5-15.5T369 627t39.5-63.5T422 485q0-86-58.5-140.5T201 283v-89h-61v141zM171-5q-18 0-30.5 12.5T128 37t12.5 30.5T171 81q17 0 29.5-13.5T213 37 200.5 7.5 171-5z"/><glyph glyph-name="at" unicode="@" horiz-adv-x="804" d="M425-14q-78 0-146 25.5t-117.5 71-78 110T55 335q0 73 28.5 137t78 111T278 656.5 422 683q73 0 134.5-22t106-62.5T732 502t25-122q0-47-12-86t-33-67-50-43.5-63-15.5q-44 0-68 21.5T502 239q-23-35-54-55t-77-20q-25 0-48 11t-40 30.5-27.5 46T245 310q0 43 15 80t39 64 55 42.5 63 15.5q26 0 53-11.5t44-38.5q4 21 16 34t44 10l-25-179q-3-23-3-43t6-35 18-24 32-9q23 0 42 12t32.5 33 20.5 49.5 7 61.5q0 57-19.5 104.5T628 559t-90 54.5T418 633t-123.5-24-97-65-63.5-95.5T111 332q0-67 24-121.5t67.5-93T306 58t132-21q62 0 110.5 20.5T635 117q13-29-1.5-53.5t-46-41.5-75-26.5T425-14zm-42 229q25 0 46.5 12.5t37 33 24.5 47 9 53.5q0 51-23 76.5T416 463q-22 0-42.5-12T337 419t-26-47-10-57q0-45 22-72.5t60-27.5z"/><glyph glyph-name="A" unicode="A" d="M249 670q25 2 47-5t33-34L587 0h-72l-67 168H131L70 0H2zm177-446L306 528q-7 18-12 32.5T283 593l-2 1q-5-19-9.5-34T261 528L152 224h274z"/><glyph glyph-name="B" unicode="B" horiz-adv-x="559" d="M83 670h202q37 0 70-11.5t58-32.5 39-51.5 14-69.5q0-105-78-145v-2q62-17 95-62.5T516 187q0-39-12.5-73T465 54.5t-65-40T308 0H83v670zm187-297q65 0 98 35.5t33 88.5-31 85-98 32H147V373h123zm25-317q81 0 117 34t36 98q0 28-9.5 52t-27 41.5T370 309t-53 10H147V56h148z"/><glyph glyph-name="C" unicode="C" horiz-adv-x="751" d="M388-19q-72 0-134.5 27t-108 74.5-72 112T47 334t26.5 139 72 111 108 74T388 685q59 0 111.5-18.5t93.5-52 69-80T701 433h-66q-10 43-32 78.5t-54 61-73 39.5-87 14q-58 0-108-22t-87.5-61.5-59-93T112 333q1-63 22.5-116.5t59-93 88-61.5T390 40q48 0 89 14.5T552.5 95t54.5 63 31 81h65q-10-57-38-104t-70-81.5T500.5 0 388-19z"/><glyph glyph-name="D" unicode="D" horiz-adv-x="677" d="m83 670 184 1q50 0 88.5-5.5T425 649t56-27.5 48-37.5q48-45 75-109t26-140q-1-75-27-139T529 87q-23-21-48-37.5T425 22 355 5.5 267 0H83v670zM280 57q40 0 69.5 4.5t52.5 13T444 96t37 30q39 38 61 92t21 118q-1 63-23 117t-61 92q-18 17-37.5 30T399 596.5t-52.5 13T280 614H147V56z"/><glyph glyph-name="E" unicode="E" horiz-adv-x="475" d="M83 670h357q0-31-15-43.5T381 614H147V368h259q0-31-15-43.5T347 312H147V56h283V0H83v670z"/><glyph glyph-name="F" unicode="F" horiz-adv-x="465" d="M83 670h357q0-31-15-43.5T381 614H147V361h259q0-31-15-43.5T347 305H147V0H83v670z"/><glyph glyph-name="G" unicode="G" horiz-adv-x="756" d="M394-19q-72 0-135 27T148.5 82.5 74 194 47 333t28 139.5T150 584t110 74 134 27q52 0 99-14.5t86-40.5 68-63 45-82h-68q-14 32-37.5 58.5T533 589t-65.5 29.5T394 629q-57 0-108.5-23t-90-63-61-94T111 333q1-62 24-116t62-94 90-63 108-23q54 0 100 19.5t79.5 54T628 192t22 101H414q0 30 14.5 42t43.5 12l240 1q7-79-15-146.5T631.5 85 527 8.5 394-19z"/><glyph glyph-name="H" unicode="H" horiz-adv-x="683" d="M83 671q20 1 33.5-6.5T138 646q7-10 8-20t1-23V361h389v242q0 13 1 23t8 20q8 11 21.5 18.5T600 671V0h-64v305H147V0H83v671z"/><glyph glyph-name="I" unicode="I" horiz-adv-x="230" d="M83 671q20 1 33.5-6.5T138 646q7-10 8-20t1-23V0H83v671z"/><glyph glyph-name="J" unicode="J" horiz-adv-x="430" d="M190-8Q112-8 68 40.5T22 172l61-1q2-57 29.5-90.5T194 47q45 0 71 26.5t26 76.5v453q0 13 1 23t8 20q8 11 21.5 18.5T355 671V152q0-38-12.5-67.5t-34-50-52-31.5T190-8z"/><glyph glyph-name="K" unicode="K" horiz-adv-x="551" d="M492-8q-23 0-44 12t-41 34L147 323V0H83v671q20 1 33.5-6.5T138 646q7-10 8-20t1-23V341l255 285q20 22 40.5 34t44.5 12q11 0 25-1.5t24-6.5q-17-6-38.5-26T459 599L217 332 472 64q17-19 38.5-38.5T549 0q-10-5-26-6.5T492-8z"/><glyph glyph-name="L" unicode="L" horiz-adv-x="455" d="M83 671q20 1 33.5-6.5T138 646q7-10 8-20t1-23V56h283V0H83v671z"/><glyph glyph-name="M" unicode="M" horiz-adv-x="888" d="M184 670q32 2 53.5-6t33.5-44l175-520h2l175 515q7 21 15.5 32.5t19 16.5 24 6 30.5 0L836 0h-65l-93 512q-3 18-4.5 40.5T671 594h-2q-4-19-9-42t-12-40L470 0h-52L245 510q-6 18-11 40t-9 41h-2q-1-20-3-41t-5-39L117 0H52z"/><glyph glyph-name="N" unicode="N" horiz-adv-x="682" d="M83 670q14 1 27 0t25.5-6 24.5-15.5 25-28.5l317-461q9-14 18-30t18-36q-1 18-1.5 41t-.5 41v428q0 13 1 23t8 20q8 11 21.5 18.5T599 671V0h-61L180 523q-11 15-19.5 30T143 584q2-19 2.5-37.5t.5-36.5V0H83v670z"/><glyph glyph-name="O" unicode="O" horiz-adv-x="776" d="M388-19q-71 0-133.5 27T146 82.5 73.5 194 47 333t26.5 139.5T146 584t108.5 74T388 685t133.5-27T630 584t72.5-111.5T729 333t-26.5-139T630 82.5 521.5 8 388-19zm0 58q57 0 107 22.5t87 62 58.5 93T662 333t-21.5 116.5-58.5 93-87 62T388 627t-107-22.5-87-62-59-93T112 333q1-63 23-116.5t59-93 87-62T388 39z"/><glyph glyph-name="P" unicode="P" horiz-adv-x="561" d="m83 670 236 1q32 0 56-3t43-9.5 35-16.5 31-24q23-22 39.5-60t16.5-87q0-48-16.5-86T484 325q-15-14-31-24.5t-35-17-43-9.5-56-3H147V0H83v670zm229-343q44 0 73 7t52 30q18 18 27.5 45.5T475 471q-1 34-10.5 61.5T437 578q-23 23-52 30t-73 7H147V327h165z"/><glyph glyph-name="Q" unicode="Q" horiz-adv-x="776" d="M541 17Q506 0 468-9.5T388-19q-71 0-133.5 27T146 82.5 73.5 194 47 333t26.5 139.5T146 584t108.5 74T388 685t133.5-27T630 584t72.5-111.5T729 333q0-88-36-160.5T596 52l82-111h-80zM388 39q32 0 61.5 7T505 66L363 258q26 8 52 6.5t42-22.5l103-140q47 40 74.5 99.5T662 333q0 63-21.5 116.5t-58.5 93-87 62T388 627t-107-22.5-87-62-59-93T112 333q1-63 23-116.5t59-93 87-62T388 39z"/><glyph glyph-name="R" unicode="R" horiz-adv-x="561" d="M524-7q-24 0-44.5 12.5T440 41L235 294h-88V0H83v670l208 1q32 0 56-3t43-9 35-15.5 31-22.5q23-20 39.5-56t16.5-82-16.5-82-39.5-56q-14-12-28-21.5T397.5 308t-37-9.5T313 294L504 67q16-19 37-39.5T579 0q-10-4-27.5-5.5T524-7zM284 348q44 0 73 6.5t52 28.5q18 17 28.5 42.5T447 483t-10.5 57-27.5 42q-23 21-52 28t-73 7H147V348h137z"/><glyph glyph-name="S" unicode="S" horiz-adv-x="557" d="M290-15q-109 0-169 57.5T52 209h72q0-33 11.5-63T168 93t51-36.5T287 43q32 0 59.5 8.5T394 76t31 37 11 47q0 27-8 47t-26 37.5-46.5 32.5-69.5 32q-58 23-97.5 44.5t-64 44.5T89 448t-11 61q0 37 14.5 68.5T133 632t62 36 78 13q93 0 145-51t60-151h-65q-5 67-38 106t-96 39q-28 0-52.5-8T184 593.5 155.5 559 145 514q0-28 11.5-48t32-36 49-29 62.5-28q44-19 81.5-37.5t65-41 43-51.5 15.5-68q0-43-16.5-78T443 37 375-1.5 290-15z"/><glyph glyph-name="T" unicode="T" horiz-adv-x="535" d="M228 614 9 615q0 30 15 43t44 13l458-1q0-32-14.5-44T468 614H292V0h-64v614z"/><glyph glyph-name="U" unicode="U" horiz-adv-x="646" d="M324-19q-54 0-100 17t-80 47.5-53.5 73T71 213v458q20 1 33.5-6.5T126 646q7-10 8-20t1-23V220q0-41 14-74t39.5-56 60-36T324 41t75.5 12.5T459 89t39 56.5 14 74.5v383q0 13 1 23t8 20q8 11 21.5 18.5T575 671V213q0-52-19.5-95t-53-73.5-79.5-47T324-19z"/><glyph glyph-name="V" unicode="V" horiz-adv-x="577" d="M-13 670q5 1 11.5 1.5t11.5.5q30 0 45.5-18T85 603l186-457q8-18 13-33.5T296 76h2q6 21 10.5 36.5T320 147l172 463q12 32 27 47t38 15q16 0 33-5-13-14-23.5-36T549 591L327 0h-58z"/><glyph glyph-name="W" unicode="W" horiz-adv-x="875" d="M29 584q-7 21-15.5 43.5T-3 670q5 1 13 1h13q27 0 40.5-18T87 602l139-455q5-16 8.5-31.5T242 81h2q3 18 6 34t8 32l141 524q5 1 10 1h10q29 0 42.5-14.5T483 609l136-462q5-16 8.5-31.5T635 81h2q3 19 5.5 35t7.5 31l135 463q17 62 62 62 8 0 15.5-1t15.5-4q-14-14-22-34.5T841 592L666 0h-63L446 530q-4 13-7.5 28t-6.5 30h-2q-2-16-5-31t-7-29L274 0h-63z"/><glyph glyph-name="X" unicode="X" horiz-adv-x="548" d="M40-7Q29-7 16.5-5.5T-6 0q9 3 18 11.5t17.5 19 16.5 22T61 74l171 267L66 590q-15 23-33 45t-35 28q9 4 24 5.5t25 1.5q23 0 42-15.5t35-39.5l143-218 134 218q16 26 34 40.5t44 14.5q10 0 22.5-1.5T523 663q-17-6-35.5-29T455 590L302 347 488 74q7-10 15-21.5t16.5-22 17.5-19T554 0q-10-4-24-5.5T505-7q-26 0-43.5 16T428 49L267 292 115 48Q100 24 83 8.5T40-7z"/><glyph glyph-name="Y" unicode="Y" horiz-adv-x="555" d="M252 272 57 589q-14 23-33.5 45.5T-13 663q10 4 24 5.5t24 1.5q23 0 42-16.5t33-39.5l175-288 164 288q15 27 32 41.5t43 14.5q11 0 23-1.5t21-5.5q-8-3-17.5-11T532 633.5 514.5 611 500 589L316 273V0h-64v272z"/><glyph glyph-name="Z" unicode="Z" horiz-adv-x="529" d="M35 0q0 30 22 63l316 501q11 17 19.5 29t16.5 23q-24-2-45-2H53q0 56 59 56h382q0-26-17-54L157 107q-10-15-19.5-28.5T120 54q26 2 46 2.5t40 .5l281-1V0H35z"/><glyph glyph-name="bracketleft" unicode="[" horiz-adv-x="297" d="M92 755h167v-49H150V-45h109v-48H92v848z"/><glyph glyph-name="backslash" unicode="\" horiz-adv-x="420" d="M418-132q-32-8-47 1t-24 34L10 782q29 8 43.5-2T77 747l341-879z"/><glyph glyph-name="bracketright" unicode="]" horiz-adv-x="297" d="M38-45h109v751H38v48h167V-94H38v49z"/><glyph glyph-name="asciicircum" unicode="^" horiz-adv-x="502" d="M251 609 100 322H32l193 352q26 2 42.5-5t30.5-32l172-316h-66z"/><glyph glyph-name="underscore" unicode="_" horiz-adv-x="515" d="M-6-68h527v-58H-6v58z"/><glyph glyph-name="a" unicode="a" horiz-adv-x="588" d="M279-12q-50-1-93.5 19T110 62.5t-50 84T42 252q0 56 18.5 104t51 83.5 75.5 56 93 20.5q57 0 102-23.5t75-65.5h1v8q0 13 1 22.5t7 18.5q8 11 21 18t32 6V0h-61v79h-1q-25-37-73-63.5T279-12zm-1 57q37 0 69.5 14t57 40.5 39 65T458 252t-14 88-38 65-56.5 40-69.5 14-68.5-15-55-42-36.5-65-13-85 13-85 36-65 54-42 68-15z"/><glyph glyph-name="b" unicode="b" horiz-adv-x="591" d="M308-12q-56 0-99.5 22.5T134 74h-1V0H72v684q19 1 32-6t21-18q6-9 7-18.5t1-22.5V422h1q25 37 70.5 65T309 516q51 1 95-19t76-55.5 50.5-84T549 252q0-56-19-104t-51.5-83.5-76.5-56T308-12zm0 57q38 0 70 15t55.5 42 37 65 13.5 85q0 46-13 84.5T435 402t-55 42-69 15q-38 0-70.5-14T184 404.5t-37.5-65T133 252q0-50 13.5-88.5T183 99t55-40 70-14z"/><glyph glyph-name="c" unicode="c" horiz-adv-x="571" d="M296-15q-57 0-103.5 21t-80 57.5-52 85T42 251t18.5 102.5 52 84.5 80 57T296 516q44 0 84-14.5t71.5-40 52-59.5 25.5-74h-62q-15 64-59.5 97.5T298 459q-39 0-73.5-15t-60-43-40.5-66.5-15-85.5 15-85 41-65 61-42 74-15q64 1 108 34.5t59 96.5h62q-5-40-25.5-74t-52-59.5T380-.5 296-15z"/><glyph glyph-name="d" unicode="d" horiz-adv-x="596" d="M282-12q-51-1-95 19t-76 55.5-50.5 84T42 252q0 56 19 104t51.5 83.5 76.5 56 94 20.5q59 0 104-23t75-66h1v192q0 13 1 22.5t7 18.5q8 11 21 18t32 6V0h-61v79h-1q-25-37-73-63.5T282-12zm-1 57q37 0 70.5 14t58 40.5 39 65T463 252t-14 88-38.5 65-57.5 40-70 14q-38 0-70-15t-55.5-42-37-65-13.5-85 13-85 36.5-65 55-42T281 45z"/><glyph glyph-name="e" unicode="e" horiz-adv-x="569" d="M294-15q-56 0-102.5 21T112 63.5t-51.5 85T42 251t18.5 102.5T112 438t79.5 57T294 516q51 0 94-17.5t74-49.5 48-76.5 17-98.5v-16.5l-1-17.5H109q1-45 17-81.5T168 96t60-40 72-14q66 0 107 34.5t55 91.5h62q-6-40-26.5-73.5t-52-58-70.5-38T294-15zm167 309q-7 76-50 121t-115 45q-34 0-64.5-12T177 414.5 136 362t-23-68h348z"/><glyph glyph-name="f" unicode="f" horiz-adv-x="337" d="M112 444H16q0 29 14.5 40.5T70 496h41l1 66q1 64 39 94 36 28 97 28 37 0 54-7.5t17-25.5v-31q-17 7-33.5 9t-33.5 2q-19 0-34-3.5T193 614q-11-9-15.5-25t-4.5-48v-45h147q0-29-14.5-40.5T265 444h-92V0h-61v444z"/><glyph glyph-name="g" unicode="g" horiz-adv-x="583" d="M281-183q-106 0-165 49T46-2h69q9-60 48-92.5T282-127q37 0 68.5 11T405-82q26 26 37 57t11 77v74h-1q-25-35-70.5-60T279 40q-50 0-93.5 18T110 108t-50 75.5T42 278q0 50 18.5 93.5t51 75.5 75.5 50.5 93 18.5q57 0 99.5-22.5T452 430h1v5q0 13 1 22.5t7 18.5q8 11 21 18t32 6V48q0-55-17.5-98T448-122.5t-74-45-93-15.5zm-3 279q37 0 69 12.5t55.5 35.5 37 57 13.5 77-13.5 77-36.5 57.5-54.5 35.5-68.5 12-68.5-13-55-37-36.5-57.5-13-74.5 13-74.5 36-57.5 54-37 68-13z"/><glyph glyph-name="h" unicode="h" horiz-adv-x="535" d="M72 684q19 1 32-6t21-18q6-9 7-18.5t1-22.5V430l1-1q30 42 70.5 63.5T305 514q43 0 74.5-11.5T431 472q24-23 33-51t9-72V0h-61v350q0 32-7.5 51.5T380 435q-29 23-86 23-44 0-82.5-22.5T153 377q-20-37-20-102V0H72v684z"/><glyph glyph-name="i" unicode="i" horiz-adv-x="197" d="M96 596q-17 0-28.5 12T56 637t11.5 29.5T96 679t29-12.5 12-29.5-12-29-29-12zm-27-96q19 1 32-6t21-18q6-9 7-18.5t1-22.5V0H69v500z"/><glyph glyph-name="j" unicode="j" horiz-adv-x="202" d="M100 596q-17 0-28.5 12T60 637t11.5 29.5T100 679q18 0 30-12.5t12-29.5-12-29-30-12zM-2-172q-38 0-55 9t-17 31v23q18-6 34.5-7.5T-9-118q43 0 62 16.5T72-47v547q19 1 32-6t21-18q6-9 7-18.5t1-22.5V-51q0-62-41-94-19-15-42.5-21T-2-172z"/><glyph glyph-name="k" unicode="k" horiz-adv-x="443" d="M412-8q-23 0-42.5 12T330 37L133 255V0H72v684q19 1 32-6t21-18q6-9 7-18.5t1-22.5V275l151 188q37 45 81 45 13 0 26-1.5t22-6.5q-16-5-36.5-24.5T339 436L200 271 392 63q17-19 37-38.5T466 0q-10-5-25-6.5T412-8z"/><glyph glyph-name="l" unicode="l" horiz-adv-x="205" d="M72 684q19 1 32-6t21-18q6-9 7-18.5t1-22.5V0H72v684z"/><glyph glyph-name="m" unicode="m" horiz-adv-x="852" d="M69 500q19 1 32-6t21-18q6-9 7-18.5t1-22.5v-5l1-1q30 42 70 63.5t97 21.5q40 0 70-11.5t50-30.5q23-22 32-49l1-1q32 45 75 68.5T628 514q40 0 70-11.5t50-30.5q24-23 33-51t9-72V0h-61v350q0 32-7 52t-24 34q-15 12-35.5 17t-45.5 5q-44 0-80.5-22.5T480 377q-20-37-20-102V0h-61v350q0 32-7 52t-24 34q-15 12-35.5 17t-45.5 5q-44 0-80.5-22.5T150 377q-20-37-20-102V0H69v500z"/><glyph glyph-name="n" unicode="n" horiz-adv-x="532" d="M69 500q19 1 32-6t21-18q6-9 7-18.5t1-22.5v-5l1-1q30 42 70.5 63.5T302 514q43 0 74.5-11.5T428 472q24-23 33-51t9-72V0h-61v350q0 32-7.5 51.5T377 435q-29 23-86 23-44 0-83-22.5T150 377q-20-37-20-102V0H69v500z"/><glyph glyph-name="o" unicode="o" d="M295-15q-54 0-100 20.5t-80 56-53.5 84T42 250t19.5 104.5 53.5 84 80 55.5 100 20 100-20 79.5-55.5 53-84T547 250t-19.5-104.5-53-84-79.5-56T295-15zm0 57q40 0 74 16t59 43.5 39 65.5 14 83-14 82.5-39 65.5-59 43.5-74 15.5-74-15.5-59-43.5-39.5-65.5T107 250q1-45 15.5-83t39.5-65.5T221 58t74-16z"/><glyph glyph-name="p" unicode="p" horiz-adv-x="593" d="M69 500q19 1 32-6t21-18q6-9 7-18.5t1-22.5v-10h1q25 37 73 63.5T311 516q51 1 95-19t76-55.5 50.5-84T551 252q0-56-19-104t-51.5-83.5-76.5-56T310-12q-56 0-102 22.5T131 74h-1v-242H69v668zM310 45q38 0 70 15t55.5 42 37 65 13.5 85q0 46-13 84.5T437 402t-55 42-69 15q-38 0-71-14t-58-40.5-39.5-65T130 252q0-50 14-88.5T182.5 99t57-40T310 45z"/><glyph glyph-name="q" unicode="q" horiz-adv-x="593" d="M463 81h-1q-25-37-73-64.5T282-12q-51-1-95 19t-76 55.5-50.5 84T42 252q0 56 19 104t51.5 83.5 76.5 56 94 20.5q59 0 104-23.5t75-65.5h1v8q0 13 1 22.5t7 18.5q8 11 21 18t32 6v-668h-61V81zM281 45q37 0 70.5 14t58 40.5 39 65T463 252t-14 88-38.5 65-57.5 40-70 14q-38 0-70-15t-55.5-42-37-65-13.5-85 13-85 36.5-65 55-42T281 45z"/><glyph glyph-name="r" unicode="r" horiz-adv-x="331" d="M69 500q19 1 32-6t21-18q6-9 7-18.5t1-22.5v-15l1-1q24 42 60.5 68.5T273 514q27 0 36.5-7.5T319 480v-32q-13 4-25 4.5t-23 .5q-29 0-57-14t-47-36q-19-21-28-46.5t-9-63.5V0H69v500z"/><glyph glyph-name="s" unicode="s" horiz-adv-x="470" d="M235-15q-83 0-134.5 43.5T44 150h62q5-52 39-81.5T237 39t91 23 34 63q0 22-8 36.5T332 187q-18 13-47 22.5T223 229q-45 14-78 27t-54 33q-32 30-32 83 0 31 13 57.5t35.5 45.5 54 29.5T231 515q75 0 121.5-39T404 366h-61q-5 46-34 71.5T230 463q-53 0-80.5-24T122 380q1-17 6-30t18-24q17-14 44.5-22t65.5-20q34-11 62.5-19.5T371 239q23-16 39-42t16-64q0-34-15-61t-40.5-46.5-60-30T235-15z"/><glyph glyph-name="t" unicode="t" horiz-adv-x="332" d="M186-3q-19-1-32 6t-21 18q-6 9-7 18.5T125 62v382H16q0 29 15 40.5T75 496h50v133q19 1 32-6t21-18q6-9 7-18.5t1-22.5v-68h138q0-29-14.5-40.5T266 444h-80V-3z"/><glyph glyph-name="u" unicode="u" horiz-adv-x="532" d="M230-14q-43 0-74.5 11.5T104 28Q80 51 71 79t-9 72v349q19 1 32-6t21-18q6-9 7-18.5t1-22.5V150q0-32 7.5-51.5T155 65q29-23 86-23 44 0 82.5 22.5T382 123q20 37 20 102v210q0 13 1 22.5t7 18.5q8 11 21 18t32 6V0h-61v70l-1 1q-30-42-70.5-63.5T230-14z"/><glyph glyph-name="v" unicode="v" horiz-adv-x="482" d="M41 426q-8 19-16 35.5T5 499q6 2 13.5 2.5t12.5.5q30 0 45.5-18t28.5-51l102-263q9-23 17.5-47T241 75h2l16 48 17 47 108 274q13 32 28 46.5t37 14.5q7 0 15-1t16-4q-14-13-23.5-34T439 425L268 0h-57z"/><glyph glyph-name="w" unicode="w" horiz-adv-x="723" d="M40 427q-6 19-13 35.5T10 500q5 2 13 2.5t13 .5q30 0 44-18t25-51l76-244q8-23 15.5-48T210 93h2q5 24 12 49t14 48l90 310q6 2 14.5 2.5t13.5.5q30 0 43.5-18t22.5-51l71-244q7-23 14-48t12-49h2q6 24 13 49t15 48l82 254q11 32 24 46.5t35 14.5q7 0 15-1t16-4q-12-13-20-34t-15-41L547 0h-57L365 419h-3L237 0h-57z"/><glyph glyph-name="x" unicode="x" horiz-adv-x="508" d="M57-10q-10 0-23 1.5T11-2q9 4 18 12t18 18 17 21.5T80 71l140 190-120 168q-16 22-34 43t-35 28q9 5 24.5 6.5T81 508q23 0 39-15.5t33-39.5l102-143 101 143q18 26 32.5 40.5T427 508q11 0 24-1.5t22-6.5q-8-4-17.5-12T437 470t-17.5-21-15.5-21L289 264 431 73q7-9 15.5-20t18-21.5 19-19T502 0q-10-5-25-6t-25-1q-24 0-40.5 15.5T377 49L254 215 131 46Q113 21 98 5.5T57-10z"/><glyph glyph-name="y" unicode="y" horiz-adv-x="471" d="M98-168q17 5 30 25.5T152-96l50 118L41 427q-8 19-16 35.5T5 500q6 2 13.5 2.5t12.5.5q30 0 45.5-18t28.5-51l96-250q9-23 17.5-47T235 89h2q8 24 16.5 48t17.5 47l102 260q13 32 28 46.5t37 14.5q7 0 15-1t16-4q-14-13-23.5-34T428 425L210-115q-17-43-44.5-56.5T98-168z"/><glyph glyph-name="z" unicode="z" horiz-adv-x="444" d="M31 0q-2 10 .5 20T45 45l248 354q12 17 19.5 27.5T328 448H45q0 29 15 40.5t44 11.5h311q3-25-14-51L142 83q-10-16-23-31h293V0H31z"/><glyph glyph-name="braceleft" unicode="{" horiz-adv-x="315" d="M206-93q-38 0-64.5 25T115-1v246q0 31-18 51t-42 26v22q24 6 42 26t18 50v242q0 42 26.5 67.5T206 755h71v-49h-67q-37 0-37-43V426q0-34-12-56.5T127 333q22-13 34-36t12-58V-2q0-43 37-43h67v-48h-71z"/><glyph glyph-name="bar" unicode="|" horiz-adv-x="245" d="M98 734q0 26 9.5 39t38.5 17l1-870q0-26-10-39t-39-17v870z"/><glyph glyph-name="braceright" unicode="}" horiz-adv-x="315" d="M38-45h68q36 0 36 43v237q0 35 12 57t34 36q-22 13-34 36t-12 58v241q0 43-36 43H38v48h71q38 0 64.5-25t26.5-67V416q0-31 18-51t42-26v-21q-24-7-42-27t-18-50V-1q0-42-26.5-67.5T109-94H38v49z"/><glyph glyph-name="uni0402" unicode="Ђ" horiz-adv-x="739" d="M494-9q-40 0-59.5 9T415 31v28q34-9 67-9 34 0 61.5 13T590 98.5t29.5 51.5 10.5 62-11 63.5-32 54-51 37.5-68 14-70-12.5-55.5-35.5-37-55.5T292 205V0h-64v614L9 615q0 30 15 43t44 13l458-1q0-32-14.5-44T468 614H292V360l1-1q29 35 74 58t107 23q53 0 94.5-20t70-52.5 43.5-74 15-85.5q0-41-13.5-80t-40-69.5-64-49T494-9z"/><glyph glyph-name="uni0403" unicode="Ѓ" horiz-adv-x="472" d="M190 728q-18 40 15 54l182 81q14-27 6.5-49.5T357 781l-167-56v3zM83 670h387q0-32-14.5-44T412 614l-265-1V1L83 0v670z"/><glyph glyph-name="quotesinglbase" unicode="‚" horiz-adv-x="177" d="M27-126q18 16 35.5 41.5T80-30q0 17-5 26.5t-11 16-11 13T48 43q0 17 12 29t29 12q20 0 33-14.5T135 26q0-30-8.5-57t-21-49.5-27-40.5T52-150z"/><glyph glyph-name="uni0453" unicode="ѓ" horiz-adv-x="412" d="M145 563q-18 40 15 54l182 81q14-27 6.5-49.5T312 616l-167-56v3zm-76-63h343q0-31-14-43t-42-12l-226 1V0H69v500z"/><glyph glyph-name="quotedblbase" unicode="„" horiz-adv-x="292" d="M27-126q18 16 35.5 41.5T80-30q0 17-5 26.5t-11 16-11 13T48 43q0 17 12 29t29 12q20 0 33-14.5T135 26q0-30-8.5-57t-21-49.5-27-40.5T52-150zm115 0q18 16 35.5 41.5T195-30q0 17-5 26.5t-11 16-11 13-5 17.5q0 17 12 29t29 12q20 0 33-14.5T250 26q0-30-8.5-57t-21-49.5-27-40.5-26.5-29z"/><glyph glyph-name="ellipsis" unicode="…" horiz-adv-x="1219" d="M236-5q-17 0-29.5 12.5T194 37t12.5 30.5T236 81q18 0 30.5-13.5T279 37 266.5 7.5 236-5zm373 0q-17 0-29.5 12.5T567 37t12.5 30.5T609 81q18 0 30.5-13.5T652 37 639.5 7.5 609-5zm373 0q-17 0-29.5 12.5T940 37t12.5 30.5T982 81q18 0 30.5-13.5T1025 37t-12.5-29.5T982-5z"/><glyph glyph-name="dagger" unicode="†" horiz-adv-x="453" d="M250-106q-31 0-45 22-8 13-8 35v379H92q0 26 13 36.5t39 10.5h53v293q35 0 46-21 5-8 6-16t1-19V377h111q0-26-12.5-36.5T310 330h-60v-436z"/><glyph glyph-name="daggerdbl" unicode="‡" horiz-adv-x="453" d="M250-106q-31 0-45 22-8 13-8 35v258H92q0 26 13 36.5t39 10.5h53v164H92q0 26 13 36.5t39 10.5h53v203q35 0 46-21 5-8 6-16t1-19V467h111q0-26-12.5-36.5T310 420h-60V256h111q0-26-12.5-36.5T310 209h-60v-315z"/><glyph glyph-name="Euro" unicode="€" horiz-adv-x="669" d="M374-19q-44 0-83.5 18t-72 50.5-56 78T127 227H21q0 30 15.5 42T81 281h38q-3 25-3 53v5H21q0 30 15.5 42T81 393h38q7 63 29.5 116.5T205 602t77 61 92 22q69 0 123-38t85-110l-48-35q-23 60-64.5 94T375 630q-37 0-69.5-17.5t-58-48.5-43-75-24.5-96h256q0-30-15-42t-45-12H176v-6q0-27 3-52h257q0-30-15-42t-45-12H189q10-43 28.5-78.5T260 88t53.5-38.5T375 36q53 0 93.5 33.5T532 160l55-19q-31-73-87-116.5T374-19z"/><glyph glyph-name="uni0409" unicode="Љ" horiz-adv-x="967" d="M66-7Q26-7 14 18q44 13 68.5 58.5t36 107.5T132 317.5t2 137.5l-1 216h417V383h171q107 0 164-49t57-143q0-96-57.5-144T721 0H485v615H197V365q0-75-6.5-148T155 76q-14-33-36.5-58T66-7zm648 63q39 0 70 6.5T836 85t31.5 42 9.5 64q-1 39-12 65.5t-31.5 42-50.5 22-69 6.5H550V56h164z"/><glyph glyph-name="guilsinglleft" unicode="‹" horiz-adv-x="327" d="M235 51q-16 0-31 6.5T175 81L30 250v5l144 168q14 17 29 23.5t31 6.5q10 0 19-1.5t18-3.5L104 252 272 56q-9-2-18-3.5T235 51z"/><glyph glyph-name="uni040A" unicode="Њ" horiz-adv-x="998" d="M83 671q20 1 33.5-6.5T138 646q7-10 8-20t1-23V361h369v242q0 13 1 23t8 20q8 11 21.5 18.5T580 671V383h172q107 0 164-49t57-143q0-96-57.5-144T752 0H516v305H147V0H83v671zM745 56q39 0 70 6.5T867 85t31.5 42 9.5 64q-1 39-12 65.5t-31.5 42-50.5 22-69 6.5H580V56h165z"/><glyph glyph-name="uni040C" unicode="Ќ" horiz-adv-x="551" d="M188 728q-18 40 15 54l182 81q14-27 6.5-49.5T355 781l-167-56v3zM492-8q-23 0-44 12t-41 34L147 323V0H83v671q20 1 33.5-6.5T138 646q7-10 8-20t1-23V341l255 285q20 22 40.5 34t44.5 12q11 0 25-1.5t24-6.5q-17-6-38.5-26T459 599L217 332 472 64q17-19 38.5-38.5T549 0q-10-5-26-6.5T492-8z"/><glyph glyph-name="uni040B" unicode="Ћ" horiz-adv-x="755" d="M228 614 9 615q0 30 15 43t44 13l458-1q0-32-14.5-44T468 614H292V360l1-1q29 35 78.5 58T483 440q43 0 77.5-9.5T620 401t38.5-51.5T672 275V0h-64v270q0 59-28 85t-97 26q-38 0-72.5-12.5T350 333t-42-55.5-16-72.5V0h-64v614z"/><glyph glyph-name="uni040F" unicode="Џ" horiz-adv-x="673" d="M367-126q-35-2-48 15.5T306-64V0H83v670q20 1 33.5-6.5T138 645q7-10 8-20t1-23V56h379v546q0 13 1 23t8 20q8 11 21.5 18.5T590 670V0H367v-126z"/><glyph glyph-name="uni0452" unicode="ђ" horiz-adv-x="562" d="M365-172q-38 0-55 9t-17 31v23q18-6 34.5-7.5T358-118q43 0 62 16.5T439-47v397q0 32-7.5 51.5T407 435q-29 23-86 23-44 0-82.5-22.5T180 377q-20-37-20-102V0H99v573H-4q0 29 14.5 41.5T53 627h46v57q19 1 32-6t21-18q5-8 6.5-15.5T160 627h167q0-29-14.5-41.5T270 573H160V430l1-1q30 42 70.5 63.5T332 514q43 0 74.5-11.5T458 472q24-23 33-51t9-72V-51q0-62-41-94-19-15-42.5-21t-51.5-6z"/><glyph glyph-name="quoteleft" unicode="‘" horiz-adv-x="175" d="M153 671q-18-16-35.5-41.5T100 575q0-17 5-26.5t11-16 11-13 5-17.5q0-17-12-29t-29-12q-20 0-33 14.5T45 519q0 30 8.5 57t21 49.5 27 40.5 26.5 29z"/><glyph glyph-name="quoteright" unicode="’" horiz-adv-x="175" d="M22 481q18 16 35.5 41.5T75 577q0 17-5 26.5t-11 16-11 13-5 17.5q0 17 12 29t29 12q20 0 33-14.5t13-43.5q0-30-8.5-57t-21-49.5-27-40.5T47 457z"/><glyph glyph-name="quotedblleft" unicode="“" horiz-adv-x="310" d="M153 671q-18-16-35.5-41.5T100 575q0-17 5-26.5t11-16 11-13 5-17.5q0-17-12-29t-29-12q-20 0-33 14.5T45 519q0 30 8.5 57t21 49.5 27 40.5 26.5 29zm135 0q-18-16-35.5-41.5T235 575q0-17 5-26.5t11-16 11-13 5-17.5q0-17-12-29t-29-12q-20 0-33 14.5T180 519q0 30 8.5 57t21 49.5 27 40.5 26.5 29z"/><glyph glyph-name="quotedblright" unicode="”" horiz-adv-x="310" d="M22 481q18 16 35.5 41.5T75 577q0 17-5 26.5t-11 16-11 13-5 17.5q0 17 12 29t29 12q20 0 33-14.5t13-43.5q0-30-8.5-57t-21-49.5-27-40.5T47 457zm135 0q18 16 35.5 41.5T210 577q0 17-5 26.5t-11 16-11 13-5 17.5q0 17 12 29t29 12q20 0 33-14.5t13-43.5q0-30-8.5-57t-21-49.5-27-40.5-26.5-29z"/><glyph glyph-name="bullet" unicode="•" horiz-adv-x="213" d="M106 272q-23 0-39.5 16.5T50 328t16.5 41 39.5 18q24 0 40.5-18t16.5-41-16.5-39.5T106 272z"/><glyph glyph-name="endash" unicode="–" horiz-adv-x="556" d="M78 306q0 27 13.5 37.5T131 354h347q0-26-13-37t-39-11H78z"/><glyph glyph-name="emdash" unicode="—" horiz-adv-x="928" d="M78 306q0 27 13.5 37.5T131 354h719q0-26-13-37t-39-11H78z"/><glyph glyph-name="trademark" unicode="™" horiz-adv-x="533" d="M251 670h1q14 0 27-2.5t18-19.5l60-184 60 182q5 19 18.5 21.5T463 670h1l49-266h-37l-35 205h-1l-70-205h-28l-67 202h-1l-39-202h-37zM83 638H1q-1 14 5.5 23t22.5 9h179q1-14-6-23t-21-9h-62V404H83v234z"/><glyph glyph-name="uni0459" unicode="љ" horiz-adv-x="802" d="M54-5Q22-5 11 17q33 11 51 44t26.5 79.5T98 243t1 112v145h327V302h182q81 0 122-39.5T771 152q0-72-41-112T608 0H364v447H161l-1-158q-1-70-7.5-135T119 41Q108 21 91.5 8T54-5zm543 58q54 0 82.5 22.5T707 151q-1 54-29.5 76.5T600 250H426V53h171z"/><glyph glyph-name="guilsinglright" unicode="›" horiz-adv-x="327" d="M92 453q16 0 31-6.5t29-23.5l145-169v-5L153 81q-14-17-29-23.5T93 51q-10 0-19 1.5T56 56l167 196L55 448q9 2 18 3.5t19 1.5z"/><glyph glyph-name="uni045A" unicode="њ" horiz-adv-x="831" d="M69 500q39 0 53-24 6-10 7-19.5t1-22.5V275h264v159q0 13 1.5 22.5T402 476q14 24 54 24V302h181q81 0 122-39.5T800 152q0-72-41-112T637 0H394v221H130V0H69v500zM626 53q54 0 82.5 22.5T736 151q-1 54-29.5 76.5T629 250H456V53h170z"/><glyph glyph-name="uni045C" unicode="ќ" horiz-adv-x="440" d="M150 563q-18 40 15 54l182 81q14-27 6.5-49.5T317 616l-167-56v3zM409-8q-23 0-42.5 12T327 37L130 235V0H69v500q19 1 32-6t21-18q6-9 7-18.5t1-22.5V255l168 207q18 23 37.5 34.5T378 508q13 0 26-1.5t22-6.5q-16-5-36-24.5T353 436L200 248 389 63q9-9 18.5-19t19-19 19-15.5T463 0q-10-5-25-6.5T409-8z"/><glyph glyph-name="uni045B" unicode="ћ" horiz-adv-x="562" d="M99 573H-4q0 29 14.5 41.5T53 627h46v57q19 1 32-6t21-18q5-8 6.5-15.5T160 627h167q0-29-14.5-41.5T270 573H160V430l1-1q30 42 70.5 63.5T332 514q43 0 74.5-11.5T458 472q24-23 33-51t9-72V0h-61v350q0 32-7.5 51.5T407 435q-29 23-86 23-44 0-82.5-22.5T180 377q-20-37-20-102V0H99v573z"/><glyph glyph-name="uni045F" unicode="џ" horiz-adv-x="535" d="M297-124q-34-2-46.5 14.5T238-64V0H69v500q19 1 32-6t21-18q6-9 7-18.5t1-22.5V54h275v381q0 13 1 22.5t7 18.5q8 11 21 18t32 6V0H297v-124z"/><glyph glyph-name="uni040E" unicode="Ў" horiz-adv-x="550" d="M276 727q-54 0-90.5 34T146 862q25 4 40-2.5t24-33.5q17-52 66-52t66 52q9 27 24 33.5t40 2.5q-3-67-39.5-101T276 727zM168-1Q154-1 145.5.5T130 4q14 14 27.5 36T180 80l63 120-256 470q5 1 15.5 1.5t15.5.5q29 0 46.5-18T99 603l134-253q11-21 22-43t22-43h2q18 42 40 86l133 260q17 32 33 47t38 15q9 0 21-1.5t19-3.5q-14-14-27.5-36T513 591L241 61q-17-32-33.5-47T168-1z"/><glyph glyph-name="uni045E" unicode="ў" horiz-adv-x="471" d="M247 562q-54 0-90.5 34T117 697q25 4 40-2.5t24-33.5q17-52 66-52t66 52q9 27 24 33.5t40 2.5q-3-67-39.5-101T247 562zM98-168q17 5 30 25.5T152-96l50 118L41 427q-8 19-16 35.5T5 500q6 2 13.5 2.5t12.5.5q30 0 45.5-18t28.5-51l96-250q9-23 17.5-47T235 89h2q8 24 16.5 48t17.5 47l102 260q13 32 28 46.5t37 14.5q7 0 15-1t16-4q-14-13-23.5-34T428 425L210-115q-17-43-44.5-56.5T98-168z"/><glyph glyph-name="uni0408" unicode="Ј" horiz-adv-x="430" d="M190-8Q112-8 68 40.5T22 172l61-1q2-57 29.5-90.5T194 47q45 0 71 26.5t26 76.5v453q0 13 1 23t8 20q8 11 21.5 18.5T355 671V152q0-38-12.5-67.5t-34-50-52-31.5T190-8z"/><glyph glyph-name="currency" unicode="¤" horiz-adv-x="620" d="m60 128 60 63q-23 30-36 67t-13 78 13 78 36 67l-60 63 40 39 61-62q30 25 68.5 39t80.5 14 80.5-14 68.5-39l61 62 40-39-60-63q23-30 36-67t13-78-13-78-36-67l60-63-40-39-61 62q-30-25-68.5-39T310 98t-80.5 14-68.5 39l-61-62zm250 25q38 0 71.5 14t58.5 39 39.5 58 14.5 72-14.5 72-39.5 58-58.5 39-71.5 14-71.5-14-58.5-39-39.5-58-14.5-72q0-37 14.5-70.5T180 207t58.5-39.5T310 153z"/><glyph glyph-name="uni0490" unicode="Ґ" horiz-adv-x="472" d="M83 670h326v64q0 29 13 46.5t48 15.5V614l-323-1V1L83 0v670z"/><glyph glyph-name="brokenbar" unicode="¦" horiz-adv-x="245" d="M98 734q0 26 9.5 39t38.5 17l1-337q0-26-10-39t-39-17v337zm0-532q0 26 9.5 39t38.5 17l1-336q0-26-10-39t-39-17v336z"/><glyph glyph-name="section" unicode="§" horiz-adv-x="564" d="M287-147q-92 0-141 48T86 40h58q2-30 12.5-55T185-59t43-29.5T285-99q54 0 87.5 28.5T406 1q0 22-6.5 38.5T378 70t-39 26.5-58 26.5q-46 19-78.5 35.5T149 194t-31 41.5-10 52.5q0 46 25.5 78.5T202 415q-45 26-65.5 55T116 546q0 29 11.5 54.5t33 44T212 674t67 11q77 0 120.5-42.5T449 517h-54q-4 56-34 88.5T279 638q-48 0-77.5-26T172 544q0-23 9.5-40t26.5-30 40.5-23.5T301 428q35-14 66-28.5t54.5-33 37-43T472 265q0-46-22-80t-60-54q34-20 54-48t20-70q0-36-13.5-65.5t-37-50.5-56-32.5T287-147zm48 306q36 10 57.5 35t21.5 59q0 22-6.5 38.5T386 322t-39 26.5-58 26.5l-25 11q-43-4-71.5-30T164 292q0-23 9.5-40t26.5-30 40.5-23.5T293 176z"/><glyph glyph-name="uni0401" unicode="Ё" horiz-adv-x="475" d="M201 763q-17 0-27.5 11T163 802t10.5 28.5T201 842t28-11.5 11-28.5-11-28-28-11zm127 0q-17 0-27.5 11T290 802t10.5 28.5T328 842t28-11.5 11-28.5-11-28-28-11zM83 670h357q0-31-15-43.5T381 614H147V368h259q0-31-15-43.5T347 312H147V56h283V0H83v670z"/><glyph glyph-name="copyright" unicode="©" horiz-adv-x="783" d="M391-15q-74 0-136.5 27.5t-109 75-72.5 111T47 334t26 135.5T145.5 581t109 75.5T391 684q73 0 136-27.5T636.5 581t73-111.5T736 334q0-68-26.5-131t-73-111.5T527 14 391-15zm0 51q59 0 112 24t92.5 64.5 63 95T682 334q0 63-22.5 117.5t-62 95T505 610t-114 23-114-23-92-63.5-61.5-95T101 334t22.5-117 61.5-94.5T277 59t114-23zm5 104q-43 0-78.5 15.5t-61 42.5-39.5 62.5-14 75.5q0 39 14 74.5t39.5 62.5 61 42.5T396 531q36 0 67.5-11.5T519 488t39-47.5 18-58.5h-57q-9 46-41.5 72.5T397 481q-29 0-53.5-11T301 439.5 273 393t-10-59 10.5-58.5T302 230t43-30 54-11q48 0 80.5 27t40.5 72h55q-3-32-18-59t-39-46.5-55.5-31T396 140z"/><glyph glyph-name="uni0404" unicode="Є" horiz-adv-x="747" d="M385-19q-72 0-134 27T144 82.5t-71 112T47 334t26 139 71 111 107 74 134 27q57 0 107.5-17t91.5-47.5 70-73.5 43-94h-67q-12 39-35.5 71t-55 54.5-70.5 35-83 12.5q-54 0-100.5-19T203 553.5t-59.5-82T114 368l349-1q0-30-15-43t-44-13l-291 1q4-59 26.5-109t59.5-86 85-56.5T387 40q45 0 84.5 13T543 89.5t55 56.5 35 73h66q-13-53-42.5-96.5t-70.5-75-92.5-49T385-19z"/><glyph glyph-name="guillemotleft" unicode="«" horiz-adv-x="546" d="M235 51q-16 0-31 6.5T175 81L30 250v5l144 168q14 17 29 23.5t31 6.5q10 0 19-1.5t18-3.5L104 252 272 56q-9-2-18-3.5T235 51zm219 0q-16 0-31 6.5T394 81L249 250v5l144 168q14 17 29 23.5t31 6.5q10 0 19-1.5t18-3.5L323 252 491 56q-9-2-18-3.5T454 51z"/><glyph glyph-name="registered" unicode="®" horiz-adv-x="783" d="M391-15q-74 0-136.5 27.5t-109 75-72.5 111T47 334t26 135.5T145.5 581t109 75.5T391 684q73 0 136-27.5T636.5 581t73-111.5T736 334q0-68-26.5-131t-73-111.5T527 14 391-15zm0 51q59 0 112 24t92.5 64.5 63 95T682 334q0 63-22.5 117.5t-62 95T505 610t-114 23-114-23-92-63.5-61.5-95T101 334t22.5-117 61.5-94.5T277 59t114-23zm129 101q-15 0-26.5 4.5t-21.5 14-20.5 24T428 215l-61 95-36 1V143h-55v382h139q31 0 54-9t38-24.5 22-35.5 7-42q0-46-26-74.5T435 303l47-71q44-67 76-90-25-5-38-5zM408 351q33 0 51.5 16t17.5 47q-2 63-69 63h-74V351h74z"/><glyph glyph-name="uni0407" unicode="Ї" horiz-adv-x="230" d="M43 763q-17 0-27.5 11T5 802t10.5 28.5T43 842t28-11.5T82 802t-11-28-28-11zm127 0q-17 0-27.5 11T132 802t10.5 28.5T170 842t28-11.5 11-28.5-11-28-28-11zm-87-92q20 1 33.5-6.5T138 646q7-10 8-20t1-23V0H83v671z"/><glyph glyph-name="degree" unicode="°" horiz-adv-x="369" d="M185 424q-27 0-52 10.5t-44 28-30.5 41T47 554t11.5 51T89 646.5t44 28 52 10.5 52-10.5 43.5-28 30-41.5 11.5-51-11.5-50.5-30-41-43.5-28-52-10.5zm0 48q35 0 59 24t24 58q0 35-24 59t-59 24q-18 0-33-6.5t-26.5-18-18-26.5-6.5-32 6.5-32 18-26 26.5-17.5 33-6.5z"/><glyph glyph-name="uni0406" unicode="І" horiz-adv-x="230" d="M83 671q20 1 33.5-6.5T138 646q7-10 8-20t1-23V0H83v671z"/><glyph glyph-name="uni0456" unicode="і" horiz-adv-x="197" d="M96 596q-17 0-28.5 12T56 637t11.5 29.5T96 679t29-12.5 12-29.5-12-29-29-12zm-27-96q19 1 32-6t21-18q6-9 7-18.5t1-22.5V0H69v500z"/><glyph glyph-name="uni0491" unicode="ґ" horiz-adv-x="412" d="M69 500h284v121q34 2 46.5-14.5T412 561V445l-282 1V0H69v500z"/><glyph glyph-name="paragraph" unicode="¶" horiz-adv-x="429" d="M293 617h-65V311q-48 1-83 16.5T87 368t-34.5 57T41 491q0 35 11.5 67.5t35.5 57 61 39.5 87 15h186v-53h-68V0h-61v617z"/><glyph glyph-name="periodcentered" unicode="·" horiz-adv-x="462" d="M230 284q-17 0-29.5 12.5T188 326t12.5 30.5T230 370q18 0 30.5-13.5T273 326t-12.5-29.5T230 284z"/><glyph glyph-name="uni0451" unicode="ё" horiz-adv-x="569" d="M226 598q-17 0-27.5 11T188 637t10.5 28.5T226 677t28-11.5 11-28.5-11-28-28-11zm127 0q-17 0-27.5 11T315 637t10.5 28.5T353 677t28-11.5 11-28.5-11-28-28-11zM294-15q-56 0-102.5 21T112 63.5t-51.5 85T42 251t18.5 102.5T112 438t79.5 57T294 516q51 0 94-17.5t74-49.5 48-76.5 17-98.5v-16.5l-1-17.5H109q1-45 17-81.5T168 96t60-40 72-14q66 0 107 34.5t55 91.5h62q-6-40-26.5-73.5t-52-58-70.5-38T294-15zm167 309q-7 76-50 121t-115 45q-34 0-64.5-12T177 414.5 136 362t-23-68h348z"/><glyph glyph-name="uni0454" unicode="є" horiz-adv-x="569" d="M296-15q-57 0-103.5 21t-80 57.5-52 85T42 251t18.5 102.5 52 84.5 80 57T296 516q43 0 82-13.5t70-37.5 52-56.5 27-70.5h-63q-17 59-60 90t-106 31q-36 0-67.5-12.5t-56-35-41-55T111 285l221-1q0-29-14.5-41.5T275 230H110q3-42 19-76.5T170.5 94 229 55.5 300 42q62 1 104.5 32t59.5 89h63q-6-38-27-70.5T448 36 378-1.5 296-15z"/><glyph glyph-name="guillemotright" unicode="»" horiz-adv-x="546" d="M92 453q16 0 31-6.5t29-23.5l145-169v-5L153 81q-14-17-29-23.5T93 51q-10 0-19 1.5T56 56l167 196L55 448q9 2 18 3.5t19 1.5zm219 0q16 0 31-6.5t29-23.5l145-169v-5L372 81q-14-17-29-23.5T312 51q-10 0-19 1.5T275 56l167 196-168 196q9 2 18 3.5t19 1.5z"/><glyph glyph-name="uni0458" unicode="ј" horiz-adv-x="202" d="M100 596q-17 0-28.5 12T60 637t11.5 29.5T100 679q18 0 30-12.5t12-29.5-12-29-30-12zM-2-172q-38 0-55 9t-17 31v23q18-6 34.5-7.5T-9-118q43 0 62 16.5T72-47v547q19 1 32-6t21-18q6-9 7-18.5t1-22.5V-51q0-62-41-94-19-15-42.5-21T-2-172z"/><glyph glyph-name="uni0405" unicode="Ѕ" horiz-adv-x="557" d="M290-15q-109 0-169 57.5T52 209h72q0-33 11.5-63T168 93t51-36.5T287 43q32 0 59.5 8.5T394 76t31 37 11 47q0 27-8 47t-26 37.5-46.5 32.5-69.5 32q-58 23-97.5 44.5t-64 44.5T89 448t-11 61q0 37 14.5 68.5T133 632t62 36 78 13q93 0 145-51t60-151h-65q-5 67-38 106t-96 39q-28 0-52.5-8T184 593.5 155.5 559 145 514q0-28 11.5-48t32-36 49-29 62.5-28q44-19 81.5-37.5t65-41 43-51.5 15.5-68q0-43-16.5-78T443 37 375-1.5 290-15z"/><glyph glyph-name="uni0455" unicode="ѕ" horiz-adv-x="470" d="M235-15q-83 0-134.5 43.5T44 150h62q5-52 39-81.5T237 39t91 23 34 63q0 22-8 36.5T332 187q-18 13-47 22.5T223 229q-45 14-78 27t-54 33q-32 30-32 83 0 31 13 57.5t35.5 45.5 54 29.5T231 515q75 0 121.5-39T404 366h-61q-5 46-34 71.5T230 463q-53 0-80.5-24T122 380q1-17 6-30t18-24q17-14 44.5-22t65.5-20q34-11 62.5-19.5T371 239q23-16 39-42t16-64q0-34-15-61t-40.5-46.5-60-30T235-15z"/><glyph glyph-name="uni0457" unicode="ї" horiz-adv-x="197" d="M34 598q-17 0-27.5 11T-4 637t10.5 28.5T34 677t28-11.5T73 637t-11-28-28-11zm127 0q-17 0-27.5 11T123 637t10.5 28.5T161 677t28-11.5 11-28.5-11-28-28-11zm-92-98q19 1 32-6t21-18q6-9 7-18.5t1-22.5V0H69v500z"/><glyph glyph-name="uni0410" unicode="А" d="M249 670q25 2 47-5t33-34L587 0h-72l-67 168H131L70 0H2zm177-446L306 528q-7 18-12 32.5T283 593l-2 1q-5-19-9.5-34T261 528L152 224h274z"/><glyph glyph-name="uni0411" unicode="Б" horiz-adv-x="583" d="M83 670h387q0-32-14.5-44T412 614l-265-1V383h172q107 0 164-49t57-143q0-96-57.5-144T319 0H83v670zM312 56q39 0 70 6.5T434 85t31.5 42 9.5 64q-1 39-12 65.5t-31.5 42-50.5 22-69 6.5H147V56h165z"/><glyph glyph-name="uni0412" unicode="В" horiz-adv-x="559" d="M83 670h202q37 0 70-11.5t58-32.5 39-51.5 14-69.5q0-105-78-145v-2q62-17 95-62.5T516 187q0-39-12.5-73T465 54.5t-65-40T308 0H83v670zm187-297q65 0 98 35.5t33 88.5-31 85-98 32H147V373h123zm25-317q81 0 117 34t36 98q0 28-9.5 52t-27 41.5T370 309t-53 10H147V56h148z"/><glyph glyph-name="uni0413" unicode="Г" horiz-adv-x="472" d="M83 670h387q0-32-14.5-44T412 614l-265-1V1L83 0v670z"/><glyph glyph-name="uni0414" unicode="Д" horiz-adv-x="641" d="M-2 56h73q33 33 51.5 81.5t28.5 105T163 359t2 116l-1 196h388V56h60v-182q-35-2-48 15.5T551-64V0H59v-64q0-29-13-46.5T-2-126V56zm490 0v559H228V395q0-47-4-95t-13.5-93-24.5-84-36-67h338z"/><glyph glyph-name="uni0415" unicode="Е" horiz-adv-x="475" d="M83 670h357q0-31-15-43.5T381 614H147V368h259q0-31-15-43.5T347 312H147V56h283V0H83v670z"/><glyph glyph-name="uni0416" unicode="Ж" horiz-adv-x="872" d="M59-8Q44-8 28-6.5T2 0q17 6 38.5 25.5T79 64l255 268L92 599q-17 19-38.5 39T15 664q10 5 24 6.5t25 1.5q24 0 44.5-12t40.5-34l255-285v330q20 1 33.5-6.5T459 646q7-10 8-20t1-23V341l255 285q20 22 40.5 34t44.5 12q11 0 25-1.5t24-6.5q-17-6-38.5-26T780 599L538 332 793 64q17-19 38.5-38.5T870 0q-10-5-26-6.5T813-8q-23 0-44 12t-41 34L468 323V0h-64v323L144 38q-20-22-41-34T59-8z"/><glyph glyph-name="uni0417" unicode="З" horiz-adv-x="532" d="M269-16q-100 0-163 54T34 186l69 1q11-79 55.5-112T272 42q44 0 75 12t50 32 27.5 46.5T433 188q0 54-37.5 89T275 312h-68v56l66 1q26 0 50 9.5t42 26.5 28.5 41 10.5 54q0 52-35.5 88T265 624q-61 0-103-30.5T104 484H39q12 96 72 149t153 53q51 0 89.5-15.5t65-40.5 39.5-58 13-67q0-45-20-87t-70-69q64-20 91-64t27-99q0-35-13-71t-41-65-71.5-47.5T269-16z"/><glyph glyph-name="uni0418" unicode="И" horiz-adv-x="682" d="M83 671q19 1 32.5-6.5T137 646q7-10 8-20t1-23V175q0-18-.5-41T144 93h1q8 17 17.5 35.5T180 159l317 461q13 18 25 28.5t24.5 15.5 25.5 6 27 0V0h-63v510q0 18 .5 36.5T539 584h-1q-8-14-17.5-31T502 523L144 0H83v671z"/><glyph glyph-name="uni0419" unicode="Й" horiz-adv-x="682" d="M345 727q-54 0-90.5 34T215 862q25 4 40-2.5t24-33.5q17-52 66-52t66 52q9 27 24 33.5t40 2.5q-3-67-39.5-101T345 727zM83 671q19 1 32.5-6.5T137 646q7-10 8-20t1-23V175q0-18-.5-41T144 93h1q8 17 17.5 35.5T180 159l317 461q13 18 25 28.5t24.5 15.5 25.5 6 27 0V0h-63v510q0 18 .5 36.5T539 584h-1q-8-14-17.5-31T502 523L144 0H83v671z"/><glyph glyph-name="uni041A" unicode="К" horiz-adv-x="551" d="M492-8q-23 0-44 12t-41 34L147 323V0H83v671q20 1 33.5-6.5T138 646q7-10 8-20t1-23V341l255 285q20 22 40.5 34t44.5 12q11 0 25-1.5t24-6.5q-17-6-38.5-26T459 599L217 332 472 64q17-19 38.5-38.5T549 0q-10-5-26-6.5T492-8z"/><glyph glyph-name="uni041B" unicode="Л" horiz-adv-x="653" d="M66-7Q26-7 14 18q44 13 68.5 58.5t36 107.5T132 317.5t2 137.5l-1 216h437V0h-64v615H197V365q0-75-6.5-148T155 76q-14-33-36.5-58T66-7z"/><glyph glyph-name="uni041C" unicode="М" horiz-adv-x="888" d="M184 670q32 2 53.5-6t33.5-44l175-520h2l175 515q7 21 15.5 32.5t19 16.5 24 6 30.5 0L836 0h-65l-93 512q-3 18-4.5 40.5T671 594h-2q-4-19-9-42t-12-40L470 0h-52L245 510q-6 18-11 40t-9 41h-2q-1-20-3-41t-5-39L117 0H52z"/><glyph glyph-name="uni041D" unicode="Н" horiz-adv-x="683" d="M83 671q20 1 33.5-6.5T138 646q7-10 8-20t1-23V361h389v242q0 13 1 23t8 20q8 11 21.5 18.5T600 671V0h-64v305H147V0H83v671z"/><glyph glyph-name="uni041E" unicode="О" horiz-adv-x="776" d="M388-19q-71 0-133.5 27T146 82.5 73.5 194 47 333t26.5 139.5T146 584t108.5 74T388 685t133.5-27T630 584t72.5-111.5T729 333t-26.5-139T630 82.5 521.5 8 388-19zm0 58q57 0 107 22.5t87 62 58.5 93T662 333t-21.5 116.5-58.5 93-87 62T388 627t-107-22.5-87-62-59-93T112 333q1-63 23-116.5t59-93 87-62T388 39z"/><glyph glyph-name="uni041F" unicode="П" horiz-adv-x="683" d="M83 671h517V0h-64v615H147V0H83v671z"/><glyph glyph-name="uni0420" unicode="Р" horiz-adv-x="561" d="m83 670 236 1q32 0 56-3t43-9.5 35-16.5 31-24q23-22 39.5-60t16.5-87q0-48-16.5-86T484 325q-15-14-31-24.5t-35-17-43-9.5-56-3H147V0H83v670zm229-343q44 0 73 7t52 30q18 18 27.5 45.5T475 471q-1 34-10.5 61.5T437 578q-23 23-52 30t-73 7H147V327h165z"/><glyph glyph-name="uni0421" unicode="С" horiz-adv-x="751" d="M388-19q-72 0-134.5 27t-108 74.5-72 112T47 334t26.5 139 72 111 108 74T388 685q59 0 111.5-18.5t93.5-52 69-80T701 433h-66q-10 43-32 78.5t-54 61-73 39.5-87 14q-58 0-108-22t-87.5-61.5-59-93T112 333q1-63 22.5-116.5t59-93 88-61.5T390 40q48 0 89 14.5T552.5 95t54.5 63 31 81h65q-10-57-38-104t-70-81.5T500.5 0 388-19z"/><glyph glyph-name="uni0422" unicode="Т" horiz-adv-x="535" d="M228 614 9 615q0 30 15 43t44 13l458-1q0-32-14.5-44T468 614H292V0h-64v614z"/><glyph glyph-name="uni0423" unicode="У" horiz-adv-x="550" d="M168-1Q154-1 145.5.5T130 4q14 14 27.5 36T180 80l63 120-256 470q5 1 15.5 1.5t15.5.5q29 0 46.5-18T99 603l134-253q11-21 22-43t22-43h2q18 42 40 86l133 260q17 32 33 47t38 15q9 0 21-1.5t19-3.5q-14-14-27.5-36T513 591L241 61q-17-32-33.5-47T168-1z"/><glyph glyph-name="uni0424" unicode="Ф" horiz-adv-x="755" d="M345 68h-21q-68 0-123 19t-93.5 53.5T48 224 27 334t21 110 59.5 83.5T201 581t123 19h21v101q20 1 33.5-6.5T400 676q7-10 8-20t1-23v-33h22q68 0 123-19t93.5-53.5T707 444t21-110-21-110-59.5-83.5T554 87 431 68h-22v-88h-64v88zm95 58q109 5 165.5 56.5T662 334t-56.5 151.5T440 542l-31 2V124zm-95 417-30-1q-109-7-165.5-57.5T93 334t56.5-150.5T315 126l30-1v418z"/><glyph glyph-name="uni0425" unicode="Х" horiz-adv-x="548" d="M40-7Q29-7 16.5-5.5T-6 0q9 3 18 11.5t17.5 19 16.5 22T61 74l171 267L66 590q-15 23-33 45t-35 28q9 4 24 5.5t25 1.5q23 0 42-15.5t35-39.5l143-218 134 218q16 26 34 40.5t44 14.5q10 0 22.5-1.5T523 663q-17-6-35.5-29T455 590L302 347 488 74q7-10 15-21.5t16.5-22 17.5-19T554 0q-10-4-24-5.5T505-7q-26 0-43.5 16T428 49L267 292 115 48Q100 24 83 8.5T40-7z"/><glyph glyph-name="uni0426" unicode="Ц" horiz-adv-x="670" d="M641-126q-35-2-48 15.5T580-64V0H83v670q20 1 33.5-6.5T138 645q7-10 8-20t1-23V56h369v546q0 13 1 23t8 20q8 11 21.5 18.5T580 670V56h61v-182z"/><glyph glyph-name="uni0427" unicode="Ч" horiz-adv-x="659" d="M512 240q-38-29-95-45.5T294 178q-50 0-92.5 15.5t-74 44-49 69.5T61 400v271q20 1 33.5-6.5T116 646q7-10 8-20t1-23V407q0-41 12.5-72.5t35-52.5 53.5-32.5 68-11.5q66-1 125 18t93 57v290q0 13 1 23t8 20q8 11 21.5 18.5T575 671l1-671h-64v240z"/><glyph glyph-name="uni0428" unicode="Ш" horiz-adv-x="888" d="M83 670q20 1 33.5-6.5T138 645q7-10 8-20t1-23V56h265v614q20 1 33.5-6.5T467 645q7-10 8-20t1-23V56h265v546q0 13 1 23t8 20q8 11 21.5 18.5T805 670V0H83v670z"/><glyph glyph-name="uni0429" unicode="Щ" horiz-adv-x="895" d="M866-126q-35-2-48 15.5T805-64V0H83v670q20 1 33.5-6.5T138 645q7-10 8-20t1-23V56h265v614q20 1 33.5-6.5T467 645q7-10 8-20t1-23V56h265v546q0 13 1 23t8 20q8 11 21.5 18.5T805 670V56h61v-182z"/><glyph glyph-name="uni042A" unicode="Ъ" horiz-adv-x="630" d="m148 614-96 1q-29 0-44 13t-15 43l219-1V383h172q107 0 164-49t57-143q0-96-57.5-144T384 0H148v614zM377 56q39 0 70 6.5T499 85t31.5 42 9.5 64q-1 39-12 65.5t-31.5 42-50.5 22-69 6.5H212V56h165z"/><glyph glyph-name="uni042B" unicode="Ы" horiz-adv-x="795" d="M648 671q20 1 33.5-6.5T703 646q7-10 8-20t1-23V0h-64v671zm-565-1q20 1 33.5-6.5T138 645q7-10 8-20t1-23V383h172q107 0 164-49t57-143q0-96-57.5-144T319 0H83v670zM312 56q39 0 70 6.5T434 85t31.5 42 9.5 64q-1 39-12 65.5t-31.5 42-50.5 22-69 6.5H147V56h165z"/><glyph glyph-name="uni042C" unicode="Ь" horiz-adv-x="565" d="M83 670q20 1 33.5-6.5T138 645q7-10 8-20t1-23V383h172q107 0 164-49t57-143q0-96-57.5-144T319 0H83v670zM312 56q39 0 70 6.5T434 85t31.5 42 9.5 64q-1 39-12 65.5t-31.5 42-50.5 22-69 6.5H147V56h165z"/><glyph glyph-name="uni042D" unicode="Э" horiz-adv-x="747" d="M361-19q-57 0-108.5 17.5t-92.5 49-70.5 75T47 219h66q12-40 35-73t55-56.5T274.5 53 359 40q55 0 103 20.5t84.5 56.5 59 85.5T633 311l-350 1q0 30 15 43t44 13l290-1q-6 57-29 104.5t-59 82-83 53.5-101 19q-44 0-83-12.5t-70.5-35-55-54.5-35.5-71H49q13 51 42.5 94t70.5 73.5 91.5 47.5T361 685q72 0 134-27t107-74 71-111 26-139-26-139.5-71-112T495 8 361-19z"/><glyph glyph-name="uni042E" unicode="Ю" horiz-adv-x="950" d="M611-19q-58 0-109.5 24.5t-90.5 68-63 103T320 305H147V0H83v671q20 1 33.5-6.5T138 646q7-10 8-20t1-23V361h173q4 70 28 129t63 102.5 90.5 68T611 685q61 0 114.5-27t93-74 62-111.5T903 333t-22.5-139-62-111.5-93-74.5T611-19zm0 58q47 0 88 22.5t71.5 62 48 93T836 333t-17.5 116.5-48 93-71.5 62-88 22.5-88-22.5-72-62-48.5-93T384 333q1-63 18.5-116.5t48.5-93 72-62T611 39z"/><glyph glyph-name="uni042F" unicode="Я" horiz-adv-x="561" d="M33-7Q23-7 7.5-5.5T-18 0q17 7 38 27.5T57 67l191 227q-27 1-47.5 4.5t-37 9.5-30.5 15.5-28 21.5q-23 20-39.5 56T49 483t16.5 82 39.5 56q15 13 31 22.5t35 15.5 43 9 56 3l208-1V0h-64v294h-92L117 41Q98 18 77.5 5.5T33-7zm381 355v269H277q-44 0-73-7t-52-28q-18-17-27.5-42T114 483t9.5-57.5T152 383q23-22 52-28.5t73-6.5h137z"/><glyph glyph-name="uni0430" unicode="а" horiz-adv-x="588" d="M279-12q-50-1-93.5 19T110 62.5t-50 84T42 252q0 56 18.5 104t51 83.5 75.5 56 93 20.5q57 0 102-23.5t75-65.5h1v8q0 13 1 22.5t7 18.5q8 11 21 18t32 6V0h-61v79h-1q-25-37-73-63.5T279-12zm-1 57q37 0 69.5 14t57 40.5 39 65T458 252t-14 88-38 65-56.5 40-69.5 14-68.5-15-55-42-36.5-65-13-85 13-85 36-65 54-42 68-15z"/><glyph glyph-name="uni0431" unicode="б" horiz-adv-x="562" d="M282-15q-52 0-96 19t-76.5 55-51 88.5T40 267v33q0 85 18 151.5T119 568q24 28 51.5 44.5t59 26 67 15.5 74.5 13q32 5 64.5 10t64.5 18q0-20-2.5-29.5T486 646q-16-17-44-22t-60-10q-35-6-66.5-11.5t-58-13.5-48-19.5T172 540q-29-32-42-66t-20-80q28 35 71.5 56.5T288 472q51 0 93.5-18t73-49.5 48-75T520 235q0-52-18-97.5T452.5 58 377 4.5 282-15zm0 57q39 0 71 14.5T407.5 97t35 62 12.5 78-12.5 75-36 56-55.5 35-71 12-71-12-55-34.5-36-55-13-74.5 13.5-78.5 37-62.5T211 57t71-15z"/><glyph glyph-name="uni0432" unicode="в" horiz-adv-x="520" d="M69 499h220q32 0 59.5-8.5T396 466t31.5-39 11.5-52q0-74-66-105v-1q52-14 76-48.5t24-80.5q0-29-9.5-54t-30-44.5T382 11 309 0H69v499zm201-215q53 0 79.5 24t26.5 60q0 35-21.5 56.5T279 446H131V284h139zm27-231q60 0 85.5 23.5T408 142q0 38-25.5 63.5T309 231H131V53h166z"/><glyph glyph-name="uni0433" unicode="г" horiz-adv-x="412" d="M69 500h343q0-31-14-43t-42-12l-226 1V0H69v500z"/><glyph glyph-name="uni0434" unicode="д" horiz-adv-x="548" d="M10 52h64q21 26 34 66t20 87.5 9 97.5 2 97l-1 100h329V52h59v-176q-34-2-46.5 14.5T467-64V0H69v-64q0-29-12.5-45.5T10-124V52zm397 0v395H198V334q0-36-3-75.5t-9.5-77.5-17-71.5T144 52h263z"/><glyph glyph-name="uni0435" unicode="е" horiz-adv-x="569" d="M294-15q-56 0-102.5 21T112 63.5t-51.5 85T42 251t18.5 102.5T112 438t79.5 57T294 516q51 0 94-17.5t74-49.5 48-76.5 17-98.5v-16.5l-1-17.5H109q1-45 17-81.5T168 96t60-40 72-14q66 0 107 34.5t55 91.5h62q-6-40-26.5-73.5t-52-58-70.5-38T294-15zm167 309q-7 76-50 121t-115 45q-34 0-64.5-12T177 414.5 136 362t-23-68h348z"/><glyph glyph-name="uni0436" unicode="ж" horiz-adv-x="681" d="M31-8Q17-8 2-6.5T-23 0q8 3 17.5 9.5t19 15.5 19 19T51 63l189 185L87 436q-17 20-37 39.5T14 500q9 5 22 6.5t26 1.5q23 0 42.5-11.5T142 462l168-207v245q19 1 32-6t21-18q6-9 7-18.5t1-22.5V255l168 207q18 23 37.5 34.5T619 508q13 0 26-1.5t22-6.5q-16-5-36-24.5T594 436L441 248 630 63q9-9 18.5-19t19-19 19-15.5T704 0q-10-5-25-6.5T650-8q-23 0-42.5 12T568 37L371 235V0h-61v237L111 37Q91 16 72 4T31-8z"/><glyph glyph-name="uni0437" unicode="з" horiz-adv-x="474" d="M240-12q-87 0-140 42T39 147l66 1q8-55 44-80t94-25q69 0 99.5 29t30.5 68q0 42-32.5 64.5T242 227h-55v55h57q44 0 75 23.5t31 65.5q0 34-29 59t-83 25q-50 0-83.5-22.5T109 358H45q10 72 61 112t131 40q44 0 77-11.5t55.5-30.5 34-44 11.5-51q0-35-17-65t-59-47q52-14 75-46.5t23-74.5q0-28-11.5-55T390 36.5t-61.5-35T240-12z"/><glyph glyph-name="uni0438" unicode="и" horiz-adv-x="534" d="M69 500q36 0 52-25 5-8 6.5-18t1.5-23V169q0-17-.5-38.5T127 91h1q8 15 17 31t17 29l205 299q24 35 47 43t51 6V0h-61v345q0 17 1 34.5t3 35.5h-1q-8-14-17.5-29.5T372 357L127 0H69v500z"/><glyph glyph-name="uni0439" unicode="й" horiz-adv-x="534" d="M270 556q-54 0-90.5 34T140 691q25 4 40-2.5t24-33.5q17-52 66-52t66 52q9 27 24 33.5t40 2.5q-3-67-39.5-101T270 556zM69 500q36 0 52-25 5-8 6.5-18t1.5-23V169q0-17-.5-38.5T127 91h1q8 15 17 31t17 29l205 299q24 35 47 43t51 6V0h-61v345q0 17 1 34.5t3 35.5h-1q-8-14-17.5-29.5T372 357L127 0H69v500z"/><glyph glyph-name="uni043A" unicode="к" horiz-adv-x="440" d="M409-8q-23 0-42.5 12T327 37L130 235V0H69v500q19 1 32-6t21-18q6-9 7-18.5t1-22.5V255l168 207q18 23 37.5 34.5T378 508q13 0 26-1.5t22-6.5q-16-5-36-24.5T353 436L200 248 389 63q9-9 18.5-19t19-19 19-15.5T463 0q-10-5-25-6.5T409-8z"/><glyph glyph-name="uni043B" unicode="л" horiz-adv-x="505" d="M54-5Q22-5 11 17q33 11 51 44t26.5 79.5T98 243t1 112v145h337V0h-62v447H161l-1-158q-1-70-7.5-135T119 41Q108 21 91.5 8T54-5z"/><glyph glyph-name="uni043C" unicode="м" horiz-adv-x="689" d="M142 499q30 2 50.5-6t32.5-43L345 89h2l120 357q7 20 15 31t18 16 22.5 6 29.5 0L644 0h-62l-63 346q-2 17-3.5 38t-3.5 39h-1q-4-18-9.5-39.5T491 346L369 0h-49L202 345q-6 17-11.5 37.5T181 421h-1q-2-19-3.5-39t-4.5-37L108 0H45z"/><glyph glyph-name="uni043D" unicode="н" horiz-adv-x="555" d="M69 500q39 0 53-24 6-10 7-19.5t1-22.5V275h294v159q0 13 1.5 22.5T432 476q14 24 54 24V0h-62v221H130V0H69v500z"/><glyph glyph-name="uni043E" unicode="о" d="M295-15q-54 0-100 20.5t-80 56-53.5 84T42 250t19.5 104.5 53.5 84 80 55.5 100 20 100-20 79.5-55.5 53-84T547 250t-19.5-104.5-53-84-79.5-56T295-15zm0 57q40 0 74 16t59 43.5 39 65.5 14 83-14 82.5-39 65.5-59 43.5-74 15.5-74-15.5-59-43.5-39.5-65.5T107 250q1-45 15.5-83t39.5-65.5T221 58t74-16z"/><glyph glyph-name="uni043F" unicode="п" horiz-adv-x="535" d="M69 500h397V0h-62v446H130V0H69v500z"/><glyph glyph-name="uni0440" unicode="р" horiz-adv-x="593" d="M69 500q19 1 32-6t21-18q6-9 7-18.5t1-22.5v-10h1q25 37 73 63.5T311 516q51 1 95-19t76-55.5 50.5-84T551 252q0-56-19-104t-51.5-83.5-76.5-56T310-12q-56 0-102 22.5T131 74h-1v-242H69v668zM310 45q38 0 70 15t55.5 42 37 65 13.5 85q0 46-13 84.5T437 402t-55 42-69 15q-38 0-71-14t-58-40.5-39.5-65T130 252q0-50 14-88.5T182.5 99t57-40T310 45z"/><glyph glyph-name="uni0441" unicode="с" horiz-adv-x="571" d="M296-15q-57 0-103.5 21t-80 57.5-52 85T42 251t18.5 102.5 52 84.5 80 57T296 516q44 0 84-14.5t71.5-40 52-59.5 25.5-74h-62q-15 64-59.5 97.5T298 459q-39 0-73.5-15t-60-43-40.5-66.5-15-85.5 15-85 41-65 61-42 74-15q64 1 108 34.5t59 96.5h62q-5-40-25.5-74t-52-59.5T380-.5 296-15z"/><glyph glyph-name="uni0442" unicode="т" horiz-adv-x="476" d="m201 445-191 1q0 29 14.5 41.5T67 500h399q0-31-14-43t-42-12H262V0h-61v445z"/><glyph glyph-name="uni0443" unicode="у" horiz-adv-x="471" d="M98-168q17 5 30 25.5T152-96l50 118L41 427q-8 19-16 35.5T5 500q6 2 13.5 2.5t12.5.5q30 0 45.5-18t28.5-51l96-250q9-23 17.5-47T235 89h2q8 24 16.5 48t17.5 47l102 260q13 32 28 46.5t37 14.5q7 0 15-1t16-4q-14-13-23.5-34T428 425L210-115q-17-43-44.5-56.5T98-168z"/><glyph glyph-name="uni0444" unicode="ф" horiz-adv-x="803" d="M371 79h-1q-19-37-55-63.5T234-12q-39-1-72 19t-57.5 55.5-38.5 84T52 252q0 56 14 104t39 83.5 58 56 71 20.5q43 0 78-22.5t58-63.5h1v254q19 1 32-6t21-18q6-9 7-18.5t1-22.5V425h1q19 37 55 63.5t81 27.5q39 1 72-19t57.5-55.5 38.5-84T751 252q0-56-14-104t-39-83.5-58-56T569-12q-43 0-78 22.5T433 74h-1v-242h-61V79zM239 49q27 0 51 13.5t42 40 28.5 64T371 252t-10 86-28 64-41.5 39.5T241 455t-50.5-14.5-40.5-41-26.5-64T114 252t9.5-83.5 26-64 39.5-41T239 49zm323 0q27 0 50.5 14.5t40.5 41 26.5 64T689 252t-9.5 83.5-26 64-39.5 41-50 14.5-51-13.5-42-40-28.5-64T432 252t10-86 28-64 41.5-39.5T562 49z"/><glyph glyph-name="uni0445" unicode="х" horiz-adv-x="508" d="M57-10q-10 0-23 1.5T11-2q9 4 18 12t18 18 17 21.5T80 71l140 190-120 168q-16 22-34 43t-35 28q9 5 24.5 6.5T81 508q23 0 39-15.5t33-39.5l102-143 101 143q18 26 32.5 40.5T427 508q11 0 24-1.5t22-6.5q-8-4-17.5-12T437 470t-17.5-21-15.5-21L289 264 431 73q7-9 15.5-20t18-21.5 19-19T502 0q-10-5-25-6t-25-1q-24 0-40.5 15.5T377 49L254 215 131 46Q113 21 98 5.5T57-10z"/><glyph glyph-name="uni0446" unicode="ц" horiz-adv-x="547" d="M525-124q-34-2-46.5 14.5T466-64V0H69v500q19 1 32-6t21-18q6-9 7-18.5t1-22.5V54h275v381q0 13 1 22.5t7 18.5q8 11 21 18t32 6V52h59v-176z"/><glyph glyph-name="uni0447" unicode="ч" horiz-adv-x="528" d="M398 185h-2q-27-24-64-42t-96-18q-34 0-67 10t-59 30.5T68 217t-16 73v210q19 1 32-6t21-18q6-9 7-18.5t1-22.5V289q0-29 10.5-49.5t28.5-34 41.5-20T244 179q49 0 87 19.5t67 52.5v184q0 13 1 22.5t7 18.5q8 11 21 18t32 6V0l-61-1v186z"/><glyph glyph-name="uni0448" unicode="ш" horiz-adv-x="714" d="M69 500q19 1 32-6t21-18q6-9 7-18.5t1-22.5V54h196v446q19 1 32-6t21-18q6-9 7-18.5t1-22.5V54h197v381q0 13 1 22.5t7 18.5q8 11 21 18t32 6V0H69v500z"/><glyph glyph-name="uni0449" unicode="щ" horiz-adv-x="726" d="M704-126q-34-2-46.5 14.5T645-66V0H69v500q19 1 32-6t21-18q6-9 7-18.5t1-22.5V54h196v446q19 1 32-6t21-18q6-9 7-18.5t1-22.5V54h197v381q0 13 1 22.5t7 18.5q8 11 21 18t32 6V50h59v-176z"/><glyph glyph-name="uni044A" unicode="ъ" horiz-adv-x="556" d="m119 445-73 1q-28 0-42.5 12.5T-11 500h191V302h182q81 0 122-39.5T525 152q0-72-41-112T362 0H119v445zM351 53q54 0 82.5 22.5T461 151q-1 54-29.5 76.5T354 250H180V53h171z"/><glyph glyph-name="uni044B" unicode="ы" horiz-adv-x="703" d="M575 500q19 1 32-6t21-18q6-9 7-18.5t1-22.5V0h-61v500zm-506 0q39 0 53-24 6-10 7-19.5t1-22.5V302h182q81 0 122-39.5T475 152q0-72-41-112T312 0H69v500zM301 53q54 0 82.5 22.5T411 151q-1 54-29.5 76.5T304 250H130V53h171z"/><glyph glyph-name="uni044C" unicode="ь" horiz-adv-x="506" d="M69 500q39 0 53-24 6-10 7-19.5t1-22.5V302h182q81 0 122-39.5T475 152q0-72-41-112T312 0H69v500zM301 53q54 0 82.5 22.5T411 151q-1 54-29.5 76.5T304 250H130V53h171z"/><glyph glyph-name="uni044D" unicode="э" horiz-adv-x="569" d="M273-15q-43 0-82 13.5T121 36 69 92.5 42 163h63q17-58 59.5-89T269 42q37 0 70.5 13.5t59 38.5 41.5 59.5 19 76.5l-222 1q0 29 14.5 41.5T294 285h164q-6 39-22.5 71.5t-41 55-56 35T271 459q-63 0-106-31t-60-90H42q6 38 27 70.5t52 56.5 70 37.5 82 13.5q57 0 103.5-21t80-57 52-84.5T527 251t-18.5-102.5-52-85-80-57.5T273-15z"/><glyph glyph-name="uni044E" unicode="ю" horiz-adv-x="723" d="M468-15q-44 0-81.5 18.5t-66 51.5-45.5 77.5-20 97.5l-125 1V0H69v500q19 1 32-6t21-18q6-9 7-18.5t1-22.5V285h126q5 49 23 91t46 73 64.5 48 78.5 17q45 0 84-20t67.5-55.5 45-84T681 250t-16.5-104.5-45-84-67.5-56T468-15zm0 57q32 0 59 16t47 43.5 31 65.5 11 83-11 82.5-31 65.5-47 43.5-59 15.5-59-15.5-47-43.5-31.5-65.5T318 250q1-45 12.5-83t31.5-65.5T409 58t59-16z"/><glyph glyph-name="uni044F" unicode="я" horiz-adv-x="505" d="M61-6Q51-6 34.5-4.5T8 1q17 6 37 26l37 37 152 151q-76 3-121.5 40.5T67 357q0 72 49.5 108T248 500l188-1V0h-62v215h-68L140 39q-20-21-38-33T61-6zm313 272v182H255q-56 0-89.5-19.5T130 357q-1-24 9-41t27.5-28 41.5-16.5 53-5.5h113z"/><glyph glyph-name="exclamdown" unicode="¡" horiz-adv-x="259" d="M130 588q-18 0-30.5 13.5T87 632t12.5 29.5T130 674q17 0 29.5-12.5T172 632t-12.5-30.5T130 588zm-27-113h56l2-476H98z"/><glyph glyph-name="cent" unicode="¢" horiz-adv-x="572" d="M263-2q-47 6-85.5 28t-66 56T69 158.5 54 249t15 90.5 42.5 76 66 55.5 85.5 28v52q0 26 11.5 42.5T321 614V500q37-4 71-19.5t60.5-39 43.5-54 22-65.5h-57q-13 55-49.5 86.5T321 446l1-394q54 6 90 37.5t49 85.5h57q-5-35-22-65.5t-43-54-60-39T322-3v-50q0-26-12-43t-47-21V-2zm0 446q-32-6-59.5-23T156 378.5t-31.5-59T113 247t11.5-72 31.5-57.5 47.5-41T263 54v390z"/><glyph glyph-name="sterling" unicode="£" horiz-adv-x="580" d="M401-8q-30 0-62.5 10.5t-63 23-58.5 23T167 59q-26 0-33-17t-7-42H70q-2 25 4 47t20 38.5 37 25.5 56 9q9 17 14 38t5 34q0 28-8 54t-19 52H52q0 29 15 40.5t44 11.5h43q-19 37-34 75.5T105 507q0 34 14 66.5t39 57 59.5 39.5 75.5 15q89 0 135-53t50-145h-60q-4 75-37.5 109T296 630q-55 0-92-32t-37-87q0-42 17.5-81t37.5-80h188q0-29-14.5-40.5T352 298H246q8-22 13.5-45t5.5-48q0-34-5.5-58T244 99q22-8 43-17t41.5-17.5 41.5-14 42-5.5q33 0 51 29.5t19 74.5h58q-5-78-42.5-117.5T401-8z"/><glyph glyph-name="yen" unicode="¥" horiz-adv-x="592" d="M272 144H94q0 30 15.5 42t44.5 12h118v58H94q0 30 15.5 42t44.5 12h95L73 596q-14 22-32.5 44T5 667q10 4 23.5 5.5T52 674q22 0 40.5-16t32.5-38l179-294 167 294q15 26 31.5 40t41.5 14q10 0 22-1.5t21-5.5q-8-3-17.5-10.5t-18.5-18-17-21.5-14-21L354 310h155q0-30-15-42t-45-12H334v-58h175q0-30-15-42t-45-12H334V0h-62v144z"/><glyph glyph-name="questiondown" unicode="¿" horiz-adv-x="456" d="M285 679q18 0 30.5-12.5T328 637t-12.5-30.5T285 593q-17 0-29.5 13.5T243 637t12.5 29.5T285 679zm31-340h-14q-99 0-151.5-37T99 185q1-61 36.5-100T234 46q28 0 52.5 8T329 79t29 43 12 61h62q-1-45-15.5-80.5t-41-61-62-39T235-11q-47 0-84.5 15.5T87 47t-39.5 63.5T34 189q0 86 58.5 140.5T255 391v89h61V339z"/><glyph glyph-name="Agrave" unicode="À" d="M213 781q-30 11-37 33.5t7 48.5l182-81q33-14 15-54v-3zm36-111q25 2 47-5t33-34L587 0h-72l-67 168H131L70 0H2zm177-446L306 528q-7 18-12 32.5T283 593l-2 1q-5-19-9.5-34T261 528L152 224h274z"/><glyph glyph-name="Aacute" unicode="Á" d="M181 728q-18 40 15 54l182 81q14-27 6.5-49.5T348 781l-167-56v3zm68-58q25 2 47-5t33-34L587 0h-72l-67 168H131L70 0H2zm177-446L306 528q-7 18-12 32.5T283 593l-2 1q-5-19-9.5-34T261 528L152 224h274z"/><glyph glyph-name="Acircumflex" unicode="Â" d="M150 728q-17 16-15 28.5t15 23.5l131 108 131-108q14-11 15-24.5T412 728l-131 84zm99-58q25 2 47-5t33-34L587 0h-72l-67 168H131L70 0H2zm177-446L306 528q-7 18-12 32.5T283 593l-2 1q-5-19-9.5-34T261 528L152 224h274z"/><glyph glyph-name="Atilde" unicode="Ã" d="M157 754q-10 15-10 32 0 21 21.5 35t53.5 14q18 0 34-4.5t30-10.5 26.5-10.5T337 805q26 0 39.5 9t27.5 23q10-15 10-32 0-23-22-36t-55-13q-18 0-33 4.5T275 771t-26 10.5-24 4.5q-26 0-40-9t-28-23zm92-84q25 2 47-5t33-34L587 0h-72l-67 168H131L70 0H2zm177-446L306 528q-7 18-12 32.5T283 593l-2 1q-5-19-9.5-34T261 528L152 224h274z"/><glyph glyph-name="Adieresis" unicode="Ä" d="M217 763q-17 0-27.5 11T179 802t10.5 28.5T217 842t28-11.5 11-28.5-11-28-28-11zm127 0q-17 0-27.5 11T306 802t10.5 28.5T344 842t28-11.5 11-28.5-11-28-28-11zm-95-93q25 2 47-5t33-34L587 0h-72l-67 168H131L70 0H2zm177-446L306 528q-7 18-12 32.5T283 593l-2 1q-5-19-9.5-34T261 528L152 224h274z"/><glyph glyph-name="Aring" unicode="Å" d="M280 727q-39 0-65.5 25T188 813q0 35 26.5 60t65.5 25q42 0 67.5-25t25.5-60q0-36-25.5-61T280 727zm0 43q20 0 34 12t14 31q0 17-14 30t-34 13-33.5-13-13.5-30q0-19 13.5-31t33.5-12zm-31-100q25 2 47-5t33-34L587 0h-72l-67 168H131L70 0H2zm177-446L306 528q-7 18-12 32.5T283 593l-2 1q-5-19-9.5-34T261 528L152 224h274z"/><glyph glyph-name="AE" unicode="Æ" horiz-adv-x="757" d="M334 670h388q0-31-15-43.5T663 614H429V368h259q0-31-15-43.5T629 312H429V56h283V0H365v168H110L14 0h-72zm31-446v393l-2 1q-10-19-17-34t-17-32L142 224h223z"/><glyph glyph-name="Ccedilla" unicode="Ç" horiz-adv-x="751" d="M703 239q-10-55-36.5-101t-66-80-90-54T403-19l-5-25q48-8 69.5-25.5T489-119t-27.5-52-72.5-20q-47 0-70 18-11 8-10.5 20t3.5 24q26-8 47-12t38-4q41 0 41 23 0 18-16 23t-35 9-33 11.5T344-48l6 31q-65 7-120.5 36.5t-96 76T70 203 47 334q0 75 26.5 139t72 111 108 74T388 685q59 0 111.5-18.5t93.5-52 69-80T701 433h-66q-10 43-32 78.5t-54 61-73 39.5-87 14q-58 0-108-22t-87.5-61.5-59-93T112 333q1-63 22.5-116.5t59-93 88-61.5T390 40q48 0 89 14.5T552.5 95t54.5 63 31 81h65z"/><glyph glyph-name="Egrave" unicode="È" horiz-adv-x="475" d="M197 781q-30 11-37 33.5t7 48.5l182-81q33-14 15-54v-3zM83 670h357q0-31-15-43.5T381 614H147V368h259q0-31-15-43.5T347 312H147V56h283V0H83v670z"/><glyph glyph-name="Eacute" unicode="É" horiz-adv-x="475" d="M165 728q-18 40 15 54l182 81q14-27 6.5-49.5T332 781l-167-56v3zm-82-58h357q0-31-15-43.5T381 614H147V368h259q0-31-15-43.5T347 312H147V56h283V0H83v670z"/><glyph glyph-name="Ecircumflex" unicode="Ê" horiz-adv-x="475" d="M134 728q-17 16-15 28.5t15 23.5l131 108 131-108q14-11 15-24.5T396 728l-131 84zm-51-58h357q0-31-15-43.5T381 614H147V368h259q0-31-15-43.5T347 312H147V56h283V0H83v670z"/><glyph glyph-name="Edieresis" unicode="Ë" horiz-adv-x="475" d="M201 763q-17 0-27.5 11T163 802t10.5 28.5T201 842t28-11.5 11-28.5-11-28-28-11zm127 0q-17 0-27.5 11T290 802t10.5 28.5T328 842t28-11.5 11-28.5-11-28-28-11zM83 670h357q0-31-15-43.5T381 614H147V368h259q0-31-15-43.5T347 312H147V56h283V0H83v670z"/><glyph glyph-name="Igrave" unicode="Ì" horiz-adv-x="230" d="M39 781Q9 792 2 814.5T9 863l182-81q33-14 15-54v-3zm44-110q20 1 33.5-6.5T138 646q7-10 8-20t1-23V0H83v671z"/><glyph glyph-name="Iacute" unicode="Í" horiz-adv-x="230" d="M7 728q-18 40 15 54l182 81q14-27 6.5-49.5T174 781L7 725v3zm76-57q20 1 33.5-6.5T138 646q7-10 8-20t1-23V0H83v671z"/><glyph glyph-name="Icircumflex" unicode="Î" horiz-adv-x="230" d="M-24 728q-17 16-15 28.5t15 23.5l131 108 131-108q14-11 15-24.5T238 728l-131 84zm107-57q20 1 33.5-6.5T138 646q7-10 8-20t1-23V0H83v671z"/><glyph glyph-name="Idieresis" unicode="Ï" horiz-adv-x="230" d="M43 763q-17 0-27.5 11T5 802t10.5 28.5T43 842t28-11.5T82 802t-11-28-28-11zm127 0q-17 0-27.5 11T132 802t10.5 28.5T170 842t28-11.5 11-28.5-11-28-28-11zm-87-92q20 1 33.5-6.5T138 646q7-10 8-20t1-23V0H83v671z"/><glyph glyph-name="Eth" unicode="Ð" horiz-adv-x="677" d="M529 584q48-45 75-109t26-140q-1-75-27-139T529 87q-23-21-48-37.5T425 22 355 5.5 267 0H83v300H-29q0 30 15.5 42T31 354h52v316l184 1q50 0 88.5-5.5T425 649t56-27.5 48-37.5zm-48-458q39 38 61 92t21 118q-1 63-23 117t-61 92q-18 17-37.5 30T399 596.5t-52.5 13T280 614H147V354h220q0-30-15-42t-45-12H147V56l133 1q40 0 69.5 4.5t52.5 13T444 96t37 30z"/><glyph glyph-name="Ntilde" unicode="Ñ" horiz-adv-x="682" d="M212 754q-10 15-10 32 0 21 21.5 35t53.5 14q18 0 34-4.5t30-10.5 26.5-10.5T392 805q26 0 39.5 9t27.5 23q10-15 10-32 0-23-22-36t-55-13q-18 0-33 4.5T330 771t-26 10.5-24 4.5q-26 0-40-9t-28-23zM83 670q14 1 27 0t25.5-6 24.5-15.5 25-28.5l317-461q9-14 18-30t18-36q-1 18-1.5 41t-.5 41v428q0 13 1 23t8 20q8 11 21.5 18.5T599 671V0h-61L180 523q-11 15-19.5 30T143 584q2-19 2.5-37.5t.5-36.5V0H83v670z"/><glyph glyph-name="Ograve" unicode="Ò" horiz-adv-x="776" d="M319 781q-30 11-37 33.5t7 48.5l182-81q33-14 15-54v-3zm69-800q-71 0-133.5 27T146 82.5 73.5 194 47 333t26.5 139.5T146 584t108.5 74T388 685t133.5-27T630 584t72.5-111.5T729 333t-26.5-139T630 82.5 521.5 8 388-19zm0 58q57 0 107 22.5t87 62 58.5 93T662 333t-21.5 116.5-58.5 93-87 62T388 627t-107-22.5-87-62-59-93T112 333q1-63 23-116.5t59-93 87-62T388 39z"/><glyph glyph-name="Oacute" unicode="Ó" horiz-adv-x="776" d="M287 728q-18 40 15 54l182 81q14-27 6.5-49.5T454 781l-167-56v3zM388-19q-71 0-133.5 27T146 82.5 73.5 194 47 333t26.5 139.5T146 584t108.5 74T388 685t133.5-27T630 584t72.5-111.5T729 333t-26.5-139T630 82.5 521.5 8 388-19zm0 58q57 0 107 22.5t87 62 58.5 93T662 333t-21.5 116.5-58.5 93-87 62T388 627t-107-22.5-87-62-59-93T112 333q1-63 23-116.5t59-93 87-62T388 39z"/><glyph glyph-name="Ocircumflex" unicode="Ô" horiz-adv-x="776" d="M256 728q-17 16-15 28.5t15 23.5l131 108 131-108q14-11 15-24.5T518 728l-131 84zM388-19q-71 0-133.5 27T146 82.5 73.5 194 47 333t26.5 139.5T146 584t108.5 74T388 685t133.5-27T630 584t72.5-111.5T729 333t-26.5-139T630 82.5 521.5 8 388-19zm0 58q57 0 107 22.5t87 62 58.5 93T662 333t-21.5 116.5-58.5 93-87 62T388 627t-107-22.5-87-62-59-93T112 333q1-63 23-116.5t59-93 87-62T388 39z"/><glyph glyph-name="Otilde" unicode="Õ" horiz-adv-x="776" d="M263 754q-10 15-10 32 0 21 21.5 35t53.5 14q18 0 34-4.5t30-10.5 26.5-10.5T443 805q26 0 39.5 9t27.5 23q10-15 10-32 0-23-22-36t-55-13q-18 0-33 4.5T381 771t-26 10.5-24 4.5q-26 0-40-9t-28-23zM388-19q-71 0-133.5 27T146 82.5 73.5 194 47 333t26.5 139.5T146 584t108.5 74T388 685t133.5-27T630 584t72.5-111.5T729 333t-26.5-139T630 82.5 521.5 8 388-19zm0 58q57 0 107 22.5t87 62 58.5 93T662 333t-21.5 116.5-58.5 93-87 62T388 627t-107-22.5-87-62-59-93T112 333q1-63 23-116.5t59-93 87-62T388 39z"/><glyph glyph-name="Odieresis" unicode="Ö" horiz-adv-x="776" d="M323 763q-17 0-27.5 11T285 802t10.5 28.5T323 842t28-11.5 11-28.5-11-28-28-11zm127 0q-17 0-27.5 11T412 802t10.5 28.5T450 842t28-11.5 11-28.5-11-28-28-11zM388-19q-71 0-133.5 27T146 82.5 73.5 194 47 333t26.5 139.5T146 584t108.5 74T388 685t133.5-27T630 584t72.5-111.5T729 333t-26.5-139T630 82.5 521.5 8 388-19zm0 58q57 0 107 22.5t87 62 58.5 93T662 333t-21.5 116.5-58.5 93-87 62T388 627t-107-22.5-87-62-59-93T112 333q1-63 23-116.5t59-93 87-62T388 39z"/><glyph glyph-name="Oslash" unicode="Ø" horiz-adv-x="776" d="M626 587q48-48 75.5-112.5T729 333q0-75-26.5-139T630 82.5 521.5 8 388-19q-57 0-108.5 17.5T186 48l-29-36q-8-9-16-16.5T121.5-17 93-24.5 49-27l93 114q-45 48-70 110.5T47 333q0 75 26.5 139.5T146 584t108.5 74T388 685q54 0 103-15.5t91-44.5l27 33q8 10 15.5 17t19 12 28.5 7.5 44 2.5zM112 333q1-58 19.5-108t50.5-89l361 441q-33 24-72 37t-83 13q-57 0-107-22.5t-87-62-59-93T112 333zM388 39q57 0 107 22.5t87 62 58.5 93T662 333q0 61-20.5 113.5T586 538L225 95q34-26 75-41t88-15z"/><glyph glyph-name="Ugrave" unicode="Ù" horiz-adv-x="646" d="M253 781q-30 11-37 33.5t7 48.5l182-81q33-14 15-54v-3zm71-800q-54 0-100 17t-80 47.5-53.5 73T71 213v458q20 1 33.5-6.5T126 646q7-10 8-20t1-23V220q0-41 14-74t39.5-56 60-36T324 41t75.5 12.5T459 89t39 56.5 14 74.5v383q0 13 1 23t8 20q8 11 21.5 18.5T575 671V213q0-52-19.5-95t-53-73.5-79.5-47T324-19z"/><glyph glyph-name="Uacute" unicode="Ú" horiz-adv-x="646" d="M221 728q-18 40 15 54l182 81q14-27 6.5-49.5T388 781l-167-56v3zM324-19q-54 0-100 17t-80 47.5-53.5 73T71 213v458q20 1 33.5-6.5T126 646q7-10 8-20t1-23V220q0-41 14-74t39.5-56 60-36T324 41t75.5 12.5T459 89t39 56.5 14 74.5v383q0 13 1 23t8 20q8 11 21.5 18.5T575 671V213q0-52-19.5-95t-53-73.5-79.5-47T324-19z"/><glyph glyph-name="Ucircumflex" unicode="Û" horiz-adv-x="646" d="M190 728q-17 16-15 28.5t15 23.5l131 108 131-108q14-11 15-24.5T452 728l-131 84zM324-19q-54 0-100 17t-80 47.5-53.5 73T71 213v458q20 1 33.5-6.5T126 646q7-10 8-20t1-23V220q0-41 14-74t39.5-56 60-36T324 41t75.5 12.5T459 89t39 56.5 14 74.5v383q0 13 1 23t8 20q8 11 21.5 18.5T575 671V213q0-52-19.5-95t-53-73.5-79.5-47T324-19z"/><glyph glyph-name="Udieresis" unicode="Ü" horiz-adv-x="646" d="M257 763q-17 0-27.5 11T219 802t10.5 28.5T257 842t28-11.5 11-28.5-11-28-28-11zm127 0q-17 0-27.5 11T346 802t10.5 28.5T384 842t28-11.5 11-28.5-11-28-28-11zM324-19q-54 0-100 17t-80 47.5-53.5 73T71 213v458q20 1 33.5-6.5T126 646q7-10 8-20t1-23V220q0-41 14-74t39.5-56 60-36T324 41t75.5 12.5T459 89t39 56.5 14 74.5v383q0 13 1 23t8 20q8 11 21.5 18.5T575 671V213q0-52-19.5-95t-53-73.5-79.5-47T324-19z"/><glyph glyph-name="Yacute" unicode="Ý" horiz-adv-x="555" d="M178 728q-18 40 15 54l182 81q14-27 6.5-49.5T345 781l-167-56v3zm74-456L57 589q-14 23-33.5 45.5T-13 663q10 4 24 5.5t24 1.5q23 0 42-16.5t33-39.5l175-288 164 288q15 27 32 41.5t43 14.5q11 0 23-1.5t21-5.5q-8-3-17.5-11T532 633.5 514.5 611 500 589L316 273V0h-64v272z"/><glyph glyph-name="Thorn" unicode="Þ" horiz-adv-x="561" d="M83 671q20 1 33.5-6.5T138 646q7-10 8-20t1-23v-62l172 1q32 0 56-3t43-9.5 35-16.5 31-24q23-22 39.5-60t16.5-87q0-48-16.5-86T484 196q-15-14-31-24.5t-35-17-43-9.5-56-3H147V0H83v671zm229-473q44 0 73 7t52 30q18 18 28.5 45.5T475 342t-10.5 61.5T437 449q-23 23-52 30t-73 7H147V198h165z"/><glyph glyph-name="germandbls" unicode="ß" horiz-adv-x="543" d="M353-15q-51 0-89.5 19.5T202 61l46 37q14-28 40-43.5T352 39q19 0 36 6t30.5 17T440 89t8 36q0 26-13.5 41T400 195q-29 18-57.5 34T282 264q-26 16-42 36t-16 53q0 25 8 41.5t27 37.5q5 6 14 15.5l18 19 17 18.5 12 15q8 11 12.5 25t4.5 27-5 27.5-17 26.5-31 19.5-47 7.5q-42 0-73-27t-31-84V0H72v517q0 42 13 73.5t35.5 52.5 52.5 31.5 64 10.5q41 0 71.5-12t50.5-31 30-42.5 10-46.5q0-30-9-52.5T364 458q-13-15-33.5-34.5T298 387q-10-15-10-32 0-11 5-19t14-16q9-7 26.5-17.5t38-22.5 40.5-23.5 33-20.5q26-18 45-41t19-62q0-34-13-61t-35-46.5-50-30T353-15z"/><glyph glyph-name="agrave" unicode="à" horiz-adv-x="588" d="M219 616q-30 11-37 33.5t7 48.5l182-81q33-14 15-54v-3zm60-628q-50-1-93.5 19T110 62.5t-50 84T42 252q0 56 18.5 104t51 83.5 75.5 56 93 20.5q57 0 102-23.5t75-65.5h1v8q0 13 1 22.5t7 18.5q8 11 21 18t32 6V0h-61v79h-1q-25-37-73-63.5T279-12zm-1 57q37 0 69.5 14t57 40.5 39 65T458 252t-14 88-38 65-56.5 40-69.5 14-68.5-15-55-42-36.5-65-13-85 13-85 36-65 54-42 68-15z"/><glyph glyph-name="aacute" unicode="á" horiz-adv-x="588" d="M187 563q-18 40 15 54l182 81q14-27 6.5-49.5T354 616l-167-56v3zm92-575q-50-1-93.5 19T110 62.5t-50 84T42 252q0 56 18.5 104t51 83.5 75.5 56 93 20.5q57 0 102-23.5t75-65.5h1v8q0 13 1 22.5t7 18.5q8 11 21 18t32 6V0h-61v79h-1q-25-37-73-63.5T279-12zm-1 57q37 0 69.5 14t57 40.5 39 65T458 252t-14 88-38 65-56.5 40-69.5 14-68.5-15-55-42-36.5-65-13-85 13-85 36-65 54-42 68-15z"/><glyph glyph-name="acircumflex" unicode="â" horiz-adv-x="588" d="M156 563q-17 16-15 28.5t15 23.5l131 108 131-108q14-11 15-24.5T418 563l-131 84zM279-12q-50-1-93.5 19T110 62.5t-50 84T42 252q0 56 18.5 104t51 83.5 75.5 56 93 20.5q57 0 102-23.5t75-65.5h1v8q0 13 1 22.5t7 18.5q8 11 21 18t32 6V0h-61v79h-1q-25-37-73-63.5T279-12zm-1 57q37 0 69.5 14t57 40.5 39 65T458 252t-14 88-38 65-56.5 40-69.5 14-68.5-15-55-42-36.5-65-13-85 13-85 36-65 54-42 68-15z"/><glyph glyph-name="atilde" unicode="ã" horiz-adv-x="588" d="M163 589q-10 15-10 32 0 21 21.5 35t53.5 14q18 0 34-4.5t30-10.5 26.5-10.5T343 640q26 0 39.5 9t27.5 23q10-15 10-32 0-23-22-36t-55-13q-18 0-33 4.5T281 606t-26 10.5-24 4.5q-26 0-40-9t-28-23zM279-12q-50-1-93.5 19T110 62.5t-50 84T42 252q0 56 18.5 104t51 83.5 75.5 56 93 20.5q57 0 102-23.5t75-65.5h1v8q0 13 1 22.5t7 18.5q8 11 21 18t32 6V0h-61v79h-1q-25-37-73-63.5T279-12zm-1 57q37 0 69.5 14t57 40.5 39 65T458 252t-14 88-38 65-56.5 40-69.5 14-68.5-15-55-42-36.5-65-13-85 13-85 36-65 54-42 68-15z"/><glyph glyph-name="adieresis" unicode="ä" horiz-adv-x="588" d="M223 598q-17 0-27.5 11T185 637t10.5 28.5T223 677t28-11.5 11-28.5-11-28-28-11zm127 0q-17 0-27.5 11T312 637t10.5 28.5T350 677t28-11.5 11-28.5-11-28-28-11zM279-12q-50-1-93.5 19T110 62.5t-50 84T42 252q0 56 18.5 104t51 83.5 75.5 56 93 20.5q57 0 102-23.5t75-65.5h1v8q0 13 1 22.5t7 18.5q8 11 21 18t32 6V0h-61v79h-1q-25-37-73-63.5T279-12zm-1 57q37 0 69.5 14t57 40.5 39 65T458 252t-14 88-38 65-56.5 40-69.5 14-68.5-15-55-42-36.5-65-13-85 13-85 36-65 54-42 68-15z"/><glyph glyph-name="aring" unicode="å" horiz-adv-x="588" d="M286 562q-39 0-65.5 25T194 648q0 35 26.5 60t65.5 25q42 0 67.5-25t25.5-60q0-36-25.5-61T286 562zm0 43q20 0 34 12t14 31q0 17-14 30t-34 13-33.5-13-13.5-30q0-19 13.5-31t33.5-12zm-7-617q-50-1-93.5 19T110 62.5t-50 84T42 252q0 56 18.5 104t51 83.5 75.5 56 93 20.5q57 0 102-23.5t75-65.5h1v8q0 13 1 22.5t7 18.5q8 11 21 18t32 6V0h-61v79h-1q-25-37-73-63.5T279-12zm-1 57q37 0 69.5 14t57 40.5 39 65T458 252t-14 88-38 65-56.5 40-69.5 14-68.5-15-55-42-36.5-65-13-85 13-85 36-65 54-42 68-15z"/><glyph glyph-name="ae" unicode="æ" horiz-adv-x="876" d="M229-17q-38 0-72 9.5T97.5 21 57 68t-15 65q0 52 27.5 86.5t74 53 108 23.5 128.5-2v27q0 75-35 109t-95 34q-65 0-95.5-31.5T118 351l-59-1q2 40 17.5 71t41.5 52 60.5 31.5T253 515q64 0 109-26.5t64-77.5h2q31 48 79 76.5T616 516q48 0 88-17.5t69-49.5 45-76.5 16-98.5v-16.5l-1-17.5H447q1-45 16-82t38.5-63T556 54.5 622 40q60 0 97 35.5t50 92.5h62q-5-40-25-73.5t-49-58-65.5-38T616-15q-60 0-108 27.5T428 88q-29-53-83.5-79T229-17zm539 311q-7 76-46.5 122T617 462q-31 0-58.5-12T509 416t-37.5-53-21.5-69h318zM230 38q25 0 51 6.5t49.5 20 41 34.5 25.5 51q-8 23-11.5 44t-4.5 47q-136 13-204.5-13T108 133q0-41 30.5-68T230 38z"/><glyph glyph-name="ccedilla" unicode="ç" horiz-adv-x="571" d="M300 42q64 1 108 34.5t59 96.5h62q-5-37-23-69.5T459.5 46 395 5.5 319-14l-6-30q48-8 69.5-25.5T404-119t-27.5-52-72.5-20q-47 0-70 18-11 8-10.5 20t3.5 24q26-8 47-12t38-4q41 0 41 23 0 18-16 23t-35 9-33 11.5T259-48l7 35q-51 6-92 29t-70.5 58T58 154.5 42 251q0 54 18.5 102.5t52 84.5 80 57T296 516q44 0 84-14.5t71.5-40 52-59.5 25.5-74h-62q-15 64-59.5 97.5T298 459q-39 0-73.5-15t-60-43-40.5-66.5-15-85.5 15-85 41-65 61-42 74-15z"/><glyph glyph-name="egrave" unicode="è" horiz-adv-x="569" d="M222 616q-30 11-37 33.5t7 48.5l182-81q33-14 15-54v-3zm72-631q-56 0-102.5 21T112 63.5t-51.5 85T42 251t18.5 102.5T112 438t79.5 57T294 516q51 0 94-17.5t74-49.5 48-76.5 17-98.5v-16.5l-1-17.5H109q1-45 17-81.5T168 96t60-40 72-14q66 0 107 34.5t55 91.5h62q-6-40-26.5-73.5t-52-58-70.5-38T294-15zm167 309q-7 76-50 121t-115 45q-34 0-64.5-12T177 414.5 136 362t-23-68h348z"/><glyph glyph-name="eacute" unicode="é" horiz-adv-x="569" d="M190 563q-18 40 15 54l182 81q14-27 6.5-49.5T357 616l-167-56v3zM294-15q-56 0-102.5 21T112 63.5t-51.5 85T42 251t18.5 102.5T112 438t79.5 57T294 516q51 0 94-17.5t74-49.5 48-76.5 17-98.5v-16.5l-1-17.5H109q1-45 17-81.5T168 96t60-40 72-14q66 0 107 34.5t55 91.5h62q-6-40-26.5-73.5t-52-58-70.5-38T294-15zm167 309q-7 76-50 121t-115 45q-34 0-64.5-12T177 414.5 136 362t-23-68h348z"/><glyph glyph-name="ecircumflex" unicode="ê" horiz-adv-x="569" d="M159 563q-17 16-15 28.5t15 23.5l131 108 131-108q14-11 15-24.5T421 563l-131 84zM294-15q-56 0-102.5 21T112 63.5t-51.5 85T42 251t18.5 102.5T112 438t79.5 57T294 516q51 0 94-17.5t74-49.5 48-76.5 17-98.5v-16.5l-1-17.5H109q1-45 17-81.5T168 96t60-40 72-14q66 0 107 34.5t55 91.5h62q-6-40-26.5-73.5t-52-58-70.5-38T294-15zm167 309q-7 76-50 121t-115 45q-34 0-64.5-12T177 414.5 136 362t-23-68h348z"/><glyph glyph-name="edieresis" unicode="ë" horiz-adv-x="569" d="M226 598q-17 0-27.5 11T188 637t10.5 28.5T226 677t28-11.5 11-28.5-11-28-28-11zm127 0q-17 0-27.5 11T315 637t10.5 28.5T353 677t28-11.5 11-28.5-11-28-28-11zM294-15q-56 0-102.5 21T112 63.5t-51.5 85T42 251t18.5 102.5T112 438t79.5 57T294 516q51 0 94-17.5t74-49.5 48-76.5 17-98.5v-16.5l-1-17.5H109q1-45 17-81.5T168 96t60-40 72-14q66 0 107 34.5t55 91.5h62q-6-40-26.5-73.5t-52-58-70.5-38T294-15zm167 309q-7 76-50 121t-115 45q-34 0-64.5-12T177 414.5 136 362t-23-68h348z"/><glyph glyph-name="igrave" unicode="ì" horiz-adv-x="197" d="M30 616Q0 627-7 649.5T0 698l182-81q33-14 15-54v-3zm39-116q19 1 32-6t21-18q6-9 7-18.5t1-22.5V0H69v500z"/><glyph glyph-name="iacute" unicode="í" horiz-adv-x="197" d="M-2 563q-18 40 15 54l182 81q14-27 6.5-49.5T165 616L-2 560v3zm71-63q19 1 32-6t21-18q6-9 7-18.5t1-22.5V0H69v500z"/><glyph glyph-name="icircumflex" unicode="î" horiz-adv-x="197" d="M-33 563q-17 16-15 28.5t15 23.5L98 723l131-108q14-11 15-24.5T229 563L98 647zm102-63q19 1 32-6t21-18q6-9 7-18.5t1-22.5V0H69v500z"/><glyph glyph-name="idieresis" unicode="ï" horiz-adv-x="197" d="M34 598q-17 0-27.5 11T-4 637t10.5 28.5T34 677t28-11.5T73 637t-11-28-28-11zm127 0q-17 0-27.5 11T123 637t10.5 28.5T161 677t28-11.5 11-28.5-11-28-28-11zm-92-98q19 1 32-6t21-18q6-9 7-18.5t1-22.5V0H69v500z"/><glyph glyph-name="eth" unicode="ð" d="M295-15q-54 0-100 19.5t-80 54-53.5 81T42 240t19.5 100.5T115 421t80 53.5T295 494q45-1 76.5-12t57.5-31l2 1q-19 35-42 67.5T336 583l-148-55q-9 27 .5 42.5T224 596l67 26q-26 20-51.5 35.5T189 684q11 4 26 6.5t27 3.5q17 1 32-2.5t33-14.5q22-12 45-33l123 46q10-27 .5-42T440 622l-47-18q31-35 59-78t49-89.5 33.5-94T547 251v-11q0-54-19.5-100.5t-53-81-79.5-54T295-15zm0 57q40 0 74 15t59 41.5 39 63 14 78.5-14 78.5-39 62.5-59 41-74 15-74-15-59-41-39.5-62.5T107 240q1-42 15.5-78.5t39.5-63T221 57t74-15z"/><glyph glyph-name="ntilde" unicode="ñ" horiz-adv-x="532" d="M156 589q-10 15-10 32 0 21 21.5 35t53.5 14q18 0 34-4.5t30-10.5 26.5-10.5T336 640q26 0 39.5 9t27.5 23q10-15 10-32 0-23-22-36t-55-13q-18 0-33 4.5T274 606t-26 10.5-24 4.5q-26 0-40-9t-28-23zm-87-89q19 1 32-6t21-18q6-9 7-18.5t1-22.5v-5l1-1q30 42 70.5 63.5T302 514q43 0 74.5-11.5T428 472q24-23 33-51t9-72V0h-61v350q0 32-7.5 51.5T377 435q-29 23-86 23-44 0-83-22.5T150 377q-20-37-20-102V0H69v500z"/><glyph glyph-name="ograve" unicode="ò" d="M226 616q-30 11-37 33.5t7 48.5l182-81q33-14 15-54v-3zm69-631q-54 0-100 20.5t-80 56-53.5 84T42 250t19.5 104.5 53.5 84 80 55.5 100 20 100-20 79.5-55.5 53-84T547 250t-19.5-104.5-53-84-79.5-56T295-15zm0 57q40 0 74 16t59 43.5 39 65.5 14 83-14 82.5-39 65.5-59 43.5-74 15.5-74-15.5-59-43.5-39.5-65.5T107 250q1-45 15.5-83t39.5-65.5T221 58t74-16z"/><glyph glyph-name="oacute" unicode="ó" d="M194 563q-18 40 15 54l182 81q14-27 6.5-49.5T361 616l-167-56v3zM295-15q-54 0-100 20.5t-80 56-53.5 84T42 250t19.5 104.5 53.5 84 80 55.5 100 20 100-20 79.5-55.5 53-84T547 250t-19.5-104.5-53-84-79.5-56T295-15zm0 57q40 0 74 16t59 43.5 39 65.5 14 83-14 82.5-39 65.5-59 43.5-74 15.5-74-15.5-59-43.5-39.5-65.5T107 250q1-45 15.5-83t39.5-65.5T221 58t74-16z"/><glyph glyph-name="ocircumflex" unicode="ô" d="M163 563q-17 16-15 28.5t15 23.5l131 108 131-108q14-11 15-24.5T425 563l-131 84zM295-15q-54 0-100 20.5t-80 56-53.5 84T42 250t19.5 104.5 53.5 84 80 55.5 100 20 100-20 79.5-55.5 53-84T547 250t-19.5-104.5-53-84-79.5-56T295-15zm0 57q40 0 74 16t59 43.5 39 65.5 14 83-14 82.5-39 65.5-59 43.5-74 15.5-74-15.5-59-43.5-39.5-65.5T107 250q1-45 15.5-83t39.5-65.5T221 58t74-16z"/><glyph glyph-name="otilde" unicode="õ" d="M170 589q-10 15-10 32 0 21 21.5 35t53.5 14q18 0 34-4.5t30-10.5 26.5-10.5T350 640q26 0 39.5 9t27.5 23q10-15 10-32 0-23-22-36t-55-13q-18 0-33 4.5T288 606t-26 10.5-24 4.5q-26 0-40-9t-28-23zM295-15q-54 0-100 20.5t-80 56-53.5 84T42 250t19.5 104.5 53.5 84 80 55.5 100 20 100-20 79.5-55.5 53-84T547 250t-19.5-104.5-53-84-79.5-56T295-15zm0 57q40 0 74 16t59 43.5 39 65.5 14 83-14 82.5-39 65.5-59 43.5-74 15.5-74-15.5-59-43.5-39.5-65.5T107 250q1-45 15.5-83t39.5-65.5T221 58t74-16z"/><glyph glyph-name="odieresis" unicode="ö" d="M230 598q-17 0-27.5 11T192 637t10.5 28.5T230 677t28-11.5 11-28.5-11-28-28-11zm127 0q-17 0-27.5 11T319 637t10.5 28.5T357 677t28-11.5 11-28.5-11-28-28-11zM295-15q-54 0-100 20.5t-80 56-53.5 84T42 250t19.5 104.5 53.5 84 80 55.5 100 20 100-20 79.5-55.5 53-84T547 250t-19.5-104.5-53-84-79.5-56T295-15zm0 57q40 0 74 16t59 43.5 39 65.5 14 83-14 82.5-39 65.5-59 43.5-74 15.5-74-15.5-59-43.5-39.5-65.5T107 250q1-45 15.5-83t39.5-65.5T221 58t74-16z"/><glyph glyph-name="oslash" unicode="ø" d="M480 432q32-35 49.5-81.5T547 250q0-56-19.5-104.5t-53-84-79.5-56T295-15q-41 0-77 11.5T151 30l-14-18q-8-9-15.5-16.5t-19-12.5-29-7.5T29-27l79 96q-31 35-48.5 81T42 250q0 56 19.5 104.5t53.5 84 80 55.5 100 20q40 0 75.5-11.5T436 471l15 18q8 9 16 16.5t19.5 12.5 28.5 7.5 44 2.5zM107 250q1-38 11.5-71.5T148 118l250 307q-22 15-48 23.5t-55 8.5q-40 0-74-15.5T162 398t-39.5-65.5T107 250zm374 0q0 39-10.5 73T440 383L189 76q46-34 106-34 40 0 74 16t59 43.5 39 65.5 14 83z"/><glyph glyph-name="ugrave" unicode="ù" horiz-adv-x="532" d="M194 616q-30 11-37 33.5t7 48.5l182-81q33-14 15-54v-3zm36-630q-43 0-74.5 11.5T104 28Q80 51 71 79t-9 72v349q19 1 32-6t21-18q6-9 7-18.5t1-22.5V150q0-32 7.5-51.5T155 65q29-23 86-23 44 0 82.5 22.5T382 123q20 37 20 102v210q0 13 1 22.5t7 18.5q8 11 21 18t32 6V0h-61v70l-1 1q-30-42-70.5-63.5T230-14z"/><glyph glyph-name="uacute" unicode="ú" horiz-adv-x="532" d="M162 563q-18 40 15 54l182 81q14-27 6.5-49.5T329 616l-167-56v3zm68-577q-43 0-74.5 11.5T104 28Q80 51 71 79t-9 72v349q19 1 32-6t21-18q6-9 7-18.5t1-22.5V150q0-32 7.5-51.5T155 65q29-23 86-23 44 0 82.5 22.5T382 123q20 37 20 102v210q0 13 1 22.5t7 18.5q8 11 21 18t32 6V0h-61v70l-1 1q-30-42-70.5-63.5T230-14z"/><glyph glyph-name="ucircumflex" unicode="û" horiz-adv-x="532" d="M131 563q-17 16-15 28.5t15 23.5l131 108 131-108q14-11 15-24.5T393 563l-131 84zm99-577q-43 0-74.5 11.5T104 28Q80 51 71 79t-9 72v349q19 1 32-6t21-18q6-9 7-18.5t1-22.5V150q0-32 7.5-51.5T155 65q29-23 86-23 44 0 82.5 22.5T382 123q20 37 20 102v210q0 13 1 22.5t7 18.5q8 11 21 18t32 6V0h-61v70l-1 1q-30-42-70.5-63.5T230-14z"/><glyph glyph-name="udieresis" unicode="ü" horiz-adv-x="532" d="M198 598q-17 0-27.5 11T160 637t10.5 28.5T198 677t28-11.5 11-28.5-11-28-28-11zm127 0q-17 0-27.5 11T287 637t10.5 28.5T325 677t28-11.5 11-28.5-11-28-28-11zM230-14q-43 0-74.5 11.5T104 28Q80 51 71 79t-9 72v349q19 1 32-6t21-18q6-9 7-18.5t1-22.5V150q0-32 7.5-51.5T155 65q29-23 86-23 44 0 82.5 22.5T382 123q20 37 20 102v210q0 13 1 22.5t7 18.5q8 11 21 18t32 6V0h-61v70l-1 1q-30-42-70.5-63.5T230-14z"/><glyph glyph-name="yacute" unicode="ý" horiz-adv-x="471" d="M140 563q-18 40 15 54l182 81q14-27 6.5-49.5T307 616l-167-56v3zM98-168q17 5 30 25.5T152-96l50 118L41 427q-8 19-16 35.5T5 500q6 2 13.5 2.5t12.5.5q30 0 45.5-18t28.5-51l96-250q9-23 17.5-47T235 89h2q8 24 16.5 48t17.5 47l102 260q13 32 28 46.5t37 14.5q7 0 15-1t16-4q-14-13-23.5-34T428 425L210-115q-17-43-44.5-56.5T98-168z"/><glyph glyph-name="thorn" unicode="þ" horiz-adv-x="596" d="M72 684q19 1 32-6t21-18q6-9 7-18.5t1-22.5V425h1q25 37 73 63.5T314 516q51 1 95-19t76-55.5 50.5-84T554 252q0-56-19-104t-51.5-83.5-76.5-56T313-12q-56 0-102 22.5T134 74h-1v-242H72v852zM313 45q38 0 70 15t55.5 42 37 65 13.5 85q0 46-13 84.5T440 402t-55 42-69 15q-38 0-71-14t-58-40.5-39.5-65T133 252q0-50 14-88.5T185.5 99t57-40T313 45z"/><glyph glyph-name="ydieresis" unicode="ÿ" horiz-adv-x="471" d="M176 598q-17 0-27.5 11T138 637t10.5 28.5T176 677t28-11.5 11-28.5-11-28-28-11zm127 0q-17 0-27.5 11T265 637t10.5 28.5T303 677t28-11.5 11-28.5-11-28-28-11zM98-168q17 5 30 25.5T152-96l50 118L41 427q-8 19-16 35.5T5 500q6 2 13.5 2.5t12.5.5q30 0 45.5-18t28.5-51l96-250q9-23 17.5-47T235 89h2q8 24 16.5 48t17.5 47l102 260q13 32 28 46.5t37 14.5q7 0 15-1t16-4q-14-13-23.5-34T428 425L210-115q-17-43-44.5-56.5T98-168z"/><glyph glyph-name="Gbreve" unicode="Ğ" horiz-adv-x="756" d="M391 727q-54 0-90.5 34T261 862q25 4 40-2.5t24-33.5q17-52 66-52t66 52q9 27 24 33.5t40 2.5q-3-67-39.5-101T391 727zm3-746q-72 0-135 27T148.5 82.5 74 194 47 333t28 139.5T150 584t110 74 134 27q52 0 99-14.5t86-40.5 68-63 45-82h-68q-14 32-37.5 58.5T533 589t-65.5 29.5T394 629q-57 0-108.5-23t-90-63-61-94T111 333q1-62 24-116t62-94 90-63 108-23q54 0 100 19.5t79.5 54T628 192t22 101H414q0 30 14.5 42t43.5 12l240 1q7-79-15-146.5T631.5 85 527 8.5 394-19z"/><glyph glyph-name="gbreve" unicode="ğ" horiz-adv-x="583" d="M281 562q-54 0-90.5 34T151 697q25 4 40-2.5t24-33.5q17-52 66-52t66 52q9 27 24 33.5t40 2.5q-3-67-39.5-101T281 562zm0-745q-106 0-165 49T46-2h69q9-60 48-92.5T282-127q37 0 68.5 11T405-82q26 26 37 57t11 77v74h-1q-25-35-70.5-60T279 40q-50 0-93.5 18T110 108t-50 75.5T42 278q0 50 18.5 93.5t51 75.5 75.5 50.5 93 18.5q57 0 99.5-22.5T452 430h1v5q0 13 1 22.5t7 18.5q8 11 21 18t32 6V48q0-55-17.5-98T448-122.5t-74-45-93-15.5zm-3 279q37 0 69 12.5t55.5 35.5 37 57 13.5 77-13.5 77-36.5 57.5-54.5 35.5-68.5 12-68.5-13-55-37-36.5-57.5-13-74.5 13-74.5 36-57.5 54-37 68-13z"/><glyph glyph-name="dotlessi" unicode="ı" horiz-adv-x="197" d="M69 500q19 1 32-6t21-18q6-9 7-18.5t1-22.5V0H69v500z"/><glyph glyph-name="OE" unicode="Œ" horiz-adv-x="993" d="M357-19q-65 0-121.5 27T137 82.5 71 194 47 333t24 139.5T137 584t98.5 74T357 685q78 0 141-38t103-103v126h357q0-31-15-43.5T899 614H665V368h259q0-31-15-43.5T865 312H665V56h283V0H601v123Q561 57 498 19T357-19zm0 58q51 0 95.5 21t77 59.5 51.5 93T600 333t-19 120.5-51.5 93-77 59.5-95.5 21-95-21-77-59.5-52.5-93T112 333q1-66 20.5-120.5t52.5-93T262 60t95-21z"/><glyph glyph-name="oe" unicode="œ" horiz-adv-x="933" d="M276-15q-50 0-92.5 20.5t-74 56-49.5 84T42 250t18 104.5 49.5 84 74 55.5 92.5 20q69 0 121-38.5T475 374h2q26 63 76.5 102.5T676 516q47 0 86.5-17.5t68-49.5 44.5-76.5 16-98.5v-16.5l-1-17.5H510q1-45 15-81.5T562 96t53.5-40T681 42q60 0 96.5 34.5T826 168h63q-5-40-24.5-73.5t-48.5-58-65-38T676-15q-72 0-122.5 39.5T477 127h-2q-26-65-78-103.5T276-15zm550 309q-6 76-45 121t-104 45q-30 0-57.5-12T570 414.5 533.5 362 513 294h313zM276 42q36 0 66.5 16t53 43.5 35 65.5 12.5 83-12.5 82.5-35 65.5-53 43.5T276 457t-66.5-15.5-53-43.5-35.5-65.5-14-82.5q1-45 14-83t35.5-65.5 53-43.5T276 42z"/><glyph glyph-name="Scedilla" unicode="Ş" horiz-adv-x="557" d="M505 175q0-41-15-74.5t-41-58-62.5-39T308-14l-6-30q48-8 69.5-25.5T393-119t-27.5-52-72.5-20q-47 0-70 18-11 8-10.5 20t3.5 24q26-8 47-12t38-4q41 0 41 23 0 18-16 23t-35 9-33 11.5T248-48l7 35q-93 9-144 65.5T52 209h72q0-33 11.5-63T168 93t51-36.5T287 43q32 0 59.5 8.5T394 76t31 37 11 47q0 27-8 47t-26 37.5-46.5 32.5-69.5 32q-58 23-97.5 44.5t-64 44.5T89 448t-11 61q0 37 14.5 68.5T133 632t62 36 78 13q93 0 145-51t60-151h-65q-5 67-38 106t-96 39q-28 0-52.5-8T184 593.5 155.5 559 145 514q0-28 11.5-48t32-36 49-29 62.5-28q44-19 81.5-37.5t65-41 43-51.5 15.5-68z"/><glyph glyph-name="scedilla" unicode="ş" horiz-adv-x="470" d="M426 133q-1-62-46-100.5T265-14l-7-30q48-8 69.5-25.5T349-119t-27.5-52-72.5-20q-47 0-70 18-11 8-10.5 20t3.5 24q26-8 47-12t38-4q41 0 41 23 0 18-16 23t-35 9-33 11.5T204-48l6 34Q138-7 93.5 35.5T44 150h62q5-52 39-81.5T237 39t91 23 34 63q0 22-8 36.5T332 187q-18 13-47 22.5T223 229q-45 14-78 27t-54 33q-32 30-32 83 0 31 13 57.5t35.5 45.5 54 29.5T231 515q75 0 121.5-39T404 366h-61q-5 46-34 71.5T230 463q-53 0-80.5-24T122 380q1-17 6-30t18-24q17-14 44.5-22t65.5-20q34-11 62.5-19.5T371 239q23-16 39-42t16-64z"/><glyph glyph-name="Wcircumflex" unicode="Ŵ" horiz-adv-x="875" d="M313 728q-17 16-15 28.5t15 23.5l131 108 131-108q14-11 15-24.5T575 728l-131 84zM29 584q-7 21-15.5 43.5T-3 670q5 1 13 1h13q27 0 40.5-18T87 602l139-455q5-16 8.5-31.5T242 81h2q3 18 6 34t8 32l141 524q5 1 10 1h10q29 0 42.5-14.5T483 609l136-462q5-16 8.5-31.5T635 81h2q3 19 5.5 35t7.5 31l135 463q17 62 62 62 8 0 15.5-1t15.5-4q-14-14-22-34.5T841 592L666 0h-63L446 530q-4 13-7.5 28t-6.5 30h-2q-2-16-5-31t-7-29L274 0h-63z"/><glyph glyph-name="wcircumflex" unicode="ŵ" horiz-adv-x="723" d="M235 563q-17 16-15 28.5t15 23.5l131 108 131-108q14-11 15-24.5T497 563l-131 84zM40 427q-6 19-13 35.5T10 500q5 2 13 2.5t13 .5q30 0 44-18t25-51l76-244q8-23 15.5-48T210 93h2q5 24 12 49t14 48l90 310q6 2 14.5 2.5t13.5.5q30 0 43.5-18t22.5-51l71-244q7-23 14-48t12-49h2q6 24 13 49t15 48l82 254q11 32 24 46.5t35 14.5q7 0 15-1t16-4q-12-13-20-34t-15-41L547 0h-57L365 419h-3L237 0h-57z"/><glyph glyph-name="Ycircumflex" unicode="Ŷ" horiz-adv-x="555" d="M147 728q-17 16-15 28.5t15 23.5l131 108 131-108q14-11 15-24.5T409 728l-131 84zm105-456L57 589q-14 23-33.5 45.5T-13 663q10 4 24 5.5t24 1.5q23 0 42-16.5t33-39.5l175-288 164 288q15 27 32 41.5t43 14.5q11 0 23-1.5t21-5.5q-8-3-17.5-11T532 633.5 514.5 611 500 589L316 273V0h-64v272z"/><glyph glyph-name="ycircumflex" unicode="ŷ" horiz-adv-x="471" d="M109 563q-17 16-15 28.5t15 23.5l131 108 131-108q14-11 15-24.5T371 563l-131 84zM98-168q17 5 30 25.5T152-96l50 118L41 427q-8 19-16 35.5T5 500q6 2 13.5 2.5t12.5.5q30 0 45.5-18t28.5-51l96-250q9-23 17.5-47T235 89h2q8 24 16.5 48t17.5 47l102 260q13 32 28 46.5t37 14.5q7 0 15-1t16-4q-14-13-23.5-34T428 425L210-115q-17-43-44.5-56.5T98-168z"/><glyph glyph-name="Ydieresis" unicode="Ÿ" horiz-adv-x="555" d="M214 763q-17 0-27.5 11T176 802t10.5 28.5T214 842t28-11.5 11-28.5-11-28-28-11zm127 0q-17 0-27.5 11T303 802t10.5 28.5T341 842t28-11.5 11-28.5-11-28-28-11zm-89-491L57 589q-14 23-33.5 45.5T-13 663q10 4 24 5.5t24 1.5q23 0 42-16.5t33-39.5l175-288 164 288q15 27 32 41.5t43 14.5q11 0 23-1.5t21-5.5q-8-3-17.5-11T532 633.5 514.5 611 500 589L316 273V0h-64v272z"/><glyph glyph-name="gravecomb" unicode="̀" horiz-adv-x="0" d="M-318 616q-30 11-37 33.5t7 48.5l182-81q33-14 15-54v-3z"/><glyph glyph-name="acutecomb" unicode="́" horiz-adv-x="0" d="M-350 563q-18 40 15 54l182 81q14-27 6.5-49.5T-183 616l-167-56v3z"/><glyph glyph-name="uni0302" unicode="̂" horiz-adv-x="0" d="M-381 563q-17 16-15 28.5t15 23.5l131 108 131-108q14-11 15-24.5t-15-27.5l-131 84-131-84z"/><glyph glyph-name="tildecomb" unicode="̃" horiz-adv-x="0" d="M-374 594q-10 15-10 32 0 21 21.5 35t53.5 14q18 0 34-4.5t30-10.5 26.5-10.5 24.5-4.5q26 0 39.5 9t27.5 23q10-15 10-32 0-23-22-36t-55-13q-18 0-33 4.5t-29 10.5-26 10.5-24 4.5q-26 0-40-9t-28-23z"/><glyph glyph-name="uni0304" unicode="̄" horiz-adv-x="0" d="M-395 610q0 25 12.5 39.5T-346 664h241q0-24-12.5-39t-35.5-15h-242z"/><glyph glyph-name="uni0306" unicode="̆" horiz-adv-x="0" d="M-283 562q-54 0-90.5 34T-413 697q25 4 40-2.5t24-33.5q17-52 66-52t66 52q9 27 24 33.5t40 2.5q-3-67-39.5-101t-90.5-34z"/><glyph glyph-name="uni0307" unicode="̇" horiz-adv-x="0" d="M-101 598q-17 0-27.5 11t-10.5 28 10.5 28.5T-101 677t28-11.5 11-28.5-11-28-28-11z"/><glyph glyph-name="uni0308" unicode="̈" horiz-adv-x="0" d="M-314 598q-17 0-27.5 11t-10.5 28 10.5 28.5T-314 677t28-11.5 11-28.5-11-28-28-11zm127 0q-17 0-27.5 11t-10.5 28 10.5 28.5T-187 677t28-11.5 11-28.5-11-28-28-11z"/><glyph glyph-name="uni030A" unicode="̊" horiz-adv-x="0" d="M-251 562q-39 0-65.5 25t-26.5 61q0 35 26.5 60t65.5 25q42 0 67.5-25t25.5-60q0-36-25.5-61t-67.5-25zm0 43q20 0 34 12t14 31q0 17-14 30t-34 13-33.5-13-13.5-30q0-19 13.5-31t33.5-12z"/><glyph glyph-name="uni030B" unicode="̋" horiz-adv-x="0" d="M-418 563q-26 36 4 56l143 101q19-23 16.5-47.5T-284 634l-133-74zm183 0q-13 18-12.5 31.5T-231 619l143 101q19-23 16.5-47.5T-101 634l-133-74z"/><glyph glyph-name="uni030C" unicode="̌" horiz-adv-x="0" d="M-381 663q-14 11-15 23t15 29l131-84 131 84q17-18 15-29.5t-15-22.5l-131-108z"/><glyph glyph-name="uni0327" unicode="̧" horiz-adv-x="0" d="M-237-191q-47 0-70 18-11 8-10.5 20t3.5 24q26-8 47-12t38-4q41 0 41 23 0 18-16 23t-35 9-33 11.5-10 30.5l14 74 54-5-14-65q48-8 69.5-25.5T-137-119t-27.5-52-72.5-20z"/><glyph glyph-name="uni0328" unicode="̨" horiz-adv-x="0" d="M-244-191q-38 0-64.5 19t-26.5 54q0 41 30 76t85 64l38-19q-51-32-73-60.5t-22-51.5q0-19 12-27.5t29-8.5 31.5 4 36.5 16q3-12 3.5-25t-10.5-21-26.5-14-42.5-6z"/><glyph glyph-name="uni0462" unicode="Ѣ" horiz-adv-x="599" d="M117 501H-7q0 30 15 43t44 13h65v113q20 1 33.5-6.5T172 645q7-10 8-20t1-23v-45l220-1q0-30-15-43t-44-13H181V383h172q107 0 164-49t57-143q0-96-57.5-144T353 0H117v501zM346 56q39 0 70 6.5T468 85t31.5 42 9.5 64q-1 39-12 65.5t-31.5 42-50.5 22-69 6.5H181V56h165z"/><glyph glyph-name="uni0463" unicode="ѣ" horiz-adv-x="536" d="M99 473H-4q0 29 14.5 41.5T53 527h46v157q39 0 53-24 6-10 7-19.5t1-22.5v-91h167q0-29-14.5-41.5T270 473H160V302h182q81 0 122-39.5T505 152q0-72-41-112T342 0H99v473zM331 53q54 0 82.5 22.5T441 151q-1 54-29.5 76.5T334 250H160V53h171z"/><glyph glyph-name="uni0472" unicode="Ѳ" horiz-adv-x="776" d="M388-19q-71 0-133.5 27T146 82.5 73.5 194 47 333t26.5 139.5T146 584t108.5 74T388 685t133.5-27T630 584t72.5-111.5T729 333t-26.5-139T630 82.5 521.5 8 388-19zm121 351q54 0 88.5 10.5T659 378q-7 54-31 99.5t-60 79-82 52-98 18.5q-54 0-102-20.5T201.5 550t-60-85.5T113 357q23 15 62 25.5t85 10.5q40 0 74-9.5t64.5-21 57.5-21 53-9.5zM388 39q55 0 103 20.5t84.5 57 59 86.5T661 312q-24-16-64-26t-88-10q-38 0-71 9.5t-63 21-57 21-53 9.5q-54 0-87-10.5T115 293q7-55 31-101.5t60.5-80.5T289 58t99-19z"/><glyph glyph-name="uni0473" unicode="ѳ" d="M295-15q-54 0-100 20.5t-80 56-53.5 84T42 250t19.5 104.5 53.5 84 80 55.5 100 20 100-20 79.5-55.5 53-84T547 250t-19.5-104.5-53-84-79.5-56T295-15zM107 246q15 15 41 25.5t58 12.5q27 2 51-4t45.5-13.5T343 253t37-4q35 2 58 12.5t40 30.5q-6 36-22.5 66.5T415 411t-54.5 34-65.5 12q-41 0-75-15.5T161 398t-39-67-15-85zM295 42q37 0 69.5 14t57 38.5 40 58.5 18.5 74q-17-12-42-21t-55-11q-26-2-49 3.5t-44 13-40.5 13.5-37.5 5q-35-3-56.5-13.5T115 188q18-65 66-105.5T295 42z"/><glyph glyph-name="uni0474" unicode="Ѵ" horiz-adv-x="646" d="M-13 670q5 1 11.5 1.5t11.5.5q30 0 45.5-18T85 603l186-457q8-18 13-33.5T296 76h2q6 21 10.5 36.5T320 147l171 461q12 32 27.5 47t44.5 15l116-1q0-58-59-56l-39 1q-23 0-33-25L327 0h-58z"/><glyph glyph-name="uni0475" unicode="ѵ" horiz-adv-x="528" d="M41 426q-8 19-16 35.5T5 499q6 2 13.5 2.5t12.5.5q30 0 45.5-18t28.5-51l102-263q9-23 17.5-47T241 75h2l16 48 17 47 106 269q25 61 69 61h97q0-29-14.5-41.5T491 446h-23q-13 0-19.5-7T437 420L268 0h-57z"/><glyph glyph-name="uni0492" unicode="Ғ" horiz-adv-x="537" d="M148 307H-2q0 30 15 43t44 13h91v307h387q0-32-14.5-44T477 614l-265-1V363l244-1q0-30-15-43t-44-13H212V1l-64-1v307z"/><glyph glyph-name="uni0493" unicode="ғ" horiz-adv-x="451" d="M108 219H0q0 29 14.5 41.5T57 273h51v227h343q0-31-14-43t-42-12l-226 1V273h189q0-29-14.5-41.5T301 219H169V0h-61v219z"/><glyph glyph-name="uni0496" unicode="Җ" horiz-adv-x="872" d="M871-126q-35-2-48 15.5T810-64v56q-23 1-43 13t-39 33L468 323V0h-64v323L144 38q-20-22-41-34T59-8Q44-8 28-6.5T2 0q17 6 38.5 25.5T79 64l255 268L92 599q-17 19-38.5 39T15 664q10 5 24 6.5t25 1.5q24 0 44.5-12t40.5-34l255-285v330q20 1 33.5-6.5T459 646q7-10 8-20t1-23V341l255 285q20 22 40.5 34t44.5 12q11 0 25-1.5t24-6.5q-17-6-38.5-26T780 599L538 332 777 81q23-26 47-30.5t47-4.5v-172z"/><glyph glyph-name="uni0497" unicode="җ" horiz-adv-x="691" d="M704-126q-34-2-46.5 14.5T645-66v58q-22 2-39.5 13.5T568 37L371 235V0h-61v237L111 37Q91 16 72 4T31-8Q17-8 2-6.5T-23 0q8 3 17.5 9.5t19 15.5 19 19T51 63l189 185L87 436q-17 20-37 39.5T14 500q9 5 22 6.5t26 1.5q23 0 42.5-11.5T142 462l168-207v245q19 1 32-6t21-18q6-9 7-18.5t1-22.5V255l168 207q18 23 37.5 34.5T619 508q13 0 26-1.5t22-6.5q-16-5-36-24.5T594 436L441 248 632 61q17-16 36-18.5t36-2.5v-166z"/><glyph glyph-name="uni049A" unicode="Қ" horiz-adv-x="561" d="M550-126q-35-2-48 15.5T489-64v56q-23 1-43 13t-39 33L147 323V0H83v671q20 1 33.5-6.5T138 646q7-10 8-20t1-23V341l255 285q20 22 40.5 34t44.5 12q11 0 25-1.5t24-6.5q-17-6-38.5-26T459 599L217 332 456 81q23-26 47-30.5t47-4.5v-172z"/><glyph glyph-name="uni049B" unicode="қ" horiz-adv-x="450" d="M463-126q-34-2-46.5 14.5T404-66v58q-22 2-39.5 13.5T327 37L130 235V0H69v500q19 1 32-6t21-18q6-9 7-18.5t1-22.5V255l168 207q18 23 37.5 34.5T378 508q13 0 26-1.5t22-6.5q-16-5-36-24.5T353 436L200 248 389 63q15-14 31.5-18.5T463 40v-166z"/><glyph glyph-name="uni04A2" unicode="Ң" horiz-adv-x="690" d="M661-126q-35-2-48 15.5T600-64V0h-64v305H147V0H83v671q20 1 33.5-6.5T138 646q7-10 8-20t1-23V361h389v242q0 13 1 23t8 20q8 11 21.5 18.5T600 671V56h61v-182z"/><glyph glyph-name="uni04A3" unicode="ң" horiz-adv-x="567" d="M545-126q-34-2-46.5 14.5T486-66V0h-62v221H130V0H69v500q39 0 53-24 6-10 7-19.5t1-22.5V275h294v159q0 13 1.5 22.5T432 476q14 24 54 24V50h59v-176z"/><glyph glyph-name="uni04AE" unicode="Ү" horiz-adv-x="555" d="M252 272 57 589q-14 23-33.5 45.5T-13 663q10 4 24 5.5t24 1.5q23 0 42-16.5t33-39.5l175-288 164 288q15 27 32 41.5t43 14.5q11 0 23-1.5t21-5.5q-8-3-17.5-11T532 633.5 514.5 611 500 589L316 273V0h-64v272z"/><glyph glyph-name="uni04AF" unicode="ү" horiz-adv-x="482" d="M209 20 41 426q-8 19-16 35.5T5 499q6 2 13.5 2.5t12.5.5q30 0 45-18t29-51l102-248q10-23 18-47l16-48h2l16 48 18 47 107 259q13 32 28 46.5t37 14.5q7 0 15-1t16-4q-14-13-23.5-34T439 425L270 20v-188h-61V20z"/><glyph glyph-name="uni04B0" unicode="Ұ" horiz-adv-x="555" d="M252 165H78q0 30 15 43t44 13h115v51L57 589q-14 23-33.5 45.5T-13 663q10 4 24 5.5t24 1.5q23 0 42-16.5t33-39.5l175-288 164 288q15 27 32 41.5t43 14.5q11 0 23-1.5t21-5.5q-8-3-17.5-11T532 633.5 514.5 611 500 589L316 273v-52l190-1q0-30-15-43t-44-13H316V0h-64v165z"/><glyph glyph-name="uni04B1" unicode="ұ" horiz-adv-x="482" d="M209-89H75q0 29 14.5 41.5T132-35h77v55L41 426q-8 19-16 35.5T5 499q6 2 13.5 2.5t12.5.5q30 0 45-18t29-51l102-248q10-23 18-47l16-48h2l16 48 18 47 107 259q13 32 28 46.5t37 14.5q7 0 15-1t16-4q-14-13-23.5-34T439 425L270 20v-55h136q0-29-14.5-41.5T349-89h-79v-79h-61v79z"/><glyph glyph-name="uni04B2" unicode="Ҳ" horiz-adv-x="548" d="M554-126q-35-2-48 15.5T493-64v58q-20 4-35.5 19T428 49L267 292 115 48Q100 24 83 8.5T40-7Q29-7 16.5-5.5T-6 0q9 3 18 11.5t17.5 19 16.5 22T61 74l171 267L66 590q-15 23-33 45t-35 28q9 4 24 5.5t25 1.5q23 0 42-15.5t35-39.5l143-218 134 218q16 26 34 40.5t44 14.5q10 0 22.5-1.5T523 663q-17-6-35.5-29T455 590L302 347 492 68q15-17 28.5-19.5T554 46v-172z"/><glyph glyph-name="uni04B3" unicode="ҳ" horiz-adv-x="508" d="M502-126q-34-2-46.5 14.5T443-66v60q-20 3-34.5 17.5T377 49L254 215 131 46Q113 21 98 5.5T57-10q-10 0-23 1.5T11-2q9 4 18 12t18 18 17 21.5T80 71l140 190-120 168q-16 22-34 43t-35 28q9 5 24.5 6.5T81 508q23 0 39-15.5t33-39.5l102-143 101 143q18 26 32.5 40.5T427 508q11 0 24-1.5t22-6.5q-8-4-17.5-12T437 470t-17.5-21-15.5-21L289 264 439 63q13-14 30-18.5t33-4.5v-166z"/><glyph glyph-name="uni04B6" unicode="Ҷ" horiz-adv-x="665" d="M636-126q-35-2-48 15.5T575-64V0h-63v240q-38-29-95-45.5T294 178q-50 0-92.5 15.5t-74 44-49 69.5T61 400v271q20 1 33.5-6.5T116 646q7-10 8-20t1-23V407q0-41 12.5-72.5t35-52.5 53.5-32.5 68-11.5q66-1 125 18t93 57v290q0 13 1 23t8 20q8 11 21.5 18.5T575 671l1-615h60v-182z"/><glyph glyph-name="uni04B7" unicode="ҷ" horiz-adv-x="539" d="M517-126q-34-2-46.5 14.5T458-66V0l-60-1v186h-2q-27-24-64-42t-96-18q-34 0-67 10t-59 30.5T68 217t-16 73v210q19 1 32-6t21-18q6-9 7-18.5t1-22.5V289q0-29 10.5-49.5t28.5-34 41.5-20T244 179q49 0 87 19.5t67 52.5v184q0 13 1 22.5t7 18.5q8 11 21 18t32 6V50h58v-176z"/><glyph glyph-name="uni04BA" unicode="Һ" horiz-adv-x="659" d="M84 670q19 1 32.5-6.5T138 645q7-10 8-20t1-23V450q38 29 95 45.5T365 512q50 0 92.5-15.5t74-44 49-69.5 17.5-93V-1l-64 1v283q0 41-12.5 72.5t-35 52.5-53.5 32.5-68 11.5q-66 1-125-18t-93-57V-1H83z"/><glyph glyph-name="uni04BB" unicode="һ" horiz-adv-x="535" d="M72 684q19 1 32-6t21-18q6-9 7-18.5t1-22.5V430l1-1q30 42 70.5 63.5T305 514q43 0 74.5-11.5T431 472q24-23 33-51t9-72V0h-61v350q0 32-7.5 51.5T380 435q-29 23-86 23-44 0-82.5-22.5T153 377q-20-37-20-102V0H72v684z"/><glyph glyph-name="uni04C0" unicode="Ӏ" horiz-adv-x="230" d="M83 671q20 1 33.5-6.5T138 646q7-10 8-20t1-23V0H83v671z"/><glyph glyph-name="uni04CF" unicode="ӏ" horiz-adv-x="197" d="M69 500q19 1 32-6t21-18q6-9 7-18.5t1-22.5V0H69v500z"/><glyph glyph-name="uni04D8" unicode="Ә" horiz-adv-x="736" d="M359-20q-68 0-125 23.5T136 69 71.5 170 47 300v22l1 23h573q-2 62-24.5 113t-59 87-84.5 56-101 20q-47 0-85-13t-67-37-48.5-57-28.5-73H50q7 52 33.5 96.5t67.5 77 93.5 50.5T356 683q74 0 135-28t105-76 68.5-112T689 331t-24-136-67.5-111.5T493.5 8 359-20zm3 63q50 0 93.5 17.5t77 49 55.5 76 30 98.5H118q4-55 23.5-99.5t51-76T267 60t95-17z"/><glyph glyph-name="uni04D9" unicode="ә" horiz-adv-x="569" d="M275 515q56 0 102.5-21t79.5-57.5 51.5-85T527 249t-18.5-102.5T457 62 377.5 5 275-16q-51 0-94 17.5T107 51t-48 76.5T42 226v16.5l1 17.5h417q-2 45-17.5 81.5T401 404t-60 40-72 14q-66 0-107-34.5T107 332H45q6 40 26.5 73.5t52 58 70.5 38 81 13.5zM108 206q7-76 50-121t115-45q34 0 64.5 12T392 85.5t41 52 23 68.5H108z"/><glyph glyph-name="uni04E2" unicode="Ӣ" horiz-adv-x="682" d="M201 775q0 25 12.5 39.5T250 829h241q0-24-12.5-39T443 775H201zM83 671q19 1 32.5-6.5T137 646q7-10 8-20t1-23V175q0-18-.5-41T144 93h1q8 17 17.5 35.5T180 159l317 461q13 18 25 28.5t24.5 15.5 25.5 6 27 0V0h-63v510q0 18 .5 36.5T539 584h-1q-8-14-17.5-31T502 523L144 0H83v671z"/><glyph glyph-name="uni04E3" unicode="ӣ" horiz-adv-x="534" d="M126 604q0 25 12.5 39.5T175 658h241q0-24-12.5-39T368 604H126zM69 500q36 0 52-25 5-8 6.5-18t1.5-23V169q0-17-.5-38.5T127 91h1q8 15 17 31t17 29l205 299q24 35 47 43t51 6V0h-61v345q0 17 1 34.5t3 35.5h-1q-8-14-17.5-29.5T372 357L127 0H69v500z"/><glyph glyph-name="uni04E8" unicode="Ө" horiz-adv-x="771" d="M388-19q-71 0-133.5 27T146 82.5 73.5 194 47 333t26.5 139.5T146 584t108.5 74T388 685t133.5-27T630 584t72.5-111.5T729 333t-26.5-139T630 82.5 521.5 8 388-19zm273 380q-5 57-28 106t-59.5 84.5-84 55.5T388 627t-101.5-20-84-55.5T143 467t-29-106h547zM388 39q54 0 101.5 20t84 55.5T633 199t28 106H114q6-57 29-106t59.5-84.5 84-55.5T388 39z"/><glyph glyph-name="uni04E9" unicode="ө" d="M295-15q-54 0-100 20.5t-80 56-53.5 84T42 250t19.5 104.5 53.5 84 80 55.5 100 20 100-20 79.5-55.5 53-84T547 250t-19.5-104.5-53-84-79.5-56T295-15zm185 290q-4 40-19.5 73.5t-40 57.5-56.5 37.5-69 13.5-69-13.5-57-37.5-40.5-57.5T109 275h371zM295 42q37 0 68.5 13.5t56 37 40 56.5 19.5 72H109q5-39 21-72t40.5-56.5 56-37T295 42z"/><glyph glyph-name="uni04EE" unicode="Ӯ" horiz-adv-x="550" d="M132 775q0 25 12.5 39.5T181 829h241q0-24-12.5-39T374 775H132zM168-1Q154-1 145.5.5T130 4q14 14 27.5 36T180 80l63 120-256 470q5 1 15.5 1.5t15.5.5q29 0 46.5-18T99 603l134-253q11-21 22-43t22-43h2q18 42 40 86l133 260q17 32 33 47t38 15q9 0 21-1.5t19-3.5q-14-14-27.5-36T513 591L241 61q-17-32-33.5-47T168-1z"/><glyph glyph-name="uni04EF" unicode="ӯ" horiz-adv-x="471" d="M95 610q0 25 12.5 39.5T144 664h241q0-24-12.5-39T337 610H95zm3-778q17 5 30 25.5T152-96l50 118L41 427q-8 19-16 35.5T5 500q6 2 13.5 2.5t12.5.5q30 0 45.5-18t28.5-51l96-250q9-23 17.5-47T235 89h2q8 24 16.5 48t17.5 47l102 260q13 32 28 46.5t37 14.5q7 0 15-1t16-4q-14-13-23.5-34T428 425L210-115q-17-43-44.5-56.5T98-168z"/><glyph glyph-name="Wgrave" unicode="Ẁ" horiz-adv-x="875" d="M376 781q-30 11-37 33.5t7 48.5l182-81q33-14 15-54v-3zM29 584q-7 21-15.5 43.5T-3 670q5 1 13 1h13q27 0 40.5-18T87 602l139-455q5-16 8.5-31.5T242 81h2q3 18 6 34t8 32l141 524q5 1 10 1h10q29 0 42.5-14.5T483 609l136-462q5-16 8.5-31.5T635 81h2q3 19 5.5 35t7.5 31l135 463q17 62 62 62 8 0 15.5-1t15.5-4q-14-14-22-34.5T841 592L666 0h-63L446 530q-4 13-7.5 28t-6.5 30h-2q-2-16-5-31t-7-29L274 0h-63z"/><glyph glyph-name="wgrave" unicode="ẁ" horiz-adv-x="723" d="M298 616q-30 11-37 33.5t7 48.5l182-81q33-14 15-54v-3zM40 427q-6 19-13 35.5T10 500q5 2 13 2.5t13 .5q30 0 44-18t25-51l76-244q8-23 15.5-48T210 93h2q5 24 12 49t14 48l90 310q6 2 14.5 2.5t13.5.5q30 0 43.5-18t22.5-51l71-244q7-23 14-48t12-49h2q6 24 13 49t15 48l82 254q11 32 24 46.5t35 14.5q7 0 15-1t16-4q-12-13-20-34t-15-41L547 0h-57L365 419h-3L237 0h-57z"/><glyph glyph-name="Wacute" unicode="Ẃ" horiz-adv-x="875" d="M344 728q-18 40 15 54l182 81q14-27 6.5-49.5T511 781l-167-56v3zM29 584q-7 21-15.5 43.5T-3 670q5 1 13 1h13q27 0 40.5-18T87 602l139-455q5-16 8.5-31.5T242 81h2q3 18 6 34t8 32l141 524q5 1 10 1h10q29 0 42.5-14.5T483 609l136-462q5-16 8.5-31.5T635 81h2q3 19 5.5 35t7.5 31l135 463q17 62 62 62 8 0 15.5-1t15.5-4q-14-14-22-34.5T841 592L666 0h-63L446 530q-4 13-7.5 28t-6.5 30h-2q-2-16-5-31t-7-29L274 0h-63z"/><glyph glyph-name="wacute" unicode="ẃ" horiz-adv-x="723" d="M266 563q-18 40 15 54l182 81q14-27 6.5-49.5T433 616l-167-56v3zM40 427q-6 19-13 35.5T10 500q5 2 13 2.5t13 .5q30 0 44-18t25-51l76-244q8-23 15.5-48T210 93h2q5 24 12 49t14 48l90 310q6 2 14.5 2.5t13.5.5q30 0 43.5-18t22.5-51l71-244q7-23 14-48t12-49h2q6 24 13 49t15 48l82 254q11 32 24 46.5t35 14.5q7 0 15-1t16-4q-12-13-20-34t-15-41L547 0h-57L365 419h-3L237 0h-57z"/><glyph glyph-name="Wdieresis" unicode="Ẅ" horiz-adv-x="875" d="M380 763q-17 0-27.5 11T342 802t10.5 28.5T380 842t28-11.5 11-28.5-11-28-28-11zm127 0q-17 0-27.5 11T469 802t10.5 28.5T507 842t28-11.5 11-28.5-11-28-28-11zM29 584q-7 21-15.5 43.5T-3 670q5 1 13 1h13q27 0 40.5-18T87 602l139-455q5-16 8.5-31.5T242 81h2q3 18 6 34t8 32l141 524q5 1 10 1h10q29 0 42.5-14.5T483 609l136-462q5-16 8.5-31.5T635 81h2q3 19 5.5 35t7.5 31l135 463q17 62 62 62 8 0 15.5-1t15.5-4q-14-14-22-34.5T841 592L666 0h-63L446 530q-4 13-7.5 28t-6.5 30h-2q-2-16-5-31t-7-29L274 0h-63z"/><glyph glyph-name="wdieresis" unicode="ẅ" horiz-adv-x="723" d="M302 598q-17 0-27.5 11T264 637t10.5 28.5T302 677t28-11.5 11-28.5-11-28-28-11zm127 0q-17 0-27.5 11T391 637t10.5 28.5T429 677t28-11.5 11-28.5-11-28-28-11zM40 427q-6 19-13 35.5T10 500q5 2 13 2.5t13 .5q30 0 44-18t25-51l76-244q8-23 15.5-48T210 93h2q5 24 12 49t14 48l90 310q6 2 14.5 2.5t13.5.5q30 0 43.5-18t22.5-51l71-244q7-23 14-48t12-49h2q6 24 13 49t15 48l82 254q11 32 24 46.5t35 14.5q7 0 15-1t16-4q-12-13-20-34t-15-41L547 0h-57L365 419h-3L237 0h-57z"/><glyph glyph-name="Ygrave" unicode="Ỳ" horiz-adv-x="555" d="M210 781q-30 11-37 33.5t7 48.5l182-81q33-14 15-54v-3zm42-509L57 589q-14 23-33.5 45.5T-13 663q10 4 24 5.5t24 1.5q23 0 42-16.5t33-39.5l175-288 164 288q15 27 32 41.5t43 14.5q11 0 23-1.5t21-5.5q-8-3-17.5-11T532 633.5 514.5 611 500 589L316 273V0h-64v272z"/><glyph glyph-name="ygrave" unicode="ỳ" horiz-adv-x="471" d="M172 616q-30 11-37 33.5t7 48.5l182-81q33-14 15-54v-3zM98-168q17 5 30 25.5T152-96l50 118L41 427q-8 19-16 35.5T5 500q6 2 13.5 2.5t12.5.5q30 0 45.5-18t28.5-51l96-250q9-23 17.5-47T235 89h2q8 24 16.5 48t17.5 47l102 260q13 32 28 46.5t37 14.5q7 0 15-1t16-4q-14-13-23.5-34T428 425L210-115q-17-43-44.5-56.5T98-168z"/><glyph glyph-name="minus" unicode="−" horiz-adv-x="620" d="M78 250q0 30 15.5 42t44.5 12h404q0-30-15-42t-45-12H78z"/><glyph glyph-name="logo" horiz-adv-x="2514" d="M439-12q-56 0-101 25.5T258 84l-90 117V2H60v630q33 0 54-10.5t33-27.5 16.5-40 4.5-48V298l98 124q38 48 82 69t92 21q17 0 34.5-2.5T510 502q-35-5-96-68T257 250q50-63 89.5-109.5t70-77.5T470 16t40-18q-36-10-71-10zm756-1q-33 0-54 10.5T1107.5 25t-17 40-4.5 48l1 80H978q-9-44-32.5-81.5t-57-65-76-43T723-12q-54 0-101.5 20.5t-83 56-56 83T462 249t20.5 102 56 83.5 83 56T723 511q48 0 90.5-16t76.5-44.5 57.5-67T979 300h108v210q33 0 54-10.5t34-27.5 17.5-40 4.5-48l-1-84h164q0-33-10.5-53.5T1322 214t-40-16.5-48-4.5h-38zm456 1q-57 0-105 20.5t-83 56-54.5 83T1389 249t19.5 102 54.5 83.5 83 56 105 20.5q50 0 94-20.5t76.5-56T1873 351t19-102q0-7-.5-16t-1.5-16h-393q10-64 52.5-95.5T1655 90q35 0 64 12t43 38h116q-38-79-96.5-115.5T1651-12zm275-1q-35 0-71 10 24 3 57.5 33.5t67.5 71 64 81.5 47 66q-17 25-47 66t-64 81-67.5 70.5T1855 500q36 10 71 10 54 0 95-24t76-70l57-79 58 79q67 94 170 94 36 0 72-10-16-2-37-17t-43.5-37-45.5-49.5-44-55-38.5-52T2216 249q18-25 48-66t64-81.5 68-71T2454-3q-36-10-72-10-54 0-95.5 24T2211 82l-57 79-57-79q-35-48-76.5-71.5T1926-13zm-141 323q-15 48-48.5 77t-91.5 29q-54 0-91-29t-51-77h282zM725 95q32 0 60 12t49 33 33 49 12 60-12 60.5-33 49.5-49 33-60 12-60-12-49-33-33.5-49.5T570 249t12.5-60 33.5-49 49-33 60-12z"/><glyph glyph-name="Ru_desc" horiz-adv-x="221" d="M141-126q-35-2-48 15.5T80-64V56h61v-182z"/></font>
</defs>
</svg>
