<svg xmlns="http://www.w3.org/2000/svg"><defs><font id="KotexCyrillic-Bold" horiz-adv-x="0"><font-face font-family="Kotex Cyrillic" font-weight="700" ascent="800" descent="-200" x-height="500" cap-height="670" bbox="-456 -198 2454 909" underline-thickness="50" underline-position="-100" unicode-range="U+000D-FB04"/><glyph glyph-name="f_f" unicode="ff" horiz-adv-x="693" d="M102 394H4q0 49 25 72t65 23h8v42q0 38 12 67.5t37 48.5q23 18 55 27t64 9q41 0 65-7.5t24-33.5v-59q-17 6-36 9t-35 3q-17 0-32-3t-25-11q-12-10-15-23t-3-37v-32h109q0-54-26-74.5T222 394h-9V0H102v394zm333 0h-84q0 48 24 71.5t60 23.5v42q0 38 12 67.5t37 48.5q23 18 55 27t64 9q41 0 65-7.5t24-33.5v-59q-17 6-36 9t-35 3q-17 0-32-3t-25-11q-12-10-15-23t-3-37v-32h137q0-54-26.5-74.5T577 394h-31V0H435v394z"/><glyph glyph-name="fi" unicode="fi" horiz-adv-x="563" d="M452 596q-30 0-51 21t-21 51 21 51.5 51 21.5 51.5-21.5T525 668t-21.5-51-51.5-21zM102 394H4q0 49 25 72t65 23h8v45q0 38 12 67.5t37 48.5q23 18 53.5 25.5T267 683q13 0 25.5-1.5t23-6 17-12.5 6.5-21v-59q-17 6-35 9t-26 3q-17 0-28-2.5T229 582q-12-10-14-23.5t-2-37.5v-32h117q0-54-26.5-74.5T224 394h-11V0H102v394zm295 106q34 1 59-10t37-33q9-17 12-34.5t3-40.5V0H397v500z"/><glyph glyph-name="fl" unicode="fl" horiz-adv-x="568" d="M397 684q34 1 58.5-10.5T494 641q11-17 12.5-34.5T508 566V0H397v684zM102 394H4q0 49 25 72t65 23h8v45q0 38 12 67.5t37 48.5q23 18 53.5 25.5T267 683q13 0 25.5-1.5t23-6 17-12.5 6.5-21v-59q-17 6-35 9t-26 3q-17 0-28-2.5T229 582q-12-10-14-23.5t-2-37.5v-32h117q0-54-26.5-74.5T224 394h-11V0H102v394z"/><glyph glyph-name="f_f_i" unicode="ffi" horiz-adv-x="897" d="M786 596q-30 0-51 21t-21 51 21 51.5 51 21.5 51.5-21.5T859 668t-21.5-51-51.5-21zM102 394H4q0 49 25 72t65 23h8v42q0 38 12 67.5t37 48.5q23 18 55 27t64 9q41 0 65-7.5t24-33.5v-59q-17 6-36 9t-35 3q-17 0-32-3t-25-11q-12-10-15-23t-3-37v-32h109q0-54-26-74.5T222 394h-9V0H102v394zm333 0h-84q0 48 24 71.5t60 23.5v45q0 38 12 67.5t37 48.5q23 18 53.5 25.5T600 683q13 0 25.5-1.5t23-6 17-12.5 6.5-21v-59q-17 6-35 9t-26 3q-17 0-28-2.5T562 582q-12-10-14-23.5t-2-37.5v-32h118q0-54-26.5-74.5T558 394h-12V0H435v394zm296 106q34 1 59-10t37-33q9-17 12-34.5t3-40.5V0H731v500z"/><glyph glyph-name="f_f_l" unicode="ffl" horiz-adv-x="902" d="M731 684q34 1 58.5-10.5T828 641q11-17 12.5-34.5T842 566V0H731v684zM102 394H4q0 49 25 72t65 23h8v42q0 38 12 67.5t37 48.5q23 18 55 27t64 9q41 0 65-7.5t24-33.5v-59q-17 6-36 9t-35 3q-17 0-32-3t-25-11q-12-10-15-23t-3-37v-32h109q0-54-26-74.5T222 394h-9V0H102v394zm333 0h-84q0 48 24 71.5t60 23.5v45q0 38 12 67.5t37 48.5q23 18 53.5 25.5T600 683q13 0 25.5-1.5t23-6 17-12.5 6.5-21v-59q-17 6-35 9t-26 3q-17 0-28-2.5T562 582q-12-10-14-23.5t-2-37.5v-32h118q0-54-26.5-74.5T558 394h-12V0H435v394z"/><glyph glyph-name="t_t" unicode="tt" horiz-adv-x="686" d="M222-3q-34-1-59 10t-37 33q-9 17-12 34.5t-3 40.5v278H4q0 54 27 75t80 21v140q34 1 59-10t37-33q9-17 12-34.5t3-40.5v-22h104q0-54-26-75t-74-21h-4V-3zm340 0q-34-1-59 10t-37 33q-9 17-12 34.5t-3 40.5v278h-96q0 54 25.5 75t70.5 21v140q34 1 59-10t37-33q9-17 12-34.5t3-40.5v-22h128q0-54-26.5-75T584 393h-22V-3z"/><glyph glyph-name="f_t" unicode="ft" horiz-adv-x="682" d="M102 394H4q0 49 25 72t65 23h8v42q0 38 12 67.5t37 48.5q23 18 55 27t64 9q41 0 65-7.5t24-33.5v-59q-17 6-36 9t-35 3q-17 0-32-3t-25-11q-12-10-15-23t-3-37v-32h109q0-54-26-74.5T222 394h-9V0H102v394zM558-3q-34-1-59 10t-37 33q-9 17-12 34.5t-3 40.5v278h-96q0 54 25.5 75t70.5 21v140q34 1 59-10t37-33q9-17 12-34.5t3-40.5v-22h128q0-54-26.5-75T580 393h-22V-3z"/><glyph glyph-name=".notdef" horiz-adv-x="419" d="M344-168H78v838h266v-838zM141 614v-28h54v-31h-55v-27h139v27h-55v31h55v28H141zm-1-108v-87h139v28h-55v59h-84zm55-59h-27v30h27v-30zm-55-51v-28h55v-31h-55v-27h84v58h55v28H140zm111-50v-56H140v-28h139v84h-28zm-56-103v-46h29v19h27v-40h-83v67h-28v-94h139v94h-84zM140 98V4h139v94H140zm111-67h-83v40h83V31zM140-15v-28h59l-59-40v-27h139v27h-85l58 40h27v28H140z"/><glyph glyph-name="NULL"/><glyph glyph-name="NULL"/><glyph glyph-name="nonmarkingreturn" horiz-adv-x="200"/><glyph glyph-name="space" horiz-adv-x="200"/><glyph glyph-name="exclam" unicode="!" horiz-adv-x="295" d="M90 670h115l-9-476H95zM147-5q-30 0-51 21T75 67t21 51.5 51 21.5 51.5-21.5T220 67t-21.5-51T147-5z"/><glyph glyph-name="quotedbl" unicode="&quot;" horiz-adv-x="397" d="M66 670h108l-18-269H84zm157 0h108l-18-269h-72z"/><glyph glyph-name="numbersign" unicode="#" horiz-adv-x="671" d="M176 195H66q0 45 22 62.5t67 17.5h31l15 119H88q0 45 22 62.5t67 17.5h34l14 113q5 43 23.5 61.5T317 664l-24-190h120l14 113q5 43 23.5 61.5T519 664l-24-190h110q0-45-22.5-62.5T517 394h-32l-15-119h113q0-45-22.5-62.5T495 195h-35L436 0h-82l24 195H258L234 0h-82zm212 80 15 119H283l-15-119h120z"/><glyph glyph-name="dollar" unicode="$" horiz-adv-x="564" d="M241 3q-86 13-135 67.5T52 220h112q8-95 81-120l1 199q-41 16-73 34t-54 40-33 50-11 66q0 36 13.5 66.5t37.5 54 56 38 69 18.5v27q0 40 15.5 60.5T326 780V663q74-13 114-63.5T488 468H383q-3 79-59 102V386q39-15 73.5-30t60-36.5 40-52T512 191q0-42-16-75.5T453 58t-62.5-38.5T316 1v-35q0-40-15.5-60.5T241-121V3zm8 571q-30-7-47.5-27T184 496q0-28 16.5-46.5T249 416v158zm71-479q40 6 62 28t22 56q0 33-20.5 53T321 270z"/><glyph glyph-name="percent" unicode="%" horiz-adv-x="694" d="M163 344q-36 0-64.5 13t-48 35-30 52T10 507t10.5 63 30 52 48 35 64.5 13 64.5-13 48.5-35 30.5-52 10.5-63-10.5-63-30.5-52-48.5-35-64.5-13zm365 280q9 11 18.5 19.5T571 658t37.5 9 56.5 3L155 45q-9-11-18.5-20T112 10 75 1 19-2zM163 417q35 0 54.5 26t19.5 64-19.5 64-54.5 26-53.5-26T90 507t19-64 54-26zM530 0q-36 0-64.5 13t-48 35-30 52-10.5 63 10.5 63 30 52 48 35 64.5 13 64.5-13 48.5-35 30.5-52 10.5-63-10.5-63T643 48t-48.5-35T530 0zm0 73q35 0 55 26t19 64q0 38-19.5 64T530 253t-54-26-19-64q-1-38 19-64t54-26z"/><glyph glyph-name="ampersand" unicode="&amp;" horiz-adv-x="646" d="M272-15q-52 0-95.5 13.5t-75 38.5-49 61.5T35 181q0 62 34.5 108.5T158 367q-13 19-26.5 39.5t-24 42-17 43.5-6.5 44q0 34 12.5 63t35.5 50 54 33 69 12q37 0 68-12t53.5-33 34.5-49 12-61q0-54-28-102t-91-91q26-35 57-68t65-67q7-7 15.5-14.5T458 181q13 22 13 55 0 32-11.5 66.5T429 364h106q15-25 24.5-56t9.5-62q0-35-8-69t-25-62L666 13q-24-5-48-9.5T570-1q-28 0-56.5 9T455 43q-16-11-33-21.5T383 3t-49-13-62-5zm-18 429q32 21 51 51t19 72q0 32-19 52t-48 20-48-20.5-19-52.5q0-27 19-60.5t45-61.5zm23-335q35 0 61.5 8t46.5 21q-9 6-23 19t-28 27q-32 32-62.5 67T211 292q-32-19-47-45.5T149 188q0-29 11.5-49.5t29.5-34T231 85t46-6z"/><glyph glyph-name="quotesingle" unicode="'" horiz-adv-x="240" d="M66 670h108l-18-269H84z"/><glyph glyph-name="parenleft" unicode="(" horiz-adv-x="331" d="M206-94q-34 43-61 95T99 108.5t-29 112T60 330t10 109.5 29 112 46 107 61 95.5h98q-70-103-102-208t-32-213q0-107 32-214T304-94h-98z"/><glyph glyph-name="parenright" unicode=")" horiz-adv-x="331" d="M125 754q34-44 61-95.5t46-107 29-112T271 330t-10-109.5-29-112T186 1t-61-95H27Q97 9 129 114t32 213q0 107-32 214T27 754h98z"/><glyph glyph-name="asterisk" unicode="*" horiz-adv-x="423" d="m79 430 83 88-118 21 28 89 109-52-16 119h93l-16-119 109 52 28-89-118-21 83-88-76-54-56 106-57-106z"/><glyph glyph-name="plus" unicode="+" horiz-adv-x="645" d="M276 231H66q0 51 25.5 71.5T168 323h108v189q92 3 92-89V323h211q0-51-25.5-71.5T477 231H368V44h-92v187z"/><glyph glyph-name="comma" unicode="," horiz-adv-x="209" d="M15-113q28 25 49.5 53T86-12q0 13-7 21.5t-16 16-16 18T40 72q0 28 18.5 48t48.5 20q32 0 52-23t20-64q0-33-12-62.5T137-65t-39.5-48T56-153z"/><glyph glyph-name="hyphen" unicode="-" horiz-adv-x="484" d="M66 281q0 51 25.5 71.5T168 373h250q0-51-25.5-71.5T316 281H66z"/><glyph glyph-name="period" unicode="." horiz-adv-x="209" d="M104-5Q74-5 53 16T32 67t21 51.5 51 21.5 51.5-21.5T177 67t-21.5-51T104-5z"/><glyph glyph-name="slash" unicode="/" horiz-adv-x="429" d="M323 720q18 46 43.5 60t72.5 2L111-69q-18-47-43.5-60.5T-5-131z"/><glyph glyph-name="zero" unicode="0" horiz-adv-x="614" d="M307-15q-64 0-114.5 27.5t-85.5 75-53.5 111T35 334t18.5 135.5T107 581t85.5 75.5T307 684q63 0 113.5-27.5t86-75.5 54-111.5T579 334t-18.5-135.5-54-111-86-75T307-15zm0 101q36 0 65 19t49 52 30.5 78.5T462 334q0 54-11 99.5T420.5 512 372 564t-65 19-64.5-19-48-52-30.5-78.5-11-99.5q0-53 10.5-98.5T194 157t48.5-52T307 86z"/><glyph glyph-name="one" unicode="1" horiz-adv-x="347" d="M142 547 17 507q-20 42-6 73.5T65 626l73 25q31 11 59.5 15.5T257 665V0H142v547z"/><glyph glyph-name="two" unicode="2" horiz-adv-x="527" d="M35 73q53 49 106 101t101 105q29 32 52 57.5t39 49 24 47 8 52.5q-1 46-27.5 75.5T261 590q-30 0-53.5-11.5t-38.5-34-20-54.5 3-72H42q-11 57 .5 106T83 608.5t74 56T259 685q52 0 93.5-15.5T422 626t42.5-65.5T479 478q0-38-9.5-69t-25-57.5-34-49T374 260q-15-17-28-30.5T321.5 205t-22-21.5L277 161q-22-22-40.5-36.5T203 97v-2q23 2 55.5 3.5T317 100l159 2V1H35v72z"/><glyph glyph-name="three" unicode="3" horiz-adv-x="556" d="M265-16Q154-16 91 41.5T20 205h116q5-60 38.5-93T265 79q31 0 55 11t40.5 28.5 25 40.5 8.5 47q0 62-35 93t-90 31q-34 0-68-10l-23 64 112 132q13 14 25 27.5t27 27.5v2q-18-2-43-2.5t-43-.5H40q0 55 26.5 77.5T146 670h352v-22l-2.5-23-9-25-18.5-27-139-158q49-7 83.5-27t56.5-48 31.5-61 9.5-66q0-43-15.5-84T448 55.5t-77-52T265-16z"/><glyph glyph-name="four" unicode="4" horiz-adv-x="596" d="m355 153-338-1 1 85 337 443q35 1 61.5-11t40.5-38q8-14 10.5-32.5T470 557V253h123q0-55-26.5-77.5T487 153h-17V0H355v153zm-207 95q39 3 77 3l132 2 2 139q0 15 .5 35.5t1 42.5 1.5 43 3 37h-2q-12-27-26-49t-29-42l-91-125q-14-19-32-42t-38-42z"/><glyph glyph-name="five" unicode="5" horiz-adv-x="551" d="M272-16Q161-16 98 42T27 206h116q5-60 38.5-93T272 80q31 0 55 10.5t40.5 28 25 41T401 209t-8 50-24.5 42-41.5 28.5-58 10.5q-21 0-38.5-2.5T197 330t-31.5-12.5T132 301l-69 66 37 305h391q0-55-26.5-77.5T385 572H193l-17-152q24 10 53 14.5t53 4.5q59 0 103-19t73.5-50.5 44-72T517 215q0-43-15.5-84.5t-46.5-74T378 4 272-16z"/><glyph glyph-name="six" unicode="6" horiz-adv-x="551" d="M280-16q-60 0-106.5 19.5t-78 52-48 75T31 220v27q0 58 18.5 118.5t47 113.5 61 95 61.5 64q36 28 60.5 34.5T331 679t46.5-4.5T417 662q-45-22-82.5-53T266 541q-56-68-82-134l2-1q32 18 60.5 25t59.5 7q46 0 86.5-17.5T463 372t47-72 17-88q0-44-17-85t-48.5-73T384 3 280-16zm-1 98q28 0 51.5 10t40.5 27 26 41 9 51q0 52-31.5 88.5T278 336q-32 0-56-10t-39.5-27-23.5-39.5-8-48.5q0-55 34-92t94-37z"/><glyph glyph-name="seven" unicode="7" horiz-adv-x="527" d="M288 441q17 33 35 65.5t39 66.5l-1 3q-38-2-74-2.5t-79-1.5l-192-2q0 56 26.5 78.5T122 671l373-1q4-11 6-20.5t1-20.5-6-24-15-30L189 0H60z"/><glyph glyph-name="eight" unicode="8" horiz-adv-x="568" d="M284-17q-54 0-100 13.5t-79 38T53.5 94 35 173q0 66 35 111.5t93 65.5v2q-44 18-73.5 56T60 504q0 40 17 73t47 57 71 37.5 89 13.5q49 0 90-13.5t71-37.5 46.5-57 16.5-73q0-58-30-96.5T403 351v-2q59-20 94.5-65T533 173q0-44-18.5-79T463 34.5t-79-38T284-17zm0 415q50 0 78.5 29.5T391 499t-26.5 71-81.5 29q-54 0-80-29t-26-71 28.5-71.5T284 398zm0-321q62 0 97.5 30t35.5 76q0 22-9.5 41.5T381 259t-41.5 23.5T284 291t-55.5-8.5-42-23.5-26.5-34.5-9-41.5q0-46 35.5-76T284 77z"/><glyph glyph-name="nine" unicode="9" horiz-adv-x="551" d="M271 685q60 0 106.5-19.5t78-52 48-75.5 16.5-89v-27q0-58-18.5-118.5t-47-113.5T393 95t-61-64Q296 3 271.5-3.5T220-10t-46.5 4.5T134 7q45 22 82.5 53t68.5 68q56 68 82 134l-2 1q-32-18-60.5-25t-59.5-7q-46 0-86.5 17.5T88 297t-47 72-17 88q0 44 17 85t48.5 73 77.5 51 104 19zm1-98q-29 0-52-10t-40-27-26-41-9-51q0-52 31.5-88.5T273 333q32 0 56 10t39.5 27 23.5 39.5 8 48.5q0 55-34 92t-94 37z"/><glyph glyph-name="colon" unicode=":" horiz-adv-x="209" d="M104 371q-30 0-51 21t-21 51 21 51.5 51 21.5 51.5-21.5T177 443t-21.5-51-51.5-21zm0-376Q74-5 53 16T32 67t21 51.5 51 21.5 51.5-21.5T177 67t-21.5-51T104-5z"/><glyph glyph-name="semicolon" unicode=";" horiz-adv-x="209" d="M104 371q-30 0-51 21t-21 51 21 51.5 51 21.5 51.5-21.5T177 443t-21.5-51-51.5-21zM15-113q28 25 49.5 53T86-12q0 13-7 21.5t-16 16-16 18T40 72q0 28 18.5 48t48.5 20q32 0 52-23t20-64q0-33-12-62.5T137-65t-39.5-48T56-153z"/><glyph glyph-name="less" unicode="&lt;" horiz-adv-x="653" d="M74 226q-14 42-2.5 68.5T130 344l421 202q5-26 6-44.5t-5-32.5-18.5-25-34.5-21L193 273l305-149q22-11 35-22t18.5-25.5 5-34T551-3z"/><glyph glyph-name="equal" unicode="=" horiz-adv-x="682" d="M96 330q0 51 25.5 71.5T198 422h388q0-51-25.5-71.5T484 330H96zm0-199q0 51 25.5 71.5T198 223h388q0-51-25.5-71.5T484 131H96z"/><glyph glyph-name="greater" unicode="&gt;" horiz-adv-x="653" d="M579 317q14-42 2.5-68.5T523 199L102-3q-5 26-6 44.5t5 32.5 18.5 24.5T154 120l306 150-305 149q-22 10-35 21.5t-18.5 26-5 34T102 546z"/><glyph glyph-name="question" unicode="?" horiz-adv-x="467" d="M127 358h51q73 0 114.5 33.5T334 485q0 45-27.5 74T229 588q-23 0-43.5-8T150 557t-23-37.5-8-50.5H12q-1 46 15 85.5T72 623t69.5 45.5T231 685q51 0 91-16t67.5-43.5T431 561t14-79q0-41-14-77t-42-64-67.5-46.5T231 271v-77H127v164zM182-5q-30 0-51 21t-21 51 21 51.5 51 21.5 51.5-21.5T255 67t-21.5-51T182-5z"/><glyph glyph-name="at" unicode="@" horiz-adv-x="780" d="M413-14q-84 0-152 25.5T144.5 83t-75 110.5T43 335q0 73 28.5 136.5t78 110.5T266 656t144 27q73 0 134.5-22t106-62.5T720 502t25-122q0-47-13-87t-36-68.5-53.5-44.5-66.5-16q-38 0-63.5 18T479 222q-23-31-53-43.5T354 165q-27 0-51.5 11t-43 30.5-29 46T220 311q0 39 15 75t40 63 58 43 69 16q29 1 52-9t37-24h2q10 17 29 23.5t54 4.5l-31-198q-5-35 2.5-54.5T582 231q18 0 34.5 11.5T646 273t21 44.5 8 53.5q0 54-20 99t-55.5 77-85 50.5T405 616t-111.5-22-90-60.5T143 443t-22-111q0-63 21-114.5t60-88 93.5-56T417 54q58 0 109 15t96 47q11-29-3-52.5t-44.5-41-73-27T413-14zm-40 251q19 0 37 10t32 27 22.5 39.5T473 362q0 38-19.5 59T402 441q-20 0-38-9.5t-31.5-27-21-40.5-7.5-49q0-34 18.5-56t50.5-22z"/><glyph glyph-name="A" unicode="A" horiz-adv-x="606" d="M235 670q22 1 42.5-.5t38-9 32-22.5 24.5-40L616 0H490l-56 146H156L104 0H-10zm163-428-66 173q-12 32-21 59.5T292 535h-2q-9-33-18-61.5T252 414l-61-172h207z"/><glyph glyph-name="B" unicode="B" horiz-adv-x="564" d="M75 1v669h215q40 0 75-11.5t61.5-33T468 572t15-72q0-46-19-79.5T410 367v-2q58-21 90.5-67.5T533 191q0-39-13-73.5t-39-61T414.5 15 319 0zm196 394q49 0 73.5 26.5T369 488q0 39-24 62t-66 23h-89V395h81zm31-298q59 0 84.5 28.5T412 196t-27.5 70-71.5 28H190V97h112z"/><glyph glyph-name="C" unicode="C" horiz-adv-x="738" d="M381-15q-77 0-140.5 28.5T131 90 60 201.5 35 336t25 134.5 71 111T240.5 657 381 685q64 0 120.5-20.5t100-56.5 70-85.5T702 415H582q-7 35-23.5 64.5T517 531t-59 34-76 12q-47 0-87.5-17.5t-70-50T178 432t-17-99 17.5-98.5 48.5-76 72-48.5 88-17q40 0 73.5 12t58.5 34 41 51.5 22 64.5h120q-4-58-31.5-107.5t-71-85.5T500 5.5 381-15z"/><glyph glyph-name="D" unicode="D" horiz-adv-x="689" d="M75 670h219q45 0 81.5-6t67.5-17.5 57-28.5 49-39q50-47 77.5-110T654 336t-27.5-133.5T549 92q-23-22-49-39t-56.5-28.5T377 7t-81-6H75v669zm204-570q38 0 67 4.5t51.5 13 40.5 21 34 29.5q57 59 59 168 1 51-16 94.5T468 506q-31 32-75 48t-114 17h-89V100h89z"/><glyph glyph-name="E" unicode="E" horiz-adv-x="504" d="M75 670h402q0-56-26.5-78.5T371 569H190V391h252q0-56-26.5-79T336 289H190V102h270V0H75v670z"/><glyph glyph-name="F" unicode="F" horiz-adv-x="494" d="M75 670h402q0-56-26.5-78.5T371 569H190V384h252q0-56-26.5-79T336 282H190V0H75v670z"/><glyph glyph-name="G" unicode="G" horiz-adv-x="751" d="M388-15q-77 0-141.5 27.5T135 87.5t-73.5 111T35 334t26.5 135.5T135 581t111.5 75.5T388 684q56 0 105.5-15t90-42 70.5-64 46-82H572q-30 51-76 74.5T384 579q-51 0-92-18.5T221.5 509t-46-78-16.5-97q-1-52 16-96t48-76.5 73.5-50.5T389 93q95 0 149 49t69 133H389q0 53 26 73.5t78 20.5l226 1q9-89-14.5-160T635 89 525 12 388-15z"/><glyph glyph-name="H" unicode="H" horiz-adv-x="709" d="M75 670q35 1 61-11t40-34q11-17 12.5-36t1.5-42V384h329v163q0 23 1.5 42t12.5 36q14 22 40 34t61 11V0H519v282H190V0H75v670z"/><glyph glyph-name="I" unicode="I" horiz-adv-x="265" d="M75 670q35 1 61-11t40-34q11-17 12.5-36t1.5-42V0H75v670z"/><glyph glyph-name="J" unicode="J" horiz-adv-x="451" d="M204-9q-39 0-73 11.5T71 38 29 98.5 10 185h112q1-42 20.5-70.5T201 86q33 0 52.5 19.5T273 169v378q0 23 1.5 42t12.5 36q14 22 40 34t61 11V171q0-45-15-79t-40-56.5T274.5 2 204-9z"/><glyph glyph-name="K" unicode="K" horiz-adv-x="599" d="M517-8q-86 0-152 86L192 303l-2-1V0H75v670q35 1 61-11t40-34q11-17 12.5-36t1.5-42V365l2-1 164 222q64 87 151 87 19 0 44.5-3t42.5-11q-15-6-33-18.5t-36-29-35.5-36T458 538L301 334l171-208q15-18 32.5-37T540 53.5t36-29T609 6q-9-4-21-6.5t-24.5-4-25-2.5T517-8z"/><glyph glyph-name="L" unicode="L" horiz-adv-x="473" d="M75 670q35 1 61-11t40-34q11-17 12.5-36t1.5-42V102h270V0H75v670z"/><glyph glyph-name="M" unicode="M" horiz-adv-x="919" d="M167 670q27 1 50.5-.5T260 658t34-29 26-52l138-411h2l137 404q13 37 28 58t34 30.5 42.5 11 53.5.5L879 0H763l-67 382q-5 31-8.5 68t-5.5 70h-2q-7-33-18-71t-22-67L503 0h-93L279 379q-11 31-21.5 68.5T240 519h-2q-3-34-6.5-71.5T223 380L156 0H40z"/><glyph glyph-name="N" unicode="N" horiz-adv-x="709" d="M75 670q26 1 49.5-.5t46-11 44.5-29 45-52.5l201-298q17-25 32.5-52t31.5-54l2 1q-2 34-3 73.5t-1 70.5v229q0 23 2.5 41.5T536 621q14 26 39 38t59 11V0H526L249 402q-17 25-33.5 52.5T184 509l-2-1q4-33 5.5-65t1.5-64V0H75v670z"/><glyph glyph-name="O" unicode="O" horiz-adv-x="759" d="M379-15q-74 0-136.5 27.5t-109 75-72.5 111T35 334t26 135.5T133.5 581t109 75.5T379 684q73 0 136-27.5T624.5 581t73-111.5T724 334t-26.5-135.5-73-111-109.5-75T379-15zm0 108q47 0 87.5 19t70 52 46.5 76.5 17 93.5-17 94-46.5 77-70 52-87.5 19-87-19-69.5-52-46.5-77-17-94 17-93.5 46.5-76.5 69.5-52 87-19z"/><glyph glyph-name="P" unicode="P" horiz-adv-x="570" d="m75 670 259 1q58 0 101-17t71-46 41.5-67 13.5-79-14.5-77.5T505 319q-28-30-70-48t-109-18l-136 1V0H75v670zm244-320q66 0 95 32t27 80-29 79.5-93 31.5H190V350h129z"/><glyph glyph-name="Q" unicode="Q" horiz-adv-x="759" d="M516 13q-65-28-137-28-74 0-136.5 27.5t-109 75-72.5 111T35 334t26 135.5T133.5 581t109 75.5T379 684q73 0 136-27.5T624.5 581t73-111.5T724 334q0-80-32-149T603 68l93-127H570zM379 93q36 0 69 12L337 253q48 16 86 12.5t66-41.5l45-62q31 33 48.5 77t17.5 95q0 50-17 94t-46.5 77-70 52-87.5 19-87-19-69.5-52-46.5-77-17-94 17-93.5 46.5-76.5 69.5-52 87-19z"/><glyph glyph-name="R" unicode="R" horiz-adv-x="609" d="M537-10q-44 0-81 21.5T385 76L228 277l-38 1V0H75v670l244 1q55 0 95.5-16t66.5-43.5 39-63 13-74.5q0-35-10.5-67T491 349t-53-44.5-75-24.5l129-156q15-18 32.5-37T560 51.5t36-29T629 4q-9-4-21-6.5t-24.5-4-25-2.5-21.5-1zM302 374q59 0 84.5 28.5T411 474t-25.5 71.5T302 574H190V374h112z"/><glyph glyph-name="S" unicode="S" horiz-adv-x="563" d="M291-17q-113 0-179 59T40 214h119q5-64 39.5-98.5T293 81q50 0 81.5 24t31.5 66-29.5 65-95.5 47q-52 19-92.5 38.5t-68 44-41.5 56T65 497q0 41 16.5 75.5t45.5 59 68 38.5 83 14q103 0 157.5-55T498 475H388q-3 54-30 84.5T282 590q-42 0-71-24t-29-65q0-21 9-36t25.5-27 40.5-22.5 54-21.5q44-16 82.5-32t67.5-39 45.5-56 16.5-83q0-48-19.5-85t-52-63-74-39.5T291-17z"/><glyph glyph-name="T" unicode="T" horiz-adv-x="551" d="M207 569H-3q0 56 26.5 78.5T103 670h451q0-56-26.5-78.5T448 569H322V0H207v569z"/><glyph glyph-name="U" unicode="U" horiz-adv-x="666" d="M334-15q-56 0-105 18.5t-86 52-58 80T64 238l-1 432q35 1 61.5-11.5T165 625q11-17 13-36t2-42V245q0-35 11-63.5t31.5-49T271 100t63-12 63.5 11.5T446 132t31 49.5 11 63.5v302q0 23 2 42t13 36q14 21 39.5 33.5T603 670l-1-432q0-56-21-102.5t-57.5-80-85.5-52T334-15z"/><glyph glyph-name="V" unicode="V" horiz-adv-x="606" d="M28 561q-14 32-26.5 57T-25 670q10 2 22.5 2.5t20.5.5q28 0 49-8.5t37-24.5 28.5-39.5T157 547l111-282q13-32 22-58.5t19-61.5h2q10 35 18.5 62t20.5 59l105 295q20 58 48.5 85t71.5 27q27 0 56-9-25-24-42.5-61.5T557 527L362 0h-99z"/><glyph glyph-name="W" unicode="W" horiz-adv-x="918" d="M33 536q-11 34-23.5 67.5T-15 671q9 2 23 2.5t22 .5q51 0 76.5-32.5T149 548l71-255q12-43 19.5-77.5T253 146h2q5 35 12 70t18 77l103 378q19 3 38 3 27 0 46.5-6.5t33-20T528 612t17-52l78-267q11-42 18-77t12-70h2q6 35 13.5 69.5T688 293l73 269q16 58 44.5 85t70.5 27q27 0 57-9-25-24-40.5-61.5T866 528L712 0H600L483 394q-12 40-19.5 68T451 515l-3 1q-6-27-12-56t-17-67L310 0H197z"/><glyph glyph-name="X" unicode="X" horiz-adv-x="590" d="M63-7Q45-7 22-4T-18 7q15 5 31 19.5T44.5 60 74 100l26 39 128 199-124 192q-13 19-28 40t-30.5 39T14 641t-31 19q17 8 44 11t45 3q47 0 77-26t50-59l93-149 76 134q13 24 27 42.5t30 31 35.5 19.5 45.5 7q18 0 41-3t40-11q-15-5-31.5-19T523 608t-30.5-39.5T466 529L349 338l140-199q13-18 27.5-39t30-40 31-33.5T608 7q-17-8-44-11t-45-3q-47 0-78 28.5T382 94l-95 144-89-145q-27-44-57.5-72T63-7z"/><glyph glyph-name="Y" unicode="Y" horiz-adv-x="600" d="M245 288 99 527q-12 20-27.5 41t-32 40-33 33-31.5 19q17 8 43.5 11t44.5 3q22 0 41-7.5t35-20.5 28.5-29 22.5-32l118-200 102 188q26 48 57 74.5t78 26.5q18 0 40.5-3t39.5-11q-15-5-32-19.5T559.5 607 528 566.5 502 526L360 284V0H245v288z"/><glyph glyph-name="Z" unicode="Z" horiz-adv-x="535" d="M23 0q0 56 38 115l233 363q17 26 34 50.5t31 43.5v2q-29-2-65.5-2.5T222 571l-185-1q0 54 26.5 77t79.5 23h369q0-25-6.5-49T483 572L242 192q-17-26-34-50.5T177 98v-2q29 2 65.5 2.5t71.5.5l193 1-1-100H23z"/><glyph glyph-name="bracketleft" unicode="[" horiz-adv-x="310" d="M80 755h204v-89h-99V-5h99v-89H80v849z"/><glyph glyph-name="backslash" unicode="\" horiz-adv-x="429" d="M434-131q-47-12-72.5 1.5T318-69L-10 782q47 12 72.5-2t43.5-60l328-851z"/><glyph glyph-name="bracketright" unicode="]" horiz-adv-x="310" d="M230-94H26v89h99v671H26v89h204V-94z"/><glyph glyph-name="asciicircum" unicode="^" horiz-adv-x="487" d="M243 543 127 322H20l193 352q30 2 50-6t37-39l167-308H360z"/><glyph glyph-name="underscore" unicode="_" horiz-adv-x="515" d="M-6-53h527v-89H-6v89z"/><glyph glyph-name="a" unicode="a" horiz-adv-x="596" d="M267-14q-47 0-90 19.5t-75.5 55-52 84T30 251q0 54 19.5 102t53.5 84 79 57 95 21q54 0 92-19.5t64-54.5h2q11 29 38.5 44.5T539 500V0H432l-1 62-3 1q-29-37-66-57t-95-20zm21 102q31 0 57 12t44.5 34 28.5 51.5 10 65.5q0 37-10.5 67t-29 51.5-44.5 33-56 11.5-56-12-44.5-33.5T158 317t-11-66 11-66 29.5-51.5T232 100t56-12z"/><glyph glyph-name="b" unicode="b" horiz-adv-x="607" d="M330-14q-50 0-91.5 18T171 57l-3-1-1-56H60v683q34 1 58.5-10.5T157 640q11-17 12.5-34.5T171 565V439l2-1q29 37 66 57t96 20q48 0 92-19.5t77.5-55 53-84T577 250q0-54-19.5-102t-53-84T426 7t-96-21zM318 87q31 0 57.5 12t45.5 33.5 29.5 51.5 10.5 66-10.5 66-29.5 51.5-45.5 33.5-57.5 12q-69 0-108-45.5T171 250q0-35 10-65t28.5-52 46-34T318 87z"/><glyph glyph-name="c" unicode="c" horiz-adv-x="565" d="M293-15q-59 0-107.5 21t-83 57.5-53.5 85T30 251t19 102.5 53.5 84.5 83 57T293 516q48 0 91-16t75.5-44 52.5-65 23-80H424q-11 53-45.5 80.5T293 419q-31 0-58-12.5t-46.5-35-31-53.5-11.5-69 12-69 32-52.5T237.5 94 296 82q55 0 87 30t41 78h111q-3-44-23.5-81.5t-53-65-75-43T293-15z"/><glyph glyph-name="d" unicode="d" horiz-adv-x="607" d="M272-15q-48 0-92 19.5t-77.5 55-53 84T30 250q0 54 19.5 102t53 84 78.5 57 96 21q50 0 90.5-17t66.5-52l2 1v119q0 23 1.5 40.5T450 640q14 21 38.5 32.5T547 683V0H440l-1 63-3 1q-31-37-68-58t-96-21zm17 102q69 0 108 45.5T436 250q0 35-10 65t-28.5 51.5-46 34T289 413q-31 0-57.5-12T186 367.5 156.5 316 146 250t10.5-66 29.5-51.5T231.5 99 289 87z"/><glyph glyph-name="e" unicode="e" horiz-adv-x="566" d="M290-15q-57 0-105 20.5T102.5 62 49 146.5 30 250q0 60 22 112.5t64 89.5q34 30 78.5 46.5T290 515q54 0 99.5-17.5t78-49.5 50.5-78.5T536 266v-21.5l-1-26.5H151q0-17 4-29 14-48 49-77.5T293 82q47 0 77 23t41 60h117q-9-39-30.5-72T445 36 374.5-1.5 290-15zm128 326q-7 54-42 84.5T290 426q-43 0-78-20t-51-59q-7-17-10-36h267z"/><glyph glyph-name="f" unicode="f" horiz-adv-x="360" d="M102 394H4q0 49 25 72t65 23h8v42q0 38 12 67.5t37 48.5q23 18 55 27t64 9q41 0 65-7.5t24-33.5v-59q-17 6-36 9t-35 3q-17 0-32-3t-25-11q-12-10-15-23t-3-37v-32h137q0-54-26.5-74.5T244 394h-31V0H102v394z"/><glyph glyph-name="g" unicode="g" horiz-adv-x="588" d="M278-183q-109 0-171.5 51T30 6h124q9-43 37.5-68.5T280-88q32 0 58 8t44 26q38 38 38 119v43l-3 1q-29-32-66.5-48.5T262 44q-48 0-90.5 17.5T98 110t-49 74-18 93q0 46 18.5 89t50.5 76 75 52.5 92 19.5q105 0 159-71h2q11 29 38.5 43.5T531 500V53q0-56-17.5-100T463-121t-80-46-105-16zm7 326q29 0 54 10t43 27.5 28.5 42.5 10.5 55q0 29-10 54t-28 43-43 28-55 10-55-10-43-27.5-28.5-42.5-10.5-55 10.5-54.5T187 181t43-28 55-10z"/><glyph glyph-name="h" unicode="h" horiz-adv-x="544" d="M60 684q34 1 59-10.5t38-32.5q11-17 12.5-34.5T171 566V443h1q26 35 61.5 53t86.5 18q47 0 80-13.5t55-36.5 30.5-54 8.5-65V0H383v323q0 24-4.5 42T362 395q-24 24-68 24-53 0-88-39.5T171 271V0H60v684z"/><glyph glyph-name="i" unicode="i" horiz-adv-x="223" d="M112 596q-30 0-51 21t-21 51 21 51.5 51 21.5 51.5-21.5T185 668t-21.5-51-51.5-21zm-55-96q34 1 59-10t37-33q9-17 12-34.5t3-40.5V0H57v500z"/><glyph glyph-name="j" unicode="j" horiz-adv-x="231" d="M120 596q-30 0-51 21t-21 51 21 51.5 51 21.5 51.5-21.5T193 668t-21.5-51-51.5-21zM16-174q-47 0-72 12t-25 38v53q33-10 69-10 16 0 30 3.5t24.5 12T59-42t6 38v504q34 1 59-10t37-33q9-17 12-34.5t3-40.5V0q0-48-11-77t-31-50q-21-23-53.5-35T16-174z"/><glyph glyph-name="k" unicode="k" horiz-adv-x="500" d="M445-10q-43 0-78.5 21T298 74L173 232l-2-1V0H60v684q34 1 59-10.5t38-32.5q11-17 12.5-34.5T171 566V309l2-1 83 121q30 44 66.5 64t78.5 20q18 0 41.5-3t40.5-11q-15-5-33-17.5T414 453t-35-34.5-30-36.5l-78-104 130-157q15-18 32-36.5T467.5 50t35-28.5T535 4q-9-4-20.5-6.5t-24-4T466-9t-21-1z"/><glyph glyph-name="l" unicode="l" horiz-adv-x="231" d="M60 684q34 1 59-10.5t38-32.5q11-17 12.5-34.5T171 566V0H60v684z"/><glyph glyph-name="m" unicode="m" horiz-adv-x="844" d="M57 500q38 1 67-14.5t37-49.5h1q25 41 64.5 59.5T316 514q45 0 74.5-13.5T442 464q8-8 13-16.5t10-17.5h1q25 41 69 62.5t94 21.5q45 0 74.5-13.5T755 464t30.5-54 8.5-65V0H683v323q0 24-4.5 42T662 395q-24 24-64 24-53 0-85-39.5T481 271V0H370v323q0 24-4.5 42T349 395q-24 24-64 24-53 0-85-39.5T168 271V0H57v500z"/><glyph glyph-name="n" unicode="n" horiz-adv-x="541" d="M57 500q38 1 67-14.5t37-49.5h1q25 41 65 59.5t90 18.5q47 0 80.5-13.5T452 464q22-23 30.5-54t8.5-65V0H380v323q0 24-4.5 42T359 395q-24 24-68 24-53 0-88-39.5T168 271V0H57v500z"/><glyph glyph-name="o" unicode="o" horiz-adv-x="580" d="M290-15q-56 0-103.5 21t-82 57T50 147.5 30 250t20 102 54.5 84 82 57T290 514t103.5-21 82.5-57 54.5-84T550 250t-19.5-102.5T476 63 393.5 6 290-15zm0 100q33 0 60 12.5t46.5 34.5 30.5 52.5 11 65.5-11 65-30.5 52-46.5 34.5-60 12.5-60-12.5-47-34.5-30.5-52-10.5-65 10.5-65.5 30-52.5 47-34.5T290 85z"/><glyph glyph-name="p" unicode="p" horiz-adv-x="604" d="M57 500q68 2 95-41 4-5 5.5-11t3.5-12l2-1q31 38 71.5 58.5T334 514q48 0 91.5-19.5t76.5-55 52.5-84T574 249q0-54-19.5-102t-53-84T423 6t-96-21q-50 0-90.5 17T170 54l-2-1v-221H57v668zM315 86q31 0 57.5 12t45.5 33.5 29.5 51.5 10.5 66-10.5 66-29.5 51.5-45.5 33.5-57.5 12q-69 0-108-45.5T168 249q0-35 10-65t28.5-52 46-34T315 86z"/><glyph glyph-name="q" unicode="q" horiz-adv-x="603" d="m435 61-3 1q-29-37-67.5-57T269-15q-48 0-91.5 19.5t-76.5 55-52 84T30 250q0 54 20 102t54.5 84 80 57 96.5 21q54 0 93.5-19t65.5-54h2q11 29 38.5 44.5T546 500v-668H435V61zM289 87q69 0 108 45.5T436 250q0 35-10 65t-28.5 51.5-46 34T289 413q-31 0-57.5-12T186 367.5 156.5 316 146 250t10.5-66 29.5-51.5T231.5 99 289 87z"/><glyph glyph-name="r" unicode="r" horiz-adv-x="339" d="M57 500q34 1 59-10t37-33q7-12 10-27l2-1q27 45 57 65t66 20q29 0 40-10t11-33v-71q-38 6-72.5-1T209 368q-19-20-30-50.5T168 244V0H57v500z"/><glyph glyph-name="s" unicode="s" horiz-adv-x="467" d="M235-15Q135-15 83 35T32 167h111q1-17 6-34t16.5-30.5 30-22T242 72q38 0 59 16.5t21 42.5q0 24-21 41-12 11-31 18.5T227 206q-45 14-85 28.5T79 272q-37 37-37 96 0 30 14 57t38 47 57 31.5 71 11.5q93 0 141-43t50-124H308q-1 16-4.5 31T291 405.5 266.5 424t-39.5 7q-34 0-53-16t-18-37q0-16 8.5-26.5t21.5-18 30-13 34-11.5q41-14 72-25.5t53-26.5q60-41 60-110 0-40-17-70t-45.5-50.5-64.5-31T235-15z"/><glyph glyph-name="t" unicode="t" horiz-adv-x="346" d="M222-3q-34-1-59 10t-37 33q-9 17-12 34.5t-3 40.5v278H4q0 54 27 75t80 21v140q34 1 59-10t37-33q9-17 12-34.5t3-40.5v-22h128q0-54-26.5-75T244 393h-22V-3z"/><glyph glyph-name="u" unicode="u" horiz-adv-x="541" d="M224-15q-47 0-80 13.5T89 35 58.5 89 50 154v346q34 1 58.5-10.5T147 457q11-17 12.5-34.5T161 382V176q0-24 4.5-42t16.5-30q24-24 68-24 53 0 88 39.5T373 228v154q0 23 1.5 40.5T387 457q14 21 38.5 32.5T484 500V0H378l-2 60h-1q-26-35-63-55t-88-20z"/><glyph glyph-name="v" unicode="v" horiz-adv-x="524" d="M54 365q-14 34-30 67.5T-7 500q19 3 38 3 56 0 86.5-32.5T170 377l36-100q14-40 27-78t26-83h1q13 45 25 83t27 78l44 118q21 57 50.5 84t70.5 27q28 0 57-9-25-24-43.5-61.5T456 360L309 0H206z"/><glyph glyph-name="w" unicode="w" horiz-adv-x="764" d="M48 365q-11 34-23 67.5T-2 500q9 2 21 2.5t20 .5q27 0 46-8.5t32.5-24.5 23.5-39.5 19-53.5l30-101q11-36 19.5-76t14.5-78h2q6 38 14.5 78.5T259 276l60 224q10 2 20 2.5t26 .5q49 0 74.5-31.5T479 387l29-111q9-35 18-75.5t15-78.5h2q6 38 15.5 84.5T579 289l31 104q17 58 44 85t63 27q15 0 28.5-2t28.5-7q-24-24-39.5-61.5T707 359L593 0H487l-77 284q-9 32-14.5 53T385 377h-2q-5-19-11-40.5T356 280L277 0H171z"/><glyph glyph-name="x" unicode="x" horiz-adv-x="546" d="M78-10q-18 0-40 3T-1 4q15 5 31 19.5T62 57t31 40 28 39l88 124-71 106q-13 19-28 40.5t-30.5 40-31 32.5T18 498q17 8 43 10t44 2q41 0 70.5-28t57.5-72l42-66 39 64q29 48 55.5 74t70.5 26q18 0 40-2.5t39-10.5q-15-5-31-19.5t-31.5-33-30-39.5-26.5-40l-66-102 93-125q13-18 29-39t32-40 32.5-33.5T552 4q-17-8-43-11t-44-3q-44 0-74.5 28.5T330 91l-61 88-60-89q-15-22-28.5-40T152 18.5t-32.5-21T78-10z"/><glyph glyph-name="y" unicode="y" horiz-adv-x="516" d="M68-170q31 11 55 47.5T167-38l28 65L54 365q-14 34-30 67.5T-7 500q19 3 38 3 56 0 86.5-32.5T170 377l32-90q14-40 27-78t26-83h1q13 45 25.5 82.5T308 287l39 108q20 57 50 84t72 27q28 0 57-9-25-24-43.5-61.5T448 360L273-72q-62-160-205-98z"/><glyph glyph-name="z" unicode="z" horiz-adv-x="456" d="M18 0q0 18 3 33.5T31 59l190 276q15 22 27 37.5t23 29.5v2H30q0 54 26.5 75t79.5 21h303q0-41-16-63L238 171q-13-18-26.5-35.5T183 98v-2h248V0H18z"/><glyph glyph-name="braceleft" unicode="{" horiz-adv-x="329" d="M217-94q-20 0-40.5 7t-37 21T113-31.5 103 16v229q0 18-6.5 31t-16 21.5-20 12T43 313v38q7 0 17.5 3.5t20 11 16 19.5 6.5 29v231q0 27 10 47.5t26.5 34.5 37 21 40.5 7h86v-89h-84q-7 0-8.5-8.5T209 640V443q0-24-6-42t-15-31-20-22-21-15q10-4 21-12.5t20-22.5 15-34 6-47V21q0-9 1.5-17.5T219-5h84v-89h-86z"/><glyph glyph-name="bar" unicode="|" horiz-adv-x="256" d="M86 694q0 45 17 67t66 29l1-829q0-45-17-67t-66-29z"/><glyph glyph-name="braceright" unicode="}" horiz-adv-x="329" d="M112 755q20 0 40.5-7t37-21 26.5-34.5 10-47.5V416q0-18 6.5-31t16-21.5 19.5-12 18-3.5v-38q-8 0-18-3.5t-19.5-11-16-19.5-6.5-29V16q0-27-10-47.5T189.5-66t-37-21-40.5-7H26v89h84q7 0 8.5 8.5T120 21v197q0 24 6 42t15 31 20 22 21 15q-10 4-21 12.5T141 363t-15 34-6 47v196q0 9-1.5 17.5T110 666H26v89h86z"/><glyph glyph-name="uni0402" unicode="Ђ" horiz-adv-x="747" d="M514-9Q411-9 411 41v55q16-5 33.5-8t35.5-3q57 0 89.5 33t32.5 93q0 64-37 97t-92 33q-67 0-109-33.5T322 206V0H207v569H-3q0 56 26.5 78.5T103 670h451q0-56-26.5-78.5T448 569H322V379h1q26 28 69.5 44.5T494 440q50 0 91-16t70.5-45.5T701 308t16-91q0-54-16.5-96.5t-44-71T592 6 514-9z"/><glyph glyph-name="uni0403" unicode="Ѓ" horiz-adv-x="512" d="M189 715q-10 36-1.5 61.5T222 813l207 82q17-54 .5-88T371 762zM75 1v669h435q0-56-26.5-78.5T404 569H190V0z"/><glyph glyph-name="quotesinglbase" unicode="‚" horiz-adv-x="209" d="M15-113q28 25 49.5 53T86-12q0 13-7 21.5t-16 16-16 18T40 72q0 28 18.5 48t48.5 20q32 0 52-23t20-64q0-33-12-62.5T137-65t-39.5-48T56-153z"/><glyph glyph-name="uni0453" unicode="ѓ" horiz-adv-x="438" d="M132 550q-10 36-1.5 61.5T165 648l207 82q17-54 .5-88T314 597zM57 1v499h381q0-54-26-76.5T334 401H169V0z"/><glyph glyph-name="quotedblbase" unicode="„" horiz-adv-x="388" d="M15-114q28 25 49.5 53T86-13q0 13-7 21.5t-16 16-16 18T40 71q0 28 18.5 48t48.5 20q32 0 52-23t20-64q0-33-12-62.5T137-66t-39.5-48T56-154zm179 0q28 25 49.5 53T265-13q0 13-7 21.5t-16 16-16 18-7 28.5q0 28 18.5 48t48.5 20q32 0 52-23t20-64q0-33-12-62.5T316-66t-39.5-48-41.5-40z"/><glyph glyph-name="ellipsis" unicode="…" horiz-adv-x="1245" d="M252-5q-30 0-51 21t-21 51 21 51.5 51 21.5 51.5-21.5T325 67t-21.5-51T252-5zm370 0q-30 0-51 21t-21 51 21 51.5 51 21.5 51.5-21.5T695 67t-21.5-51T622-5zm370 0q-30 0-51 21t-21 51 21 51.5 51 21.5 51.5-21.5T1065 67t-21.5-51T992-5z"/><glyph glyph-name="dagger" unicode="†" horiz-adv-x="524" d="M304-107q-29 0-49.5 9T224-71q-8 14-10.5 29T211-8v314H80q0 45 22.5 62.5T170 386h41v284q29 1 49.5-8.5T291 634q8-14 10.5-28.5T304 572V386h140q0-45-22-62.5T355 306h-51v-413z"/><glyph glyph-name="daggerdbl" unicode="‡" horiz-adv-x="524" d="M304-107q-29 0-49.5 9T224-71q-8 14-10.5 29T211-8v194H80q0 45 22.5 62.5T170 266h41v131H80q0 45 22.5 62.5T170 477h41v193q29 1 49.5-8.5T291 634q8-14 10.5-28.5T304 572v-95h140q0-45-22-62.5T355 397h-51V266h140q0-45-22-62.5T355 186h-51v-293z"/><glyph glyph-name="Euro" unicode="€" horiz-adv-x="715" d="M418-15q-48 0-89.5 16T254 46t-57 69-38 88H9q0 42 21 59t63 17h50q-3 28-3 57v1H39q0 42 21 59t63 17h23q9 58 32 108t58 86.5 81 57T418 685q72 0 128.5-37.5T632 548l-80-61q-17 46-52 74t-82 28q-64 0-102.5-47.5T265 413h230q0-42-21-59t-62-17H259v-4q0-29 3-54h203q0-42-21-59t-62-17H277q19-57 55-89.5T422 81q48 0 79.5 30t43.5 79l100-34q-12-38-34-69.5t-51.5-54-65.5-35T418-15z"/><glyph glyph-name="uni0409" unicode="Љ" horiz-adv-x="957" d="M85-7Q48-7 29 3T2 32q45 17 69 60.5T105.5 199 117 342.5t1 172.5v155h459V400h149q55 0 95.5-15.5T888 342t39-63 13-76-13-76.5-39-65-66.5-45T726 0H462v572H233l1-142q0-65-1-125t-8-111.5-21-94T164 29q-15-17-34.5-26.5T85-7zM709 97q59 0 84.5 30.5T819 202q0 45-27.5 74.5T720 306H577V97h132z"/><glyph glyph-name="guilsinglleft" unicode="‹" horiz-adv-x="363" d="M255 52q-28 0-55.5 10.5T148 104L28 248v9l120 144q24 31 51.5 41.5T255 453q17 0 33-2.5t32-5.5L159 252 320 60q-16-3-32-5.5T255 52z"/><glyph glyph-name="uni040A" unicode="Њ" horiz-adv-x="994" d="M75 670q35 1 61-11t40-34q11-17 12.5-36t1.5-42V384h309v163q0 23 1.5 42t12.5 36q14 22 40 34t61 11V400h149q55 0 95.5-15.5T925 342t39-63 13-76-13-76.5-39-65-66.5-45T763 0H499v282H190V0H75v670zM746 97q59 0 84.5 30.5T856 202q0 45-27.5 74.5T757 306H614V97h132z"/><glyph glyph-name="uni040C" unicode="Ќ" horiz-adv-x="599" d="M166 715q-10 36-1.5 61.5T199 813l207 82q17-54 .5-88T348 762zM517-8q-86 0-152 86L192 303l-2-1V0H75v670q35 1 61-11t40-34q11-17 12.5-36t1.5-42V365l2-1 164 222q64 87 151 87 19 0 44.5-3t42.5-11q-15-6-33-18.5t-36-29-35.5-36T458 538L301 334l171-208q15-18 32.5-37T540 53.5t36-29T609 6q-9-4-21-6.5t-24.5-4-25-2.5T517-8z"/><glyph glyph-name="uni040B" unicode="Ћ" horiz-adv-x="768" d="M207 569H-3q0 56 26.5 78.5T103 670h451q0-56-26.5-78.5T448 569H322V379h1q26 28 71.5 44.5T497 440q43 0 79-11t62-33.5 40.5-55.5 14.5-76V0H578v241q0 48-25.5 74T470 341q-31 0-58-8.5T365 307t-31.5-42-11.5-59V0H207v569z"/><glyph glyph-name="uni040F" unicode="Џ" horiz-adv-x="694" d="M403-146q-60-6-85.5 20T292-43V0H75v670q35 1 61-11t40-34q11-17 12.5-36t1.5-42V102h314v445q0 23 1.5 42t12.5 36q14 22 40 34t61 11V0H403v-146z"/><glyph glyph-name="uni0452" unicode="ђ" horiz-adv-x="573" d="M363-174q-47 0-72 12t-25 38v53q33-10 69-10 16 0 30 3.5t24.5 12T406-42t6 38v307q0 24-4.5 42T391 375q-24 24-68 24-53 0-88-39.5T200 251V0H89v538H-14q0 51 23.5 70.5T80 628h9v56q34 1 59-10.5t38-32.5q4-5 7-13l177 1q0-50-23-70t-71-20h-76V423h1q26 35 61.5 53t86.5 18q47 0 80-13.5t55-36.5 30.5-54 8.5-65V0q0-48-11-77t-31-50q-21-23-53.5-35T363-174z"/><glyph glyph-name="quoteleft" unicode="‘" horiz-adv-x="207" d="M197 651q-28-25-49.5-53T126 550q0-14 7-22t16-15.5 16-18 7-28.5q0-28-18.5-48T105 398q-32 0-52 23t-20 64q0 33 12 62.5T75 603t39.5 48 41.5 40z"/><glyph glyph-name="quoteright" unicode="’" horiz-adv-x="207" d="M10 432q28 25 49.5 53T81 533q0 13-7 21.5t-16 16-16 18-7 28.5q0 28 18.5 48t48.5 20q32 0 52-23t20-64q0-33-12-62.5T132 480t-39.5-48T51 392z"/><glyph glyph-name="quotedblleft" unicode="“" horiz-adv-x="386" d="M197 651q-28-25-49.5-53T126 550q0-14 7-22t16-15.5 16-18 7-28.5q0-28-18.5-48T105 398q-32 0-52 23t-20 64q0 33 12 62.5T75 603t39.5 48 41.5 40zm179 0q-28-25-49.5-53T305 550q0-14 7-22t16-15.5 16-18 7-28.5q0-28-18.5-48T284 398q-32 0-52 23t-20 64q0 33 12 62.5t30 55.5 39.5 48 41.5 40z"/><glyph glyph-name="quotedblright" unicode="”" horiz-adv-x="386" d="M10 435q28 25 49.5 53T81 536q0 13-7 21.5t-16 16-16 18-7 28.5q0 28 18.5 48t48.5 20q32 0 52-23t20-64q0-33-12-62.5T132 483t-39.5-48T51 395zm179 0q28 25 49.5 53t21.5 48q0 13-7 21.5t-16 16-16 18-7 28.5q0 28 18.5 48t48.5 20q32 0 52-23t20-64q0-33-12-62.5T311 483t-39.5-48-41.5-40z"/><glyph glyph-name="bullet" unicode="•" horiz-adv-x="250" d="M125 241q-36 0-61.5 25T38 327t25.5 62 61.5 26 61.5-26 25.5-62-25.5-61-61.5-25z"/><glyph glyph-name="endash" unicode="–" horiz-adv-x="588" d="M66 290q0 42 21 59t63 17h372q0-42-21-59t-62-17H66z"/><glyph glyph-name="emdash" unicode="—" horiz-adv-x="955" d="M66 290q0 42 21 59t63 17h739q0-42-21-59t-62-17H66z"/><glyph glyph-name="trademark" unicode="™" horiz-adv-x="558" d="M267 670q22 1 39.5-5t27.5-34l50-147 49 144q10 31 26.5 37t41.5 5l49-266h-53l-26 150q-2 8-2.5 17t-1.5 17q-2-9-5-18.5t-5-15.5l-53-150h-42l-52 149q-3 8-5 17t-4 17q-1-8-1.5-17.5T297 553l-27-149h-52zM78 623H-3q-1 47 45 47h178q1-47-45-47h-45V404H78v219z"/><glyph glyph-name="uni0459" unicode="љ" horiz-adv-x="787" d="M79-5Q15-5 1 31q34 15 51.5 43t25 74T85 259.5V499h370V319h159q42 0 72-14t48.5-36 27-50.5T770 162q0-31-8.5-60t-27-51.5T686 14 614 0H342v404H199v-50q0-62-1-119t-7-102.5-18.5-78T136 9q-11-6-24.5-10T79-5zm517 99q17 0 27.5 6t16.5 16 8 22 2 24q0 26-15 46.5T589 229H455V94h141z"/><glyph glyph-name="guilsinglright" unicode="›" horiz-adv-x="363" d="M113 453q28 0 55.5-10.5T220 401l120-144v-9L220 104q-24-31-51.5-41.5T113 52q-17 0-33 2.5T48 60l161 193L48 445q16 3 32 5.5t33 2.5z"/><glyph glyph-name="uni045A" unicode="њ" horiz-adv-x="827" d="M57 499q34 0 60-11t39-33q10-17 11.5-35.5T169 378v-80h214v80q0 23 1.5 41.5T396 455q13 21 39.5 32.5T496 499V319h158q42 0 72-14t48.5-36 27-50.5T810 162q0-31-8.5-60t-27-51.5T726 14 654 0H383v198H169V0H57v499zM636 94q17 0 27.5 6t16.5 16 8 22 2 24q0 26-15 46.5T629 229H496V94h140z"/><glyph glyph-name="uni045C" unicode="ќ" horiz-adv-x="497" d="M128 550q-10 36-1.5 61.5T161 648l207 82q17-54 .5-88T310 597zM442-10q-42 0-75 21t-70 60l-70 75q-16 17-29.5 35T170 216l-2-1V0H57v500q34 1 58.5-10.5T154 457q11-17 12.5-34.5T168 382V278l2-1q12 19 23.5 36t23.5 35l49 73q29 43 65.5 63.5T407 505q18 0 41.5-3t40.5-11q-15-5-32.5-18T421 443t-35-36-30-37l-86-115 128-137q16-17 33-35t34.5-33.5 34.5-28T532 4q-9-4-20.5-6.5t-24-4T463-9t-21-1z"/><glyph glyph-name="uni045B" unicode="ћ" horiz-adv-x="573" d="M89 538H-14q0 51 23.5 70.5T80 628h9v56q34 1 59-10.5t38-32.5q4-5 7-13l177 1q0-50-23-70t-71-20h-76V423h1q26 35 61.5 53t86.5 18q47 0 80-13.5t55-36.5 30.5-54 8.5-65V0H412v303q0 24-4.5 42T391 375q-24 24-68 24-53 0-88-39.5T200 251V0H89v538z"/><glyph glyph-name="uni045F" unicode="џ" horiz-adv-x="551" d="M322-145q-58-6-83 19t-25 81V0H57v500q34 1 59-10t37-33q9-17 12-34.5t3-40.5V95h215v287q0 23 3 40.5t12 34.5q12 22 37 33t59 10V0H322v-145z"/><glyph glyph-name="uni040E" unicode="Ў" horiz-adv-x="568" d="M283 723q-39 0-69.5 12.5T162 770t-32 52-11 66q15 7 33 7 23 0 40.5-13t25.5-33q9-24 27-36t38-12 38 12 27 36q8 20 25.5 33t40.5 13q18 0 33-7 0-36-11-66t-32-52-51.5-34.5T283 723zM73 6q32 11 60 48t54 84l30 54L34 562q-15 31-28.5 56T-25 670q10 2 24.5 2.5t22.5.5q28 0 49.5-8.5t38.5-25 30.5-39.5 27.5-53l112-248 112 248q13 30 28 53t32.5 39.5 39 25T541 673q9 0 25.5-1.5T593 668q-26-27-40.5-51T523 562L298 104Q256 24 199.5-1T73 6z"/><glyph glyph-name="uni045E" unicode="ў" horiz-adv-x="516" d="M250 558q-39 0-69.5 12.5T129 605t-32 52-11 66q15 7 33 7 23 0 40.5-13t25.5-33q9-24 27-36t38-12 38 12 27 36q8 20 25.5 33t40.5 13q18 0 33-7 0-36-11-66t-32-52-51.5-34.5T250 558zM68-170q31 11 55 47.5T167-38l28 65L54 365q-14 34-30 67.5T-7 500q19 3 38 3 56 0 86.5-32.5T170 377l32-90q14-40 27-78t26-83h1q13 45 25.5 82.5T308 287l39 108q20 57 50 84t72 27q28 0 57-9-25-24-43.5-61.5T448 360L273-72q-62-160-205-98z"/><glyph glyph-name="uni0408" unicode="Ј" horiz-adv-x="451" d="M204-9q-39 0-73 11.5T71 38 29 98.5 10 185h112q1-42 20.5-70.5T201 86q33 0 52.5 19.5T273 169v378q0 23 1.5 42t12.5 36q14 22 40 34t61 11V171q0-45-15-79t-40-56.5T274.5 2 204-9z"/><glyph glyph-name="currency" unicode="¤" horiz-adv-x="627" d="m48 140 58 59q-19 29-30 64.5T65 337t10.5 72.5T105 473l-57 59 71 70 57-58q30 20 65.5 31.5T316 587q38 0 73-11t64-30l56 56 70-70-55-57q20-30 31-65t11-73q0-39-11-74.5T524 197l55-55-70-70-57 55q-29-20-63.5-30.5T316 86t-73.5 11-65.5 31l-58-58zm268 46q31 0 58.5 12t47.5 32.5 32 48 12 58.5-12 58.5-32 47.5-47.5 32-58.5 12-58.5-12-48-32-32.5-47.5-12-58.5 12-58.5 32.5-48 48-32.5 58.5-12z"/><glyph glyph-name="uni0490" unicode="Ґ" horiz-adv-x="512" d="M75 1v669h324v43q0 57 25.5 83t85.5 20V569H190V0z"/><glyph glyph-name="brokenbar" unicode="¦" horiz-adv-x="256" d="M86 694q0 45 17 67t66 29l1-297q0-45-17-67t-66-29zm0-532q0 45 17 67t66 29l1-297q0-45-17-67t-66-29z"/><glyph glyph-name="section" unicode="§" horiz-adv-x="563" d="M283-147q-94 0-149 49T74 45h99q5-54 33.5-82T285-65q42 0 68 20t26 55-24.5 54-79.5 39q-44 15-77.5 31.5t-56 37-34.5 47T95 281q0 40 18.5 72t50.5 53q-31 22-47 51t-16 71q0 34 14 62.5t38 49.5 56.5 32.5T279 684q85 0 130.5-46T462 510h-92q-2 45-24.5 70.5T282 606q-35 0-59-20t-24-54q0-35 28-53t79-37q37-13 69-26.5t56-32.5 38-46.5 14-69.5q0-41-17.5-73T419 141q27-20 42.5-48T477 20q0-39-16.5-70T417-102.5t-62-33-72-11.5zm42 333q27 8 43.5 26t16.5 45q0 34-24.5 53.5T281 350l-21 8q-29-5-48-24t-19-49q0-35 28-53.5t79-36.5z"/><glyph glyph-name="uni0401" unicode="Ё" horiz-adv-x="504" d="M179 731q-27 0-46.5 19.5T113 797q0 28 19.5 48t46.5 20q28 0 48-20t20-48q0-27-20-46.5T179 731zm185 0q-28 0-47.5 19.5T297 797q0 28 19.5 48t47.5 20q27 0 47-20t20-48q0-27-20-46.5T364 731zM75 670h402q0-56-26.5-78.5T371 569H190V391h252q0-56-26.5-79T336 289H190V102h270V0H75v670z"/><glyph glyph-name="copyright" unicode="©" horiz-adv-x="759" d="M379-15q-74 0-136.5 27.5t-109 75-72.5 111T35 334t26 135.5T133.5 581t109 75.5T379 684q73 0 136-27.5T624.5 581t73-111.5T724 334q0-68-26.5-131t-73-111.5T515 14 379-15zm0 69q54 0 103 22.5t86 61 58.5 89T648 334q0 59-21 110t-57.5 89-85.5 60-105 22-105-21.5-85-59.5-57-89.5T111 334t21-110 57-89 85-59.5T379 54zm5 84q-44 0-79.5 16T243 197t-40 63-14 76 14 75.5 40 62.5 61.5 43 79.5 16q36 0 68-11.5t56.5-32T548 441t17-61h-78q-8 35-33.5 58.5T385 462q-25 0-46-9.5t-36.5-26T278 386t-9-52q0-29 9.5-52t25-39.5 37-25.5 45.5-9q42 0 69 22.5t34 59.5h76q-2-33-17.5-60.5t-40-48-56.5-32-67-11.5z"/><glyph glyph-name="uni0404" unicode="Є" horiz-adv-x="738" d="M381-15q-77 0-140.5 28.5T131 90 60 201.5 35 336t25 134.5 71 111T240.5 657 381 685q64 0 120.5-20.5t100-56.5 70-85.5T702 415H582q-7 35-23.5 64.5T517 531t-59 34-76 12q-41 0-77-13t-64.5-37.5-48-59T166 391h296q0-56-26.5-79T356 289H164q5-45 25-81.5t50-62 68-39T387 93q40 0 73.5 12t58.5 34 41 51.5 22 64.5h120q-4-58-31.5-107.5t-71-85.5T500 5.5 381-15z"/><glyph glyph-name="guillemotleft" unicode="«" horiz-adv-x="583" d="M255 52q-28 0-55.5 10.5T148 104L28 248v9l120 144q24 31 51.5 41.5T255 453q17 0 33-2.5t32-5.5L159 252 320 60q-16-3-32-5.5T255 52zm220 0q-28 0-55.5 10.5T368 104L248 248v9l120 144q24 31 51.5 41.5T475 453q17 0 33-2.5t32-5.5L379 252 540 60q-16-3-32-5.5T475 52z"/><glyph glyph-name="registered" unicode="®" horiz-adv-x="759" d="M379-15q-74 0-136.5 27.5t-109 75-72.5 111T35 334t26 135.5T133.5 581t109 75.5T379 684q73 0 136-27.5T624.5 581t73-111.5T724 334q0-68-26.5-131t-73-111.5T515 14 379-15zm0 69q54 0 103 22.5t86 61 58.5 89T648 334q0 59-21 110.5T569.5 534 484 593.5 379 615t-105-21.5-85-59.5-57-89.5T111 334t21-110.5 57-89 85-59T379 54zm113 85q-22 0-40 13.5T414 198l-63 103h-21V141h-79v386l151 1q31 0 54.5-9.5T495 493t22.5-36.5T525 414q0-39-22-70.5T434 303l59-88q11-17 26-38.5t29-33.5q-10-2-24.5-3t-31.5-1zM392 361q32 0 45 15t13 38q-1 23-13.5 38T392 467h-65V361h65z"/><glyph glyph-name="uni0407" unicode="Ї" horiz-adv-x="265" d="M32 731q-27 0-46.5 19.5T-34 797q0 28 19.5 48T32 865q28 0 48-20t20-48q0-27-20-46.5T32 731zm185 0q-28 0-47.5 19.5T150 797q0 28 19.5 48t47.5 20q27 0 47-20t20-48q0-27-20-46.5T217 731zM75 670q35 1 61-11t40-34q11-17 12.5-36t1.5-42V0H75v670z"/><glyph glyph-name="degree" unicode="°" horiz-adv-x="379" d="M190 391q-31 0-59 11.5T81.5 434t-34 47T35 538t12.5 57 34 47 49.5 31.5 59 11.5q30 0 58-11.5t49.5-31.5 34-47 12.5-57-12.5-57-34-47-49.5-31.5-58-11.5zm0 73q31 0 52.5 21.5T264 538t-21.5 52.5T190 612q-32 0-53.5-21.5T115 538t21.5-52.5T190 464z"/><glyph glyph-name="uni0406" unicode="І" horiz-adv-x="265" d="M75 670q35 1 61-11t40-34q11-17 12.5-36t1.5-42V0H75v670z"/><glyph glyph-name="uni0456" unicode="і" horiz-adv-x="223" d="M112 596q-30 0-51 21t-21 51 21 51.5 51 21.5 51.5-21.5T185 668t-21.5-51-51.5-21zm-55-96q34 1 59-10t37-33q9-17 12-34.5t3-40.5V0H57v500z"/><glyph glyph-name="uni0491" unicode="ґ" horiz-adv-x="438" d="M57 1v499h274v41q0 56 25 81t83 19V401H169V0z"/><glyph glyph-name="paragraph" unicode="¶" horiz-adv-x="495" d="m324 588-78 1V252q-56 1-96.5 18.5t-67.5 47T42 384t-13 77q0 41 13.5 78.5T84 606t70.5 46.5T256 670h244v-82h-80V0h-96v588z"/><glyph glyph-name="periodcentered" unicode="·" horiz-adv-x="209" d="M104 254q-30 0-51 21t-21 51 21 51.5 51 21.5 51.5-21.5T177 326t-21.5-51-51.5-21z"/><glyph glyph-name="uni0451" unicode="ё" horiz-adv-x="566" d="M199 566q-27 0-46.5 19.5T133 632q0 28 19.5 48t46.5 20q28 0 48-20t20-48q0-27-20-46.5T199 566zm185 0q-28 0-47.5 19.5T317 632q0 28 19.5 48t47.5 20q27 0 47-20t20-48q0-27-20-46.5T384 566zM290-15q-57 0-105 20.5T102.5 62 49 146.5 30 250q0 60 22 112.5t64 89.5q34 30 78.5 46.5T290 515q54 0 99.5-17.5t78-49.5 50.5-78.5T536 266v-21.5l-1-26.5H151q0-17 4-29 14-48 49-77.5T293 82q47 0 77 23t41 60h117q-9-39-30.5-72T445 36 374.5-1.5 290-15zm128 326q-7 54-42 84.5T290 426q-43 0-78-20t-51-59q-7-17-10-36h267z"/><glyph glyph-name="uni0454" unicode="є" horiz-adv-x="562" d="M289-15q-59 0-107 21t-81.5 57.5-52 85T30 251t18.5 102.5 52 84.5 81.5 57 107 21q46 0 87-14.5t73.5-40 54-60.5 28.5-75H418q-17 45-51.5 69T284 419q-51 0-89-31.5T147 302h197q0-50-24.5-70T245 212H145q3-30 15-54t31.5-41 44-26 51.5-9q51 0 84 25.5t48 67.5h113q-7-41-29-76t-54-60.5T376-1t-87-14z"/><glyph glyph-name="guillemotright" unicode="»" horiz-adv-x="583" d="M113 453q28 0 55.5-10.5T220 401l120-144v-9L220 104q-24-31-51.5-41.5T113 52q-17 0-33 2.5T48 60l161 193L48 445q16 3 32 5.5t33 2.5zm220 0q28 0 55.5-10.5T440 401l120-144v-9L440 104q-24-31-51.5-41.5T333 52q-17 0-33 2.5T268 60l161 193-161 192q16 3 32 5.5t33 2.5z"/><glyph glyph-name="uni0458" unicode="ј" horiz-adv-x="231" d="M120 596q-30 0-51 21t-21 51 21 51.5 51 21.5 51.5-21.5T193 668t-21.5-51-51.5-21zM16-174q-47 0-72 12t-25 38v53q33-10 69-10 16 0 30 3.5t24.5 12T59-42t6 38v504q34 1 59-10t37-33q9-17 12-34.5t3-40.5V0q0-48-11-77t-31-50q-21-23-53.5-35T16-174z"/><glyph glyph-name="uni0405" unicode="Ѕ" horiz-adv-x="563" d="M291-17q-113 0-179 59T40 214h119q5-64 39.5-98.5T293 81q50 0 81.5 24t31.5 66-29.5 65-95.5 47q-52 19-92.5 38.5t-68 44-41.5 56T65 497q0 41 16.5 75.5t45.5 59 68 38.5 83 14q103 0 157.5-55T498 475H388q-3 54-30 84.5T282 590q-42 0-71-24t-29-65q0-21 9-36t25.5-27 40.5-22.5 54-21.5q44-16 82.5-32t67.5-39 45.5-56 16.5-83q0-48-19.5-85t-52-63-74-39.5T291-17z"/><glyph glyph-name="uni0455" unicode="ѕ" horiz-adv-x="467" d="M235-15Q135-15 83 35T32 167h111q1-17 6-34t16.5-30.5 30-22T242 72q38 0 59 16.5t21 42.5q0 24-21 41-12 11-31 18.5T227 206q-45 14-85 28.5T79 272q-37 37-37 96 0 30 14 57t38 47 57 31.5 71 11.5q93 0 141-43t50-124H308q-1 16-4.5 31T291 405.5 266.5 424t-39.5 7q-34 0-53-16t-18-37q0-16 8.5-26.5t21.5-18 30-13 34-11.5q41-14 72-25.5t53-26.5q60-41 60-110 0-40-17-70t-45.5-50.5-64.5-31T235-15z"/><glyph glyph-name="uni0457" unicode="ї" horiz-adv-x="223" d="M19 566q-27 0-46.5 19.5T-47 632q0 28 19.5 48T19 700q28 0 48-20t20-48q0-27-20-46.5T19 566zm185 0q-28 0-47.5 19.5T137 632q0 28 19.5 48t47.5 20q27 0 47-20t20-48q0-27-20-46.5T204 566zM57 500q34 1 59-10t37-33q9-17 12-34.5t3-40.5V0H57v500z"/><glyph glyph-name="uni0410" unicode="А" horiz-adv-x="606" d="M235 670q22 1 42.5-.5t38-9 32-22.5 24.5-40L616 0H490l-56 146H156L104 0H-10zm163-428-66 173q-12 32-21 59.5T292 535h-2q-9-33-18-61.5T252 414l-61-172h207z"/><glyph glyph-name="uni0411" unicode="Б" horiz-adv-x="584" d="M75 670h435q0-56-26.5-78.5T404 569H190V400h149q55 0 95.5-15.5T501 342t39-63 13-76-13-76.5-39-65-66.5-45T339 0H75v670zM322 97q59 0 84.5 30.5T432 202q0 45-27.5 74.5T333 306H190V97h132z"/><glyph glyph-name="uni0412" unicode="В" horiz-adv-x="564" d="M75 1v669h215q40 0 75-11.5t61.5-33T468 572t15-72q0-46-19-79.5T410 367v-2q58-21 90.5-67.5T533 191q0-39-13-73.5t-39-61T414.5 15 319 0zm196 394q49 0 73.5 26.5T369 488q0 39-24 62t-66 23h-89V395h81zm31-298q59 0 84.5 28.5T412 196t-27.5 70-71.5 28H190V97h112z"/><glyph glyph-name="uni0413" unicode="Г" horiz-adv-x="512" d="M75 1v669h435q0-56-26.5-78.5T404 569H190V0z"/><glyph glyph-name="uni0414" unicode="Д" horiz-adv-x="681" d="M-8 101H95q21 36 33 84.5t18.5 106 8.5 124 1 139.5l-1 115h424V101h102v-247q-60-6-85.5 20T570-43V0H103v-43q0-57-25.5-83T-8-146v247zm472 1v470H271l1-83q1-50-1.5-102.5t-8.5-103-16-97.5-24-84h242z"/><glyph glyph-name="uni0415" unicode="Е" horiz-adv-x="504" d="M75 670h402q0-56-26.5-78.5T371 569H190V391h252q0-56-26.5-79T336 289H190V102h270V0H75v670z"/><glyph glyph-name="uni0416" unicode="Ж" horiz-adv-x="933" d="M82-8q-9 0-21.5 1T35-4.5t-24.5 4T-10 6q15 6 33 18.5t36 29T94.5 89t32.5 37l171 208-157 204q-14 18-31.5 37.5t-35.5 36-36 29T5 659q17 8 42.5 11t44.5 3q87 0 151-87l164-222 2 1v305q35 1 61-11t40-34q11-17 12.5-36t1.5-42V365l2-1 164 222q64 87 151 87 19 0 44.5-3t42.5-11q-15-6-33-18.5t-36-29-35.5-36T792 538L635 334l171-208q15-18 32.5-37T874 53.5t36-29T943 6q-9-4-21-6.5t-24.5-4-25-2.5T851-8q-86 0-152 86L526 303l-2-1V0H409v302l-2 1L234 78Q168-8 82-8z"/><glyph glyph-name="uni0417" unicode="З" horiz-adv-x="553" d="M281-15Q163-15 97 46T22 219h122q5-64 38-98t102-34q56 0 92.5 28.5T413 189q0 29-11.5 48.5T370 269t-46 17.5-56 5.5h-55v103h72q48 0 77 26.5t29 72.5q0 17-7.5 33.5T362 557t-34 21-45 8q-53 0-85-29t-35-82H41q4 49 23 87.5t50.5 65.5 74.5 41 95 14q57 0 100-16t71.5-42.5 43-60.5 14.5-70q0-50-22.5-88.5T420 351q55-15 83.5-58T532 193q0-42-16.5-79.5t-48.5-66T388 2 281-15z"/><glyph glyph-name="uni0418" unicode="И" horiz-adv-x="709" d="M75 670q34 1 59-11t39-38q8-14 10.5-32.5T186 547V318q0-31-1-70.5t-3-73.5l2-1q16 27 31.5 54t32.5 52l197 298q22 33 44 52.5t45 29 48 11 52 .5V0H522v379q0 32 1.5 64t5.5 65l-2 1q-15-27-31.5-54.5T462 402L191 0H75v670z"/><glyph glyph-name="uni0419" unicode="Й" horiz-adv-x="709" d="M354 723q-39 0-69.5 12.5T233 770t-32 52-11 66q15 7 33 7 23 0 40.5-13t25.5-33q9-24 27-36t38-12 38 12 27 36q8 20 25.5 33t40.5 13q18 0 33-7 0-36-11-66t-32-52-51.5-34.5T354 723zM75 670q34 1 59-11t39-38q8-14 10.5-32.5T186 547V318q0-31-1-70.5t-3-73.5l2-1q16 27 31.5 54t32.5 52l197 298q22 33 44 52.5t45 29 48 11 52 .5V0H522v379q0 32 1.5 64t5.5 65l-2 1q-15-27-31.5-54.5T462 402L191 0H75v670z"/><glyph glyph-name="uni041A" unicode="К" horiz-adv-x="599" d="M517-8q-86 0-152 86L192 303l-2-1V0H75v670q35 1 61-11t40-34q11-17 12.5-36t1.5-42V365l2-1 164 222q64 87 151 87 19 0 44.5-3t42.5-11q-15-6-33-18.5t-36-29-35.5-36T458 538L301 334l171-208q15-18 32.5-37T540 53.5t36-29T609 6q-9-4-21-6.5t-24.5-4-25-2.5T517-8z"/><glyph glyph-name="uni041B" unicode="Л" horiz-adv-x="672" d="M85-7Q48-7 29 3T2 32q45 17 69 60.5T105.5 199 117 342.5t1 172.5v155h479V0H482v572H233l1-142q0-65-1-125t-8-111.5-21-94T164 29q-15-17-34.5-26.5T85-7z"/><glyph glyph-name="uni041C" unicode="М" horiz-adv-x="919" d="M167 670q27 1 50.5-.5T260 658t34-29 26-52l138-411h2l137 404q13 37 28 58t34 30.5 42.5 11 53.5.5L879 0H763l-67 382q-5 31-8.5 68t-5.5 70h-2q-7-33-18-71t-22-67L503 0h-93L279 379q-11 31-21.5 68.5T240 519h-2q-3-34-6.5-71.5T223 380L156 0H40z"/><glyph glyph-name="uni041D" unicode="Н" horiz-adv-x="709" d="M75 670q35 1 61-11t40-34q11-17 12.5-36t1.5-42V384h329v163q0 23 1.5 42t12.5 36q14 22 40 34t61 11V0H519v282H190V0H75v670z"/><glyph glyph-name="uni041E" unicode="О" horiz-adv-x="759" d="M379-15q-74 0-136.5 27.5t-109 75-72.5 111T35 334t26 135.5T133.5 581t109 75.5T379 684q73 0 136-27.5T624.5 581t73-111.5T724 334t-26.5-135.5-73-111-109.5-75T379-15zm0 108q47 0 87.5 19t70 52 46.5 76.5 17 93.5-17 94-46.5 77-70 52-87.5 19-87-19-69.5-52-46.5-77-17-94 17-93.5 46.5-76.5 69.5-52 87-19z"/><glyph glyph-name="uni041F" unicode="П" horiz-adv-x="709" d="M75 670h559V0H519v568H190V0H75v670z"/><glyph glyph-name="uni0420" unicode="Р" horiz-adv-x="570" d="m75 670 259 1q58 0 101-17t71-46 41.5-67 13.5-79-14.5-77.5T505 319q-28-30-70-48t-109-18l-136 1V0H75v670zm244-320q66 0 95 32t27 80-29 79.5-93 31.5H190V350h129z"/><glyph glyph-name="uni0421" unicode="С" horiz-adv-x="738" d="M381-15q-77 0-140.5 28.5T131 90 60 201.5 35 336t25 134.5 71 111T240.5 657 381 685q64 0 120.5-20.5t100-56.5 70-85.5T702 415H582q-7 35-23.5 64.5T517 531t-59 34-76 12q-47 0-87.5-17.5t-70-50T178 432t-17-99 17.5-98.5 48.5-76 72-48.5 88-17q40 0 73.5 12t58.5 34 41 51.5 22 64.5h120q-4-58-31.5-107.5t-71-85.5T500 5.5 381-15z"/><glyph glyph-name="uni0422" unicode="Т" horiz-adv-x="551" d="M207 569H-3q0 56 26.5 78.5T103 670h451q0-56-26.5-78.5T448 569H322V0H207v569z"/><glyph glyph-name="uni0423" unicode="У" horiz-adv-x="568" d="M73 6q32 11 60 48t54 84l30 54L34 562q-15 31-28.5 56T-25 670q10 2 24.5 2.5t22.5.5q28 0 49.5-8.5t38.5-25 30.5-39.5 27.5-53l112-248 112 248q13 30 28 53t32.5 39.5 39 25T541 673q9 0 25.5-1.5T593 668q-26-27-40.5-51T523 562L298 104Q256 24 199.5-1T73 6z"/><glyph glyph-name="uni0424" unicode="Ф" horiz-adv-x="783" d="M334 68h-1q-73 0-132 19t-100 53.5T37.5 224 15 334t22.5 110 63.5 83.5T201 581t132 19h1v110q35 1 61-11t40-34q9-15 11.5-30.5T449 600h1q73 0 132-19t100-53.5 63.5-83.5T768 334t-22.5-110-63.5-83.5T582 87 450 68h-1v-88H334v88zm0 431q-103-2-154.5-44.5T128 334t51.5-120.5T334 169v330zm115-330q103 2 154.5 44.5T655 334t-51.5 120.5T449 499V169z"/><glyph glyph-name="uni0425" unicode="Х" horiz-adv-x="590" d="M63-7Q45-7 22-4T-18 7q15 5 31 19.5T44.5 60 74 100l26 39 128 199-124 192q-13 19-28 40t-30.5 39T14 641t-31 19q17 8 44 11t45 3q47 0 77-26t50-59l93-149 76 134q13 24 27 42.5t30 31 35.5 19.5 45.5 7q18 0 41-3t40-11q-15-5-31.5-19T523 608t-30.5-39.5T466 529L349 338l140-199q13-18 27.5-39t30-40 31-33.5T608 7q-17-8-44-11t-45-3q-47 0-78 28.5T382 94l-95 144-89-145q-27-44-57.5-72T63-7z"/><glyph glyph-name="uni0426" unicode="Ц" horiz-adv-x="715" d="M715-146q-60-6-85.5 20T604-43V0H75v670q35 1 61-11t40-34q11-17 12.5-36t1.5-42V102h308v445q0 23 1.5 42t12.5 36q14 22 40 34t61 11V101h102v-247z"/><glyph glyph-name="uni0427" unicode="Ч" horiz-adv-x="667" d="M476 203q-67-44-171-44-52 0-97.5 15T128 218t-54 72-20 99l-1 281q35 1 61.5-11.5T155 625q11-17 13-36t2-42V411q0-69 36-108.5T307 262q51-1 95 14t75 40v231q0 23 2 42t13 36q14 21 39.5 33.5T592 670L591 0H476v203z"/><glyph glyph-name="uni0428" unicode="Ш" horiz-adv-x="909" d="M75 670q35 1 61-11t40-34q11-17 12.5-36t1.5-42V102h207v568q35 1 61-11t40-34q11-17 12.5-36t1.5-42V102h207v445q0 23 1.5 42t12.5 36q14 22 40 34t61 11V0H75v670z"/><glyph glyph-name="uni0429" unicode="Щ" horiz-adv-x="935" d="M935-146q-60-6-85.5 20T824-43V0H75v670q35 1 61-11t40-34q11-17 12.5-36t1.5-42V102h207v568q35 1 61-11t40-34q11-17 12.5-36t1.5-42V102h207v445q0 23 1.5 42t12.5 36q14 22 40 34t61 11V101h101v-247z"/><glyph glyph-name="uni042A" unicode="Ъ" horiz-adv-x="634" d="M139 569H91q-53 0-79.5 22.5T-15 670h269V400h149q55 0 95.5-15.5T565 342t39-63 13-76-13-76.5-39-65-66.5-45T403 0H139v569zM386 97q59 0 84.5 30.5T496 202q0 45-27.5 74.5T397 306H254V97h132z"/><glyph glyph-name="uni042B" unicode="Ы" horiz-adv-x="835" d="M75 670q35 1 61-11t40-34q11-17 12.5-36t1.5-42V400h149q55 0 95.5-15.5T501 342t39-63 13-76-13-76.5-39-65-66.5-45T339 0H75v670zm570 0q35 1 61-11t40-34q11-17 12.5-36t1.5-42V0H645v670zM322 97q59 0 84.5 30.5T432 202q0 45-27.5 74.5T333 306H190V97h132z"/><glyph glyph-name="uni042C" unicode="Ь" horiz-adv-x="570" d="M75 670q35 1 61-11t40-34q11-17 12.5-36t1.5-42V400h149q55 0 95.5-15.5T501 342t39-63 13-76-13-76.5-39-65-66.5-45T339 0H75v670zM322 97q59 0 84.5 30.5T432 202q0 45-27.5 74.5T333 306H190V97h132z"/><glyph glyph-name="uni042D" unicode="Э" horiz-adv-x="738" d="M356-15q-63 0-119.5 20.5T136.5 62 66 147.5 35 255h120q6-35 23-64.5t43.5-51.5 62-34T364 93q38 0 73.5 13.5t64 39 47.5 62 25 81.5H252q0 56 26.5 79t79.5 23h214q-7 42-26.5 76.5t-48 59T433 564t-76 13q-42 0-76.5-12t-60-34-42-51.5T155 415H35q4 58 30.5 107.5t70 85.5 100 56.5T356 685q77 0 140.5-28T606 581.5t71-111T702 336t-25-134.5T606 90 496.5 13.5 356-15z"/><glyph glyph-name="uni042E" unicode="Ю" horiz-adv-x="970" d="M622-15q-61 0-114 23t-93.5 63-67.5 94-35 117H190V0H75v670q35 1 61-11t40-34q11-17 12.5-36t1.5-42V384h122q8 63 34.5 118t67.5 95.5 94 63.5 114 23q66 0 123.5-27.5T845 581t66-111.5T935 334t-24-135.5-66-111-99.5-75T622-15zm0 108q40 0 75 19t60.5 52 40 76.5T812 334t-14.5 94-40 77-60.5 52-75 19q-41 0-75.5-19T487 505t-39.5-77-14.5-94 14.5-93.5T487 164t59.5-52T622 93z"/><glyph glyph-name="uni042F" unicode="Я" horiz-adv-x="609" d="M72-10q-9 0-21.5 1T25-6.5.5-2.5-20 4q15 6 33.5 18.5t37 29 36 35.5 31.5 37l119 157q-41 7-71.5 25.5T115 351t-29.5 57.5T76 474q0 39 13 74.5t39 63 66.5 43.5 95.5 16l244-1V0H419v278l-52-1L220 76q-32-44-69.5-65T72-10zm347 384v200H307q-59 0-83.5-28.5T198 474t24.5-71.5T307 374h112z"/><glyph glyph-name="uni0430" unicode="а" horiz-adv-x="596" d="M267-14q-47 0-90 19.5t-75.5 55-52 84T30 251q0 54 19.5 102t53.5 84 79 57 95 21q54 0 92-19.5t64-54.5h2q11 29 38.5 44.5T539 500V0H432l-1 62-3 1q-29-37-66-57t-95-20zm21 102q31 0 57 12t44.5 34 28.5 51.5 10 65.5q0 37-10.5 67t-29 51.5-44.5 33-56 11.5-56-12-44.5-33.5T158 317t-11-66 11-66 29.5-51.5T232 100t56-12z"/><glyph glyph-name="uni0431" unicode="б" horiz-adv-x="574" d="M288-15q-56 0-103.5 18T102 56.5t-54.5 88T28 266v33q0 158 68.5 247.5T318 659q22 3 48 5.5t53 6 54 9 53 15.5q0-20-1-41.5T506 610q-17-21-46-26.5T396 573q-62-8-106.5-17T211 522q-29-21-40.5-47T158 418l3-1q23 20 60.5 35t88.5 15q47 0 89.5-16.5T474 404t51-72.5 19-94.5-19-97.5-53.5-80T390 5 288-15zm0 97q64 0 102 39.5T428 228q1 67-38 104.5T288 370t-103.5-37.5T144 228q1-67 41-106.5T288 82z"/><glyph glyph-name="uni0432" unicode="в" horiz-adv-x="518" d="M57 1v498h225q35 0 65.5-8.5t53-24.5 35.5-39 13-52q0-40-16-65t-45-41v-1q45-17 70-52.5t25-80.5q0-27-11-51.5t-33.5-43-57-29.5T300 0zm214 297q38 0 55 16t17 41q0 23-16.5 39T278 410H164V298h107zm24-209q45 0 60.5 19t15.5 41q0 24-17 39.5T302 204H164V89h131z"/><glyph glyph-name="uni0433" unicode="г" horiz-adv-x="438" d="M57 1v499h381q0-54-26-76.5T334 401H169V0z"/><glyph glyph-name="uni0434" unicode="д" horiz-adv-x="615" d="M1 96h100q16 33 27 69t17 79.5 8 95.5 1 115l-1 44h355V96h97v-240q-58-6-83 19t-25 81V0H109v-44q0-56-25-81T1-144V96zm401-3v314H265l-1-20q-2-28-4-63t-6.5-74-12.5-79.5T219 93h183z"/><glyph glyph-name="uni0435" unicode="е" horiz-adv-x="566" d="M290-15q-57 0-105 20.5T102.5 62 49 146.5 30 250q0 60 22 112.5t64 89.5q34 30 78.5 46.5T290 515q54 0 99.5-17.5t78-49.5 50.5-78.5T536 266v-21.5l-1-26.5H151q0-17 4-29 14-48 49-77.5T293 82q47 0 77 23t41 60h117q-9-39-30.5-72T445 36 374.5-1.5 290-15zm128 326q-7 54-42 84.5T290 426q-43 0-78-20t-51-59q-7-17-10-36h267z"/><glyph glyph-name="uni0436" unicode="ж" horiz-adv-x="769" d="M55-10q-9 0-21 1T9.5-6.5t-24 4T-35 4q15 5 32 17.5t34.5 28T66 83t33 35l128 137-86 115q-13 18-30 37t-35 36-35.5 30T8 491q17 8 40.5 11t41.5 3q42 0 78.5-20.5T234 421l95-140 2 1q0 15-1 33.5t-1 33.5v151q34 1 58.5-10.5T426 457q11-17 12.5-34.5T440 382v-32q0-16-1-35.5t-1-35.5l2-1 24 38 25 37 49 68q61 84 141 84 18 0 41.5-3t40.5-11q-15-5-32.5-18T693 443t-35-36-30-37l-86-111 128-141q15-17 32.5-35t35-34T772 21t32-17q-9-4-20.5-6.5t-24-4T735-9t-21-1q-42 0-76 20t-69 61l-70 80q-15 17-30 37.5T440 226l-2-1q2-27 2-54V0H329v168l2 52-2 1L197 71q-35-41-69.5-61T55-10z"/><glyph glyph-name="uni0437" unicode="з" horiz-adv-x="509" d="M259-11Q155-11 97 38.5T31 180l116-1q1-20 7.5-37.5T175 111t37-20.5 58-7.5q45 0 72 14.5t27 49.5q0 20-10 32t-26.5 18.5T295 206t-42 2h-46l-1 100 64-1q38-1 60.5 15t22.5 43q0 55-90 55-24 0-42-6t-30.5-16-19-23-5.5-26H51q3 37 20 66.5t45 50 66 31 83 10.5q50 0 88-12.5t64-32.5 39-46 13-53q0-40-19.5-67T390 262q44-8 68-39.5t24-75.5q0-34-16-63t-45.5-50T350 1t-91-12z"/><glyph glyph-name="uni0438" unicode="и" horiz-adv-x="566" d="M57 499q33 0 58-11.5t38-38.5q12-26 12-71v-66q0-29-1-76t-5-97l2-1q19 36 37 71.5t35 61.5l87 137q21 33 43.5 52t46.5 28 48.5 10.5 50.5.5V0H397v233q0 30 1.5 70t3.5 72l-2 1q-11-24-20-42.5t-17.5-34-17-29.5-18.5-29L167 0H57v499z"/><glyph glyph-name="uni0439" unicode="й" horiz-adv-x="566" d="M283 552q-39 0-69.5 12.5T162 599t-32 52-11 66q15 7 33 7 23 0 40.5-13t25.5-33q9-24 27-36t38-12 38 12 27 36q8 20 25.5 33t40.5 13q18 0 33-7 0-36-11-66t-32-52-51.5-34.5T283 552zM57 499q33 0 58-11.5t38-38.5q12-26 12-71v-66q0-29-1-76t-5-97l2-1q19 36 37 71.5t35 61.5l87 137q21 33 43.5 52t46.5 28 48.5 10.5 50.5.5V0H397v233q0 30 1.5 70t3.5 72l-2 1q-11-24-20-42.5t-17.5-34-17-29.5-18.5-29L167 0H57v499z"/><glyph glyph-name="uni043A" unicode="к" horiz-adv-x="497" d="M442-10q-42 0-75 21t-70 60l-70 75q-16 17-29.5 35T170 216l-2-1V0H57v500q34 1 58.5-10.5T154 457q11-17 12.5-34.5T168 382V278l2-1q12 19 23.5 36t23.5 35l49 73q29 43 65.5 63.5T407 505q18 0 41.5-3t40.5-11q-15-5-32.5-18T421 443t-35-36-30-37l-86-115 128-137q16-17 33-35t34.5-33.5 34.5-28T532 4q-9-4-20.5-6.5t-24-4T463-9t-21-1z"/><glyph glyph-name="uni043B" unicode="л" horiz-adv-x="522" d="M79-5Q15-5 1 31q34 15 51.5 43t25 74T85 259.5V499h380V0H352v404H199v-50q0-62-1-119t-7-102.5-18.5-78T136 9q-11-6-24.5-10T79-5z"/><glyph glyph-name="uni043C" unicode="м" horiz-adv-x="728" d="M129 499q26 1 48.5-.5t41-11T252 459t26-52l56-167q7-26 14.5-51t13.5-51h1q6 26 13.5 52t14.5 52l54 159q12 36 26.5 56.5T505 488t42 11 52 0L691 0H578l-37 226q-5 29-8 66t-4 77h-1q-7-39-20-77.5T486 226L408 0h-95l-75 223q-10 30-21 66t-19 80h-1q-2-42-4.5-79t-7.5-66L151 0H37z"/><glyph glyph-name="uni043D" unicode="н" horiz-adv-x="573" d="M57 499q34 0 60-11t39-33q10-17 11.5-35.5T169 378v-80h234v80q0 23 1.5 41.5T416 455q13 21 39.5 32.5T516 499V0H403v198H169V0H57v499z"/><glyph glyph-name="uni043E" unicode="о" horiz-adv-x="580" d="M290-15q-56 0-103.5 21t-82 57T50 147.5 30 250t20 102 54.5 84 82 57T290 514t103.5-21 82.5-57 54.5-84T550 250t-19.5-102.5T476 63 393.5 6 290-15zm0 100q33 0 60 12.5t46.5 34.5 30.5 52.5 11 65.5-11 65-30.5 52-46.5 34.5-60 12.5-60-12.5-47-34.5-30.5-52-10.5-65 10.5-65.5 30-52.5 47-34.5T290 85z"/><glyph glyph-name="uni043F" unicode="п" horiz-adv-x="551" d="M57 500h437V0H383v405H168V0H57v500z"/><glyph glyph-name="uni0440" unicode="р" horiz-adv-x="604" d="M57 500q68 2 95-41 4-5 5.5-11t3.5-12l2-1q31 38 71.5 58.5T334 514q48 0 91.5-19.5t76.5-55 52.5-84T574 249q0-54-19.5-102t-53-84T423 6t-96-21q-50 0-90.5 17T170 54l-2-1v-221H57v668zM315 86q31 0 57.5 12t45.5 33.5 29.5 51.5 10.5 66-10.5 66-29.5 51.5-45.5 33.5-57.5 12q-69 0-108-45.5T168 249q0-35 10-65t28.5-52 46-34T315 86z"/><glyph glyph-name="uni0441" unicode="с" horiz-adv-x="565" d="M293-15q-59 0-107.5 21t-83 57.5-53.5 85T30 251t19 102.5 53.5 84.5 83 57T293 516q48 0 91-16t75.5-44 52.5-65 23-80H424q-11 53-45.5 80.5T293 419q-31 0-58-12.5t-46.5-35-31-53.5-11.5-69 12-69 32-52.5T237.5 94 296 82q55 0 87 30t41 78h111q-3-44-23.5-81.5t-53-65-75-43T293-15z"/><glyph glyph-name="uni0442" unicode="т" horiz-adv-x="506" d="M187 400H5q0 55 26 77t78 22h392q0-54-26-76.5T397 400h-98V0H187v400z"/><glyph glyph-name="uni0443" unicode="у" horiz-adv-x="516" d="M68-170q31 11 55 47.5T167-38l28 65L54 365q-14 34-30 67.5T-7 500q19 3 38 3 56 0 86.5-32.5T170 377l32-90q14-40 27-78t26-83h1q13 45 25.5 82.5T308 287l39 108q20 57 50 84t72 27q28 0 57-9-25-24-43.5-61.5T448 360L273-72q-62-160-205-98z"/><glyph glyph-name="uni0444" unicode="ф" horiz-adv-x="817" d="M353-58q0 27 1 61t3 61h-3q-21-42-54.5-60.5T228-15q-39 0-73.5 21t-60 57-40 84T40 249q0 58 14.5 106.5t39.5 84 58 55 70 19.5q46 0 77.5-18.5T355 432l2 1q-2 19-3 45t-1 45v161q34 1 58.5-10.5T450 641q11-17 12.5-34.5T464 566v-42q0-19-1.5-45.5T459 433l2-1q24 45 56 63.5t78 18.5q37 0 70-19.5t58-55 39.5-84T777 249q0-54-14.5-102t-40-84-60-57T589-15q-38 0-72 18.5T462 64h-3q2-26 3.5-58.5T464-53v-115H353v110zM251 86q24 0 43 12t32 34 20 52 7 65q0 72-27 117.5T251 412q-22 0-40-12t-31.5-33.5-21-51.5-7.5-66q0-73 28-118t72-45zm315 0q44 0 72 45t28 118q0 36-7.5 66t-21 51.5T606 400t-40 12q-48 0-75-45.5T464 249q0-35 7-65t20-52 32-34 43-12z"/><glyph glyph-name="uni0445" unicode="х" horiz-adv-x="546" d="M78-10q-18 0-40 3T-1 4q15 5 31 19.5T62 57t31 40 28 39l88 124-71 106q-13 19-28 40.5t-30.5 40-31 32.5T18 498q17 8 43 10t44 2q41 0 70.5-28t57.5-72l42-66 39 64q29 48 55.5 74t70.5 26q18 0 40-2.5t39-10.5q-15-5-31-19.5t-31.5-33-30-39.5-26.5-40l-66-102 93-125q13-18 29-39t32-40 32.5-33.5T552 4q-17-8-43-11t-44-3q-44 0-74.5 28.5T330 91l-61 88-60-89q-15-22-28.5-40T152 18.5t-32.5-21T78-10z"/><glyph glyph-name="uni0446" unicode="ц" horiz-adv-x="602" d="M592-146q-58-6-83 19t-25 81V0H57v500q34 1 59-10t37-33q9-17 12-34.5t3-40.5V95h215v287q0 23 3 40.5t12 34.5q12 22 37 33t59 10V94h98v-240z"/><glyph glyph-name="uni0447" unicode="ч" horiz-adv-x="539" d="M371 157h-2q-29-18-59-26t-69-8q-40 0-76.5 10t-64 30.5-44 52.5T40 292v208q34 1 59.5-10t36.5-33q7-13 10-26.5t5-30.5v-86q0-96 105-96 46 0 70 9.5t45 29.5v125q0 23 3 40.5t12 34.5q12 22 37 33t59 10V0H371v157z"/><glyph glyph-name="uni0448" unicode="ш" horiz-adv-x="731" d="M57 500q34 1 59-10t37-33q9-17 12-34.5t3-40.5V95h141v405q34 1 59-10t37-33q9-17 12-34.5t3-40.5V95h142v287q0 23 3 40.5t12 34.5q12 22 37 33t59 10V1l1-1H57v500z"/><glyph glyph-name="uni0449" unicode="щ" horiz-adv-x="781" d="M771-146q-58-6-83 19t-25 81V0H57v500q34 1 59-10t37-33q9-17 12-34.5t3-40.5V95h141v405q34 1 59-10t37-33q9-17 12-34.5t3-40.5V95h142v287q0 23 3 40.5t12 34.5q12 22 37 33t59 10V94h98v-240z"/><glyph glyph-name="uni044A" unicode="ъ" horiz-adv-x="563" d="M119 400H81q-52 0-78 22t-26 77l254 1V319h159q42 0 72-14t48.5-36 27-50.5T546 162q0-31-8.5-60t-27-51.5T462 14 390 0H119v400zM372 94q17 0 27.5 6t16.5 16 8 22 2 24q0 26-15 46.5T365 229H231V94h141z"/><glyph glyph-name="uni044B" unicode="ы" horiz-adv-x="724" d="M558 500q34 1 59-10t37-33q9-17 12-34.5t3-40.5V0H558v500zm-501-1q34 0 60-11t39-33q10-17 11.5-35.5T169 378v-59h159q42 0 72-14t48.5-36 27-50.5T484 162q0-31-8.5-60t-27-51.5T400 14 328 0H57v499zM310 94q17 0 27.5 6t16.5 16 8 22 2 24q0 26-15 46.5T303 229H169V94h141z"/><glyph glyph-name="uni044C" unicode="ь" horiz-adv-x="501" d="M57 499q34 0 60-11t39-33q10-17 11.5-35.5T169 378v-59h159q42 0 72-14t48.5-36 27-50.5T484 162q0-31-8.5-60t-27-51.5T400 14 328 0H57v499zM310 94q17 0 27.5 6t16.5 16 8 22 2 24q0 26-15 46.5T303 229H169V94h141z"/><glyph glyph-name="uni044D" unicode="э" horiz-adv-x="562" d="M273-15q-46 0-87 14t-73 39.5T59 99t-29 76h113q15-42 48-67.5T275 82q27 0 51.5 9t44 26 31.5 41 15 54H218q0 50 24.5 70t74.5 20h98q-10 54-48 85.5T278 419q-48 0-82.5-24T144 326H30q7 40 28.5 75t54 60.5 73.5 40 87 14.5q59 0 107-21t81.5-57 52-84.5T532 251t-18.5-102.5-52-85T380 6 273-15z"/><glyph glyph-name="uni044E" unicode="ю" horiz-adv-x="737" d="M483-15q-43 0-80 16.5t-65.5 45-48 67.5-26.5 84h-95V0H57v500q34 1 59-10t37-33q9-17 12-34.5t3-40.5v-84h95q7 46 26 85.5t47.5 68.5 66 45.5T483 514q49 0 90-21t71-57 46.5-84T707 250t-16.5-102.5T644 63 573 6t-90-21zm0 100q26 0 46.5 12.5T565 132t23 52.5 8 65.5-8 65-22.5 52-35.5 34.5-47 12.5-47-12.5-35.5-34.5-22.5-52-8-65 8-65.5 22.5-52.5T436 97.5 483 85z"/><glyph glyph-name="uni044F" unicode="я" horiz-adv-x="542" d="M102-9q-7 0-17.5 1t-22 2.5-22.5 4T21 5q14 5 31 17t34.5 27T121 81t32 33l79 88q-61 9-101.5 48T90 349q0 35 13 63t36 47.5 54.5 30T263 500l222-1V0H376v200l-22-1L248 70Q183-9 102-9zm274 299 1 119h-98q-35 0-54.5-17T205 349q0-29 21-44t53-15h97z"/><glyph glyph-name="exclamdown" unicode="¡" horiz-adv-x="295" d="M148 674q30 0 51-21t21-51-21-51.5-51-21.5-51.5 21.5T75 602t21.5 51 51.5 21zM205-1H90l9 476h101z"/><glyph glyph-name="cent" unicode="¢" horiz-adv-x="555" d="M246 1q-47 7-84.5 29.5T97.5 86t-41 74.5T42 248t14.5 87.5T97 410t63.5 55 84.5 30v32q0 40 15.5 60.5T320 614V496q38-5 71.5-21t59-40 41.5-54.5 21-65.5H408q-9 36-31.5 58T321 403l-1-311q35 7 58 30.5t31 58.5h104q-5-36-21-66.5T450.5 60 392 20.5 321 0v-34q0-40-15.5-60.5T246-121V1zm0 399q-43-14-69.5-54.5T150 247q0-57 26.5-96.5T245 97z"/><glyph glyph-name="sterling" unicode="£" horiz-adv-x="599" d="M417-8q-33 0-62 8.5t-55.5 19-51 19.5-48.5 9q-28 0-37-11.5T152 0H52q-2 29 5 55t23.5 45.5 43 30.5 64.5 10q5 14 8 28t3 23q0 37-15 72H40q0 44 20.5 67.5T119 355l18 1q-26 50-36 84t-10 61q0 39 14 72.5t41 58 65.5 39T298 685q101 0 152-55.5T502 477H395q-1 66-27 95t-72 29-69-29-23-77q0-36 16-71.5t36-67.5h185q0-51-25.5-71.5T339 264h-45q2-14 3.5-27.5t.5-27.5q-2-26-4-48t-8-42q35-11 71-23t68-12q23 0 36 19.5t12 55.5h98q-3-83-44.5-125T417-8z"/><glyph glyph-name="yen" unicode="¥" horiz-adv-x="610" d="M252 123H83q0 42 21 59t63 17h85v58H83q0 42 21 59t63 17h59L112 527q-12 20-26.5 41T55 608t-32 33-30 19q17 8 42 11t42 3q22 0 40-7.5t33-20.5 27.5-29 21.5-32l113-200 99 188q25 48 54.5 74.5T540 674q18 0 39-3t38-11q-14-5-30.5-19.5t-32-33.5-30-40.5T499 526L391 333h148q0-42-21-59t-62-17h-93v-58h176q0-42-21-59t-62-17h-93V0H252v123z"/><glyph glyph-name="questiondown" unicode="¿" horiz-adv-x="467" d="M285 679q30 0 51-21t21-51-21-51.5-51-21.5-51.5 21.5T212 607t21.5 51 51.5 21zm55-363h-51q-73 0-114.5-33.5T133 189q0-45 27.5-74T238 86q23 0 43.5 8t35.5 23 23 37 8 51h107q1-46-15-85.5T395 51 325.5 5.5 236-11q-51 0-91 16T77.5 48.5 36 113t-14 79q0 40 14 76.5T78 333t67.5 46.5T236 403v77h104V316z"/><glyph glyph-name="Agrave" unicode="À" horiz-adv-x="606" d="M222 762q-44 11-59 46t1 87l207-82q27-11 35-37t-2-61zm13-92q22 1 42.5-.5t38-9 32-22.5 24.5-40L616 0H490l-56 146H156L104 0H-10zm163-428-66 173q-12 32-21 59.5T292 535h-2q-9-33-18-61.5T252 414l-61-172h207z"/><glyph glyph-name="Aacute" unicode="Á" horiz-adv-x="606" d="M161 715q-10 36-1.5 61.5T194 813l207 82q17-54 .5-88T343 762zm74-45q22 1 42.5-.5t38-9 32-22.5 24.5-40L616 0H490l-56 146H156L104 0H-10zm163-428-66 173q-12 32-21 59.5T292 535h-2q-9-33-18-61.5T252 414l-61-172h207z"/><glyph glyph-name="Acircumflex" unicode="Â" horiz-adv-x="606" d="M140 719q-22 26-16 53t39 48l120 78 120-78q33-21 39-48t-16-53v-1l-143 71-143-71v1zm95-49q22 1 42.5-.5t38-9 32-22.5 24.5-40L616 0H490l-56 146H156L104 0H-10zm163-428-66 173q-12 32-21 59.5T292 535h-2q-9-33-18-61.5T252 414l-61-172h207z"/><glyph glyph-name="Atilde" unicode="Ã" horiz-adv-x="606" d="M134 730q-16 26-16 52 0 20 9.5 36t24 26.5 32 16T217 866q22 0 40.5-6t34-12.5 30-12.5 28.5-6q13 0 23 3t19 9 18.5 14.5T431 876q16-26 16-52 0-20-9.5-36t-24-26.5-32-16T348 740q-22 0-40.5 6t-34 12.5-30 12.5-28.5 6q-26 0-42.5-12T134 730zm101-60q22 1 42.5-.5t38-9 32-22.5 24.5-40L616 0H490l-56 146H156L104 0H-10zm163-428-66 173q-12 32-21 59.5T292 535h-2q-9-33-18-61.5T252 414l-61-172h207z"/><glyph glyph-name="Adieresis" unicode="Ä" horiz-adv-x="606" d="M192 731q-27 0-46.5 19.5T126 797q0 28 19.5 48t46.5 20q28 0 48-20t20-48q0-27-20-46.5T192 731zm185 0q-28 0-47.5 19.5T310 797q0 28 19.5 48t47.5 20q27 0 47-20t20-48q0-27-20-46.5T377 731zm-142-61q22 1 42.5-.5t38-9 32-22.5 24.5-40L616 0H490l-56 146H156L104 0H-10zm163-428-66 173q-12 32-21 59.5T292 535h-2q-9-33-18-61.5T252 414l-61-172h207z"/><glyph glyph-name="Aring" unicode="Å" horiz-adv-x="606" d="M282 716q-44 0-74 28t-30 69q0 20 8 37.5t22 30.5 33 20.5 41 7.5q46 0 75.5-28t29.5-68q0-41-29.5-69T282 716zm0 56q20 0 33 11.5t13 29.5q0 16-13 28.5T282 854q-19 0-32-12.5T237 813q0-18 13-29.5t32-11.5zm-47-102q22 1 42.5-.5t38-9 32-22.5 24.5-40L616 0H490l-56 146H156L104 0H-10zm163-428-66 173q-12 32-21 59.5T292 535h-2q-9-33-18-61.5T252 414l-61-172h207z"/><glyph glyph-name="AE" unicode="Æ" horiz-adv-x="801" d="M321 670h453q0-56-26.5-78.5T668 569H487V391h252q0-56-26.5-79T633 289H487V102h270V0H372v146H147L64 0H-70zm51-428v312q-16-33-31-61.5T309 433L201 242h171z"/><glyph glyph-name="Ccedilla" unicode="Ç" horiz-adv-x="738" d="M387 93q40 0 73.5 12t58.5 34 41 51.5 22 64.5h120q-4-56-30-104.5T605 66 510 9 396-15l-7-29q38 1 62.5-18t24.5-54q0-16-6-30.5t-18.5-26T418-191t-51-7q-22 0-40 4.5T298-180q-9 7-9 21 0 7 2 14.5t4 15.5q44-14 70-14 33 0 33 24 0 16-14 20t-29.5 7T328-81.5 322-53l10 41q-67 9-121.5 40T117 106 56.5 212 35 336q0 71 25 134.5t71 111T240.5 657 381 685q64 0 120.5-20.5t100-56.5 70-85.5T702 415H582q-7 35-23.5 64.5T517 531t-59 34-76 12q-47 0-87.5-17.5t-70-50T178 432t-17-99 17.5-98.5 48.5-76 72-48.5 88-17z"/><glyph glyph-name="Egrave" unicode="È" horiz-adv-x="504" d="M209 762q-44 11-59 46t1 87l207-82q27-11 35-37t-2-61zM75 670h402q0-56-26.5-78.5T371 569H190V391h252q0-56-26.5-79T336 289H190V102h270V0H75v670z"/><glyph glyph-name="Eacute" unicode="É" horiz-adv-x="504" d="M148 715q-10 36-1.5 61.5T181 813l207 82q17-54 .5-88T330 762zm-73-45h402q0-56-26.5-78.5T371 569H190V391h252q0-56-26.5-79T336 289H190V102h270V0H75v670z"/><glyph glyph-name="Ecircumflex" unicode="Ê" horiz-adv-x="504" d="M127 719q-22 26-16 53t39 48l120 78 120-78q33-21 39-48t-16-53v-1l-143 71-143-71v1zm-52-49h402q0-56-26.5-78.5T371 569H190V391h252q0-56-26.5-79T336 289H190V102h270V0H75v670z"/><glyph glyph-name="Edieresis" unicode="Ë" horiz-adv-x="504" d="M179 731q-27 0-46.5 19.5T113 797q0 28 19.5 48t46.5 20q28 0 48-20t20-48q0-27-20-46.5T179 731zm185 0q-28 0-47.5 19.5T297 797q0 28 19.5 48t47.5 20q27 0 47-20t20-48q0-27-20-46.5T364 731zM75 670h402q0-56-26.5-78.5T371 569H190V391h252q0-56-26.5-79T336 289H190V102h270V0H75v670z"/><glyph glyph-name="Igrave" unicode="Ì" horiz-adv-x="265" d="M62 762q-44 11-59 46t1 87l207-82q27-11 35-37t-2-61zm13-92q35 1 61-11t40-34q11-17 12.5-36t1.5-42V0H75v670z"/><glyph glyph-name="Iacute" unicode="Í" horiz-adv-x="265" d="M1 715q-10 36-1.5 61.5T34 813l207 82q17-54 .5-88T183 762zm74-45q35 1 61-11t40-34q11-17 12.5-36t1.5-42V0H75v670z"/><glyph glyph-name="Icircumflex" unicode="Î" horiz-adv-x="265" d="M-20 719q-22 26-16 53t39 48l120 78 120-78q33-21 39-48t-16-53v-1l-143 71-143-71v1zm95-49q35 1 61-11t40-34q11-17 12.5-36t1.5-42V0H75v670z"/><glyph glyph-name="Idieresis" unicode="Ï" horiz-adv-x="265" d="M32 731q-27 0-46.5 19.5T-34 797q0 28 19.5 48T32 865q28 0 48-20t20-48q0-27-20-46.5T32 731zm185 0q-28 0-47.5 19.5T150 797q0 28 19.5 48t47.5 20q27 0 47-20t20-48q0-27-20-46.5T217 731zM75 670q35 1 61-11t40-34q11-17 12.5-36t1.5-42V0H75v670z"/><glyph glyph-name="Eth" unicode="Ð" horiz-adv-x="689" d="M549 579q50-47 77.5-110T654 336t-27.5-133.5T549 92q-23-22-49-39t-56.5-28.5T377 7t-81-6H75v280H-45q0 51 25.5 71.5T57 373h18v297h219q45 0 81.5-6t67.5-17.5 57-28.5 49-39zm-18-243q1 51-16 94.5T468 506q-31 32-75 48t-114 17h-89V373h207q0-51-25.5-71.5T295 281H190V100h89q38 0 67 4.5t51.5 13 40.5 21 34 29.5q57 59 59 168z"/><glyph glyph-name="Ntilde" unicode="Ñ" horiz-adv-x="709" d="M199 730q-16 26-16 52 0 20 9.5 36t24 26.5 32 16T282 866q22 0 40.5-6t34-12.5 30-12.5 28.5-6q13 0 23 3t19 9 18.5 14.5T496 876q16-26 16-52 0-20-9.5-36t-24-26.5-32-16T413 740q-22 0-40.5 6t-34 12.5-30 12.5-28.5 6q-26 0-42.5-12T199 730zM75 670q26 1 49.5-.5t46-11 44.5-29 45-52.5l201-298q17-25 32.5-52t31.5-54l2 1q-2 34-3 73.5t-1 70.5v229q0 23 2.5 41.5T536 621q14 26 39 38t59 11V0H526L249 402q-17 25-33.5 52.5T184 509l-2-1q4-33 5.5-65t1.5-64V0H75v670z"/><glyph glyph-name="Ograve" unicode="Ò" horiz-adv-x="759" d="M318 762q-44 11-59 46t1 87l207-82q27-11 35-37t-2-61zm61-777q-74 0-136.5 27.5t-109 75-72.5 111T35 334t26 135.5T133.5 581t109 75.5T379 684q73 0 136-27.5T624.5 581t73-111.5T724 334t-26.5-135.5-73-111-109.5-75T379-15zm0 108q47 0 87.5 19t70 52 46.5 76.5 17 93.5-17 94-46.5 77-70 52-87.5 19-87-19-69.5-52-46.5-77-17-94 17-93.5 46.5-76.5 69.5-52 87-19z"/><glyph glyph-name="Oacute" unicode="Ó" horiz-adv-x="759" d="M257 715q-10 36-1.5 61.5T290 813l207 82q17-54 .5-88T439 762zM379-15q-74 0-136.5 27.5t-109 75-72.5 111T35 334t26 135.5T133.5 581t109 75.5T379 684q73 0 136-27.5T624.5 581t73-111.5T724 334t-26.5-135.5-73-111-109.5-75T379-15zm0 108q47 0 87.5 19t70 52 46.5 76.5 17 93.5-17 94-46.5 77-70 52-87.5 19-87-19-69.5-52-46.5-77-17-94 17-93.5 46.5-76.5 69.5-52 87-19z"/><glyph glyph-name="Ocircumflex" unicode="Ô" horiz-adv-x="759" d="M236 719q-22 26-16 53t39 48l120 78 120-78q33-21 39-48t-16-53v-1l-143 71-143-71v1zM379-15q-74 0-136.5 27.5t-109 75-72.5 111T35 334t26 135.5T133.5 581t109 75.5T379 684q73 0 136-27.5T624.5 581t73-111.5T724 334t-26.5-135.5-73-111-109.5-75T379-15zm0 108q47 0 87.5 19t70 52 46.5 76.5 17 93.5-17 94-46.5 77-70 52-87.5 19-87-19-69.5-52-46.5-77-17-94 17-93.5 46.5-76.5 69.5-52 87-19z"/><glyph glyph-name="Otilde" unicode="Õ" horiz-adv-x="759" d="M230 730q-16 26-16 52 0 20 9.5 36t24 26.5 32 16T313 866q22 0 40.5-6t34-12.5 30-12.5 28.5-6q13 0 23 3t19 9 18.5 14.5T527 876q16-26 16-52 0-20-9.5-36t-24-26.5-32-16T444 740q-22 0-40.5 6t-34 12.5-30 12.5-28.5 6q-26 0-42.5-12T230 730zM379-15q-74 0-136.5 27.5t-109 75-72.5 111T35 334t26 135.5T133.5 581t109 75.5T379 684q73 0 136-27.5T624.5 581t73-111.5T724 334t-26.5-135.5-73-111-109.5-75T379-15zm0 108q47 0 87.5 19t70 52 46.5 76.5 17 93.5-17 94-46.5 77-70 52-87.5 19-87-19-69.5-52-46.5-77-17-94 17-93.5 46.5-76.5 69.5-52 87-19z"/><glyph glyph-name="Odieresis" unicode="Ö" horiz-adv-x="759" d="M288 731q-27 0-46.5 19.5T222 797q0 28 19.5 48t46.5 20q28 0 48-20t20-48q0-27-20-46.5T288 731zm185 0q-28 0-47.5 19.5T406 797q0 28 19.5 48t47.5 20q27 0 47-20t20-48q0-27-20-46.5T473 731zM379-15q-74 0-136.5 27.5t-109 75-72.5 111T35 334t26 135.5T133.5 581t109 75.5T379 684q73 0 136-27.5T624.5 581t73-111.5T724 334t-26.5-135.5-73-111-109.5-75T379-15zm0 108q47 0 87.5 19t70 52 46.5 76.5 17 93.5-17 94-46.5 77-70 52-87.5 19-87-19-69.5-52-46.5-77-17-94 17-93.5 46.5-76.5 69.5-52 87-19z"/><glyph glyph-name="Oslash" unicode="Ø" horiz-adv-x="759" d="M632 573q44-48 68-109t24-130q0-72-26.5-135.5t-73-111-109.5-75T379-15q-51 0-97.5 13.5T196 37l-6-7q-11-14-22.5-24.5t-29-17.5T94-23t-68-4L126 96q-43 48-67 108.5T35 334q0 72 26 135.5T133.5 581t109 75.5T379 684q51 0 97-13.5t85-38.5l7 9q11 13 22.5 23.5T620 682t45 11 68 4zM159 334q0-41 11.5-77.5T202 190l288 354q-25 15-52.5 23.5T379 576q-47 0-87-19t-69.5-52-46.5-77-17-94zm441 0q0 42-11.5 78.5T556 480L268 125q24-15 52-23.5t59-8.5q47 0 87.5 19t70 52 46.5 76.5 17 93.5z"/><glyph glyph-name="Ugrave" unicode="Ù" horiz-adv-x="666" d="M260 762q-44 11-59 46t1 87l207-82q27-11 35-37t-2-61zm74-777q-56 0-105 18.5t-86 52-58 80T64 238l-1 432q35 1 61.5-11.5T165 625q11-17 13-36t2-42V245q0-35 11-63.5t31.5-49T271 100t63-12 63.5 11.5T446 132t31 49.5 11 63.5v302q0 23 2 42t13 36q14 21 39.5 33.5T603 670l-1-432q0-56-21-102.5t-57.5-80-85.5-52T334-15z"/><glyph glyph-name="Uacute" unicode="Ú" horiz-adv-x="666" d="M199 715q-10 36-1.5 61.5T232 813l207 82q17-54 .5-88T381 762zM334-15q-56 0-105 18.5t-86 52-58 80T64 238l-1 432q35 1 61.5-11.5T165 625q11-17 13-36t2-42V245q0-35 11-63.5t31.5-49T271 100t63-12 63.5 11.5T446 132t31 49.5 11 63.5v302q0 23 2 42t13 36q14 21 39.5 33.5T603 670l-1-432q0-56-21-102.5t-57.5-80-85.5-52T334-15z"/><glyph glyph-name="Ucircumflex" unicode="Û" horiz-adv-x="666" d="M178 719q-22 26-16 53t39 48l120 78 120-78q33-21 39-48t-16-53v-1l-143 71-143-71v1zM334-15q-56 0-105 18.5t-86 52-58 80T64 238l-1 432q35 1 61.5-11.5T165 625q11-17 13-36t2-42V245q0-35 11-63.5t31.5-49T271 100t63-12 63.5 11.5T446 132t31 49.5 11 63.5v302q0 23 2 42t13 36q14 21 39.5 33.5T603 670l-1-432q0-56-21-102.5t-57.5-80-85.5-52T334-15z"/><glyph glyph-name="Udieresis" unicode="Ü" horiz-adv-x="666" d="M230 731q-27 0-46.5 19.5T164 797q0 28 19.5 48t46.5 20q28 0 48-20t20-48q0-27-20-46.5T230 731zm185 0q-28 0-47.5 19.5T348 797q0 28 19.5 48t47.5 20q27 0 47-20t20-48q0-27-20-46.5T415 731zM334-15q-56 0-105 18.5t-86 52-58 80T64 238l-1 432q35 1 61.5-11.5T165 625q11-17 13-36t2-42V245q0-35 11-63.5t31.5-49T271 100t63-12 63.5 11.5T446 132t31 49.5 11 63.5v302q0 23 2 42t13 36q14 21 39.5 33.5T603 670l-1-432q0-56-21-102.5t-57.5-80-85.5-52T334-15z"/><glyph glyph-name="Yacute" unicode="Ý" horiz-adv-x="600" d="M174 715q-10 36-1.5 61.5T207 813l207 82q17-54 .5-88T356 762zm71-427L99 527q-12 20-27.5 41t-32 40-33 33-31.5 19q17 8 43.5 11t44.5 3q22 0 41-7.5t35-20.5 28.5-29 22.5-32l118-200 102 188q26 48 57 74.5t78 26.5q18 0 40.5-3t39.5-11q-15-5-32-19.5T559.5 607 528 566.5 502 526L360 284V0H245v288z"/><glyph glyph-name="Thorn" unicode="Þ" horiz-adv-x="570" d="M75 670q35 1 61-11t40-34q10-17 12-35.5t2-40.5l144 1q58 0 101-17t71-46 41.5-67 13.5-79-14.5-77.5T505 198q-28-30-70-48.5T326 132l-136 1V0H75v670zm244-441q66 0 95 32t27 80-29 79.5-93 31.5H190V229h129z"/><glyph glyph-name="germandbls" unicode="ß" horiz-adv-x="568" d="M353-15q-51 0-88 17t-63 43l68 71q13-18 35-31t54-13q38 0 56 18t18 41q0 19-9.5 30T395 186q-10 7-26.5 17.5t-35 21.5-37 23-31.5 24q-19 16-30 33t-11 46q0 20 6.5 36t20.5 33q11 13 23 25t26 29q24 30 24 64 0 25-18 44t-49 19q-38 0-62.5-28T170 492V0H60v495q0 91 53.5 140.5T256 685q37 0 69-10t56-29 38-46.5 14-63.5q0-26-8.5-50T401 442q-16-22-38-45-8-8-12.5-16.5T346 363q0-8 4-16.5t13-15.5q7-6 23-15.5t34-20 34.5-21T481 256l24-22 21-24.5 14.5-31L546 138q0-38-16-66.5T487 24 425-5t-72-10z"/><glyph glyph-name="agrave" unicode="à" horiz-adv-x="596" d="M221 597q-44 11-59 46t1 87l207-82q27-11 35-37t-2-61zm46-611q-47 0-90 19.5t-75.5 55-52 84T30 251q0 54 19.5 102t53.5 84 79 57 95 21q54 0 92-19.5t64-54.5h2q11 29 38.5 44.5T539 500V0H432l-1 62-3 1q-29-37-66-57t-95-20zm21 102q31 0 57 12t44.5 34 28.5 51.5 10 65.5q0 37-10.5 67t-29 51.5-44.5 33-56 11.5-56-12-44.5-33.5T158 317t-11-66 11-66 29.5-51.5T232 100t56-12z"/><glyph glyph-name="aacute" unicode="á" horiz-adv-x="596" d="M160 550q-10 36-1.5 61.5T193 648l207 82q17-54 .5-88T342 597zM267-14q-47 0-90 19.5t-75.5 55-52 84T30 251q0 54 19.5 102t53.5 84 79 57 95 21q54 0 92-19.5t64-54.5h2q11 29 38.5 44.5T539 500V0H432l-1 62-3 1q-29-37-66-57t-95-20zm21 102q31 0 57 12t44.5 34 28.5 51.5 10 65.5q0 37-10.5 67t-29 51.5-44.5 33-56 11.5-56-12-44.5-33.5T158 317t-11-66 11-66 29.5-51.5T232 100t56-12z"/><glyph glyph-name="acircumflex" unicode="â" horiz-adv-x="596" d="M139 554q-22 26-16 53t39 48l120 78 120-78q33-21 39-48t-16-53v-1l-143 71-143-71v1zM267-14q-47 0-90 19.5t-75.5 55-52 84T30 251q0 54 19.5 102t53.5 84 79 57 95 21q54 0 92-19.5t64-54.5h2q11 29 38.5 44.5T539 500V0H432l-1 62-3 1q-29-37-66-57t-95-20zm21 102q31 0 57 12t44.5 34 28.5 51.5 10 65.5q0 37-10.5 67t-29 51.5-44.5 33-56 11.5-56-12-44.5-33.5T158 317t-11-66 11-66 29.5-51.5T232 100t56-12z"/><glyph glyph-name="atilde" unicode="ã" horiz-adv-x="596" d="M133 565q-16 26-16 52 0 20 9.5 36t24 26.5 32 16T216 701q22 0 40.5-6t34-12.5 30-12.5 28.5-6q13 0 23 3t19 9 18.5 14.5T430 711q16-26 16-52 0-20-9.5-36t-24-26.5-32-16T347 575q-22 0-40.5 6t-34 12.5-30 12.5-28.5 6q-26 0-42.5-12T133 565zM267-14q-47 0-90 19.5t-75.5 55-52 84T30 251q0 54 19.5 102t53.5 84 79 57 95 21q54 0 92-19.5t64-54.5h2q11 29 38.5 44.5T539 500V0H432l-1 62-3 1q-29-37-66-57t-95-20zm21 102q31 0 57 12t44.5 34 28.5 51.5 10 65.5q0 37-10.5 67t-29 51.5-44.5 33-56 11.5-56-12-44.5-33.5T158 317t-11-66 11-66 29.5-51.5T232 100t56-12z"/><glyph glyph-name="adieresis" unicode="ä" horiz-adv-x="596" d="M191 566q-27 0-46.5 19.5T125 632q0 28 19.5 48t46.5 20q28 0 48-20t20-48q0-27-20-46.5T191 566zm185 0q-28 0-47.5 19.5T309 632q0 28 19.5 48t47.5 20q27 0 47-20t20-48q0-27-20-46.5T376 566zM267-14q-47 0-90 19.5t-75.5 55-52 84T30 251q0 54 19.5 102t53.5 84 79 57 95 21q54 0 92-19.5t64-54.5h2q11 29 38.5 44.5T539 500V0H432l-1 62-3 1q-29-37-66-57t-95-20zm21 102q31 0 57 12t44.5 34 28.5 51.5 10 65.5q0 37-10.5 67t-29 51.5-44.5 33-56 11.5-56-12-44.5-33.5T158 317t-11-66 11-66 29.5-51.5T232 100t56-12z"/><glyph glyph-name="aring" unicode="å" horiz-adv-x="596" d="M281 551q-44 0-74 28t-30 69q0 20 8 37.5t22 30.5 33 20.5 41 7.5q46 0 75.5-28t29.5-68q0-41-29.5-69T281 551zm0 56q20 0 33 11.5t13 29.5q0 16-13 28.5T281 689q-19 0-32-12.5T236 648q0-18 13-29.5t32-11.5zM267-14q-47 0-90 19.5t-75.5 55-52 84T30 251q0 54 19.5 102t53.5 84 79 57 95 21q54 0 92-19.5t64-54.5h2q11 29 38.5 44.5T539 500V0H432l-1 62-3 1q-29-37-66-57t-95-20zm21 102q31 0 57 12t44.5 34 28.5 51.5 10 65.5q0 37-10.5 67t-29 51.5-44.5 33-56 11.5-56-12-44.5-33.5T158 317t-11-66 11-66 29.5-51.5T232 100t56-12z"/><glyph glyph-name="ae" unicode="æ" horiz-adv-x="857" d="M225-17q-37 0-72 9.5T90.5 21t-44 47T30 133q0 51 23.5 86.5t66 57 101 28.5 128.5 0v30q0 49-24 70t-69 21q-41 0-63.5-20T168 351l-121-1q0 40 16 70.5t43.5 51.5 65 32 80.5 11q63 0 105-18t69-56h2q33 41 78 57.5t98 16.5q47 0 87.5-17.5T762 448t47.5-78.5T827 266v-21.5l-1-26.5H480q0-26 9.5-50.5T515 124t37.5-30.5T598 82q42 0 71 23t37 60h113q-8-39-28-72t-50-57-67-37.5T595-15q-56 0-102.5 24.5T419 73q-31-45-84-67.5T225-17zm484 324q1 28-8 50t-25 37.5-36.5 23.5-42.5 8q-51 0-82-34t-35-85h229zM240 75q15 0 34 5.5T311 96t34 24.5 26 33.5q-7 16-9.5 32.5T358 223q-44 6-82 5.5t-66.5-9-45-26T148 149q0-31 21.5-52.5T240 75z"/><glyph glyph-name="ccedilla" unicode="ç" horiz-adv-x="565" d="M296 82q55 0 87 30t41 78h111q-3-43-22.5-79.5t-50.5-64T390 3t-87-18l-6-29q38 1 62.5-18t24.5-54q0-16-6-30.5t-18.5-26T326-191t-51-7q-22 0-40 4.5T206-180q-9 7-9 21 0 7 2 14.5t4 15.5q44-14 70-14 33 0 33 24 0 16-14 20t-29.5 7T236-81.5 230-53l10 43q-48 9-86.5 33t-66 58.5-42.5 78T30 251q0 54 19 102.5t53.5 84.5 83 57T293 516q48 0 91-16t75.5-44 52.5-65 23-80H424q-11 53-45.5 80.5T293 419q-31 0-58-12.5t-46.5-35-31-53.5-11.5-69 12-69 32-52.5T237.5 94 296 82z"/><glyph glyph-name="egrave" unicode="è" horiz-adv-x="566" d="M229 597q-44 11-59 46t1 87l207-82q27-11 35-37t-2-61zm61-612q-57 0-105 20.5T102.5 62 49 146.5 30 250q0 60 22 112.5t64 89.5q34 30 78.5 46.5T290 515q54 0 99.5-17.5t78-49.5 50.5-78.5T536 266v-21.5l-1-26.5H151q0-17 4-29 14-48 49-77.5T293 82q47 0 77 23t41 60h117q-9-39-30.5-72T445 36 374.5-1.5 290-15zm128 326q-7 54-42 84.5T290 426q-43 0-78-20t-51-59q-7-17-10-36h267z"/><glyph glyph-name="eacute" unicode="é" horiz-adv-x="566" d="M168 550q-10 36-1.5 61.5T201 648l207 82q17-54 .5-88T350 597zM290-15q-57 0-105 20.5T102.5 62 49 146.5 30 250q0 60 22 112.5t64 89.5q34 30 78.5 46.5T290 515q54 0 99.5-17.5t78-49.5 50.5-78.5T536 266v-21.5l-1-26.5H151q0-17 4-29 14-48 49-77.5T293 82q47 0 77 23t41 60h117q-9-39-30.5-72T445 36 374.5-1.5 290-15zm128 326q-7 54-42 84.5T290 426q-43 0-78-20t-51-59q-7-17-10-36h267z"/><glyph glyph-name="ecircumflex" unicode="ê" horiz-adv-x="566" d="M147 554q-22 26-16 53t39 48l120 78 120-78q33-21 39-48t-16-53v-1l-143 71-143-71v1zM290-15q-57 0-105 20.5T102.5 62 49 146.5 30 250q0 60 22 112.5t64 89.5q34 30 78.5 46.5T290 515q54 0 99.5-17.5t78-49.5 50.5-78.5T536 266v-21.5l-1-26.5H151q0-17 4-29 14-48 49-77.5T293 82q47 0 77 23t41 60h117q-9-39-30.5-72T445 36 374.5-1.5 290-15zm128 326q-7 54-42 84.5T290 426q-43 0-78-20t-51-59q-7-17-10-36h267z"/><glyph glyph-name="edieresis" unicode="ë" horiz-adv-x="566" d="M199 566q-27 0-46.5 19.5T133 632q0 28 19.5 48t46.5 20q28 0 48-20t20-48q0-27-20-46.5T199 566zm185 0q-28 0-47.5 19.5T317 632q0 28 19.5 48t47.5 20q27 0 47-20t20-48q0-27-20-46.5T384 566zM290-15q-57 0-105 20.5T102.5 62 49 146.5 30 250q0 60 22 112.5t64 89.5q34 30 78.5 46.5T290 515q54 0 99.5-17.5t78-49.5 50.5-78.5T536 266v-21.5l-1-26.5H151q0-17 4-29 14-48 49-77.5T293 82q47 0 77 23t41 60h117q-9-39-30.5-72T445 36 374.5-1.5 290-15zm128 326q-7 54-42 84.5T290 426q-43 0-78-20t-51-59q-7-17-10-36h267z"/><glyph glyph-name="igrave" unicode="ì" horiz-adv-x="223" d="M49 597q-44 11-59 46t1 87l207-82q27-11 35-37t-2-61zm8-97q34 1 59-10t37-33q9-17 12-34.5t3-40.5V0H57v500z"/><glyph glyph-name="iacute" unicode="í" horiz-adv-x="223" d="M-12 550q-10 36-1.5 61.5T21 648l207 82q17-54 .5-88T170 597zm69-50q34 1 59-10t37-33q9-17 12-34.5t3-40.5V0H57v500z"/><glyph glyph-name="icircumflex" unicode="î" horiz-adv-x="223" d="M-33 554q-22 26-16 53t39 48l120 78 120-78q33-21 39-48t-16-53v-1l-143 71-143-71v1zm90-54q34 1 59-10t37-33q9-17 12-34.5t3-40.5V0H57v500z"/><glyph glyph-name="idieresis" unicode="ï" horiz-adv-x="223" d="M19 566q-27 0-46.5 19.5T-47 632q0 28 19.5 48T19 700q28 0 48-20t20-48q0-27-20-46.5T19 566zm185 0q-28 0-47.5 19.5T137 632q0 28 19.5 48t47.5 20q27 0 47-20t20-48q0-27-20-46.5T204 566zM57 500q34 1 59-10t37-33q9-17 12-34.5t3-40.5V0H57v500z"/><glyph glyph-name="eth" unicode="ð" horiz-adv-x="580" d="M290-15q-56 0-103.5 20t-82 54.5-54.5 80T30 237t20.5 97.5 54.5 80 78 54.5 91 20q28 0 57.5-7.5T384 460l2 1q-12 26-29 51.5T321 558l-144-54q-17 45-2.5 70.5T235 614l18 6q-20 17-42 31.5T164 678q20 8 39.5 12.5T250 695q13 0 25-1t24.5-5 26.5-11.5 31-19.5l96 38q19-43 6.5-68.5T420 594q24-31 47.5-71t42-84.5 29.5-91 11-90.5v-20q0-52-19.5-97.5t-54.5-80T393.5 5 290-15zm0 100q33 0 60 11.5t46.5 32 30.5 48 11 60.5-11 60.5-30.5 48-46.5 32-60 11.5-60-11.5-47-32-30.5-48T142 237t10.5-60.5 30-48 47-32T290 85z"/><glyph glyph-name="ntilde" unicode="ñ" horiz-adv-x="541" d="M131 565q-16 26-16 52 0 20 9.5 36t24 26.5 32 16T214 701q22 0 40.5-6t34-12.5 30-12.5 28.5-6q13 0 23 3t19 9 18.5 14.5T428 711q16-26 16-52 0-20-9.5-36t-24-26.5-32-16T345 575q-22 0-40.5 6t-34 12.5-30 12.5-28.5 6q-26 0-42.5-12T131 565zm-74-65q38 1 67-14.5t37-49.5h1q25 41 65 59.5t90 18.5q47 0 80.5-13.5T452 464q22-23 30.5-54t8.5-65V0H380v323q0 24-4.5 42T359 395q-24 24-68 24-53 0-88-39.5T168 271V0H57v500z"/><glyph glyph-name="ograve" unicode="ò" horiz-adv-x="580" d="M229 597q-44 11-59 46t1 87l207-82q27-11 35-37t-2-61zm61-612q-56 0-103.5 21t-82 57T50 147.5 30 250t20 102 54.5 84 82 57T290 514t103.5-21 82.5-57 54.5-84T550 250t-19.5-102.5T476 63 393.5 6 290-15zm0 100q33 0 60 12.5t46.5 34.5 30.5 52.5 11 65.5-11 65-30.5 52-46.5 34.5-60 12.5-60-12.5-47-34.5-30.5-52-10.5-65 10.5-65.5 30-52.5 47-34.5T290 85z"/><glyph glyph-name="oacute" unicode="ó" horiz-adv-x="580" d="M168 550q-10 36-1.5 61.5T201 648l207 82q17-54 .5-88T350 597zM290-15q-56 0-103.5 21t-82 57T50 147.5 30 250t20 102 54.5 84 82 57T290 514t103.5-21 82.5-57 54.5-84T550 250t-19.5-102.5T476 63 393.5 6 290-15zm0 100q33 0 60 12.5t46.5 34.5 30.5 52.5 11 65.5-11 65-30.5 52-46.5 34.5-60 12.5-60-12.5-47-34.5-30.5-52-10.5-65 10.5-65.5 30-52.5 47-34.5T290 85z"/><glyph glyph-name="ocircumflex" unicode="ô" horiz-adv-x="580" d="M147 554q-22 26-16 53t39 48l120 78 120-78q33-21 39-48t-16-53v-1l-143 71-143-71v1zM290-15q-56 0-103.5 21t-82 57T50 147.5 30 250t20 102 54.5 84 82 57T290 514t103.5-21 82.5-57 54.5-84T550 250t-19.5-102.5T476 63 393.5 6 290-15zm0 100q33 0 60 12.5t46.5 34.5 30.5 52.5 11 65.5-11 65-30.5 52-46.5 34.5-60 12.5-60-12.5-47-34.5-30.5-52-10.5-65 10.5-65.5 30-52.5 47-34.5T290 85z"/><glyph glyph-name="otilde" unicode="õ" horiz-adv-x="580" d="M141 565q-16 26-16 52 0 20 9.5 36t24 26.5 32 16T224 701q22 0 40.5-6t34-12.5 30-12.5 28.5-6q13 0 23 3t19 9 18.5 14.5T438 711q16-26 16-52 0-20-9.5-36t-24-26.5-32-16T355 575q-22 0-40.5 6t-34 12.5-30 12.5-28.5 6q-26 0-42.5-12T141 565zM290-15q-56 0-103.5 21t-82 57T50 147.5 30 250t20 102 54.5 84 82 57T290 514t103.5-21 82.5-57 54.5-84T550 250t-19.5-102.5T476 63 393.5 6 290-15zm0 100q33 0 60 12.5t46.5 34.5 30.5 52.5 11 65.5-11 65-30.5 52-46.5 34.5-60 12.5-60-12.5-47-34.5-30.5-52-10.5-65 10.5-65.5 30-52.5 47-34.5T290 85z"/><glyph glyph-name="odieresis" unicode="ö" horiz-adv-x="580" d="M199 566q-27 0-46.5 19.5T133 632q0 28 19.5 48t46.5 20q28 0 48-20t20-48q0-27-20-46.5T199 566zm185 0q-28 0-47.5 19.5T317 632q0 28 19.5 48t47.5 20q27 0 47-20t20-48q0-27-20-46.5T384 566zM290-15q-56 0-103.5 21t-82 57T50 147.5 30 250t20 102 54.5 84 82 57T290 514t103.5-21 82.5-57 54.5-84T550 250t-19.5-102.5T476 63 393.5 6 290-15zm0 100q33 0 60 12.5t46.5 34.5 30.5 52.5 11 65.5-11 65-30.5 52-46.5 34.5-60 12.5-60-12.5-47-34.5-30.5-52-10.5-65 10.5-65.5 30-52.5 47-34.5T290 85z"/><glyph glyph-name="oslash" unicode="ø" horiz-adv-x="580" d="M488 423q29-35 45.5-79t16.5-94q0-54-19.5-102.5T476 63 393.5 6 290-15q-36 0-68.5 9T160 20Q150 9 138.5 0T110-15t-41-9-60-3L93 76q-30 35-46.5 79.5T30 250q0 54 20 102t54.5 84 82 57T290 514q36 0 69-9t62-26q10 12 21.5 21t28.5 15 41 9 60 3zM142 250q0-51 21-88l192 237q-29 15-65 15-33 0-60-12.5T183 367t-30.5-52-10.5-65zm296 0q0 49-20 87L225 100q28-15 65-15 33 0 60 12.5t46.5 34.5 30.5 52.5 11 65.5z"/><glyph glyph-name="ugrave" unicode="ù" horiz-adv-x="541" d="M196 597q-44 11-59 46t1 87l207-82q27-11 35-37t-2-61zm28-612q-47 0-80 13.5T89 35 58.5 89 50 154v346q34 1 58.5-10.5T147 457q11-17 12.5-34.5T161 382V176q0-24 4.5-42t16.5-30q24-24 68-24 53 0 88 39.5T373 228v154q0 23 1.5 40.5T387 457q14 21 38.5 32.5T484 500V0H378l-2 60h-1q-26-35-63-55t-88-20z"/><glyph glyph-name="uacute" unicode="ú" horiz-adv-x="541" d="M135 550q-10 36-1.5 61.5T168 648l207 82q17-54 .5-88T317 597zm89-565q-47 0-80 13.5T89 35 58.5 89 50 154v346q34 1 58.5-10.5T147 457q11-17 12.5-34.5T161 382V176q0-24 4.5-42t16.5-30q24-24 68-24 53 0 88 39.5T373 228v154q0 23 1.5 40.5T387 457q14 21 38.5 32.5T484 500V0H378l-2 60h-1q-26-35-63-55t-88-20z"/><glyph glyph-name="ucircumflex" unicode="û" horiz-adv-x="541" d="M114 554q-22 26-16 53t39 48l120 78 120-78q33-21 39-48t-16-53v-1l-143 71-143-71v1zM224-15q-47 0-80 13.5T89 35 58.5 89 50 154v346q34 1 58.5-10.5T147 457q11-17 12.5-34.5T161 382V176q0-24 4.5-42t16.5-30q24-24 68-24 53 0 88 39.5T373 228v154q0 23 1.5 40.5T387 457q14 21 38.5 32.5T484 500V0H378l-2 60h-1q-26-35-63-55t-88-20z"/><glyph glyph-name="udieresis" unicode="ü" horiz-adv-x="541" d="M166 566q-27 0-46.5 19.5T100 632q0 28 19.5 48t46.5 20q28 0 48-20t20-48q0-27-20-46.5T166 566zm185 0q-28 0-47.5 19.5T284 632q0 28 19.5 48t47.5 20q27 0 47-20t20-48q0-27-20-46.5T351 566zM224-15q-47 0-80 13.5T89 35 58.5 89 50 154v346q34 1 58.5-10.5T147 457q11-17 12.5-34.5T161 382V176q0-24 4.5-42t16.5-30q24-24 68-24 53 0 88 39.5T373 228v154q0 23 1.5 40.5T387 457q14 21 38.5 32.5T484 500V0H378l-2 60h-1q-26-35-63-55t-88-20z"/><glyph glyph-name="yacute" unicode="ý" horiz-adv-x="516" d="M132 550q-10 36-1.5 61.5T165 648l207 82q17-54 .5-88T314 597zM68-170q31 11 55 47.5T167-38l28 65L54 365q-14 34-30 67.5T-7 500q19 3 38 3 56 0 86.5-32.5T170 377l32-90q14-40 27-78t26-83h1q13 45 25.5 82.5T308 287l39 108q20 57 50 84t72 27q28 0 57-9-25-24-43.5-61.5T448 360L273-72q-62-160-205-98z"/><glyph glyph-name="thorn" unicode="þ" horiz-adv-x="607" d="M60 683q34 1 58.5-10.5T157 640q11-17 12.5-34.5T171 565V439l2-1q32 38 68 57.5t94 19.5q48 0 92-20t77.5-55 53-84T577 249q0-54-19.5-102t-53-84T426 6t-96-21q-50 0-90.5 17T173 54l-2-1v-221H60v851zM318 86q31 0 57.5 12t45.5 33.5 29.5 51.5 10.5 66-10.5 66-29.5 51.5-45.5 33.5-57.5 12q-69 0-108-45.5T171 249q0-35 10-65t28.5-52 46-34T318 86z"/><glyph glyph-name="ydieresis" unicode="ÿ" horiz-adv-x="516" d="M163 566q-27 0-46.5 19.5T97 632q0 28 19.5 48t46.5 20q28 0 48-20t20-48q0-27-20-46.5T163 566zm185 0q-28 0-47.5 19.5T281 632q0 28 19.5 48t47.5 20q27 0 47-20t20-48q0-27-20-46.5T348 566zM68-170q31 11 55 47.5T167-38l28 65L54 365q-14 34-30 67.5T-7 500q19 3 38 3 56 0 86.5-32.5T170 377l32-90q14-40 27-78t26-83h1q13 45 25.5 82.5T308 287l39 108q20 57 50 84t72 27q28 0 57-9-25-24-43.5-61.5T448 360L273-72q-62-160-205-98z"/><glyph glyph-name="Gbreve" unicode="Ğ" horiz-adv-x="751" d="M383 723q-39 0-69.5 12.5T262 770t-32 52-11 66q15 7 33 7 23 0 40.5-13t25.5-33q9-24 27-36t38-12 38 12 27 36q8 20 25.5 33t40.5 13q18 0 33-7 0-36-11-66t-32-52-51.5-34.5T383 723zm5-738q-77 0-141.5 27.5T135 87.5t-73.5 111T35 334t26.5 135.5T135 581t111.5 75.5T388 684q56 0 105.5-15t90-42 70.5-64 46-82H572q-30 51-76 74.5T384 579q-51 0-92-18.5T221.5 509t-46-78-16.5-97q-1-52 16-96t48-76.5 73.5-50.5T389 93q95 0 149 49t69 133H389q0 53 26 73.5t78 20.5l226 1q9-89-14.5-160T635 89 525 12 388-15z"/><glyph glyph-name="gbreve" unicode="ğ" horiz-adv-x="588" d="M277 558q-39 0-69.5 12.5T156 605t-32 52-11 66q15 7 33 7 23 0 40.5-13t25.5-33q9-24 27-36t38-12 38 12 27 36q8 20 25.5 33t40.5 13q18 0 33-7 0-36-11-66t-32-52-51.5-34.5T277 558zm1-741q-109 0-171.5 51T30 6h124q9-43 37.5-68.5T280-88q32 0 58 8t44 26q38 38 38 119v43l-3 1q-29-32-66.5-48.5T262 44q-48 0-90.5 17.5T98 110t-49 74-18 93q0 46 18.5 89t50.5 76 75 52.5 92 19.5q105 0 159-71h2q11 29 38.5 43.5T531 500V53q0-56-17.5-100T463-121t-80-46-105-16zm7 326q29 0 54 10t43 27.5 28.5 42.5 10.5 55q0 29-10 54t-28 43-43 28-55 10-55-10-43-27.5-28.5-42.5-10.5-55 10.5-54.5T187 181t43-28 55-10z"/><glyph glyph-name="dotlessi" unicode="ı" horiz-adv-x="223" d="M57 500q34 1 59-10t37-33q9-17 12-34.5t3-40.5V0H57v500z"/><glyph glyph-name="OE" unicode="Œ" horiz-adv-x="965" d="M347-15q-67 0-124 27.5t-99 75-65.5 111T35 334t23.5 135.5T124 581t99 75.5T347 684q60 0 107.5-22.5T536 599v71h402q0-56-26.5-78.5T832 569H651V391h252q0-56-26.5-79T797 289H651V102h270V0H536v70q-34-40-81.5-62.5T347-15zm0 108q40 0 74.5 17.5t60 49.5 40 76.5T536 334q0 54-14.5 98.5t-40 76.5-60 49.5T347 576t-74-17.5-59.5-49.5-40-76.5T159 334q0-53 14.5-97.5t40-76.5 59.5-49.5T347 93z"/><glyph glyph-name="oe" unicode="œ" horiz-adv-x="898" d="M271-15q-51 0-95.5 21T99 63t-50.5 84.5T30 250t18.5 102T99 436t76.5 57 95.5 21q60 0 106-27.5t76-72.5h2q29 48 76 74.5T641 515q50 0 92-17.5t72-49.5 46.5-78.5T868 266v-21.5l-1-26.5H517q5-61 39.5-98.5T643 82q41 0 67.5 23t35.5 60h115q-9-39-28.5-72t-48-57-65-37.5T641-15q-61 0-108 27.5T456 87h-2q-30-46-76.5-74T271-15zm482 326q-6 54-37 84.5T640 426q-52 0-84-32t-39-83h236zM271 85q28 0 52 12.5t41 34.5 27 52.5 10 65.5-9.5 65-27 52-41.5 34.5-52 12.5q-29 0-53-12.5T176.5 367t-27-52-9.5-65 9.5-65.5T176 132t41.5-34.5T271 85z"/><glyph glyph-name="Scedilla" unicode="Ş" horiz-adv-x="563" d="M523 184q0-45-17.5-81t-47-61.5-68-40T310-16l-6-28q38 1 62.5-18t24.5-54q0-16-6-30.5t-18.5-26T333-191t-51-7q-22 0-40 4.5T213-180q-9 7-9 21 0 7 2 14.5t4 15.5q44-14 70-14 33 0 33 24 0 16-14 20t-29.5 7T243-81.5 237-53l9 39Q153-3 99 55T40 214h119q5-64 39.5-98.5T293 81q50 0 81.5 24t31.5 66-29.5 65-95.5 47q-52 19-92.5 38.5t-68 44-41.5 56T65 497q0 41 16.5 75.5t45.5 59 68 38.5 83 14q103 0 157.5-55T498 475H388q-3 54-30 84.5T282 590q-42 0-71-24t-29-65q0-21 9-36t25.5-27 40.5-22.5 54-21.5q44-16 82.5-32t67.5-39 45.5-56 16.5-83z"/><glyph glyph-name="scedilla" unicode="ş" horiz-adv-x="467" d="M435 147q0-38-15.5-67t-41-49T320-.5 252-14l-7-30q38 1 62.5-18t24.5-54q0-16-6-30.5t-18.5-26T274-191t-51-7q-22 0-40 4.5T154-180q-9 7-9 21 0 7 2 14.5t4 15.5q44-14 70-14 33 0 33 24 0 16-14 20t-29.5 7T184-81.5 178-53l10 41Q111 0 71 47.5T32 167h111q1-17 6-34t16.5-30.5 30-22T242 72q38 0 59 16.5t21 42.5q0 24-21 41-12 11-31 18.5T227 206q-45 14-85 28.5T79 272q-37 37-37 96 0 30 14 57t38 47 57 31.5 71 11.5q93 0 141-43t50-124H308q-1 16-4.5 31T291 405.5 266.5 424t-39.5 7q-34 0-53-16t-18-37q0-16 8.5-26.5t21.5-18 30-13 34-11.5q41-14 72-25.5t53-26.5q60-41 60-110z"/><glyph glyph-name="Wcircumflex" unicode="Ŵ" horiz-adv-x="918" d="M301 719q-22 26-16 53t39 48l120 78 120-78q33-21 39-48t-16-53v-1l-143 71-143-71v1zM33 536q-11 34-23.5 67.5T-15 671q9 2 23 2.5t22 .5q51 0 76.5-32.5T149 548l71-255q12-43 19.5-77.5T253 146h2q5 35 12 70t18 77l103 378q19 3 38 3 27 0 46.5-6.5t33-20T528 612t17-52l78-267q11-42 18-77t12-70h2q6 35 13.5 69.5T688 293l73 269q16 58 44.5 85t70.5 27q27 0 57-9-25-24-40.5-61.5T866 528L712 0H600L483 394q-12 40-19.5 68T451 515l-3 1q-6-27-12-56t-17-67L310 0H197z"/><glyph glyph-name="wcircumflex" unicode="ŵ" horiz-adv-x="764" d="M238 554q-22 26-16 53t39 48l120 78 120-78q33-21 39-48t-16-53v-1l-143 71-143-71v1zM48 365q-11 34-23 67.5T-2 500q9 2 21 2.5t20 .5q27 0 46-8.5t32.5-24.5 23.5-39.5 19-53.5l30-101q11-36 19.5-76t14.5-78h2q6 38 14.5 78.5T259 276l60 224q10 2 20 2.5t26 .5q49 0 74.5-31.5T479 387l29-111q9-35 18-75.5t15-78.5h2q6 38 15.5 84.5T579 289l31 104q17 58 44 85t63 27q15 0 28.5-2t28.5-7q-24-24-39.5-61.5T707 359L593 0H487l-77 284q-9 32-14.5 53T385 377h-2q-5-19-11-40.5T356 280L277 0H171z"/><glyph glyph-name="Ycircumflex" unicode="Ŷ" horiz-adv-x="600" d="M153 719q-22 26-16 53t39 48l120 78 120-78q33-21 39-48t-16-53v-1l-143 71-143-71v1zm92-431L99 527q-12 20-27.5 41t-32 40-33 33-31.5 19q17 8 43.5 11t44.5 3q22 0 41-7.5t35-20.5 28.5-29 22.5-32l118-200 102 188q26 48 57 74.5t78 26.5q18 0 40.5-3t39.5-11q-15-5-32-19.5T559.5 607 528 566.5 502 526L360 284V0H245v288z"/><glyph glyph-name="ycircumflex" unicode="ŷ" horiz-adv-x="516" d="M111 554q-22 26-16 53t39 48l120 78 120-78q33-21 39-48t-16-53v-1l-143 71-143-71v1zM68-170q31 11 55 47.5T167-38l28 65L54 365q-14 34-30 67.5T-7 500q19 3 38 3 56 0 86.5-32.5T170 377l32-90q14-40 27-78t26-83h1q13 45 25.5 82.5T308 287l39 108q20 57 50 84t72 27q28 0 57-9-25-24-43.5-61.5T448 360L273-72q-62-160-205-98z"/><glyph glyph-name="Ydieresis" unicode="Ÿ" horiz-adv-x="600" d="M205 731q-27 0-46.5 19.5T139 797q0 28 19.5 48t46.5 20q28 0 48-20t20-48q0-27-20-46.5T205 731zm185 0q-28 0-47.5 19.5T323 797q0 28 19.5 48t47.5 20q27 0 47-20t20-48q0-27-20-46.5T390 731zM245 288 99 527q-12 20-27.5 41t-32 40-33 33-31.5 19q17 8 43.5 11t44.5 3q22 0 41-7.5t35-20.5 28.5-29 22.5-32l118-200 102 188q26 48 57 74.5t78 26.5q18 0 40.5-3t39.5-11q-15-5-32-19.5T559.5 607 528 566.5 502 526L360 284V0H245v288z"/><glyph glyph-name="gravecomb" unicode="̀" d="M-311 597q-44 11-59 46t1 87l207-82q27-11 35-37t-2-61z"/><glyph glyph-name="acutecomb" unicode="́" d="M-372 550q-10 36-1.5 61.5T-339 648l207 82q17-54 .5-88t-58.5-45l-182-47z"/><glyph glyph-name="uni0302" unicode="̂" d="M-393 554q-22 26-16 53t39 48l120 78 120-78q33-21 39-48t-16-53v-1l-143 71-143-71v1z"/><glyph glyph-name="tildecomb" unicode="̃" d="M-399 565q-16 26-16 52 0 20 9.5 36t24 26.5 32 16 33.5 5.5q22 0 40.5-6t34-12.5 30-12.5 28.5-6q13 0 23 3t19 9 18.5 14.5T-102 711q16-26 16-52 0-20-9.5-36t-24-26.5-32-16-33.5-5.5q-22 0-40.5 6t-34 12.5-30 12.5-28.5 6q-26 0-42.5-12t-38.5-35z"/><glyph glyph-name="uni0304" unicode="̄" d="M-445 591q0 42 21 67t62 25h266q0-42-21-67t-61-25h-267z"/><glyph glyph-name="uni0306" unicode="̆" d="M-292 560q-39 0-69.5 12.5T-413 607t-32 52-11 66q15 7 33 7 23 0 40.5-13t25.5-33q9-24 27-36t38-12 38 12 27 36q8 20 25.5 33t40.5 13q18 0 33-7 0-36-11-66t-32-52-51.5-34.5T-292 560z"/><glyph glyph-name="uni0307" unicode="̇" d="M-101 566q-27 0-46.5 19.5T-167 632q0 28 19.5 48t46.5 20q28 0 48-20t20-48q0-27-20-46.5t-48-19.5z"/><glyph glyph-name="uni0308" unicode="̈" d="M-343 566q-27 0-46.5 19.5T-409 632q0 28 19.5 48t46.5 20q28 0 48-20t20-48q0-27-20-46.5t-48-19.5zm185 0q-28 0-47.5 19.5T-225 632q0 28 19.5 48t47.5 20q27 0 47-20t20-48q0-27-20-46.5t-47-19.5z"/><glyph glyph-name="uni030A" unicode="̊" d="M-251 551q-44 0-74 28t-30 69q0 20 8 37.5t22 30.5 33 20.5 41 7.5q46 0 75.5-28t29.5-68q0-41-29.5-69t-75.5-28zm0 56q20 0 33 11.5t13 29.5q0 16-13 28.5t-33 12.5q-19 0-32-12.5t-13-28.5q0-18 13-29.5t32-11.5z"/><glyph glyph-name="uni030B" unicode="̋" d="M-428 550q-18 29-17 56.5t24 46.5l138 113q29-45 24-83.5t-45-61.5zm205 0q-18 29-17.5 56.5T-217 653l139 113q29-45 24-83.5T-99 621z"/><glyph glyph-name="uni030C" unicode="̌" d="M-369 637q-29 17-38.5 40.5T-393 730l143-56 143 56q24-29 14.5-52.5T-131 637l-119-70z"/><glyph glyph-name="uni0327" unicode="̧" d="M-266-198q-22 0-40 4.5t-29 13.5q-9 7-9 21 0 7 2 14.5t4 15.5q44-14 70-14 33 0 33 24 0 16-14 20t-29.5 7-26.5 10.5-6 28.5l16 68 63-5-12-54q38 1 62.5-18t24.5-54q0-16-6-30.5t-18.5-26T-215-191t-51-7z"/><glyph glyph-name="uni0328" unicode="̨" d="M-244-192q-45 0-73 23t-28 60q0 43 34 77t91 64l37-32q-44-23-64-50t-20-46q0-14 9.5-22t25.5-8 30.5 5.5T-162-101q8-26 7-41.5t-14-26.5q-26-23-75-23z"/><glyph glyph-name="uni0462" unicode="Ѣ" horiz-adv-x="605" d="M110 480H-15q0 56 26.5 78.5T91 581h19v89q35 1 61-11t40-34q12-20 13-44h210q0-56-26.5-78.5T328 480H225v-80h149q55 0 95.5-15.5T536 342t39-63 13-76-13-76.5-39-65-66.5-45T374 0H110v480zM357 97q59 0 84.5 30.5T467 202q0 45-27.5 74.5T368 306H225V97h132z"/><glyph glyph-name="uni0463" unicode="ѣ" horiz-adv-x="532" d="M88 438H-14q0 51 23.5 70.5T80 528h8v156q34 0 60-11t39-33q10-17 11.5-35.5T200 563v-35l170 1q0-50-23-70t-71-20h-76V319h159q42 0 72-14t48.5-36 27-50.5T515 162q0-31-8.5-60t-27-51.5T431 14 359 0H88v438zM341 94q17 0 27.5 6t16.5 16 8 22 2 24q0 26-15 46.5T334 229H200V94h141z"/><glyph glyph-name="uni0472" unicode="Ѳ" horiz-adv-x="759" d="M379-15q-74 0-136.5 27.5t-109 75-72.5 111T35 334t26 135.5T133.5 581t109 75.5T379 684q73 0 136-27.5T624.5 581t73-111.5T724 334t-26.5-135.5-73-111-109.5-75T379-15zM159 350q20 27 57 41t72 14q31 0 56.5-6.5t48-14.5 43-14.5T476 363q18 0 32.5 3t27 9.5 25 16T588 413q-11 36-31 65.5T510 530t-60.5 34-70.5 12q-45 0-84-17.5t-68-48-47-72-21-88.5zM379 93q45 0 83.5 17.5t68 47.5 47.5 70.5 21 87.5q-20-26-56-39.5T474 263q-32 0-58 6.5T367.5 284t-43 14.5T284 305q-18 0-32-3t-27-9.5-25.5-16T171 254q11-35 31-64.5t47-51 60-33.5 70-12z"/><glyph glyph-name="uni0473" unicode="ѳ" horiz-adv-x="580" d="M290-15q-56 0-103.5 21t-82 57T50 147.5 30 250t20 102 54.5 84 82 57T290 514t103.5-21 82.5-57 54.5-84T550 250t-19.5-102.5T476 63 393.5 6 290-15zm61 281q24-2 40.5 8t38.5 31q-14 49-51 79t-89 30q-30 0-55.5-10.5T190 374t-31.5-44.5T143 273q16 18 39.5 26t45.5 6q21-3 37.5-9t31-12 27.5-11.5 27-6.5zM290 85q60 0 99 39t47 100q-6-14-17-24t-24.5-16.5-27.5-9-27-1.5q-21 2-38.5 8t-32 12-28 11-26.5 7q-20 2-33.5-4T151 189q15-47 51.5-75.5T290 85z"/><glyph glyph-name="uni0474" unicode="Ѵ" horiz-adv-x="660" d="M28 561q-14 32-26.5 57T-25 670q10 2 22.5 2.5t20.5.5q28 0 49-8.5t37-24.5 28.5-39.5T157 547l111-282q13-32 22-58.5t19-61.5h2q10 35 19 62t20 59l103 292q20 58 49.5 85t78.5 27h124q0-56-27-78.5T606 569h-9q-19 0-27-13t-15-32L362 0h-99z"/><glyph glyph-name="uni0475" unicode="ѵ" horiz-adv-x="580" d="M54 365q-14 34-30 67.5T-7 500q19 3 38 3 56 0 86.5-32.5T170 377l36-100q14-40 27-78t26-83h1q13 45 25 82.5t27 78.5l42 112q21 57 48 84t68 27l130 1q0-50-23-70t-71-20h-12q-14 0-19.5-10T464 380L309 0H206z"/><glyph glyph-name="uni0492" unicode="Ғ" horiz-adv-x="573" d="M136 1v283H-14q0 56 26.5 78.5T92 385h44v285h435q0-56-26.5-78.5T465 569H251V385h214q0-56-26.5-78.5T359 284H251V0z"/><glyph glyph-name="uni0493" unicode="ғ" horiz-adv-x="485" d="M104 1v178H-10q0 54 25 75t75 21h14v225h381q0-54-26-76.5T381 401H216V275l196 1q0-53-24.5-74.5T312 180h-96V0z"/><glyph glyph-name="uni0496" unicode="Җ" horiz-adv-x="933" d="M943-146q-60-6-85.5 20T832-43v36q-75 9-133 85L526 303l-2-1V0H409v302l-2 1L234 78Q168-8 82-8q-9 0-21.5 1T35-4.5t-24.5 4T-10 6q15 6 33 18.5t36 29T94.5 89t32.5 37l171 208-157 204q-14 18-31.5 37.5t-35.5 36-36 29T5 659q17 8 42.5 11t44.5 3q87 0 151-87l164-222 2 1v305q35 1 61-11t40-34q11-17 12.5-36t1.5-42V365l2-1 164 222q64 87 151 87 19 0 44.5-3t42.5-11q-15-6-33-18.5t-36-29-35.5-36T792 538L635 334l171-208q15-17 32-26.5T873 86t35.5-4.5T943 81v-227z"/><glyph glyph-name="uni0497" unicode="җ" horiz-adv-x="789" d="M670 118q14-15 25.5-24T721 80.5t33-5.5 49-1v-220q-58-6-83 19t-25 81v37q-35 5-65 24.5T569 71l-70 80q-15 17-30 37.5T440 226l-2-1q2-27 2-54V0H329v168l2 52-2 1L197 71q-35-41-69.5-61T55-10q-9 0-21 1T9.5-6.5t-24 4T-35 4q15 5 32 17.5t34.5 28T66 83t33 35l128 137-86 115q-13 18-30 37t-35 36-35.5 30T8 491q17 8 40.5 11t41.5 3q42 0 78.5-20.5T234 421l95-140 2 1q0 15-1 33.5t-1 33.5v151q34 1 58.5-10.5T426 457q11-17 12.5-34.5T440 382v-32q0-16-1-35.5t-1-35.5l2-1 24 38 25 37 49 68q61 84 141 84 18 0 41.5-3t40.5-11q-15-5-32.5-18T693 443t-35-36-30-37l-86-111 128-141z"/><glyph glyph-name="uni049A" unicode="Қ" horiz-adv-x="609" d="M472 126q15-17 32-26.5T538.5 86t35-4.5T608 81v-227q-60-6-85.5 20T497-43v36q-38 5-70.5 26T365 78L192 303l-2-1V0H75v670q35 1 61-11t40-34q11-17 12.5-36t1.5-42V365l2-1 164 222q64 87 151 87 19 0 44.5-3t42.5-11q-15-6-33-18.5t-36-29-35.5-36T458 538L301 334l171-208z"/><glyph glyph-name="uni049B" unicode="қ" horiz-adv-x="517" d="M398 118q16-15 27-24t24.5-13.5T482 75t49-1v-220q-58-6-83 19t-25 81v37q-35 5-64.5 25T297 71l-70 75q-16 17-29.5 35T170 216l-2-1V0H57v500q34 1 58.5-10.5T154 457q11-17 12.5-34.5T168 382V278l2-1q12 19 23.5 36t23.5 35l49 73q29 43 65.5 63.5T407 505q18 0 41.5-3t40.5-11q-15-5-32.5-18T421 443t-35-36-30-37l-86-115 128-137z"/><glyph glyph-name="uni04A2" unicode="Ң" horiz-adv-x="735" d="M735-146q-60-6-85.5 20T624-43V0H519v282H190V0H75v670q35 1 61-11t40-34q11-17 12.5-36t1.5-42V384h329v163q0 23 1.5 42t12.5 36q14 22 40 34t61 11V101h101v-247z"/><glyph glyph-name="uni04A3" unicode="ң" horiz-adv-x="624" d="M614-146q-58-6-83 19t-25 81V0H403v198H169V0H57v499q34 0 60-11t39-33q10-17 11.5-35.5T169 378v-80h234v80q0 23 1.5 41.5T416 455q13 21 39.5 32.5T516 499V94h98v-240z"/><glyph glyph-name="uni04AE" unicode="Ү" horiz-adv-x="600" d="M245 288 99 527q-12 20-27.5 41t-32 40-33 33-31.5 19q17 8 43.5 11t44.5 3q22 0 41-7.5t35-20.5 28.5-29 22.5-32l118-200 102 188q26 48 57 74.5t78 26.5q18 0 40.5-3t39.5-11q-15-5-32-19.5T559.5 607 528 566.5 502 526L360 284V0H245v288z"/><glyph glyph-name="uni04AF" unicode="ү" horiz-adv-x="524" d="M203 21 54 365q-14 34-30 67.5T-7 500q19 3 38 3 28 0 49-8.5t37-24.5 28.5-39.5T170 377l35-86q16-40 28.5-78t25.5-83h1q13 45 24.5 83t28.5 78l43 104q23 57 51.5 84t69.5 27q28 0 57-9-25-24-43.5-61.5T456 360L314 26v-194H203V21z"/><glyph glyph-name="uni04B0" unicode="Ұ" horiz-adv-x="600" d="M245 141H71q0 56 26.5 78.5T177 242h68v46L99 527q-12 20-27.5 41t-32 40-33 33-31.5 19q17 8 43.5 11t44.5 3q22 0 41-7.5t35-20.5 28.5-29 22.5-32l118-200 102 188q26 48 57 74.5t78 26.5q18 0 40.5-3t39.5-11q-15-5-32-19.5T559.5 607 528 566.5 502 526L360 284v-42h193q0-56-26.5-78.5T447 141h-87V0H245v141z"/><glyph glyph-name="uni04B1" unicode="ұ" horiz-adv-x="524" d="M203-107H69q0 51 23.5 70.5T163-17h40v38L54 365q-14 34-30 67.5T-7 500q19 3 38 3 28 0 49-8.5t37-24.5 28.5-39.5T170 377l35-86q16-40 28.5-78t25.5-83h1q13 45 24.5 83t28.5 78l43 104q23 57 51.5 84t69.5 27q28 0 57-9-25-24-43.5-61.5T456 360L314 26v-42h139q0-50-23-70t-71-20h-45v-62H203v61z"/><glyph glyph-name="uni04B2" unicode="Ҳ" horiz-adv-x="590" d="M608-146q-60-6-85.5 20T497-43v38q-38 7-64 34t-51 65l-95 144-89-145q-27-44-57.5-72T63-7Q45-7 22-4T-18 7q15 5 31 19.5T44.5 60 74 100l26 39 128 199-124 192q-13 19-28 40t-30.5 39T14 641t-31 19q17 8 44 11t45 3q47 0 77-26t50-59l93-149 76 134q13 24 27 42.5t30 31 35.5 19.5 45.5 7q18 0 41-3t40-11q-15-5-31.5-19T523 608t-30.5-39.5T466 529L349 338l155-221q12-14 24-21.5T552.5 85t26-3.5T608 81v-227z"/><glyph glyph-name="uni04B3" unicode="ҳ" horiz-adv-x="547" d="M553-146q-58-6-83 19t-25 81v38q-36 6-62.5 33.5T330 91l-61 88-60-89q-15-22-28.5-40T152 18.5t-32.5-21T78-10q-18 0-40 3T-1 4q15 5 31 19.5T62 57t31 40 28 39l88 124-71 106q-13 19-28 40.5t-30.5 40-31 32.5T18 498q17 8 43 10t44 2q41 0 70.5-28t57.5-72l42-66 39 64q29 48 55.5 74t70.5 26q18 0 40-2.5t39-10.5q-15-5-31-19.5t-31.5-33-30-39.5-26.5-40l-66-102 93-125q15-19 26.5-31t25-19 31-9.5T553 74v-220z"/><glyph glyph-name="uni04B6" unicode="Ҷ" horiz-adv-x="692" d="M692-146q-60-6-85.5 20T581-43V0H476v203q-67-44-171-44-52 0-97.5 15T128 218t-54 72-20 99l-1 281q35 1 61.5-11.5T155 625q11-17 13-36t2-42V411q0-69 36-108.5T307 262q51-1 95 14t75 40v231q0 23 2 42t13 36q14 21 39.5 33.5T592 670l-1-569h101v-247z"/><glyph glyph-name="uni04B7" unicode="ҷ" horiz-adv-x="595" d="M585-146q-58-6-83 19t-25 81V0H371v157h-2q-29-18-59-26t-69-8q-40 0-76.5 10t-64 30.5-44 52.5T40 292v208q34 1 59.5-10t36.5-33q7-13 10-26.5t5-30.5v-86q0-96 105-96 46 0 70 9.5t45 29.5v125q0 23 3 40.5t12 34.5q12 22 37 33t59 10V94h103v-240z"/><glyph glyph-name="uni04BA" unicode="Һ" horiz-adv-x="672" d="M75 670q35 1 60.5-11.5T175 625q11-17 13-36t2-42v-76q68 44 175 44 54 0 100-15t80-44 53.5-72 19.5-99l1-285H502v263q0 69-37 108.5T359 412q-51 1-95-14t-75-40l1-358H75v670z"/><glyph glyph-name="uni04BB" unicode="һ" horiz-adv-x="544" d="M60 684q34 1 59-10.5t38-32.5q11-17 12.5-34.5T171 566V443h1q26 35 61.5 53t86.5 18q47 0 80-13.5t55-36.5 30.5-54 8.5-65V0H383v323q0 24-4.5 42T362 395q-24 24-68 24-53 0-88-39.5T171 271V0H60v684z"/><glyph glyph-name="uni04C0" unicode="Ӏ" horiz-adv-x="265" d="M75 670q35 1 61-11t40-34q11-17 12.5-36t1.5-42V0H75v670z"/><glyph glyph-name="uni04CF" unicode="ӏ" horiz-adv-x="223" d="M57 500q34 1 59-10t37-33q9-17 12-34.5t3-40.5V0H57v500z"/><glyph glyph-name="uni04D8" unicode="Ә" horiz-adv-x="736" d="M361-15q-72 0-130.5 23T129 73.5t-67 103T35 313q-1 13-.5 24.5T36 366h540q-1 17-3 32t-7 29q-22 69-76 110.5T353 579q-72 0-119.5-34T171 462H50q13 48 41.5 89t68.5 70 90.5 45.5T359 683q75 0 138-27.5T605 581t70.5-111T701 334q0-80-29.5-147.5T588 68Q545 28 486.5 6.5T361-15zm0 105q66 0 118.5 29.5T557 204q8 18 12 36.5t6 33.5H158q14-91 67.5-137.5T361 90z"/><glyph glyph-name="uni04D9" unicode="ә" horiz-adv-x="566" d="M276 515q57 0 104.5-20.5t82-56.5 54-84.5T536 250q0-60-22-112.5T450 48q-34-30-78.5-46.5T276-15q-54 0-99.5 17.5T98.5 52 48 130.5 30 234v21.5l1 26.5h384q0 17-4 29-14 48-49 77.5T273 418q-47 0-77-23t-41-60H38q9 39 30.5 72t52.5 57 70.5 37.5T276 515zM148 189q7-54 42-84.5T276 74q43 0 78 20t51 59q7 17 10 36H148z"/><glyph glyph-name="uni04E2" unicode="Ӣ" horiz-adv-x="709" d="M204 756q0 42 21 67t62 25h266q0-42-21-67t-61-25H204zM75 670q34 1 59-11t39-38q8-14 10.5-32.5T186 547V318q0-31-1-70.5t-3-73.5l2-1q16 27 31.5 54t32.5 52l197 298q22 33 44 52.5t45 29 48 11 52 .5V0H522v379q0 32 1.5 64t5.5 65l-2 1q-15-27-31.5-54.5T462 402L191 0H75v670z"/><glyph glyph-name="uni04E3" unicode="ӣ" horiz-adv-x="566" d="M133 585q0 42 21 67t62 25h266q0-42-21-67t-61-25H133zm-76-86q33 0 58-11.5t38-38.5q12-26 12-71v-66q0-29-1-76t-5-97l2-1q19 36 37 71.5t35 61.5l87 137q21 33 43.5 52t46.5 28 48.5 10.5 50.5.5V0H397v233q0 30 1.5 70t3.5 72l-2 1q-11-24-20-42.5t-17.5-34-17-29.5-18.5-29L167 0H57v499z"/><glyph glyph-name="uni04E8" unicode="Ө" horiz-adv-x="754" d="M379-15q-74 0-136.5 27.5t-109 75-72.5 111T35 334t26 135.5T133.5 581t109 75.5T379 684q73 0 136-27.5T624.5 581t73-111.5T724 334t-26.5-135.5-73-111-109.5-75T379-15zm216 399q-8 41-27 76t-47.5 61-64.5 40.5-77 14.5-77-14.5-64-40.5-47.5-61-26.5-76h431zM379 93q40 0 76 14.5t64.5 40 48 60T595 282H164q8-40 27.5-74.5t47.5-60 63.5-40T379 93z"/><glyph glyph-name="uni04E9" unicode="ө" horiz-adv-x="580" d="M290-15q-56 0-103.5 21t-82 57T50 147.5 30 250t20 102 54.5 84 82 57T290 514t103.5-21 82.5-57 54.5-84T550 250t-19.5-102.5T476 63 393.5 6 290-15zm144 307q-12 54-50.5 88T290 414t-94-34-50-88h288zM290 85q52 0 89 30.5t51 80.5H149q14-50 51-80.5T290 85z"/><glyph glyph-name="uni04EE" unicode="Ӯ" horiz-adv-x="568" d="M133 756q0 42 21 67t62 25h266q0-42-21-67t-61-25H133zM73 6q32 11 60 48t54 84l30 54L34 562q-15 31-28.5 56T-25 670q10 2 24.5 2.5t22.5.5q28 0 49.5-8.5t38.5-25 30.5-39.5 27.5-53l112-248 112 248q13 30 28 53t32.5 39.5 39 25T541 673q9 0 25.5-1.5T593 668q-26-27-40.5-51T523 562L298 104Q256 24 199.5-1T73 6z"/><glyph glyph-name="uni04EF" unicode="ӯ" horiz-adv-x="516" d="M100 591q0 42 21 67t62 25h266q0-42-21-67t-61-25H100zM68-170q31 11 55 47.5T167-38l28 65L54 365q-14 34-30 67.5T-7 500q19 3 38 3 56 0 86.5-32.5T170 377l32-90q14-40 27-78t26-83h1q13 45 25.5 82.5T308 287l39 108q20 57 50 84t72 27q28 0 57-9-25-24-43.5-61.5T448 360L273-72q-62-160-205-98z"/><glyph glyph-name="Wgrave" unicode="Ẁ" horiz-adv-x="918" d="M383 762q-44 11-59 46t1 87l207-82q27-11 35-37t-2-61zM33 536q-11 34-23.5 67.5T-15 671q9 2 23 2.5t22 .5q51 0 76.5-32.5T149 548l71-255q12-43 19.5-77.5T253 146h2q5 35 12 70t18 77l103 378q19 3 38 3 27 0 46.5-6.5t33-20T528 612t17-52l78-267q11-42 18-77t12-70h2q6 35 13.5 69.5T688 293l73 269q16 58 44.5 85t70.5 27q27 0 57-9-25-24-40.5-61.5T866 528L712 0H600L483 394q-12 40-19.5 68T451 515l-3 1q-6-27-12-56t-17-67L310 0H197z"/><glyph glyph-name="wgrave" unicode="ẁ" horiz-adv-x="764" d="M320 597q-44 11-59 46t1 87l207-82q27-11 35-37t-2-61zM48 365q-11 34-23 67.5T-2 500q9 2 21 2.5t20 .5q27 0 46-8.5t32.5-24.5 23.5-39.5 19-53.5l30-101q11-36 19.5-76t14.5-78h2q6 38 14.5 78.5T259 276l60 224q10 2 20 2.5t26 .5q49 0 74.5-31.5T479 387l29-111q9-35 18-75.5t15-78.5h2q6 38 15.5 84.5T579 289l31 104q17 58 44 85t63 27q15 0 28.5-2t28.5-7q-24-24-39.5-61.5T707 359L593 0H487l-77 284q-9 32-14.5 53T385 377h-2q-5-19-11-40.5T356 280L277 0H171z"/><glyph glyph-name="Wacute" unicode="Ẃ" horiz-adv-x="918" d="M322 715q-10 36-1.5 61.5T355 813l207 82q17-54 .5-88T504 762zM33 536q-11 34-23.5 67.5T-15 671q9 2 23 2.5t22 .5q51 0 76.5-32.5T149 548l71-255q12-43 19.5-77.5T253 146h2q5 35 12 70t18 77l103 378q19 3 38 3 27 0 46.5-6.5t33-20T528 612t17-52l78-267q11-42 18-77t12-70h2q6 35 13.5 69.5T688 293l73 269q16 58 44.5 85t70.5 27q27 0 57-9-25-24-40.5-61.5T866 528L712 0H600L483 394q-12 40-19.5 68T451 515l-3 1q-6-27-12-56t-17-67L310 0H197z"/><glyph glyph-name="wacute" unicode="ẃ" horiz-adv-x="764" d="M259 550q-10 36-1.5 61.5T292 648l207 82q17-54 .5-88T441 597zM48 365q-11 34-23 67.5T-2 500q9 2 21 2.5t20 .5q27 0 46-8.5t32.5-24.5 23.5-39.5 19-53.5l30-101q11-36 19.5-76t14.5-78h2q6 38 14.5 78.5T259 276l60 224q10 2 20 2.5t26 .5q49 0 74.5-31.5T479 387l29-111q9-35 18-75.5t15-78.5h2q6 38 15.5 84.5T579 289l31 104q17 58 44 85t63 27q15 0 28.5-2t28.5-7q-24-24-39.5-61.5T707 359L593 0H487l-77 284q-9 32-14.5 53T385 377h-2q-5-19-11-40.5T356 280L277 0H171z"/><glyph glyph-name="Wdieresis" unicode="Ẅ" horiz-adv-x="918" d="M353 731q-27 0-46.5 19.5T287 797q0 28 19.5 48t46.5 20q28 0 48-20t20-48q0-27-20-46.5T353 731zm185 0q-28 0-47.5 19.5T471 797q0 28 19.5 48t47.5 20q27 0 47-20t20-48q0-27-20-46.5T538 731zM33 536q-11 34-23.5 67.5T-15 671q9 2 23 2.5t22 .5q51 0 76.5-32.5T149 548l71-255q12-43 19.5-77.5T253 146h2q5 35 12 70t18 77l103 378q19 3 38 3 27 0 46.5-6.5t33-20T528 612t17-52l78-267q11-42 18-77t12-70h2q6 35 13.5 69.5T688 293l73 269q16 58 44.5 85t70.5 27q27 0 57-9-25-24-40.5-61.5T866 528L712 0H600L483 394q-12 40-19.5 68T451 515l-3 1q-6-27-12-56t-17-67L310 0H197z"/><glyph glyph-name="wdieresis" unicode="ẅ" horiz-adv-x="764" d="M290 566q-27 0-46.5 19.5T224 632q0 28 19.5 48t46.5 20q28 0 48-20t20-48q0-27-20-46.5T290 566zm185 0q-28 0-47.5 19.5T408 632q0 28 19.5 48t47.5 20q27 0 47-20t20-48q0-27-20-46.5T475 566zM48 365q-11 34-23 67.5T-2 500q9 2 21 2.5t20 .5q27 0 46-8.5t32.5-24.5 23.5-39.5 19-53.5l30-101q11-36 19.5-76t14.5-78h2q6 38 14.5 78.5T259 276l60 224q10 2 20 2.5t26 .5q49 0 74.5-31.5T479 387l29-111q9-35 18-75.5t15-78.5h2q6 38 15.5 84.5T579 289l31 104q17 58 44 85t63 27q15 0 28.5-2t28.5-7q-24-24-39.5-61.5T707 359L593 0H487l-77 284q-9 32-14.5 53T385 377h-2q-5-19-11-40.5T356 280L277 0H171z"/><glyph glyph-name="Ygrave" unicode="Ỳ" horiz-adv-x="600" d="M235 762q-44 11-59 46t1 87l207-82q27-11 35-37t-2-61zm10-474L99 527q-12 20-27.5 41t-32 40-33 33-31.5 19q17 8 43.5 11t44.5 3q22 0 41-7.5t35-20.5 28.5-29 22.5-32l118-200 102 188q26 48 57 74.5t78 26.5q18 0 40.5-3t39.5-11q-15-5-32-19.5T559.5 607 528 566.5 502 526L360 284V0H245v288z"/><glyph glyph-name="ygrave" unicode="ỳ" horiz-adv-x="516" d="M193 597q-44 11-59 46t1 87l207-82q27-11 35-37t-2-61zM68-170q31 11 55 47.5T167-38l28 65L54 365q-14 34-30 67.5T-7 500q19 3 38 3 56 0 86.5-32.5T170 377l32-90q14-40 27-78t26-83h1q13 45 25.5 82.5T308 287l39 108q20 57 50 84t72 27q28 0 57-9-25-24-43.5-61.5T448 360L273-72q-62-160-205-98z"/><glyph glyph-name="minus" unicode="−" horiz-adv-x="622" d="M66 231q0 51 25.5 71.5T168 323h388q0-51-25.5-71.5T454 231H66z"/><glyph glyph-name="logo" horiz-adv-x="2514" d="M439-12q-56 0-101 25.5T258 84l-90 117V2H60v630q33 0 54-10.5t33-27.5 16.5-40 4.5-48V298l98 124q38 48 82 69t92 21q17 0 34.5-2.5T510 502q-35-5-96-68T257 250q50-63 89.5-109.5t70-77.5T470 16t40-18q-36-10-71-10zm756-1q-33 0-54 10.5T1107.5 25t-17 40-4.5 48l1 80H978q-9-44-32.5-81.5t-57-65-76-43T723-12q-54 0-101.5 20.5t-83 56-56 83T462 249t20.5 102 56 83.5 83 56T723 511q48 0 90.5-16t76.5-44.5 57.5-67T979 300h108v210q33 0 54-10.5t34-27.5 17.5-40 4.5-48l-1-84h164q0-33-10.5-53.5T1322 214t-40-16.5-48-4.5h-38zm456 1q-57 0-105 20.5t-83 56-54.5 83T1389 249t19.5 102 54.5 83.5 83 56 105 20.5q50 0 94-20.5t76.5-56T1873 351t19-102q0-7-.5-16t-1.5-16h-393q10-64 52.5-95.5T1655 90q35 0 64 12t43 38h116q-38-79-96.5-115.5T1651-12zm275-1q-35 0-71 10 24 3 57.5 33.5t67.5 71 64 81.5 47 66q-17 25-47 66t-64 81-67.5 70.5T1855 500q36 10 71 10 54 0 95-24t76-70l57-79 58 79q67 94 170 94 36 0 72-10-16-2-37-17t-43.5-37-45.5-49.5-44-55-38.5-52T2216 249q18-25 48-66t64-81.5 68-71T2454-3q-36-10-72-10-54 0-95.5 24T2211 82l-57 79-57-79q-35-48-76.5-71.5T1926-13zm-141 323q-15 48-48.5 77t-91.5 29q-54 0-91-29t-51-77h282zM725 95q32 0 60 12t49 33 33 49 12 60-12 60.5-33 49.5-49 33-60 12-60-12-49-33-33.5-49.5T570 249t12.5-60 33.5-49 49-33 60-12z"/><glyph glyph-name="Ru_desc" horiz-adv-x="261" d="M186-146q-60-6-85.5 20T75-43v144h111v-247z"/></font>
</defs>
</svg>
