<svg width="32" height="40" viewBox="0 0 32 40" fill="none" xmlns="http://www.w3.org/2000/svg">
<path fill-rule="evenodd" clip-rule="evenodd" d="M15.7143 0C13.0621 0 10.5186 1.05357 8.64322 2.92893C6.76785 4.8043 5.71429 7.34784 5.71429 10V15.7143C4.19876 15.7143 2.74531 16.3163 1.67368 17.388C0.602039 18.4596 0 19.913 0 21.4286V34.2857C0 35.8012 0.602039 37.2547 1.67368 38.3263C2.74531 39.398 4.19876 40 5.71429 40H25.7143C27.2298 40 28.6833 39.398 29.7549 38.3263C30.8265 37.2547 31.4286 35.8012 31.4286 34.2857V21.4286C31.4286 19.913 30.8265 18.4596 29.7549 17.388C28.6833 16.3163 27.2298 15.7143 25.7143 15.7143V10C25.7143 4.47619 21.2381 0 15.7143 0ZM22.8571 15.7143V10C22.8571 8.1056 22.1046 6.28878 20.765 4.94924C19.4255 3.60969 17.6087 2.85714 15.7143 2.85714C13.8199 2.85714 12.0031 3.60969 10.6635 4.94924C9.32398 6.28878 8.57143 8.1056 8.57143 10V15.7143H22.8571Z" fill="url(#paint0_linear_827_658)"/>
<defs>
<linearGradient id="paint0_linear_827_658" x1="0" y1="0" x2="41.0342" y2="22.4165" gradientUnits="userSpaceOnUse">
<stop offset="0.0775" stop-color="#FF00BB"/>
<stop offset="0.9233" stop-color="#EA1B23"/>
</linearGradient>
</defs>
</svg>
