<svg width="65" height="80" viewBox="0 0 65 80" fill="none" xmlns="http://www.w3.org/2000/svg">
<path fill-rule="evenodd" clip-rule="evenodd" d="M61.8599 9.85301C61.8297 9.95341 62.3612 10.8062 63.0413 11.7483C64.7304 14.0885 65.1003 15.7935 64.4678 18.3251C64.0537 19.9828 63.2281 22.7508 63.1262 22.8231C63.0703 22.8628 62.8837 23.3845 62.712 23.9825C62.3398 25.2769 60.6074 28.8909 60.4562 28.6882C60.3979 28.6103 60.3382 28.7298 60.3231 28.9541C60.3083 29.1782 60.22 29.4212 60.1272 29.4941C60.0347 29.5669 59.4392 30.4275 58.8039 31.4066C58.1685 32.3855 57.5821 33.2523 57.5004 33.3324C57.4188 33.4126 57.0267 33.9724 56.6292 34.5763C56.2316 35.1801 55.8339 35.7325 55.7456 35.8037C55.6572 35.8748 55.2339 36.4697 54.8051 37.1254C54.3762 37.7811 53.9289 38.3135 53.8112 38.3084C53.6935 38.3034 53.6614 38.3898 53.7397 38.5002C53.8182 38.6108 53.7956 38.7379 53.6899 38.7828C53.5842 38.8276 53.3521 39.103 53.1747 39.3948C52.997 39.6868 52.6147 40.1494 52.325 40.423C52.0352 40.6967 51.6604 41.2009 51.4924 41.5436C51.3242 41.8866 51.0229 42.2831 50.8227 42.4252C50.6224 42.5672 49.9073 43.4173 49.2338 44.3143C48.5601 45.2114 47.9825 45.9082 47.9504 45.8629C47.9183 45.8176 47.762 45.9878 47.603 46.2411C47.444 46.4945 47.1005 46.9101 46.8397 47.1645C46.5787 47.4188 45.9493 48.1522 45.4411 48.7938C44.9329 49.4355 44.4933 49.9275 44.4646 49.8871C44.4359 49.8466 44.1432 50.1749 43.8142 50.6167C43.4851 51.0583 43.194 51.3888 43.1672 51.3511C43.1405 51.3134 42.8494 51.6439 42.5203 52.0855C42.1913 52.5273 41.8966 52.8529 41.8655 52.809C41.8344 52.7652 41.5401 53.0903 41.2115 53.5312C40.8829 53.9725 40.5822 54.3422 40.5433 54.3533C40.5043 54.3641 40.0898 54.7856 39.6221 55.2897C39.1545 55.7939 38.615 56.3571 38.423 56.5414C38.2311 56.7257 38.0205 56.9735 37.9546 57.0919C37.8889 57.2105 37.6209 57.52 37.3593 57.7796C37.0974 58.0395 36.5421 58.6175 36.125 59.0645C35.7079 59.5114 35.2366 60.0122 35.0775 60.1771C34.9186 60.3421 34.4063 60.8891 33.939 61.3928C33.4717 61.8964 32.9361 62.4633 32.7485 62.6528C32.5608 62.8422 32.2572 63.156 32.0737 63.3498C30.7418 64.7573 27.9795 67.4007 26.8558 68.3428C25.9482 69.1036 24.4527 70.4473 23.7985 71.0892C23.5281 71.3549 21.2741 73.0525 18.7897 74.8617C12.9019 79.1498 11.1538 80.0368 8.91996 79.8694C7.90101 79.793 7.54272 79.4949 7.4057 78.6093C7.36016 78.3146 7.13247 77.3346 6.89953 76.4318C6.66681 75.5289 6.40834 74.4307 6.32543 73.9911C6.02615 72.4092 5.84993 71.6024 5.72863 71.2597C5.66065 71.0679 5.60176 70.6584 5.59784 70.3495C5.59369 70.0407 5.50426 69.6013 5.39917 69.3732C5.29408 69.1451 5.12295 68.378 5.01908 67.6684C4.91521 66.9589 4.74778 66.0874 4.64719 65.7316C4.5466 65.3757 4.37895 64.5043 4.27463 63.7951C4.17032 63.0859 4.00245 62.2147 3.90185 61.8589C3.70497 61.1641 3.4507 59.9109 3.35097 59.1428C3.25819 58.4277 2.91377 56.673 2.77136 56.1882C2.702 55.9526 2.61091 55.4012 2.56893 54.9629C2.52696 54.5246 2.42588 53.9959 2.34438 53.7883C2.26298 53.5804 2.18594 53.0569 2.17332 52.6247C2.1607 52.1925 2.09605 51.8774 2.02923 51.9248C1.96263 51.9721 1.89209 51.5608 1.87284 51.0105C1.85336 50.4604 1.75056 49.8879 1.64438 49.7382C1.53821 49.5886 1.4354 49.016 1.41593 48.466C1.39668 47.9157 1.32657 47.5041 1.26064 47.5508C1.19471 47.5976 1.12461 47.186 1.10536 46.6357C1.08589 46.0856 1.00923 45.55 0.935187 45.4456C0.861023 45.3411 0.747497 44.6306 0.682989 43.8665C0.618259 43.1026 0.472306 41.495 0.358561 40.2941C-0.0447135 36.0366 0.0280993 28.9264 0.493384 27.1211C1.31179 23.946 3.02342 18.7682 3.18791 18.97C3.23261 19.025 3.3075 18.8657 3.35397 18.616C3.50051 17.8291 7.06593 10.4893 7.55184 9.97426C7.62838 9.89304 7.97692 9.44306 8.32601 8.97457C8.6752 8.50576 9.12217 7.96731 9.31972 7.77772C9.51714 7.58796 9.7324 7.33584 9.79823 7.21743C9.86394 7.09884 10.133 6.79091 10.3959 6.53298C10.6591 6.27506 11.0903 5.83949 11.3545 5.56508C12.2912 4.5914 15.6223 2.40109 16.3581 2.27499C16.5291 2.24558 16.9592 2.07147 17.3139 1.88795C18.3472 1.35377 21.7867 0.779773 23.5124 0.853745C26.0723 0.963477 26.6226 1.28281 28.4161 3.69964C29.6137 5.31305 30.5048 7.0005 30.5134 7.67169C30.5169 7.918 30.6127 8.25108 30.7268 8.41195C30.9975 8.79345 30.9164 12.9901 30.6065 14.6254C30.3791 15.8262 29.8473 17.9874 28.9577 21.3242C28.7447 22.1237 28.5881 22.8025 28.6099 22.8331C28.6874 22.9423 29.92 21.5794 30.8539 20.3514C31.3762 19.6647 31.9355 18.9713 32.0965 18.8102C32.2575 18.6491 32.9488 17.9301 33.6325 17.2121C34.3163 16.4943 35.2031 15.6275 35.6032 15.2859C36.0033 14.9444 36.7919 14.2568 37.3557 13.7579C38.6751 12.5902 43.6424 9.06877 44.9052 8.40599C47.7934 6.88972 48.7298 6.48799 50.2777 6.10062C52.4842 5.54842 53.5358 5.42901 55.0989 5.55329C56.2731 5.64671 59.3724 6.58581 59.1131 6.76975C59.0516 6.81337 59.2608 6.9855 59.5781 7.1519C60.1988 7.47742 61.9513 9.55182 61.8599 9.85301ZM62.6766 16.5433C62.6223 18.4524 61.1267 23.0184 59.5717 26.023C58.1726 28.7258 55.8728 32.334 54.0089 34.7504C53.546 35.3506 53.0096 36.142 52.817 36.5088C52.6241 36.8758 52.4319 37.1271 52.3894 37.0672C52.347 37.0074 51.952 37.509 51.5118 38.1821C51.0717 38.8553 50.68 39.3615 50.6413 39.3071C50.6029 39.2529 50.4349 39.4865 50.268 39.8265C49.8863 40.6047 49.6494 40.7784 49.5784 40.332C49.5481 40.1407 49.6139 39.9686 49.725 39.9497C49.8359 39.9306 50.2665 39.3954 50.6817 38.7604C51.0969 38.1254 51.4595 37.638 51.4874 37.6773C51.57 37.7937 56.4389 30.3241 56.4145 30.1185C56.4024 30.0149 56.5071 29.8449 56.647 29.7407C56.9754 29.4966 58.8518 25.7613 59.5745 23.9134C59.8811 23.1292 60.6231 20.9448 61.2231 19.0597C61.8232 17.1745 62.3987 15.572 62.5021 15.4986C62.7281 15.3383 62.7131 15.2495 62.6766 16.5433ZM60.0657 12.3078C60.1426 12.7516 60.0978 13.5808 59.966 14.1504C59.5158 16.0957 58.1584 20.52 57.5129 22.1448C57.1587 23.0369 56.784 24.0211 56.6807 24.3318C56.5771 24.6425 56.4057 24.893 56.2998 24.8886C56.1938 24.8841 56.1343 25.0523 56.168 25.2625C56.2014 25.4729 56.0979 25.7376 55.9378 25.8512C55.778 25.9646 55.6552 26.1392 55.6647 26.2391C55.6909 26.5079 54.0169 29.4309 52.439 31.8717C51.2523 33.7072 46.2611 40.4455 45.673 41.0061C45.5635 41.1104 45.328 41.4338 45.1497 41.7245C44.9714 42.0154 44.6123 42.4617 44.3515 42.7161C44.0907 42.9708 43.0713 44.2128 42.0864 45.4761C41.1014 46.7393 40.2475 47.7057 40.189 47.6232C40.1305 47.5407 40.2236 47.2486 40.3958 46.9739C40.568 46.6992 40.7342 46.5102 40.7652 46.5537C40.7959 46.5971 41.3242 45.8073 41.9394 44.7985C42.5544 43.7895 43.1457 42.8768 43.2535 42.7701C43.3613 42.6633 43.7368 42.1341 44.0879 41.5941C46.6762 37.6137 48.1903 35.1915 48.5267 34.4935C48.743 34.0447 49.0057 33.6168 49.1107 33.5423C49.2155 33.4679 49.6232 32.7769 50.0168 32.0065C50.4104 31.2362 50.8276 30.6101 50.9443 30.6151C51.0606 30.6201 51.0918 30.5338 51.0135 30.4234C50.935 30.3128 50.9752 30.1484 51.1029 30.0578C51.2305 29.9673 51.803 28.975 52.3752 27.8529C52.9473 26.7307 53.4552 25.8683 53.5037 25.9367C53.5522 26.0051 53.6329 25.8544 53.6833 25.6019C53.7335 25.3494 54.1091 24.4499 54.5177 23.6028C55.306 21.9692 55.7856 20.7236 56.3783 18.7696C57.571 14.8384 57.4823 12.7925 56.0057 10.2039C55.8309 9.89734 56.3338 9.81869 56.9418 10.0577C57.297 10.1971 57.9828 10.439 58.4655 10.5949C59.5701 10.9515 59.8901 11.2939 60.0657 12.3078ZM57.3307 8.30937C57.3138 8.56114 57.2507 8.62707 57.1536 8.49482C57.0197 8.31224 55.5123 8.20771 52.2634 8.15512C50.8593 8.13234 50.8368 7.97022 52.169 7.47307C53.9881 6.79388 57.3955 7.34608 57.3307 8.30937ZM54.1085 11.744C54.2308 12.0844 54.3404 12.729 54.3519 13.1765C54.3635 13.6242 54.4581 14.1104 54.5622 14.2572C54.6664 14.4041 54.6543 14.5931 54.5353 14.6775C54.4163 14.7619 54.3314 15.201 54.3461 15.6532C54.3727 16.4579 52.8664 21.735 52.6793 21.492C52.6273 21.4243 52.5271 21.6538 52.457 22.0019C52.3226 22.6686 49.2678 28.9034 49.154 28.743C49.1176 28.6917 48.6424 29.4876 48.0978 30.5118C47.5533 31.536 47.0455 32.4182 46.9696 32.4721C46.8935 32.5261 46.4785 33.2267 46.0472 34.0295C45.6158 34.8321 45.2324 35.4456 45.195 35.3929C45.1577 35.3404 44.9597 35.6437 44.7554 36.0669C44.551 36.49 44.1208 37.2069 43.7996 37.6597C43.4785 38.1125 42.7813 39.194 42.2506 40.0627C41.7198 40.9317 41.2632 41.6108 41.2356 41.5719C41.2081 41.5331 40.7377 42.2202 40.1906 43.0987C39.6435 43.9772 39.0993 44.6918 38.9812 44.6867C38.8632 44.6817 38.8309 44.768 38.9092 44.8784C38.9877 44.9889 38.9601 45.1444 38.8483 45.2238C38.7364 45.3031 38.2811 45.8788 37.8367 46.5027C37.3924 47.1267 36.9837 47.6797 36.9287 47.7314C36.8736 47.7832 36.543 48.2438 36.1939 48.7547C35.8449 49.2656 35.4576 49.778 35.3332 49.8934C35.2088 50.0088 34.9645 50.3362 34.7901 50.621C34.4717 51.1407 31.4085 55.0939 30.8792 55.6683C30.7237 55.8371 29.7871 56.9512 28.798 58.1443C27.0722 60.2255 26.1675 61.2241 25.8972 61.3465C25.8277 61.3779 25.6233 61.6392 25.4428 61.9267C25.2622 62.2145 24.9022 62.6597 24.6427 62.9158C24.3831 63.1721 23.6103 63.9677 22.9254 64.6839C20.9795 66.7189 21.1826 66.5183 18.3122 69.2357C17.9829 69.5476 17.0426 70.4448 16.2227 71.2296C15.4028 72.0142 14.3773 72.9748 13.9437 73.3641C13.5104 73.7534 13.1107 74.1529 13.0559 74.2516C13.001 74.3506 12.7869 74.4605 12.5801 74.4959C12.2885 74.5458 12.1796 74.293 12.0939 73.3692C12.0332 72.714 11.9325 71.6317 11.8698 70.9642C11.8071 70.2967 11.6966 69.5092 11.6243 69.2144C11.5519 68.9196 11.5111 68.3078 11.5333 67.855C11.5554 67.4022 11.4794 66.898 11.364 66.7344C11.2486 66.5708 11.1083 65.9713 11.0523 65.4021C10.7969 62.8166 10.666 61.75 10.5911 61.6444C10.5466 61.5818 10.4486 60.9426 10.3736 60.2243C10.0719 57.3398 9.99275 56.753 9.88974 56.6384C9.8307 56.5726 9.76074 55.956 9.73445 55.2684C9.70794 54.5809 9.6037 53.9019 9.50278 53.7597C9.40174 53.6172 9.32309 53.083 9.32805 52.5725C9.33301 52.0621 9.25766 51.5325 9.16065 51.3957C9.06376 51.2591 8.9384 50.6816 8.88235 50.1124C8.82608 49.5434 8.7049 48.5484 8.6131 47.9016C8.52129 47.2547 8.39021 46.2942 8.32173 45.7672C8.25359 45.2403 8.13661 44.676 8.06192 44.5133C7.82666 44.0006 7.52756 40.5161 7.70782 40.3882C7.80239 40.3211 7.92655 39.4175 7.98361 38.3802C8.04045 37.3431 8.15374 36.4472 8.23499 36.3895C8.31624 36.3319 8.42827 35.6699 8.48409 34.9183C8.53991 34.1667 8.64982 33.5059 8.7285 33.4499C8.80719 33.3938 8.9083 32.7978 8.953 32.1255C8.9977 31.4533 9.11515 30.8459 9.21416 30.7757C9.31294 30.7056 9.41973 30.2935 9.45148 29.8599C9.60629 27.7373 11.7615 20.1606 13.2096 16.6476C15.2468 11.7054 18.0713 7.08909 20.4875 4.75186C20.8568 4.39462 21.4537 4.59772 22.8447 5.55428C24.7282 6.84941 25.8258 9.02232 26.3983 12.5907C26.6725 14.2981 26.5877 18.7237 26.2547 20.1058C25.5648 22.9681 23.8231 28.7118 23.6199 28.7951C23.2253 28.9567 21.5268 31.1936 21.3061 31.8421C20.9309 32.9447 21.9296 33.6652 22.889 32.9846C23.1181 32.8221 23.7704 32.7089 24.3383 32.7332C25.8306 32.7972 25.4838 33.1608 29.3812 27.4486C30.1011 26.3934 30.7357 25.4888 30.7917 25.4383C30.8476 25.3877 31.0652 25.0646 31.2754 24.7202C31.6097 24.1726 31.9263 23.8069 33.2981 22.3838C33.457 22.2188 33.9296 21.7207 34.3483 21.2769C37.1549 18.3008 43.0494 13.9018 46.8934 11.9143C48.3399 11.1662 50.5949 10.2687 51.6025 10.0399C52.6192 9.80876 53.6692 10.5226 54.1085 11.744ZM26.0927 5.08013C26.3539 5.64876 26.2443 6.30804 25.9486 5.94617C25.8417 5.81535 25.635 5.61844 25.4889 5.50848C25.3428 5.39851 25.0019 5.12439 24.731 4.89919C24.4604 4.674 24.1437 4.4622 24.0271 4.42865C23.9108 4.39494 23.6382 4.23045 23.422 4.06304C23.2055 3.89561 22.852 3.62179 22.6364 3.45423C22.197 3.11326 22.46 2.80625 23.1157 2.89497C23.9246 3.00463 25.7572 4.34984 26.0927 5.08013ZM16.2993 6.06745C15.8231 6.75426 15.4168 7.44874 15.3966 7.61037C15.3765 7.77199 15.3146 7.84332 15.259 7.76912C15.2035 7.69477 14.8867 8.17717 14.5549 8.84078C14.2232 9.50456 13.8583 10.0435 13.7441 10.0386C13.6298 10.0337 13.5635 10.2014 13.5969 10.4107C13.6302 10.6204 13.5366 10.8126 13.389 10.8378C13.2414 10.8631 13.1465 11.0469 13.1782 11.2463C13.2099 11.4457 13.1301 11.6268 13.0007 11.649C12.8712 11.6712 12.7905 11.8457 12.8208 12.0371C12.8513 12.2282 12.7314 12.4873 12.5547 12.6126C12.3778 12.7382 12.2416 12.923 12.2516 13.0237C12.2619 13.1243 12.0112 13.7941 11.6947 14.5121C10.3076 17.659 7.62911 26.622 7.3536 29.0397C7.2206 30.2051 6.63711 32.0019 6.5554 31.4967C6.18741 29.2233 6.12914 28.229 6.17478 25.0033C6.23059 21.0421 6.36167 20.1058 7.29857 16.9689C8.63821 12.4832 11.2584 8.67643 14.9201 5.89577C16.1646 4.95081 16.9524 4.51833 17.0862 4.70693C17.1297 4.76824 16.7754 5.38046 16.2993 6.06745ZM3.20188 26.5887C3.21271 27.1299 3.28127 27.7252 3.3545 27.9117C3.42739 28.0982 3.54992 29.0184 3.62667 29.9569C3.9743 34.2093 4.2569 37.0308 4.55797 39.2569C4.65474 39.9714 4.78018 40.931 4.83711 41.389C4.98184 42.5555 4.82689 46.8333 4.63509 46.9694C4.54807 47.0311 4.43077 48.1119 4.37477 49.3708C4.31855 50.6299 4.21422 51.6575 4.14263 51.6544C3.99016 51.6479 3.73958 50.5909 3.49886 48.9405C3.07646 46.0447 2.98391 45.3324 2.86135 44.0391C2.78956 43.2812 2.67728 42.6294 2.61197 42.59C2.54679 42.5508 2.4604 41.6425 2.42024 40.5717C2.37996 39.5007 2.29617 38.0781 2.23367 37.4105C2.04651 35.4075 2.2796 28.9645 2.57585 27.945C2.72776 27.4224 2.84228 26.6543 2.83015 26.2383C2.80897 25.5136 2.92665 25.179 3.10054 25.4684C3.14545 25.5434 3.19127 26.0474 3.20188 26.5887ZM7.27335 54.9363C7.47739 57.3516 7.58431 58.1115 7.75378 58.3504C7.85115 58.4877 7.91144 58.9951 7.88773 59.4782C7.86403 59.9613 7.9389 60.4902 8.05429 60.6538C8.16967 60.8174 8.30998 61.4169 8.36603 61.9861C8.6214 64.5716 8.75229 65.6382 8.82718 65.7437C8.90208 65.8493 9.03297 66.9158 9.28834 69.5014C9.34439 70.0705 9.4695 70.6477 9.56626 70.7841C9.66291 70.9204 9.78282 71.3857 9.83276 71.8179C10.1535 74.5986 10.2528 75.034 10.7365 75.7812C11.0503 76.2659 11.5296 76.5516 11.9176 76.4851C12.1282 76.4489 12.2389 76.5142 12.1641 76.6303C12.0387 76.8238 11.8754 76.9384 11.0258 77.4276C10.6814 77.6261 9.75522 76.1267 9.45232 74.8798C9.34899 74.4547 9.16109 73.8535 9.0345 73.5438C8.90814 73.234 8.72528 72.5481 8.62855 72.0194C8.53182 71.4908 8.38632 70.8721 8.3052 70.6449C8.22408 70.4176 8.10064 69.8062 8.03075 69.2861C7.96108 68.766 7.82943 67.8108 7.73829 67.1634C7.64716 66.5161 7.51405 65.3665 7.44216 64.6089C7.37037 63.851 7.25979 63.1988 7.1963 63.1592C7.13282 63.1196 7.06329 62.2661 7.04147 61.2625C7.01977 60.2591 6.95073 59.3263 6.88797 59.1899C6.72256 58.8287 6.70814 54.0831 6.87181 53.7884C7.07319 53.4254 7.16862 53.6987 7.27335 54.9363Z" fill="#F8AAB3"/>
<path d="M54.1085 11.744C54.2308 12.0844 54.3404 12.729 54.3519 13.1765C54.3635 13.6242 54.4581 14.1104 54.5622 14.2572C54.6664 14.4041 54.6543 14.5931 54.5353 14.6775C54.4163 14.7619 54.3314 15.201 54.3461 15.6532C54.3727 16.4579 52.8664 21.735 52.6793 21.492C52.6273 21.4243 52.5271 21.6538 52.457 22.0019C52.3226 22.6686 49.2678 28.9034 49.154 28.743C49.1176 28.6917 48.6424 29.4876 48.0978 30.5118C47.5533 31.536 47.0455 32.4182 46.9696 32.4721C46.8935 32.5261 46.4785 33.2267 46.0472 34.0295C45.6158 34.8321 45.2324 35.4456 45.195 35.3929C45.1577 35.3404 44.9597 35.6437 44.7554 36.0669C44.551 36.49 44.1208 37.2069 43.7996 37.6597C43.4785 38.1125 42.7813 39.194 42.2506 40.0627C41.7198 40.9317 41.2632 41.6108 41.2356 41.5719C41.2081 41.5331 40.7377 42.2202 40.1906 43.0987C39.6435 43.9772 39.0993 44.6918 38.9812 44.6867C38.8632 44.6817 38.8309 44.768 38.9092 44.8784C38.9877 44.9889 38.9601 45.1444 38.8483 45.2238C38.7364 45.3031 38.2811 45.8788 37.8367 46.5027C37.3924 47.1267 36.9837 47.6797 36.9287 47.7314C36.8736 47.7832 36.543 48.2438 36.1939 48.7547C35.8449 49.2656 35.4576 49.778 35.3332 49.8934C35.2088 50.0088 34.9645 50.3362 34.7901 50.621C34.4717 51.1407 31.4085 55.0939 30.8792 55.6683C30.7237 55.8371 29.7871 56.9512 28.798 58.1443C27.0722 60.2255 26.1675 61.2241 25.8972 61.3465C25.8277 61.3779 25.6233 61.6392 25.4428 61.9267C25.2622 62.2145 24.9022 62.6597 24.6427 62.9158C24.3831 63.1721 23.6103 63.9677 22.9254 64.6839C20.9795 66.7189 21.1826 66.5183 18.3122 69.2357C17.9829 69.5476 17.0426 70.4448 16.2227 71.2296C15.4028 72.0142 14.3773 72.9748 13.9437 73.3641C13.5104 73.7534 13.1107 74.1529 13.0559 74.2516C13.001 74.3506 12.7869 74.4605 12.5801 74.4959C12.2885 74.5458 12.1796 74.293 12.0939 73.3692C12.0332 72.714 11.9325 71.6317 11.8698 70.9642C11.8071 70.2967 11.6966 69.5092 11.6243 69.2144C11.5519 68.9196 11.5111 68.3078 11.5333 67.855C11.5554 67.4022 11.4794 66.898 11.364 66.7344C11.2486 66.5708 11.1083 65.9713 11.0523 65.4021C10.7969 62.8166 10.666 61.75 10.5911 61.6444C10.5466 61.5818 10.4486 60.9426 10.3736 60.2243C10.0719 57.3398 9.99275 56.753 9.88974 56.6384C9.8307 56.5726 9.76074 55.956 9.73445 55.2684C9.70794 54.5809 9.6037 53.9019 9.50278 53.7597C9.40174 53.6172 9.32309 53.083 9.32805 52.5725C9.33301 52.0621 9.25766 51.5325 9.16065 51.3957C9.06376 51.2591 8.9384 50.6816 8.88235 50.1124C8.82608 49.5434 8.7049 48.5484 8.6131 47.9016C8.52129 47.2547 8.39021 46.2942 8.32173 45.7672C8.25359 45.2403 8.13661 44.676 8.06192 44.5133C7.82666 44.0006 7.52756 40.5161 7.70782 40.3882C7.80239 40.3211 7.92655 39.4175 7.98361 38.3802C8.04045 37.3431 8.15374 36.4472 8.23499 36.3895C8.31624 36.3319 8.42827 35.6699 8.48409 34.9183C8.53991 34.1667 8.64982 33.5059 8.7285 33.4499C8.80719 33.3938 8.9083 32.7978 8.953 32.1255C8.9977 31.4533 9.11515 30.8459 9.21416 30.7757C9.31294 30.7056 9.41973 30.2935 9.45148 29.8599C9.60629 27.7373 11.7615 20.1606 13.2096 16.6476C15.2468 11.7054 18.0713 7.08909 20.4875 4.75186C20.8568 4.39462 21.4537 4.59772 22.8447 5.55428C24.7282 6.84941 25.8258 9.02232 26.3983 12.5907C26.6725 14.2981 26.5877 18.7237 26.2547 20.1058C25.5648 22.9681 23.8231 28.7118 23.6199 28.7951C23.2253 28.9567 21.5268 31.1936 21.3061 31.8421C20.9309 32.9447 21.9296 33.6652 22.889 32.9846C23.1181 32.8221 23.7704 32.7089 24.3383 32.7332C25.8306 32.7972 25.4838 33.1608 29.3812 27.4486C30.1011 26.3934 30.7357 25.4888 30.7917 25.4383C30.8476 25.3877 31.0652 25.0646 31.2754 24.7202C31.6097 24.1726 31.9263 23.8069 33.2981 22.3838C33.457 22.2188 33.9296 21.7207 34.3483 21.2769C37.1549 18.3008 43.0494 13.9018 46.8934 11.9143C48.3399 11.1662 50.5949 10.2687 51.6025 10.0399C52.6192 9.80876 53.6692 10.5226 54.1085 11.744Z" fill="#F8AAB3"/>
</svg>
