<svg width="59" height="70" viewBox="0 0 59 70" fill="none" xmlns="http://www.w3.org/2000/svg">
<path fill-rule="evenodd" clip-rule="evenodd" d="M56.9962 11.4891C56.9544 11.5757 57.2382 12.3792 57.6268 13.2749C58.5923 15.4997 58.5982 17.0463 57.6494 19.2406C57.0281 20.6774 55.8821 23.065 55.7871 23.1204C55.735 23.1508 55.4939 23.5982 55.2516 24.1146C54.727 25.2324 52.7003 28.2932 52.6128 28.1001C52.579 28.0257 52.51 28.1268 52.4591 28.3247C52.4084 28.5225 52.2951 28.7308 52.2073 28.7875C52.1198 28.8442 51.4889 29.5573 50.8054 30.3721C50.1218 31.1869 49.4972 31.9062 49.4172 31.9704C49.3373 32.0345 48.9231 32.498 48.4969 33.0001C48.0706 33.5021 47.6532 33.9585 47.5694 34.0141C47.4854 34.0696 47.0399 34.5615 46.5795 35.107C46.1189 35.6524 45.6647 36.0867 45.5702 36.072C45.4757 36.0574 45.4348 36.1314 45.4792 36.2363C45.5237 36.3413 45.4835 36.4522 45.3902 36.483C45.2968 36.5136 45.0612 36.7383 44.8672 36.9822C44.6729 37.2262 44.2834 37.6041 44.0014 37.8221C43.7195 38.0402 43.3289 38.4558 43.1337 38.7457C42.9383 39.0358 42.6258 39.3621 42.439 39.471C42.2523 39.5799 41.5263 40.2732 40.826 41.0119C40.1254 41.7506 39.5373 42.3197 39.5191 42.2767C39.5008 42.2337 39.3449 42.3714 39.1724 42.5827C38.9999 42.7941 38.6499 43.1336 38.3948 43.337C38.1394 43.5404 37.503 44.1375 36.9806 44.6636C36.4582 45.1898 36.0172 45.5889 36.0009 45.5504C35.9847 45.512 35.6909 45.7783 35.3482 46.1424C35.0054 46.5063 34.7125 46.7747 34.6973 46.7389C34.6821 46.7031 34.3893 46.9716 34.0465 47.3355C33.7038 47.6995 33.4089 47.9633 33.3912 47.9215C33.3736 47.88 33.0791 48.1433 32.7368 48.5067C32.3945 48.8703 32.0871 49.1728 32.0537 49.1792C32.0202 49.1855 31.6117 49.524 31.1458 49.9315C30.68 50.339 30.1458 50.7927 29.9585 50.9398C29.7712 51.087 29.5578 51.2889 29.484 51.3884C29.4103 51.4881 29.1398 51.7399 28.8831 51.9479C28.6261 52.1561 28.0765 52.6217 27.6615 52.9828C27.2464 53.3437 26.7782 53.7479 26.6209 53.8806C26.4637 54.0135 25.9543 54.4551 25.4888 54.8622C25.0234 55.2692 24.4917 55.7266 24.307 55.8787C24.1223 56.0307 23.8221 56.2832 23.64 56.4396C22.3182 57.5748 19.6243 59.6844 18.5513 60.4243C17.6848 61.0218 16.2413 62.0862 15.6006 62.6C15.3357 62.8126 13.2167 64.1259 10.8917 65.5185C5.3816 68.8192 3.81217 69.4561 2.0309 69.1144C1.21837 68.9585 0.979405 68.6628 1.02099 67.8642C1.03488 67.5985 1.01927 66.7082 0.986079 65.8861C0.953099 65.064 0.932905 64.066 0.941474 63.6684C0.971579 62.2372 0.96782 61.5053 0.928582 61.1904C0.906551 61.0141 0.929393 60.6453 0.979458 60.3705C1.02932 60.0958 1.03256 59.6978 0.986717 59.4861C0.94087 59.2744 0.934405 58.5781 0.972507 57.9388C1.01061 57.2995 1.02513 56.5108 1.00494 56.186C0.984753 55.8612 0.999071 55.0727 1.03676 54.4336C1.07445 53.7946 1.08856 53.0062 1.06837 52.6814C1.02857 52.0472 1.03848 50.9119 1.09004 50.221C1.13808 49.5777 1.16138 47.9892 1.12954 47.5462C1.11394 47.3309 1.13514 46.8333 1.17666 46.4402C1.21818 46.0472 1.22739 45.5688 1.19711 45.3774C1.16698 45.1857 1.19477 44.714 1.25903 44.3289C1.32329 43.9439 1.3252 43.6584 1.26288 43.6948C1.20078 43.731 1.2145 43.3595 1.29372 42.869C1.37274 42.3787 1.3881 41.8612 1.32785 41.7191C1.26761 41.5769 1.28297 41.0594 1.36198 40.5691C1.44121 40.0786 1.45534 39.7069 1.39386 39.7428C1.33237 39.7786 1.34651 39.4069 1.42573 38.9164C1.50475 38.4261 1.53494 37.9436 1.49293 37.8445C1.45085 37.7452 1.48129 37.1043 1.56069 36.4199C1.63989 35.7357 1.79866 34.295 1.91345 33.2183C2.32037 29.4014 3.60471 23.0914 4.29286 21.5278C5.50322 18.7779 7.78252 14.3261 7.88104 14.5196C7.90778 14.5723 7.99592 14.4373 8.0766 14.2195C8.33096 13.5331 12.485 7.32086 12.9676 6.90528C13.0436 6.83974 13.4035 6.47012 13.7672 6.0841C14.1309 5.69779 14.5859 5.25808 14.7787 5.10673C14.9713 4.95521 15.1892 4.74984 15.263 4.65033C15.3367 4.55066 15.6078 4.30036 15.8652 4.09393C16.123 3.88755 16.5474 3.53786 16.8088 3.31691C17.7357 2.53288 20.8124 0.874891 21.4304 0.826432C21.5741 0.815082 21.9526 0.697568 22.2716 0.565179C23.201 0.179908 26.0871 -0.0328645 27.4727 0.181927C29.5282 0.500557 29.9191 0.831771 30.9559 3.13369C31.6484 4.67041 32.0796 6.24642 31.9709 6.84342C31.9313 7.06252 31.9515 7.3667 32.0163 7.51946C32.1699 7.88174 31.381 11.6028 30.848 13.0287C30.4568 14.0758 29.6534 15.9497 28.3575 18.8372C28.0471 19.529 27.8033 20.1185 27.8156 20.1476C27.8596 20.2513 29.0933 19.147 30.0617 18.1368C30.6033 17.5719 31.176 17.0042 31.3342 16.875C31.4925 16.7458 32.1766 16.1668 32.8543 15.588C33.5321 15.0094 34.4001 14.316 34.7832 14.0472C35.1662 13.7783 35.9238 13.2356 36.4666 12.8412C37.737 11.9178 42.3691 9.2187 43.5066 8.73901C46.1082 7.64155 46.9363 7.36556 48.2573 7.15516C50.1405 6.85524 51.0132 6.84 52.2585 7.08545C53.1939 7.26987 55.5435 8.37186 55.3017 8.51286C55.2443 8.5463 55.3842 8.71727 55.6126 8.8925C56.0595 9.2353 57.1221 11.2295 56.9962 11.4891ZM56.505 17.503C56.132 19.1942 54.1332 23.1212 52.3553 25.656C50.7558 27.9361 48.2704 30.9428 46.3436 32.9283C45.8651 33.4216 45.294 34.0783 45.0746 34.3875C44.8551 34.6968 44.6561 34.9035 44.632 34.8465C44.6079 34.7898 44.2014 35.2012 43.7287 35.7612C43.256 36.3212 42.8513 36.7371 42.8294 36.6854C42.8076 36.6339 42.6312 36.8269 42.4374 37.1145C41.994 37.7729 41.7721 37.9067 41.7915 37.504C41.7999 37.3314 41.8829 37.1843 41.9761 37.177C42.0693 37.1696 42.5105 36.7315 42.9563 36.2032C43.4022 35.675 43.7801 35.2733 43.7959 35.3106C43.8428 35.4212 49.0755 29.2062 49.0911 29.0214C49.0992 28.9284 49.2133 28.7864 49.3447 28.7059C49.6529 28.5175 51.817 25.3614 52.7212 23.7822C53.1048 23.112 54.0825 21.2356 54.8935 19.6129C55.7047 17.99 56.4472 16.6161 56.5436 16.5599C56.7544 16.437 56.7576 16.3568 56.505 17.503ZM55.1192 13.5148C55.1051 13.9157 54.9258 14.6485 54.7208 15.1431C54.0209 16.8323 52.1584 20.6453 51.3554 22.0329C50.9146 22.7948 50.4413 23.6368 50.3041 23.9039C50.1666 24.1709 49.9846 24.3786 49.8995 24.3656C49.8144 24.3524 49.7372 24.4968 49.7282 24.6864C49.7191 24.8761 49.5896 25.1024 49.4403 25.1894C49.2912 25.2764 49.1617 25.4209 49.1521 25.5104C49.127 25.7515 47.2668 28.2035 45.5675 30.2355C44.2896 31.7635 39.0838 37.3182 38.5106 37.7654C38.4039 37.8487 38.1574 38.1156 37.9628 38.3584C37.7681 38.6015 37.4002 38.9669 37.1451 39.1704C36.8898 39.3741 35.8497 40.3893 34.8339 41.4265C33.818 42.4636 32.9596 43.2483 32.9264 43.17C32.8932 43.0916 33.019 42.8402 33.2059 42.6111C33.3928 42.3819 33.56 42.2283 33.5776 42.2697C33.595 42.3109 34.1592 41.6549 34.8316 40.8119C35.5039 39.9687 36.1403 39.209 36.2461 39.1235C36.3518 39.0379 36.7473 38.6003 37.1248 38.1509C39.9082 34.8385 41.5525 32.8175 41.9454 32.2266C42.198 31.8466 42.4847 31.4891 42.5826 31.432C42.6803 31.375 43.1298 30.7963 43.5815 30.146C44.0332 29.4957 44.4791 28.9755 44.5728 28.9901C44.6662 29.0045 44.7064 28.9305 44.6619 28.8257C44.6174 28.7207 44.6783 28.5781 44.7974 28.5087C44.9164 28.4393 45.5514 27.6072 46.2084 26.6599C46.8654 25.7124 47.4256 24.9902 47.4531 25.0551C47.4806 25.1201 47.5719 24.9932 47.6563 24.7732C47.7405 24.5532 48.1999 23.7866 48.677 23.0695C49.5973 21.6863 50.2006 20.6212 51.0176 18.9366C52.6616 15.5473 52.9423 13.7223 52.1918 11.2951C52.103 11.0077 52.524 10.9813 52.9756 11.2461C53.2394 11.4007 53.7534 11.6747 54.1177 11.855C54.9514 12.2672 55.1516 12.599 55.1192 13.5148ZM53.592 9.72659C53.5349 9.94879 53.4725 10.0019 53.4165 9.87604C53.3395 9.70227 52.136 9.47919 49.5124 9.15181C48.3785 9.01028 48.3882 8.86431 49.5534 8.53775C51.1446 8.09156 53.8106 8.87646 53.592 9.72659ZM50.389 12.4993C50.4295 12.8123 50.4072 13.3944 50.3394 13.793C50.2716 14.1917 50.2645 14.6317 50.3236 14.7711C50.3827 14.9106 50.3403 15.0775 50.2294 15.1422C50.1184 15.2069 49.9739 15.5896 49.9079 15.9926C49.7908 16.7097 47.6607 21.2675 47.551 21.0355C47.5205 20.9709 47.3998 21.1661 47.283 21.4692C47.0592 22.0499 43.5093 27.3246 43.4448 27.1723C43.4241 27.1236 42.9018 27.7896 42.2841 28.6524C41.6663 29.5152 41.1028 30.255 41.032 30.2963C40.961 30.3377 40.504 30.9243 40.0161 31.6002C39.5282 32.2759 39.1118 32.7878 39.0906 32.7377C39.0695 32.6878 38.8568 32.9402 38.6183 33.2985C38.3797 33.6567 37.9075 34.2563 37.5693 34.6309C37.231 35.0054 36.4797 35.9059 35.8999 36.6317C35.32 37.3578 34.833 37.9217 34.8173 37.8847C34.8017 37.8479 34.3022 38.4176 33.7074 39.1508C33.1127 39.8839 32.5485 40.4717 32.4537 40.457C32.3589 40.4423 32.318 40.5162 32.3624 40.6211C32.4069 40.7261 32.3578 40.8618 32.2535 40.9226C32.1491 40.9835 31.681 41.4555 31.2133 41.9714C30.7458 42.4874 30.3193 42.9432 30.2658 42.9845C30.2123 43.0257 29.8649 43.4063 29.4941 43.83C29.1232 44.2537 28.721 44.6755 28.6003 44.7672C28.4797 44.859 28.2253 45.1287 28.0349 45.3666C27.6873 45.8008 24.5238 49.048 23.9959 49.5125C23.8408 49.6491 22.8898 50.5579 21.8828 51.5323C20.1256 53.2321 19.2203 54.041 18.9802 54.1263C18.9185 54.1483 18.7078 54.3627 18.5121 54.6025C18.3161 54.8426 17.9477 55.207 17.6933 55.412C17.4387 55.6174 16.6754 56.2573 15.997 56.8344C14.0694 58.474 14.2686 58.3134 11.4743 60.4794C11.1537 60.728 10.2371 61.4438 9.43752 62.0702C8.63788 62.6964 7.64132 63.4611 7.22288 63.7695C6.80465 64.0778 6.41192 64.3982 6.3505 64.4812C6.28895 64.5644 6.09657 64.6435 5.92288 64.6571C5.67798 64.6763 5.63327 64.4423 5.72303 63.6142C5.78676 63.0269 5.89169 62.0568 5.9559 61.4584C6.02011 60.86 6.06632 60.1509 6.05852 59.8827C6.05071 59.6146 6.12301 59.0676 6.21902 58.6673C6.31503 58.267 6.34029 57.8124 6.27499 57.6571C6.20968 57.5018 6.19931 56.9572 6.25198 56.4467C6.49061 54.1278 6.56835 53.169 6.52585 53.0688C6.50062 53.0092 6.53136 52.433 6.59432 51.7884C6.84697 49.1999 6.88394 48.6718 6.82022 48.5611C6.78372 48.4975 6.83328 47.9438 6.93048 47.3306C7.02747 46.7176 7.06002 46.1055 7.00276 45.9704C6.94543 45.8351 6.97376 45.3537 7.06575 44.9007C7.15774 44.4476 7.18795 43.9707 7.1329 43.8408C7.07793 43.7111 7.07587 43.1872 7.12854 42.6768C7.18101 42.1664 7.25428 41.2721 7.29137 40.6895C7.32845 40.1069 7.38775 39.2423 7.42307 38.7683C7.45867 38.2943 7.46113 37.7829 7.42864 37.6319C7.32636 37.1561 7.68449 34.0348 7.8526 33.9368C7.94079 33.8854 8.19713 33.0934 8.42212 32.1769C8.64691 31.2605 8.89311 30.4744 8.96888 30.4302C9.04466 30.386 9.24952 29.8076 9.42428 29.1447C9.59904 28.4819 9.80197 27.9044 9.8754 27.8614C9.94883 27.8183 10.1335 27.2976 10.2855 26.7043C10.4376 26.111 10.6375 25.5816 10.7298 25.5277C10.8219 25.474 10.9795 25.1172 11.0799 24.7347C11.5712 22.8625 14.6234 16.3179 16.4022 13.3223C18.9047 9.10785 21.989 5.25102 24.3497 3.38348C24.7106 3.09803 25.1593 3.33002 26.1216 4.29995C27.4247 5.61318 27.9397 7.63829 27.7886 10.8577C27.7166 12.3981 26.8851 16.3223 26.3771 17.5213C25.3248 20.0044 22.9236 24.9563 22.7446 25.0127C22.397 25.1222 20.6351 26.9626 20.3445 27.5197C19.8505 28.4668 20.5356 29.1931 21.4304 28.6713C21.644 28.5467 22.192 28.5026 22.648 28.5732C23.8463 28.759 23.5026 29.052 27.6453 24.3143C28.4104 23.4392 29.0806 22.6904 29.1346 22.6503C29.1886 22.6102 29.4207 22.342 29.6504 22.0542C30.0157 21.5966 30.3352 21.2991 31.6921 20.1534C31.8493 20.0205 32.3181 19.6189 32.7338 19.2608C35.521 16.8594 41.0556 13.4608 44.5131 12.0274C45.8142 11.4878 47.7961 10.8853 48.652 10.769C49.5157 10.6516 50.2436 11.3764 50.389 12.4993ZM28.8353 4.15933C28.949 4.68703 28.7465 5.26323 28.5692 4.91622C28.5052 4.79077 28.3716 4.59799 28.2722 4.48768C28.1728 4.37737 27.9437 4.1044 27.763 3.88095C27.5826 3.65753 27.3624 3.44201 27.2737 3.40214C27.1853 3.36214 26.9928 3.19248 26.8464 3.02508C26.6998 2.85764 26.4606 2.58386 26.3147 2.41638C26.0174 2.07552 26.2835 1.82551 26.7995 1.96096C27.4361 2.12826 28.6893 3.48159 28.8353 4.15933ZM20.7292 4.19037C20.225 4.75936 19.776 5.3412 19.7318 5.48303C19.6876 5.62487 19.6252 5.68288 19.5929 5.61217C19.5608 5.54133 19.2209 5.94249 18.8377 6.50334C18.4545 7.06436 18.066 7.51162 17.9742 7.4974C17.8825 7.48317 17.7999 7.62639 17.7909 7.81524C17.7817 8.00438 17.6727 8.16704 17.5488 8.1767C17.4248 8.18637 17.3163 8.34145 17.3076 8.52134C17.2989 8.70122 17.203 8.85522 17.0943 8.86374C16.9856 8.87226 16.8901 9.02035 16.8817 9.19294C16.8734 9.36541 16.7316 9.58517 16.5668 9.68127C16.4018 9.77748 16.2596 9.92995 16.2504 10.0202C16.2414 10.1105 15.9229 10.6838 15.5426 11.2943C13.8763 13.97 10.1612 21.7009 9.52129 23.8248C9.21268 24.8486 8.43021 26.3944 8.45105 25.9386C8.54464 23.8872 8.66877 22.9989 9.26166 20.1373C9.98954 16.6232 10.2571 15.8028 11.5569 13.097C13.4155 9.22792 16.1947 6.07257 19.6412 3.91871C20.8125 3.18678 21.5254 2.87064 21.6013 3.04973C21.626 3.10796 21.2334 3.62121 20.7292 4.19037ZM6.57939 21.2889C6.4949 21.7706 6.44786 22.3053 6.47507 22.4773C6.502 22.6493 6.44271 23.4773 6.34316 24.3177C5.89202 28.1253 5.63479 30.6562 5.49513 32.6597C5.4504 33.3028 5.38668 34.1661 5.35389 34.5779C5.27014 35.6267 4.40737 39.4134 4.22849 39.5177C4.14734 39.5651 3.86603 40.515 3.6037 41.6285C3.34116 42.7422 3.07953 43.646 3.02205 43.6371C2.89963 43.6181 2.87873 42.6575 2.96808 41.1706C3.12483 38.5617 3.1726 37.9208 3.29617 36.7614C3.3686 36.0819 3.38993 35.4932 3.3438 35.4526C3.29774 35.4121 3.38426 34.5978 3.53626 33.643C3.68819 32.6881 3.86545 31.4172 3.92986 30.8187C4.12338 29.0232 5.42261 23.3197 5.83837 22.4396C6.05152 21.9885 6.27669 21.3161 6.33855 20.9455C6.44627 20.2999 6.5993 20.0128 6.69034 20.2848C6.7138 20.3554 6.66408 20.8071 6.57939 21.2889ZM4.9934 46.823C4.7425 48.9863 4.69819 49.6706 4.79434 49.8974C4.84959 50.0278 4.811 50.4837 4.70854 50.9108C4.60608 51.338 4.5756 51.8143 4.6409 51.9696C4.70621 52.1249 4.71658 52.6696 4.66391 53.1801C4.42528 55.4989 4.34754 56.4577 4.39004 56.558C4.43254 56.6582 4.3548 57.617 4.11616 59.9359C4.06349 60.4463 4.06541 60.9699 4.12032 61.0994C4.17515 61.2288 4.19211 61.6526 4.15811 62.0408C3.93882 64.5387 3.94426 64.9341 4.20742 65.6396C4.37818 66.0973 4.71737 66.3926 5.04321 66.367C5.22008 66.353 5.29858 66.4206 5.21792 66.5172C5.08299 66.6783 4.9309 66.766 4.15813 67.1272C3.84484 67.2738 3.35272 65.8618 3.32216 64.728C3.31168 64.3414 3.26303 63.7911 3.21382 63.505C3.16482 63.2189 3.13484 62.5938 3.14757 62.1158C3.16029 61.6378 3.14899 61.0757 3.12242 60.8668C3.09585 60.6579 3.10121 60.104 3.13419 59.636C3.16738 59.1679 3.2253 58.308 3.26301 57.7251C3.30071 57.1422 3.39098 56.1094 3.46328 55.4302C3.53572 54.7507 3.55849 54.1618 3.51388 54.1211C3.46926 54.0804 3.56001 53.3162 3.71528 52.4228C3.87062 51.5296 3.97542 50.695 3.94808 50.5683C3.87628 50.2332 4.68243 46.0162 4.86585 45.7685C5.09158 45.4635 5.12181 45.7145 4.9934 46.823Z" fill="#FDCBD1"/>
</svg>
